<?xml version="1.0" encoding="utf-8"?>
<!-- Generator: Adobe Illustrator 16.0.0, SVG Export Plug-In . SVG Version: 6.00 Build 0)  -->
<!DOCTYPE svg PUBLIC "-//W3C//DTD SVG 1.1//EN" "http://www.w3.org/Graphics/SVG/1.1/DTD/svg11.dtd">
<svg version="1.1" id="Layer_1" xmlns="http://www.w3.org/2000/svg" xmlns:xlink="http://www.w3.org/1999/xlink" x="0px" y="0px"
	 width="126px" height="126px" viewBox="0 0 126 126" enable-background="new 0 0 126 126" xml:space="preserve">
<path d="M91.564,59.41c-1.293,0-2.168,0.127-2.627,0.252v8.299c0.543,0.125,1.209,0.166,2.127,0.166
	c3.375,0,5.461-1.709,5.461-4.588C96.525,60.955,94.734,59.41,91.564,59.41z"/>
<path d="M103.207,48.521h-2.449V36.703c0-0.074-0.012-0.148-0.021-0.223c-0.004-0.469-0.154-0.93-0.475-1.295L80.596,12.721
	c-0.006-0.006-0.012-0.008-0.016-0.014c-0.117-0.131-0.254-0.24-0.398-0.334c-0.043-0.029-0.086-0.053-0.131-0.078
	c-0.125-0.068-0.258-0.125-0.395-0.166c-0.037-0.01-0.07-0.025-0.107-0.035c-0.148-0.035-0.303-0.057-0.459-0.057H30.758
	c-2.207,0-4,1.795-4,4v32.484h-2.449c-3.157,0-5.717,2.559-5.717,5.717v29.73c0,3.156,2.56,5.717,5.717,5.717h2.449v20.352
	c0,2.205,1.793,4,4,4h66c2.205,0,4-1.795,4-4V89.686h2.449c3.157,0,5.717-2.561,5.717-5.717v-29.73
	C108.924,51.08,106.364,48.521,103.207,48.521z M30.758,16.037H77.09v20.465c0,1.105,0.896,2,2,2h17.668v10.02h-66V16.037z
	 M68.424,78.092c1.461,0,2.629-0.166,3.129-0.416v-5.879h-4.336v-4.963h10.465v14.803c-1.959,0.666-5.67,1.586-9.379,1.586
	c-5.133,0-8.842-1.295-11.428-3.797c-2.586-2.418-4.002-6.088-3.961-10.215c0.043-9.34,6.84-14.678,16.055-14.678
	c3.627,0,6.418,0.709,7.797,1.375l-1.334,5.088c-1.545-0.666-3.461-1.209-6.549-1.209c-5.293,0-9.297,3.002-9.297,9.09
	C59.586,74.674,63.215,78.092,68.424,78.092z M29.9,81.469l1.291-4.752c1.125,0.584,3.713,1.668,6.297,1.668
	c3.295,0,4.961-1.584,4.961-3.627c0-2.67-2.666-3.881-5.463-3.881h-2.582v-4.543h2.459c2.127-0.043,4.836-0.834,4.836-3.127
	c0-1.627-1.334-2.836-4.004-2.836c-2.209,0-4.543,0.959-5.67,1.625l-1.293-4.586c1.627-1.043,4.879-2.043,8.383-2.043
	c5.797,0,9.006,3.043,9.006,6.754c0,2.877-1.625,5.129-4.963,6.297v0.084c3.254,0.584,5.881,3.045,5.881,6.588
	c0,4.797-4.211,8.299-11.09,8.299C34.445,83.389,31.482,82.471,29.9,81.469z M96.758,108.953h-66V89.686h66V108.953z
	 M100.238,70.045c-2.17,2.043-5.379,2.961-9.133,2.961c-0.834,0-1.584-0.043-2.168-0.125V82.93h-6.295v-27.73
	c1.959-0.332,4.709-0.582,8.588-0.582c3.92,0,6.713,0.75,8.592,2.252c1.791,1.416,3,3.752,3,6.504S101.906,68.461,100.238,70.045z"
	/>
</svg>
