<?xml version="1.0" encoding="utf-8"?>
<!-- Generator: Adobe Illustrator 16.0.0, SVG Export Plug-In . SVG Version: 6.00 Build 0)  -->
<!DOCTYPE svg PUBLIC "-//W3C//DTD SVG 1.1//EN" "http://www.w3.org/Graphics/SVG/1.1/DTD/svg11.dtd">
<svg version="1.1" id="Layer_1" xmlns="http://www.w3.org/2000/svg" xmlns:xlink="http://www.w3.org/1999/xlink" x="0px" y="0px"
	 width="126px" height="126px" viewBox="0 0 126 126" enable-background="new 0 0 126 126" xml:space="preserve">
<path d="M42.457,64.53c-0.485-1.621-0.971-3.645-1.378-5.264h-0.081c-0.404,1.619-0.808,3.684-1.255,5.264l-1.618,5.789h6.032
	L42.457,64.53z"/>
<path d="M103.207,49.021h-2.449V37.203c0-0.074-0.012-0.148-0.021-0.223c-0.004-0.469-0.154-0.93-0.475-1.295L80.596,13.22
	c-0.006-0.006-0.012-0.008-0.016-0.014c-0.117-0.131-0.254-0.24-0.398-0.334c-0.043-0.029-0.086-0.053-0.131-0.078
	c-0.125-0.068-0.258-0.125-0.395-0.166c-0.037-0.01-0.07-0.025-0.107-0.035c-0.148-0.035-0.303-0.057-0.459-0.057H30.758
	c-2.207,0-4,1.795-4,4v32.484h-2.449c-3.157,0-5.717,2.559-5.717,5.717v29.73c0,3.156,2.56,5.717,5.717,5.717h2.449v20.352
	c0,2.205,1.793,4,4,4h66c2.205,0,4-1.795,4-4V90.185h2.449c3.157,0,5.717-2.561,5.717-5.717v-29.73
	C108.924,51.58,106.364,49.021,103.207,49.021z M30.758,16.537H77.09v20.465c0,1.105,0.896,2,2,2h17.668v10.02h-66V16.537z
	 M80.363,81.942h-6.639l-2.106-7.006h-7.816l-1.943,7.006h-6.4l8.344-27.291h8.101L80.363,81.942z M28.892,81.942l8.341-27.291
	h8.099l8.466,27.291h-6.644l-2.104-7.006h-7.817l-1.942,7.006H28.892z M96.758,109.453h-66V90.185h66V109.453z M102.113,60.319
	c-1.255-0.525-2.995-1.012-5.181-1.012c-4.9,0-8.709,2.955-8.709,9.029c0,5.467,3.241,8.908,8.749,8.908
	c1.861,0,3.927-0.404,5.141-0.891l0.931,4.818c-1.132,0.568-3.684,1.176-7.004,1.176c-9.435,0-14.297-5.871-14.297-13.646
	c0-9.314,6.644-14.498,14.905-14.498c3.198,0,5.629,0.648,6.723,1.217L102.113,60.319z"/>
<path d="M69.026,64.53c-0.485-1.621-0.972-3.645-1.378-5.264h-0.081c-0.404,1.619-0.809,3.684-1.256,5.264l-1.618,5.789h6.033
	L69.026,64.53z"/>
</svg>
