<?xml version="1.0" encoding="utf-8"?>
<!-- Generator: Adobe Illustrator 16.0.0, SVG Export Plug-In . SVG Version: 6.00 Build 0)  -->
<!DOCTYPE svg PUBLIC "-//W3C//DTD SVG 1.1//EN" "http://www.w3.org/Graphics/SVG/1.1/DTD/svg11.dtd">
<svg version="1.1" id="Layer_1" xmlns="http://www.w3.org/2000/svg" xmlns:xlink="http://www.w3.org/1999/xlink" x="0px" y="0px"
	 width="126px" height="126px" viewBox="0 0 126 126" enable-background="new 0 0 126 126" xml:space="preserve">
<path d="M102.495,48.944h-2.449V37.126c0-0.074-0.012-0.148-0.021-0.223c-0.004-0.469-0.154-0.93-0.475-1.295L79.883,13.144
	c-0.006-0.006-0.012-0.008-0.016-0.014c-0.117-0.131-0.254-0.24-0.398-0.334c-0.043-0.029-0.086-0.053-0.131-0.078
	c-0.125-0.068-0.258-0.125-0.395-0.166c-0.037-0.01-0.07-0.025-0.107-0.035c-0.148-0.035-0.303-0.057-0.459-0.057H30.045
	c-2.207,0-4,1.795-4,4v32.484h-2.449c-3.157,0-5.717,2.559-5.717,5.717v29.73c0,3.156,2.56,5.717,5.717,5.717h2.449v20.352
	c0,2.205,1.793,4,4,4h66c2.205,0,4-1.795,4-4V90.108h2.449c3.157,0,5.717-2.561,5.717-5.717v-29.73
	C108.211,51.503,105.652,48.944,102.495,48.944z M96.045,109.376h-66V90.108h66V109.376z M41.589,83.637l9.336-30.551h9.064
	l9.474,30.551h-7.432l-2.359-7.842h-8.747l-2.176,7.842H41.589z M73.541,83.637V53.086h6.937v30.551H73.541z M96.045,48.944h-66
	V16.46h46.332v20.465c0,1.105,0.896,2,2,2h17.668V48.944z"/>
<path d="M56.772,64.146c-0.543-1.813-1.087-4.08-1.541-5.893H55.14c-0.452,1.813-0.906,4.125-1.404,5.893l-1.813,6.482h6.754
	L56.772,64.146z"/>
</svg>
