<?xml version="1.0" encoding="utf-8"?>
<!-- Generator: Adobe Illustrator 16.0.0, SVG Export Plug-In . SVG Version: 6.00 Build 0)  -->
<!DOCTYPE svg PUBLIC "-//W3C//DTD SVG 1.1//EN" "http://www.w3.org/Graphics/SVG/1.1/DTD/svg11.dtd">
<svg version="1.1" id="Layer_1" xmlns="http://www.w3.org/2000/svg" xmlns:xlink="http://www.w3.org/1999/xlink" x="0px" y="0px"
	 width="126px" height="126px" viewBox="0 0 126 126" enable-background="new 0 0 126 126" xml:space="preserve">
<path d="M103.457,48.541h-2.449V36.723c0-0.074-0.012-0.148-0.021-0.223c-0.004-0.469-0.154-0.93-0.475-1.295L80.846,12.74
	c-0.006-0.006-0.012-0.008-0.016-0.014c-0.117-0.131-0.254-0.24-0.398-0.334c-0.043-0.029-0.086-0.053-0.131-0.078
	c-0.125-0.068-0.258-0.125-0.395-0.166c-0.037-0.01-0.07-0.025-0.107-0.035c-0.148-0.035-0.303-0.057-0.459-0.057H31.008
	c-2.207,0-4,1.795-4,4v32.484h-2.449c-3.157,0-5.717,2.559-5.717,5.717v29.73c0,3.156,2.56,5.717,5.717,5.717h2.449v20.352
	c0,2.205,1.793,4,4,4h66c2.205,0,4-1.795,4-4V89.705h2.449c3.157,0,5.717-2.561,5.717-5.717v-29.73
	C109.174,51.1,106.614,48.541,103.457,48.541z M29.002,85.019l9.934-32.5h9.644l10.078,32.5h-7.908l-2.507-8.342h-9.306
	l-2.315,8.342H29.002z M97.008,108.973h-66V89.705h66V108.973z M62.993,85.019v-32.5h7.378v32.5H62.993z M95.781,65.972v5.979
	H84.111v13.068h-7.378v-32.5h19.867v6.027H84.111v7.426H95.781z M97.008,48.541h-66V16.057H77.34v20.465c0,1.105,0.896,2,2,2h17.668
	V48.541z"/>
<path d="M45.156,64.284c-0.579-1.93-1.157-4.34-1.64-6.27h-0.097c-0.482,1.93-0.964,4.389-1.495,6.27l-1.929,6.896h7.185
	L45.156,64.284z"/>
</svg>
