<?xml version="1.0" encoding="utf-8"?>
<!-- Generator: Adobe Illustrator 16.0.0, SVG Export Plug-In . SVG Version: 6.00 Build 0)  -->
<!DOCTYPE svg PUBLIC "-//W3C//DTD SVG 1.1//EN" "http://www.w3.org/Graphics/SVG/1.1/DTD/svg11.dtd">
<svg version="1.1" id="Layer_1" xmlns="http://www.w3.org/2000/svg" xmlns:xlink="http://www.w3.org/1999/xlink" x="0px" y="0px"
	 width="126px" height="126px" viewBox="0 0 126 126" enable-background="new 0 0 126 126" xml:space="preserve">
<path d="M38.217,64.851c-0.51-1.7-1.02-3.825-1.445-5.525h-0.084c-0.426,1.7-0.852,3.869-1.318,5.525l-1.7,6.079h6.331
	L38.217,64.851z"/>
<path d="M63.041,59.156c-1.318,0-2.21,0.127-2.679,0.255v8.457c0.553,0.128,1.233,0.171,2.169,0.171
	c3.443,0,5.566-1.743,5.566-4.677C68.097,60.728,66.27,59.156,63.041,59.156z"/>
<path d="M103.457,49.041h-2.449V37.222c0-0.074-0.012-0.148-0.021-0.223c-0.004-0.469-0.154-0.93-0.475-1.295L80.846,13.24
	c-0.006-0.006-0.012-0.008-0.016-0.014c-0.117-0.131-0.254-0.24-0.398-0.334c-0.043-0.029-0.086-0.053-0.131-0.078
	c-0.125-0.068-0.258-0.125-0.395-0.166c-0.037-0.01-0.07-0.025-0.107-0.035c-0.148-0.035-0.303-0.057-0.459-0.057H31.008
	c-2.207,0-4,1.795-4,4v32.484h-2.449c-3.157,0-5.717,2.559-5.717,5.717v29.73c0,3.156,2.56,5.717,5.717,5.717h2.449v20.352
	c0,2.205,1.793,4,4,4h66c2.205,0,4-1.795,4-4V90.205h2.449c3.157,0,5.717-2.561,5.717-5.717v-29.73
	C109.174,51.599,106.614,49.041,103.457,49.041z M31.008,16.556H77.34v20.465c0,1.105,0.896,2,2,2h17.668v10.02h-66V16.556z
	 M74.515,63.194c0,2.804-0.935,5.184-2.633,6.8c-2.212,2.082-5.484,3.018-9.31,3.018c-0.849,0-1.613-0.043-2.209-0.128v10.242
	h-6.417V54.863c1.998-0.339,4.804-0.594,8.754-0.594c3.997,0,6.843,0.764,8.757,2.293C73.284,58.008,74.515,60.388,74.515,63.194z
	 M30.696,83.126h-6.715l8.754-28.646h8.5l8.882,28.646h-6.971l-2.209-7.352h-8.202L30.696,83.126z M97.008,109.472h-66V90.205h66
	V109.472z M94.537,83.126l-7.014-12.367l-2.465,3.018v9.35h-6.417V54.48h6.417v12.665h0.127c0.637-1.104,1.318-2.124,1.955-3.145
	l6.504-9.521h7.947l-9.479,12.198l9.988,16.448H94.537z"/>
</svg>
