<?xml version="1.0" encoding="utf-8"?>
<!-- Generator: Adobe Illustrator 16.0.0, SVG Export Plug-In . SVG Version: 6.00 Build 0)  -->
<!DOCTYPE svg PUBLIC "-//W3C//DTD SVG 1.1//EN" "http://www.w3.org/Graphics/SVG/1.1/DTD/svg11.dtd">
<svg version="1.1" id="Layer_1" xmlns="http://www.w3.org/2000/svg" xmlns:xlink="http://www.w3.org/1999/xlink" x="0px" y="0px"
	 width="126px" height="126px" viewBox="0 0 126 126" enable-background="new 0 0 126 126" xml:space="preserve">
<path d="M44.577,64.881c-0.531-1.772-1.063-3.989-1.508-5.761H42.98c-0.442,1.772-0.885,4.032-1.373,5.761l-1.771,6.337h6.602
	L44.577,64.881z"/>
<path d="M102.328,48.928h-2.449V37.11c0-0.074-0.012-0.148-0.021-0.223c-0.004-0.469-0.154-0.93-0.475-1.295L79.717,13.127
	c-0.006-0.006-0.012-0.008-0.016-0.014c-0.117-0.131-0.254-0.24-0.398-0.334c-0.043-0.029-0.086-0.053-0.131-0.078
	c-0.125-0.068-0.258-0.125-0.395-0.166c-0.037-0.01-0.07-0.025-0.107-0.035c-0.148-0.035-0.303-0.057-0.459-0.057H29.879
	c-2.207,0-4,1.795-4,4v32.484H23.43c-3.157,0-5.717,2.559-5.717,5.717v29.73c0,3.156,2.56,5.717,5.717,5.717h2.449v20.352
	c0,2.205,1.793,4,4,4h66c2.205,0,4-1.795,4-4V90.092h2.449c3.157,0,5.717-2.561,5.717-5.717v-29.73
	C108.045,51.487,105.485,48.928,102.328,48.928z M29.732,83.937l9.127-29.868h8.862l9.263,29.868h-7.267l-2.306-7.667h-8.553
	l-2.126,7.667H29.732z M55.834,54.069h7.401l3.633,12.629c1.02,3.545,1.95,6.958,2.659,10.68h0.135
	c0.753-3.59,1.684-7.134,2.703-10.546l3.811-12.763h7.178L73.296,83.937h-7.89L55.834,54.069z M95.879,109.36h-66V90.092h66V109.36z
	 M86.546,83.937V54.069h6.781v29.868H86.546z M95.879,48.928h-66V16.444h46.332v20.465c0,1.105,0.896,2,2,2h17.668V48.928z"/>
</svg>
