<?xml version="1.0" encoding="utf-8"?>
<!-- Generator: Adobe Illustrator 16.0.0, SVG Export Plug-In . SVG Version: 6.00 Build 0)  -->
<!DOCTYPE svg PUBLIC "-//W3C//DTD SVG 1.1//EN" "http://www.w3.org/Graphics/SVG/1.1/DTD/svg11.dtd">
<svg version="1.1" id="Layer_1" xmlns="http://www.w3.org/2000/svg" xmlns:xlink="http://www.w3.org/1999/xlink" x="0px" y="0px"
	 width="126px" height="126px" viewBox="0 0 126 126" enable-background="new 0 0 126 126" xml:space="preserve">
<g>
	<path d="M39.65,61.153c0-2.311-1.768-3.535-4.896-3.535c-1.496,0-2.355,0.09-2.945,0.18v7.117h2.268
		C37.701,64.915,39.65,63.421,39.65,61.153z"/>
	<path d="M40.375,74.161c0-3.082-2.764-4.307-6.209-4.307h-2.357v8.613c0.68,0.09,1.496,0.09,2.674,0.09
		C37.611,78.558,40.375,77.38,40.375,74.161z"/>
	<path d="M65.123,63.874c-0.545-1.814-1.088-4.082-1.543-5.895h-0.09c-0.453,1.813-0.906,4.125-1.404,5.895l-1.814,6.48h6.756
		L65.123,63.874z"/>
	<path d="M102.494,48.944h-2.449V37.126c0-0.074-0.012-0.148-0.021-0.223c-0.004-0.469-0.154-0.93-0.475-1.295L79.883,13.144
		c-0.006-0.006-0.012-0.008-0.016-0.014c-0.117-0.131-0.254-0.24-0.398-0.334c-0.043-0.029-0.086-0.053-0.131-0.078
		c-0.125-0.068-0.258-0.125-0.395-0.166c-0.037-0.01-0.07-0.025-0.107-0.035c-0.148-0.035-0.303-0.057-0.459-0.057H30.045
		c-2.207,0-4,1.795-4,4v32.484h-2.449c-3.156,0-5.717,2.559-5.717,5.717v29.73c0,3.156,2.561,5.717,5.717,5.717h2.449v20.352
		c0,2.205,1.793,4,4,4h66c2.205,0,4-1.795,4-4V90.108h2.449c3.158,0,5.717-2.561,5.717-5.717v-29.73
		C108.211,51.503,105.652,48.944,102.494,48.944z M30.045,16.46h46.332v20.465c0,1.105,0.896,2,2,2h17.668v10.02h-66V16.46z
		 M68.34,52.813l9.473,30.551h-7.432l-2.359-7.842h-8.746l-2.178,7.842h-7.16l9.338-30.551H68.34z M24.963,83.228V53.22
		c1.816-0.361,5.484-0.633,8.93-0.633c4.215,0,6.801,0.408,9.021,1.721c2.131,1.135,3.672,3.219,3.672,5.984
		c0,2.719-1.586,5.258-5.031,6.527v0.09c3.49,0.953,6.072,3.58,6.072,7.523c0,2.766-1.27,4.941-3.17,6.482
		c-2.223,1.768-5.939,2.766-12.014,2.766C29.043,83.681,26.504,83.454,24.963,83.228z M96.045,109.376h-66V90.108h66V109.376z
		 M99.299,58.614h-8.342v24.75h-6.934v-24.75H75.82v-5.801h23.479V58.614z"/>
</g>
</svg>
