<?xml version="1.0" encoding="utf-8"?>
<!-- Generator: Adobe Illustrator 16.0.0, SVG Export Plug-In . SVG Version: 6.00 Build 0)  -->
<!DOCTYPE svg PUBLIC "-//W3C//DTD SVG 1.1//EN" "http://www.w3.org/Graphics/SVG/1.1/DTD/svg11.dtd">
<svg version="1.1" id="Layer_1" xmlns="http://www.w3.org/2000/svg" xmlns:xlink="http://www.w3.org/1999/xlink" x="0px" y="0px"
	 width="126px" height="126px" viewBox="0 0 126 126" enable-background="new 0 0 126 126" xml:space="preserve">
<path d="M46.688,54.747c0-2.129-1.625-3.254-4.504-3.254c-1.375,0-2.168,0.084-2.709,0.166v6.547h2.084
	C44.896,58.206,46.688,56.831,46.688,54.747z"/>
<path d="M102.366,41.598h-2.449V29.779c0-0.074-0.012-0.148-0.021-0.223c-0.004-0.469-0.154-0.93-0.475-1.295L79.754,5.797
	c-0.006-0.006-0.012-0.008-0.016-0.014c-0.117-0.131-0.254-0.24-0.398-0.334c-0.043-0.029-0.086-0.053-0.131-0.078
	c-0.125-0.068-0.258-0.125-0.395-0.166c-0.037-0.01-0.07-0.025-0.107-0.035c-0.148-0.035-0.303-0.057-0.459-0.057H29.917
	c-2.207,0-4,1.795-4,4v32.484h-2.449c-3.157,0-5.717,2.559-5.717,5.717v29.73c0,3.156,2.56,5.717,5.717,5.717h2.449v20.352
	c0,2.205,1.793,4,4,4h66c2.205,0,4-1.795,4-4V82.762h2.449c3.157,0,5.717-2.561,5.717-5.717v-29.73
	C108.083,44.156,105.523,41.598,102.366,41.598z M95.917,102.029h-66V82.762h66V102.029z M54.029,66.966
	c0,2.543-1.169,4.545-2.919,5.963c-2.044,1.625-5.463,2.543-11.051,2.543c-3.128,0-5.463-0.209-6.882-0.418V47.448
	c1.669-0.334,5.046-0.584,8.216-0.584c3.879,0,6.254,0.375,8.298,1.584c1.96,1.045,3.379,2.961,3.379,5.504
	c0,2.504-1.46,4.838-4.629,6.008v0.08C51.651,60.919,54.029,63.337,54.029,66.966z M58.369,75.179V47.073h6.38v28.105H58.369z
	 M87.687,55.288v-8.215h5.838v28.105h-6.672l-6.004-10.842c-1.669-3.002-3.504-6.631-4.88-9.924l-0.125,0.039
	c0.167,3.713,0.25,7.676,0.25,12.262v8.465h-5.838V47.073h7.424l5.838,10.299c1.667,2.963,3.335,6.465,4.586,9.635h0.125
	C87.812,63.294,87.687,59.499,87.687,55.288z M95.917,41.598h-66V9.113h46.332v20.465c0,1.105,0.896,2,2,2h17.668V41.598z"/>
<path d="M41.645,62.753h-2.169v7.922c0.625,0.086,1.375,0.086,2.459,0.086c2.879,0,5.423-1.086,5.423-4.047
	C47.357,63.878,44.813,62.753,41.645,62.753z"/>
</svg>
