<?xml version="1.0" encoding="utf-8"?>
<!-- Generator: Adobe Illustrator 16.0.0, SVG Export Plug-In . SVG Version: 6.00 Build 0)  -->
<!DOCTYPE svg PUBLIC "-//W3C//DTD SVG 1.1//EN" "http://www.w3.org/Graphics/SVG/1.1/DTD/svg11.dtd">
<svg version="1.1" id="Layer_1" xmlns="http://www.w3.org/2000/svg" xmlns:xlink="http://www.w3.org/1999/xlink" x="0px" y="0px"
	 width="126px" height="126px" viewBox="0 0 126 126" enable-background="new 0 0 126 126" xml:space="preserve">
<path d="M41.348,73.351c0-2.594-2.324-3.623-5.225-3.623h-1.982v7.248c0.572,0.076,1.26,0.076,2.25,0.076
	C39.023,77.052,41.348,76.06,41.348,73.351z"/>
<path d="M103.207,48.521h-2.449V36.703c0-0.074-0.012-0.148-0.021-0.223c-0.004-0.469-0.154-0.93-0.475-1.295L80.596,12.721
	c-0.006-0.006-0.012-0.008-0.016-0.014c-0.117-0.131-0.254-0.24-0.398-0.334c-0.043-0.029-0.086-0.053-0.131-0.078
	c-0.125-0.068-0.258-0.125-0.395-0.166c-0.037-0.01-0.07-0.025-0.107-0.035c-0.148-0.035-0.303-0.057-0.459-0.057H30.758
	c-2.207,0-4,1.795-4,4v32.484h-2.449c-3.157,0-5.717,2.559-5.717,5.717v29.73c0,3.156,2.56,5.717,5.717,5.717h2.449v20.352
	c0,2.205,1.793,4,4,4h66c2.205,0,4-1.795,4-4V89.686h2.449c3.157,0,5.717-2.561,5.717-5.717v-29.73
	C108.924,51.08,106.364,48.521,103.207,48.521z M30.758,16.037H77.09v20.465c0,1.105,0.896,2,2,2h17.668v10.02h-66V16.037z
	 M79.23,81.097h-5.684l-0.383-9.844c-0.113-3.09-0.229-6.828-0.229-10.566h-0.113c-0.803,3.281-1.871,6.941-2.863,9.957
	L66.83,80.675h-4.537l-2.748-9.955c-0.838-3.014-1.717-6.676-2.326-10.033h-0.076c-0.152,3.471-0.27,7.439-0.459,10.643
	l-0.457,9.768h-5.379l1.641-25.713h7.744l2.518,8.584c0.801,2.975,1.602,6.178,2.174,9.193h0.115
	c0.725-2.977,1.602-6.371,2.441-9.232l2.748-8.545h7.59L79.23,81.097z M28.379,80.981V55.728c1.527-0.307,4.617-0.535,7.516-0.535
	c3.547,0,5.723,0.344,7.592,1.449c1.793,0.955,3.09,2.709,3.09,5.037c0,2.289-1.334,4.424-4.234,5.492v0.076
	c2.938,0.803,5.111,3.014,5.111,6.332c0,2.328-1.066,4.158-2.668,5.457c-1.871,1.488-5,2.326-10.111,2.326
	C31.813,81.362,29.678,81.171,28.379,80.981z M96.758,108.953h-66V89.686h66V108.953z M99.791,69.308
	c-1.984,1.869-4.922,2.709-8.355,2.709c-0.762,0-1.449-0.039-1.982-0.113v9.193h-5.762V55.728c1.793-0.307,4.311-0.535,7.859-0.535
	c3.584,0,6.141,0.688,7.857,2.061c1.641,1.297,2.748,3.434,2.748,5.951S101.318,67.858,99.791,69.308z"/>
<path d="M91.855,59.579c-1.182,0-1.982,0.115-2.402,0.23v7.59c0.496,0.115,1.105,0.152,1.943,0.152c3.092,0,5-1.563,5-4.195
	C96.396,60.989,94.756,59.579,91.855,59.579z"/>
<path d="M40.74,62.403c0-1.945-1.488-2.977-4.121-2.977c-1.258,0-1.984,0.076-2.479,0.152v5.99h1.906
	C39.1,65.569,40.74,64.312,40.74,62.403z"/>
</svg>
