<?xml version="1.0" encoding="utf-8"?>
<!-- Generator: Adobe Illustrator 16.0.0, SVG Export Plug-In . SVG Version: 6.00 Build 0)  -->
<!DOCTYPE svg PUBLIC "-//W3C//DTD SVG 1.1//EN" "http://www.w3.org/Graphics/SVG/1.1/DTD/svg11.dtd">
<svg version="1.1" id="Layer_1" xmlns="http://www.w3.org/2000/svg" xmlns:xlink="http://www.w3.org/1999/xlink" x="0px" y="0px"
	 width="126px" height="126px" viewBox="0 0 126 126" enable-background="new 0 0 126 126" xml:space="preserve">
<path d="M95.325,62.061c0-2.26-1.729-3.458-4.785-3.458c-1.461,0-2.306,0.089-2.88,0.178v6.956h2.214
	C93.421,65.737,95.325,64.275,95.325,62.061z"/>
<path d="M89.964,70.568H87.66v8.42c0.663,0.089,1.462,0.089,2.613,0.089c3.059,0,5.761-1.154,5.761-4.299
	C96.034,71.765,93.332,70.568,89.964,70.568z"/>
<path d="M102.328,48.928h-2.449V37.11c0-0.074-0.012-0.148-0.021-0.223c-0.004-0.469-0.154-0.93-0.475-1.295L79.717,13.127
	c-0.006-0.006-0.012-0.008-0.016-0.014c-0.117-0.131-0.254-0.24-0.398-0.334c-0.043-0.029-0.086-0.053-0.131-0.078
	c-0.125-0.068-0.258-0.125-0.395-0.166c-0.037-0.01-0.07-0.025-0.107-0.035c-0.148-0.035-0.303-0.057-0.459-0.057H29.879
	c-2.207,0-4,1.795-4,4v32.484H23.43c-3.157,0-5.717,2.559-5.717,5.717v29.73c0,3.156,2.56,5.717,5.717,5.717h2.449v20.352
	c0,2.205,1.793,4,4,4h66c2.205,0,4-1.795,4-4V90.092h2.449c3.157,0,5.717-2.561,5.717-5.717v-29.73
	C108.045,51.487,105.485,48.928,102.328,48.928z M29.879,16.444h46.332v20.465c0,1.105,0.896,2,2,2h17.668v10.02h-66V16.444z
	 M76.978,83.773h-7.27l-2.303-7.665h-8.553l-2.126,7.665h-7.001l9.127-29.865h8.862L76.978,83.773z M23.709,69.284
	c0-10.192,7.269-15.865,16.31-15.865c3.498,0,6.158,0.709,7.355,1.33l-1.373,5.362c-1.375-0.577-3.279-1.108-5.672-1.108
	c-5.362,0-9.529,3.234-9.529,9.882c0,5.982,3.547,9.748,9.572,9.748c2.039,0,4.299-0.442,5.629-0.974l1.017,5.273
	c-1.24,0.62-4.032,1.284-7.665,1.284C29.028,84.215,23.709,77.791,23.709,69.284z M95.879,109.36h-66V90.092h66V109.36z
	 M100.023,81.381c-2.171,1.729-5.807,2.702-11.743,2.702c-3.323,0-5.805-0.221-7.312-0.442V54.304c1.771-0.354,5.361-0.62,8.73-0.62
	c4.121,0,6.646,0.399,8.816,1.686c2.083,1.106,3.59,3.145,3.59,5.848c0,2.659-1.551,5.141-4.919,6.381v0.089
	c3.412,0.931,5.938,3.501,5.938,7.355C103.125,77.748,101.885,79.873,100.023,81.381z"/>
<path d="M64.57,64.718c-0.534-1.772-1.065-3.986-1.508-5.758h-0.089c-0.442,1.772-0.885,4.032-1.373,5.758l-1.771,6.338h6.603
	L64.57,64.718z"/>
</svg>
