<?xml version="1.0" encoding="utf-8"?>
<!-- Generator: Adobe Illustrator 16.0.0, SVG Export Plug-In . SVG Version: 6.00 Build 0)  -->
<!DOCTYPE svg PUBLIC "-//W3C//DTD SVG 1.1//EN" "http://www.w3.org/Graphics/SVG/1.1/DTD/svg11.dtd">
<svg version="1.1" id="Layer_1" xmlns="http://www.w3.org/2000/svg" xmlns:xlink="http://www.w3.org/1999/xlink" x="0px" y="0px"
	 width="126px" height="126px" viewBox="0 0 126 126" enable-background="new 0 0 126 126" xml:space="preserve">
<path d="M60.495,58.771c-1.438,0-2.369,0.128-2.919,0.255v18.652c0.551,0.127,1.44,0.127,2.244,0.127
	c5.835,0.041,9.642-3.174,9.642-9.983C69.504,61.901,66.037,58.771,60.495,58.771z"/>
<path d="M103.457,49.041h-2.449V37.222c0-0.074-0.012-0.148-0.021-0.223c-0.004-0.469-0.154-0.93-0.475-1.295L80.846,13.24
	c-0.006-0.006-0.012-0.008-0.016-0.014c-0.117-0.131-0.254-0.24-0.398-0.334c-0.043-0.029-0.086-0.053-0.131-0.078
	c-0.125-0.068-0.258-0.125-0.395-0.166c-0.037-0.01-0.07-0.025-0.107-0.035c-0.148-0.035-0.303-0.057-0.459-0.057H31.008
	c-2.207,0-4,1.795-4,4v32.484h-2.449c-3.157,0-5.717,2.559-5.717,5.717v29.73c0,3.156,2.56,5.717,5.717,5.717h2.449v20.352
	c0,2.205,1.793,4,4,4h66c2.205,0,4-1.795,4-4V90.205h2.449c3.157,0,5.717-2.561,5.717-5.717v-29.73
	C109.174,51.599,106.614,49.041,103.457,49.041z M31.008,16.556H77.34v20.465c0,1.105,0.896,2,2,2h17.668v10.02h-66V16.556z
	 M76.313,67.611c0,5.458-1.988,9.221-4.736,11.546c-3.003,2.499-7.572,3.681-13.155,3.681c-3.34,0-5.708-0.21-7.317-0.423v-28
	c2.369-0.381,5.456-0.592,8.714-0.592c5.412,0,8.923,0.973,11.673,3.044C74.453,59.068,76.313,62.579,76.313,67.611z M24.625,68.711
	c0-9.729,6.937-15.142,15.566-15.142c3.34,0,5.879,0.676,7.021,1.269L45.9,59.955c-1.311-0.548-3.128-1.056-5.412-1.056
	c-5.119,0-9.094,3.087-9.094,9.43c0,5.711,3.383,9.307,9.134,9.307c1.945,0,4.104-0.422,5.372-0.932l0.974,5.035
	c-1.186,0.591-3.85,1.226-7.317,1.226C29.701,82.965,24.625,76.832,24.625,68.711z M97.008,109.472h-66V90.205h66V109.472z
	 M95.477,82.542c-0.464-0.803-1.14-3.131-1.986-6.641c-0.762-3.554-1.988-4.526-4.611-4.567h-1.945v11.208h-6.386V54.416
	c2.073-0.337,5.16-0.592,8.586-0.592c4.229,0,7.189,0.632,9.221,2.241c1.69,1.354,2.621,3.342,2.621,5.963
	c0,3.638-2.58,6.134-5.033,7.023v0.125c1.989,0.803,3.087,2.706,3.806,5.329c0.89,3.216,1.777,6.938,2.328,8.037H95.477z"/>
<path d="M89.853,58.604c-1.565,0-2.453,0.126-2.919,0.211v7.867h2.539c3.215,0,5.117-1.61,5.117-4.104
	C94.59,59.955,92.813,58.645,89.853,58.604z"/>
</svg>
