<?xml version="1.0" encoding="utf-8"?>
<!-- Generator: Adobe Illustrator 16.0.0, SVG Export Plug-In . SVG Version: 6.00 Build 0)  -->
<!DOCTYPE svg PUBLIC "-//W3C//DTD SVG 1.1//EN" "http://www.w3.org/Graphics/SVG/1.1/DTD/svg11.dtd">
<svg version="1.1" id="Layer_1" xmlns="http://www.w3.org/2000/svg" xmlns:xlink="http://www.w3.org/1999/xlink" x="0px" y="0px"
	 width="126px" height="126px" viewBox="0 0 126 126" enable-background="new 0 0 126 126" xml:space="preserve">
<path d="M101.486,41.505h-2.449V29.687c0-0.074-0.012-0.148-0.021-0.223c-0.004-0.469-0.154-0.93-0.475-1.295L78.875,5.704
	c-0.006-0.006-0.012-0.008-0.016-0.014c-0.117-0.131-0.254-0.24-0.398-0.334c-0.043-0.029-0.086-0.053-0.131-0.078
	c-0.125-0.068-0.258-0.125-0.395-0.166c-0.037-0.01-0.07-0.025-0.107-0.035c-0.148-0.035-0.303-0.057-0.459-0.057H29.037
	c-2.207,0-4,1.795-4,4v32.484h-2.449c-3.156,0-5.717,2.559-5.717,5.717v29.73c0,3.156,2.561,5.717,5.717,5.717h2.449v20.352
	c0,2.205,1.793,4,4,4h66c2.205,0,4-1.795,4-4V82.669h2.449c3.158,0,5.717-2.561,5.717-5.717v-29.73
	C107.203,44.063,104.645,41.505,101.486,41.505z M29.037,9.021h46.332v20.465c0,1.105,0.896,2,2,2h17.668v10.02h-66V9.021z
	 M68.082,59.141v5.174H57.988v11.301h-6.379V47.51h17.18v5.213H57.988v6.418H68.082z M25.498,61.979
	c0-9.592,6.842-14.93,15.348-14.93c3.295,0,5.797,0.666,6.924,1.252l-1.295,5.047c-1.291-0.545-3.084-1.045-5.338-1.045
	c-5.045,0-8.965,3.045-8.965,9.301c0,5.629,3.336,9.174,9.008,9.174c1.918,0,4.045-0.416,5.295-0.916l0.959,4.963
	c-1.166,0.584-3.793,1.209-7.213,1.209C30.504,76.033,25.498,69.986,25.498,61.979z M95.037,101.937h-66V82.669h66V101.937z
	 M97.066,74.322c-1.959,0.666-5.672,1.586-9.385,1.586c-5.129,0-8.838-1.295-11.426-3.797c-2.584-2.42-4.002-6.088-3.959-10.217
	c0.041-9.342,6.838-14.68,16.055-14.68c3.627,0,6.422,0.711,7.797,1.379l-1.334,5.084c-1.541-0.666-3.461-1.209-6.549-1.209
	c-5.293,0-9.297,3.004-9.297,9.092c0,5.797,3.629,9.217,8.842,9.217c1.459,0,2.625-0.166,3.125-0.416v-5.883H86.6V59.52h10.467
	V74.322z"/>
</svg>
