<?xml version="1.0" encoding="utf-8"?>
<!-- Generator: Adobe Illustrator 16.0.0, SVG Export Plug-In . SVG Version: 6.00 Build 0)  -->
<!DOCTYPE svg PUBLIC "-//W3C//DTD SVG 1.1//EN" "http://www.w3.org/Graphics/SVG/1.1/DTD/svg11.dtd">
<svg version="1.1" id="Layer_1" xmlns="http://www.w3.org/2000/svg" xmlns:xlink="http://www.w3.org/1999/xlink" x="0px" y="0px"
	 width="126px" height="126px" viewBox="0 0 126 126" enable-background="new 0 0 126 126" xml:space="preserve">
<path d="M102.494,48.944h-2.449V37.126c0-0.074-0.012-0.148-0.021-0.223c-0.004-0.469-0.154-0.93-0.475-1.295L79.883,13.144
	c-0.006-0.006-0.012-0.008-0.016-0.014c-0.117-0.131-0.254-0.24-0.398-0.334c-0.043-0.029-0.086-0.053-0.131-0.078
	c-0.125-0.068-0.258-0.125-0.395-0.166c-0.037-0.01-0.07-0.025-0.107-0.035c-0.148-0.035-0.303-0.057-0.459-0.057H30.045
	c-2.207,0-4,1.795-4,4v32.484h-2.449c-3.156,0-5.717,2.559-5.717,5.717v29.73c0,3.156,2.561,5.717,5.717,5.717h2.449v20.352
	c0,2.205,1.793,4,4,4h66c2.205,0,4-1.795,4-4V90.108h2.449c3.158,0,5.717-2.561,5.717-5.717v-29.73
	C108.211,51.503,105.652,48.944,102.494,48.944z M27.609,68.997c0-10.426,7.436-16.229,16.68-16.229
	c3.582,0,6.303,0.727,7.525,1.359l-1.406,5.486c-1.404-0.59-3.354-1.135-5.803-1.135c-5.484,0-9.744,3.309-9.744,10.109
	c0,6.119,3.625,9.971,9.791,9.971c2.084,0,4.396-0.453,5.756-0.996l1.043,5.395c-1.27,0.633-4.125,1.314-7.84,1.314
	C33.049,84.272,27.609,77.698,27.609,68.997z M96.045,109.376h-66V90.108h66V109.376z M70.078,78.56c1.588,0,2.857-0.18,3.4-0.453
	v-6.391h-4.713v-5.393h11.375v16.09c-2.129,0.725-6.162,1.723-10.197,1.723c-5.574,0-9.609-1.406-12.42-4.125
	c-2.809-2.629-4.35-6.617-4.305-11.105C53.262,58.753,60.65,52.95,70.668,52.95c3.943,0,6.982,0.771,8.479,1.496l-1.453,5.529
	c-1.676-0.725-3.76-1.314-7.115-1.314c-5.756,0-10.107,3.264-10.107,9.881C60.471,74.843,64.414,78.56,70.078,78.56z M85.531,83.817
	V53.269h6.938v30.549H85.531z M96.045,48.944h-66V16.46h46.332v20.465c0,1.105,0.896,2,2,2h17.668V48.944z"/>
</svg>
