<?xml version="1.0" encoding="utf-8"?>
<!-- Generator: Adobe Illustrator 16.0.0, SVG Export Plug-In . SVG Version: 6.00 Build 0)  -->
<!DOCTYPE svg PUBLIC "-//W3C//DTD SVG 1.1//EN" "http://www.w3.org/Graphics/SVG/1.1/DTD/svg11.dtd">
<svg version="1.1" id="Layer_1" xmlns="http://www.w3.org/2000/svg" xmlns:xlink="http://www.w3.org/1999/xlink" x="0px" y="0px"
	 width="126px" height="126px" viewBox="0 0 126 126" enable-background="new 0 0 126 126" xml:space="preserve">
<path d="M65.695,65.168c-0.344-1.24-0.683-2.792-0.969-4.033h-0.056c-0.286,1.241-0.57,2.824-0.882,4.033l-1.14,4.438h4.241
	L65.695,65.168z"/>
<path d="M103.457,49.041h-2.449V37.222c0-0.074-0.012-0.148-0.021-0.223c-0.004-0.469-0.154-0.93-0.475-1.295L80.846,13.24
	c-0.006-0.006-0.012-0.008-0.016-0.014c-0.117-0.131-0.254-0.24-0.398-0.334c-0.043-0.029-0.086-0.053-0.131-0.078
	c-0.125-0.068-0.258-0.125-0.395-0.166c-0.037-0.01-0.07-0.025-0.107-0.035c-0.148-0.035-0.303-0.057-0.459-0.057H31.008
	c-2.207,0-4,1.795-4,4v32.484h-2.449c-3.157,0-5.717,2.559-5.717,5.717v29.73c0,3.156,2.56,5.717,5.717,5.717h2.449v20.352
	c0,2.205,1.793,4,4,4h66c2.205,0,4-1.795,4-4V90.205h2.449c3.157,0,5.717-2.561,5.717-5.717v-29.73
	C109.174,51.599,106.614,49.041,103.457,49.041z M31.008,16.556H77.34v20.465c0,1.105,0.896,2,2,2h17.668v10.02h-66V16.556z
	 M81.009,69.729c-3.188-1.209-5.266-3.133-5.266-6.175c0-3.568,2.731-6.298,7.256-6.298c2.164,0,3.758,0.497,4.896,1.054
	l-0.967,3.816c-0.769-0.402-2.135-0.992-4.013-0.992s-2.789,0.931-2.789,2.016c0,1.334,1.082,1.925,3.558,2.948
	c3.386,1.366,4.98,3.289,4.98,6.237c0,3.506-2.477,6.484-7.743,6.484c-2.19,0-4.354-0.62-5.434-1.271l0.88-3.91
	c1.168,0.652,2.96,1.304,4.811,1.304c1.991,0,3.044-0.899,3.044-2.265C84.224,71.374,83.315,70.629,81.009,69.729z M73.664,78.511
	h-4.667l-1.481-5.368h-5.492l-1.366,5.368h-4.499l5.865-20.913h5.691L73.664,78.511z M54.823,74.538v3.973H42.839V57.598h4.354
	v16.94H54.823z M25.02,68.364c0-7.136,4.669-11.107,10.474-11.107c2.249,0,3.958,0.497,4.725,0.931l-0.883,3.754
	c-0.882-0.404-2.106-0.775-3.643-0.775c-3.443,0-6.119,2.265-6.119,6.919c0,4.188,2.277,6.826,6.148,6.826
	c1.308,0,2.76-0.311,3.614-0.683l0.657,3.693c-0.798,0.434-2.592,0.899-4.924,0.899C28.437,78.82,25.02,74.322,25.02,68.364z
	 M97.008,109.472h-66V90.205h66V109.472z M96.294,78.82c-2.193,0-4.354-0.62-5.436-1.271l0.882-3.91
	c1.166,0.652,2.96,1.304,4.811,1.304c1.991,0,3.044-0.899,3.044-2.265c0-1.303-0.911-2.048-3.217-2.948
	c-3.186-1.209-5.266-3.133-5.266-6.175c0-3.568,2.733-6.298,7.259-6.298c2.164,0,3.756,0.497,4.896,1.054l-0.969,3.816
	c-0.767-0.402-2.132-0.992-4.013-0.992c-1.878,0-2.787,0.931-2.787,2.016c0,1.334,1.08,1.925,3.556,2.948
	c3.388,1.366,4.98,3.289,4.98,6.237C104.034,75.842,101.56,78.82,96.294,78.82z"/>
</svg>
