<?xml version="1.0" encoding="utf-8"?>
<!-- Generator: Adobe Illustrator 16.0.0, SVG Export Plug-In . SVG Version: 6.00 Build 0)  -->
<!DOCTYPE svg PUBLIC "-//W3C//DTD SVG 1.1//EN" "http://www.w3.org/Graphics/SVG/1.1/DTD/svg11.dtd">
<svg version="1.1" id="Layer_1" xmlns="http://www.w3.org/2000/svg" xmlns:xlink="http://www.w3.org/1999/xlink" x="0px" y="0px"
	 width="126px" height="126px" viewBox="0 0 126 126" enable-background="new 0 0 126 126" xml:space="preserve">
<g>
	<path d="M50.799,68.612c0,5.119,2.402,8.727,6.357,8.727c3.996,0,6.283-3.801,6.283-8.881c0-4.693-2.248-8.725-6.324-8.725
		C53.123,59.733,50.799,63.532,50.799,68.612z"/>
	<path d="M102.494,48.944h-2.449V37.126c0-0.074-0.012-0.148-0.021-0.223c-0.004-0.469-0.154-0.93-0.475-1.295L79.883,13.144
		c-0.006-0.006-0.012-0.008-0.016-0.014c-0.117-0.131-0.254-0.24-0.398-0.334c-0.043-0.029-0.086-0.053-0.131-0.078
		c-0.125-0.068-0.258-0.125-0.395-0.166c-0.037-0.01-0.07-0.025-0.107-0.035c-0.148-0.035-0.303-0.057-0.459-0.057H30.045
		c-2.207,0-4,1.795-4,4v32.484h-2.449c-3.156,0-5.717,2.559-5.717,5.717v29.73c0,3.156,2.561,5.717,5.717,5.717h2.449v20.352
		c0,2.205,1.793,4,4,4h66c2.205,0,4-1.795,4-4V90.108h2.449c3.158,0,5.717-2.561,5.717-5.717v-29.73
		C108.211,51.503,105.652,48.944,102.494,48.944z M30.045,16.46h46.332v20.465c0,1.105,0.896,2,2,2h17.668v10.02h-66V16.46z
		 M69.682,68.265c0,8.57-5.197,13.766-12.836,13.766c-7.754,0-12.291-5.854-12.291-13.299c0-7.834,5-13.689,12.719-13.689
		C65.301,55.042,69.682,61.052,69.682,68.265z M22.645,68.923c0-8.92,6.361-13.881,14.271-13.881c3.063,0,5.391,0.621,6.439,1.162
		l-1.205,4.693c-1.201-0.506-2.869-0.969-4.963-0.969c-4.693,0-8.338,2.828-8.338,8.646c0,5.234,3.104,8.529,8.377,8.529
		c1.783,0,3.762-0.387,4.924-0.852l0.893,4.613c-1.086,0.545-3.531,1.127-6.707,1.127C27.301,81.993,22.645,76.37,22.645,68.923z
		 M96.045,109.376h-66V90.108h66V109.376z M96.047,81.604L95.66,71.601c-0.117-3.143-0.232-6.941-0.232-10.742h-0.115
		c-0.816,3.334-1.902,7.057-2.91,10.119l-3.178,10.199h-4.617l-2.789-10.119c-0.854-3.064-1.746-6.787-2.365-10.199h-0.08
		c-0.154,3.529-0.271,7.561-0.465,10.818l-0.463,9.928h-5.469l1.666-26.137h7.873l2.559,8.725c0.814,3.025,1.629,6.283,2.211,9.346
		h0.113c0.738-3.025,1.631-6.477,2.484-9.383l2.791-8.688h7.719l1.434,26.137H96.047z"/>
</g>
</svg>
