<?xml version="1.0" encoding="utf-8"?>
<!-- Generator: Adobe Illustrator 16.0.0, SVG Export Plug-In . SVG Version: 6.00 Build 0)  -->
<!DOCTYPE svg PUBLIC "-//W3C//DTD SVG 1.1//EN" "http://www.w3.org/Graphics/SVG/1.1/DTD/svg11.dtd">
<svg version="1.1" id="Layer_1" xmlns="http://www.w3.org/2000/svg" xmlns:xlink="http://www.w3.org/1999/xlink" x="0px" y="0px"
	 width="126px" height="126px" viewBox="0 0 126 126" enable-background="new 0 0 126 126" xml:space="preserve">
<path d="M101.486,41.505h-2.449V29.687c0-0.074-0.012-0.148-0.021-0.223c-0.004-0.469-0.154-0.93-0.475-1.295L78.875,5.704
	c-0.006-0.006-0.012-0.008-0.016-0.014c-0.117-0.131-0.254-0.24-0.398-0.334c-0.043-0.029-0.086-0.053-0.131-0.078
	c-0.125-0.068-0.258-0.125-0.395-0.166c-0.037-0.01-0.07-0.025-0.107-0.035c-0.148-0.035-0.303-0.057-0.459-0.057H29.037
	c-2.207,0-4,1.795-4,4v32.484h-2.449c-3.156,0-5.717,2.559-5.717,5.717v29.73c0,3.156,2.561,5.717,5.717,5.717h2.449v20.352
	c0,2.205,1.793,4,4,4h66c2.205,0,4-1.795,4-4V82.669h2.449c3.158,0,5.717-2.561,5.717-5.717v-29.73
	C107.203,44.063,104.645,41.505,101.486,41.505z M29.037,9.021h46.332v20.465c0,1.105,0.896,2,2,2h17.668v10.02h-66V9.021z
	 M75.502,55.836c0,2.752-0.918,5.086-2.584,6.672c-2.17,2.043-5.383,2.961-9.135,2.961c-0.834,0-1.584-0.041-2.17-0.125v10.051
	h-6.295V47.662c1.961-0.334,4.711-0.584,8.59-0.584c3.922,0,6.715,0.752,8.59,2.252C74.293,50.748,75.502,53.084,75.502,55.836z
	 M44.889,70.557c1.918,0,4.047-0.418,5.297-0.918l0.959,4.963c-1.168,0.584-3.793,1.209-7.213,1.209
	c-9.719,0-14.723-6.047-14.723-14.053c0-9.592,6.842-14.93,15.348-14.93c3.295,0,5.795,0.668,6.922,1.252l-1.293,5.045
	c-1.293-0.543-3.084-1.043-5.338-1.043c-5.047,0-8.967,3.045-8.967,9.301C35.881,67.012,39.219,70.557,44.889,70.557z
	 M95.037,101.937h-66V82.669h66V101.937z M97.107,75.395H79.551V47.287h6.379v22.77h11.178V75.395z"/>
<path d="M64.242,51.873c-1.293,0-2.17,0.125-2.629,0.25v8.299c0.545,0.125,1.211,0.168,2.129,0.168c3.379,0,5.463-1.709,5.463-4.588
	C69.205,53.418,67.41,51.873,64.242,51.873z"/>
</svg>
