<?xml version="1.0" encoding="utf-8"?>
<!-- Generator: Adobe Illustrator 16.0.0, SVG Export Plug-In . SVG Version: 6.00 Build 0)  -->
<!DOCTYPE svg PUBLIC "-//W3C//DTD SVG 1.1//EN" "http://www.w3.org/Graphics/SVG/1.1/DTD/svg11.dtd">
<svg version="1.1" id="Layer_1" xmlns="http://www.w3.org/2000/svg" xmlns:xlink="http://www.w3.org/1999/xlink" x="0px" y="0px"
	 width="126px" height="126px" viewBox="0 0 126 126" enable-background="new 0 0 126 126" xml:space="preserve">
<path d="M87.734,59.544c-1.277,0-2.143,0.127-2.597,0.25v8.195c0.538,0.123,1.194,0.166,2.101,0.166c3.34,0,5.398-1.688,5.398-4.533
	C92.637,61.067,90.865,59.544,87.734,59.544z"/>
<path d="M63.786,59.544c-1.276,0-2.143,0.127-2.597,0.25v8.195c0.538,0.123,1.197,0.166,2.104,0.166c3.34,0,5.396-1.688,5.396-4.533
	C68.688,61.067,66.919,59.544,63.786,59.544z"/>
<path d="M103.207,48.521h-2.449V36.703c0-0.074-0.012-0.148-0.021-0.223c-0.004-0.469-0.154-0.93-0.475-1.295L80.596,12.721
	c-0.006-0.006-0.012-0.008-0.016-0.014c-0.117-0.131-0.254-0.24-0.398-0.334c-0.043-0.029-0.086-0.053-0.131-0.078
	c-0.125-0.068-0.258-0.125-0.395-0.166c-0.037-0.01-0.07-0.025-0.107-0.035c-0.148-0.035-0.303-0.057-0.459-0.057H30.758
	c-2.207,0-4,1.795-4,4v32.484h-2.449c-3.157,0-5.717,2.559-5.717,5.717v29.73c0,3.156,2.56,5.717,5.717,5.717h2.449v20.352
	c0,2.205,1.793,4,4,4h66c2.205,0,4-1.795,4-4V89.686h2.449c3.157,0,5.717-2.561,5.717-5.717v-29.73
	C108.924,51.08,106.364,48.521,103.207,48.521z M30.758,16.037H77.09v20.465c0,1.105,0.896,2,2,2h17.668v10.02h-66V16.037z
	 M74.914,63.458c0,2.721-0.909,5.029-2.557,6.594c-2.142,2.02-5.313,2.926-9.023,2.926c-0.824,0-1.565-0.039-2.145-0.123v9.93
	h-6.221v-27.4c1.938-0.33,4.657-0.578,8.488-0.578c3.873,0,6.636,0.74,8.489,2.227C73.719,58.431,74.914,60.739,74.914,63.458z
	 M29.164,69.312c0-9.479,6.76-14.752,15.165-14.752c3.256,0,5.728,0.66,6.839,1.234l-1.277,4.986
	c-1.274-0.537-3.046-1.027-5.272-1.027c-4.987,0-8.86,3.004-8.86,9.186c0,5.563,3.299,9.064,8.903,9.064
	c1.893,0,3.996-0.41,5.229-0.906l0.95,4.904c-1.154,0.578-3.751,1.195-7.132,1.195C34.113,83.196,29.164,77.224,29.164,69.312z
	 M96.758,108.953h-66V89.686h66V108.953z M96.306,70.052c-2.142,2.02-5.315,2.926-9.023,2.926c-0.825,0-1.565-0.039-2.145-0.123
	v9.93h-6.221v-27.4c1.938-0.33,4.655-0.578,8.49-0.578c3.871,0,6.634,0.74,8.485,2.227c1.774,1.398,2.969,3.707,2.969,6.426
	C98.861,66.179,97.955,68.487,96.306,70.052z"/>
</svg>
