<?xml version="1.0" encoding="utf-8"?>
<!-- Generator: Adobe Illustrator 16.0.0, SVG Export Plug-In . SVG Version: 6.00 Build 0)  -->
<!DOCTYPE svg PUBLIC "-//W3C//DTD SVG 1.1//EN" "http://www.w3.org/Graphics/SVG/1.1/DTD/svg11.dtd">
<svg version="1.1" id="Layer_1" xmlns="http://www.w3.org/2000/svg" xmlns:xlink="http://www.w3.org/1999/xlink" x="0px" y="0px"
	 width="126px" height="126px" viewBox="0 0 126 126" enable-background="new 0 0 126 126" xml:space="preserve">
<path d="M101.487,41.505h-2.449V29.687c0-0.074-0.012-0.148-0.021-0.223c-0.004-0.469-0.154-0.93-0.475-1.295L78.875,5.704
	C78.87,5.698,78.864,5.696,78.86,5.69c-0.117-0.131-0.254-0.24-0.398-0.334c-0.043-0.029-0.086-0.053-0.131-0.078
	c-0.125-0.068-0.258-0.125-0.395-0.166c-0.037-0.01-0.07-0.025-0.107-0.035c-0.148-0.035-0.303-0.057-0.459-0.057H29.038
	c-2.207,0-4,1.795-4,4v32.484h-2.449c-3.157,0-5.717,2.559-5.717,5.717v29.73c0,3.156,2.56,5.717,5.717,5.717h2.449v20.352
	c0,2.205,1.793,4,4,4h66c2.205,0,4-1.795,4-4V82.669h2.449c3.157,0,5.717-2.561,5.717-5.717v-29.73
	C107.204,44.063,104.644,41.505,101.487,41.505z M29.038,9.021H75.37v20.465c0,1.105,0.896,2,2,2h17.668v10.02h-66V9.021z
	 M70.21,67.399c0.876,3.17,1.751,6.84,2.294,7.924h-6.506c-0.458-0.793-1.126-3.086-1.96-6.547c-0.75-3.504-1.959-4.461-4.545-4.504
	h-1.918v11.051h-6.297v-27.73c2.043-0.336,5.088-0.586,8.465-0.586c4.17,0,7.09,0.625,9.091,2.211
	c1.668,1.336,2.585,3.295,2.585,5.881c0,3.586-2.544,6.045-4.963,6.922v0.125C68.417,62.938,69.502,64.815,70.21,67.399z
	 M25.169,61.687c0-9.592,6.839-14.93,15.346-14.93c3.295,0,5.797,0.668,6.922,1.252l-1.292,5.047
	c-1.293-0.543-3.086-1.043-5.337-1.043c-5.046,0-8.966,3.043-8.966,9.299c0,5.631,3.336,9.174,9.008,9.174
	c1.918,0,4.044-0.416,5.296-0.916l0.959,4.961c-1.167,0.586-3.795,1.211-7.214,1.211C30.174,75.741,25.169,69.694,25.169,61.687z
	 M95.038,101.937h-66V82.669h66V101.937z M91.148,75.323l-2.544-5.088c-1.042-1.959-1.709-3.418-2.502-5.045h-0.083
	c-0.583,1.627-1.293,3.086-2.169,5.045l-2.335,5.088h-7.256l8.132-14.219l-7.839-13.887h7.297l2.46,5.127
	c0.834,1.711,1.46,3.086,2.127,4.672h0.083c0.667-1.793,1.209-3.045,1.918-4.672l2.377-5.127h7.256l-7.923,13.719l8.34,14.387
	H91.148z"/>
<path d="M60.452,51.72c-1.543,0-2.419,0.125-2.877,0.209v7.756h2.502c3.169,0,5.045-1.584,5.045-4.045
	C65.123,53.056,63.371,51.763,60.452,51.72z"/>
</svg>
