<?xml version="1.0" encoding="utf-8"?>
<!-- Generator: Adobe Illustrator 16.0.0, SVG Export Plug-In . SVG Version: 6.00 Build 0)  -->
<!DOCTYPE svg PUBLIC "-//W3C//DTD SVG 1.1//EN" "http://www.w3.org/Graphics/SVG/1.1/DTD/svg11.dtd">
<svg version="1.1" id="Layer_1" xmlns="http://www.w3.org/2000/svg" xmlns:xlink="http://www.w3.org/1999/xlink" x="0px" y="0px"
	 width="126px" height="126px" viewBox="0 0 126 126" enable-background="new 0 0 126 126" xml:space="preserve">
<path d="M102.449,48.448H100V36.63c0-0.074-0.012-0.148-0.021-0.223c-0.004-0.469-0.154-0.93-0.475-1.295L79.838,12.647
	c-0.006-0.006-0.012-0.008-0.016-0.014c-0.117-0.131-0.254-0.24-0.398-0.334c-0.043-0.029-0.086-0.053-0.131-0.078
	c-0.125-0.068-0.258-0.125-0.395-0.166c-0.037-0.01-0.07-0.025-0.107-0.035c-0.148-0.035-0.303-0.057-0.459-0.057H30
	c-2.207,0-4,1.795-4,4v32.484h-2.449c-3.157,0-5.717,2.559-5.717,5.717v29.73c0,3.156,2.56,5.717,5.717,5.717H26v20.352
	c0,2.205,1.793,4,4,4h66c2.205,0,4-1.795,4-4V89.612h2.449c3.157,0,5.717-2.561,5.717-5.717v-29.73
	C108.166,51.007,105.606,48.448,102.449,48.448z M30,15.964h46.332v20.465c0,1.105,0.896,2,2,2H96v10.02H30V15.964z M60.813,70.886
	c-4.962-1.729-8.198-4.475-8.198-8.816c0-5.098,4.253-8.998,11.301-8.998c3.366,0,5.848,0.709,7.621,1.508l-1.506,5.451
	c-1.198-0.578-3.323-1.42-6.25-1.42c-2.924,0-4.342,1.33-4.342,2.881c0,1.906,1.685,2.748,5.54,4.211
	c5.273,1.949,7.754,4.695,7.754,8.906c0,5.008-3.854,9.262-12.053,9.262c-3.412,0-6.779-0.889-8.463-1.818l1.374-5.582
	c1.816,0.93,4.608,1.859,7.489,1.859c3.102,0,4.741-1.283,4.741-3.232C65.82,73.235,64.402,72.173,60.813,70.886z M25.625,68.937
	c0-10.193,7.269-15.865,16.308-15.865c3.5,0,6.159,0.709,7.356,1.33l-1.374,5.361c-1.375-0.574-3.279-1.105-5.672-1.105
	c-5.362,0-9.527,3.234-9.527,9.879c0,5.982,3.545,9.75,9.572,9.75c2.038,0,4.298-0.441,5.628-0.977l1.018,5.275
	c-1.241,0.621-4.032,1.285-7.666,1.285C30.944,83.87,25.625,77.444,25.625,68.937z M96,108.88H30V89.612h66V108.88z M84.612,83.87
	c-3.412,0-6.779-0.889-8.464-1.818l1.375-5.582c1.815,0.93,4.608,1.859,7.487,1.859c3.103,0,4.742-1.283,4.742-3.232
	c0-1.861-1.417-2.924-5.006-4.211c-4.963-1.729-8.199-4.475-8.199-8.816c0-5.098,4.255-8.998,11.301-8.998
	c3.368,0,5.849,0.709,7.622,1.508l-1.507,5.451c-1.196-0.578-3.323-1.42-6.248-1.42s-4.342,1.33-4.342,2.881
	c0,1.906,1.684,2.748,5.539,4.211c5.273,1.949,7.755,4.695,7.755,8.906C96.666,79.616,92.81,83.87,84.612,83.87z"/>
</svg>
