<?xml version="1.0" encoding="utf-8"?>
<!-- Generator: Adobe Illustrator 16.0.0, SVG Export Plug-In . SVG Version: 6.00 Build 0)  -->
<!DOCTYPE svg PUBLIC "-//W3C//DTD SVG 1.1//EN" "http://www.w3.org/Graphics/SVG/1.1/DTD/svg11.dtd">
<svg version="1.1" id="Layer_1" xmlns="http://www.w3.org/2000/svg" xmlns:xlink="http://www.w3.org/1999/xlink" x="0px" y="0px"
	 width="126px" height="126px" viewBox="0 0 126 126" enable-background="new 0 0 126 126" xml:space="preserve">
<path d="M102.365,41.598h-2.449V29.779c0-0.074-0.012-0.148-0.021-0.223c-0.004-0.469-0.154-0.93-0.475-1.295L79.754,5.797
	c-0.006-0.006-0.012-0.008-0.016-0.014c-0.117-0.131-0.254-0.24-0.398-0.334c-0.043-0.029-0.086-0.053-0.131-0.078
	c-0.125-0.068-0.258-0.125-0.395-0.166c-0.037-0.01-0.07-0.025-0.107-0.035c-0.148-0.035-0.303-0.057-0.459-0.057H29.916
	c-2.207,0-4,1.795-4,4v32.484h-2.449c-3.156,0-5.717,2.559-5.717,5.717v29.73c0,3.156,2.561,5.717,5.717,5.717h2.449v20.352
	c0,2.205,1.793,4,4,4h66c2.205,0,4-1.795,4-4V82.762h2.449c3.158,0,5.717-2.561,5.717-5.717v-29.73
	C108.082,44.156,105.523,41.598,102.365,41.598z M29.916,9.113h46.332v20.465c0,1.105,0.896,2,2,2h17.668v10.02h-66V9.113z
	 M63.795,71.164c3.336,0,5.17-2.338,5.17-7.301V47.686h6.342v15.764c0,8.672-4.379,12.803-11.721,12.803
	c-7.088,0-11.26-3.922-11.26-12.889V47.686h6.383v16.178C58.709,68.701,60.543,71.164,63.795,71.164z M26.26,62.154
	c0-9.592,6.842-14.928,15.348-14.928c3.295,0,5.795,0.668,6.922,1.252l-1.293,5.045c-1.293-0.541-3.084-1.041-5.338-1.041
	c-5.047,0-8.967,3.043-8.967,9.297c0,5.631,3.338,9.176,9.008,9.176c1.918,0,4.047-0.418,5.297-0.918L48.195,75
	c-1.168,0.584-3.793,1.209-7.213,1.209C31.264,76.209,26.26,70.162,26.26,62.154z M95.916,102.029h-66V82.762h66V102.029z
	 M98.746,75.793H80.814V47.686h17.348v5.213H87.193v5.838h10.344v5.172H87.193v6.672h11.553V75.793z"/>
</svg>
