<?xml version="1.0" encoding="utf-8"?>
<!-- Generator: Adobe Illustrator 16.0.0, SVG Export Plug-In . SVG Version: 6.00 Build 0)  -->
<!DOCTYPE svg PUBLIC "-//W3C//DTD SVG 1.1//EN" "http://www.w3.org/Graphics/SVG/1.1/DTD/svg11.dtd">
<svg version="1.1" id="Layer_1" xmlns="http://www.w3.org/2000/svg" xmlns:xlink="http://www.w3.org/1999/xlink" x="0px" y="0px"
	 width="126px" height="126px" viewBox="0 0 126 126" enable-background="new 0 0 126 126" xml:space="preserve">
<path d="M77.636,70.587h-2.304v8.42c0.664,0.089,1.462,0.089,2.614,0.089c3.059,0,5.761-1.151,5.761-4.299
	C83.708,71.785,81.005,70.587,77.636,70.587z"/>
<path d="M82.998,62.081c0-2.26-1.729-3.458-4.785-3.458c-1.464,0-2.306,0.089-2.881,0.178v6.956h2.215
	C81.091,65.757,82.998,64.295,82.998,62.081z"/>
<path d="M103.457,49.041h-2.449V37.222c0-0.074-0.012-0.148-0.021-0.223c-0.004-0.469-0.154-0.93-0.475-1.295L80.846,13.24
	c-0.006-0.006-0.012-0.008-0.016-0.014c-0.117-0.131-0.254-0.24-0.398-0.334c-0.043-0.029-0.086-0.053-0.131-0.078
	c-0.125-0.068-0.258-0.125-0.395-0.166c-0.037-0.01-0.07-0.025-0.107-0.035c-0.148-0.035-0.303-0.057-0.459-0.057H31.008
	c-2.207,0-4,1.795-4,4v32.484h-2.449c-3.157,0-5.717,2.559-5.717,5.717v29.73c0,3.156,2.56,5.717,5.717,5.717h2.449v20.352
	c0,2.205,1.793,4,4,4h66c2.205,0,4-1.795,4-4V90.205h2.449c3.157,0,5.717-2.561,5.717-5.717v-29.73
	C109.174,51.599,106.614,49.041,103.457,49.041z M97.008,109.472h-66V90.205h66V109.472z M37.795,83.661V54.326
	c2.481-0.399,5.715-0.623,9.129-0.623c5.672,0,9.349,1.02,12.229,3.191c3.102,2.306,5.052,5.982,5.052,11.257
	c0,5.715-2.083,9.659-4.963,12.097c-3.147,2.614-7.932,3.854-13.782,3.854C41.959,84.103,39.478,83.882,37.795,83.661z
	 M90.798,75.064c0,2.703-1.241,4.828-3.102,6.336c-2.174,1.729-5.807,2.703-11.743,2.703c-3.325,0-5.807-0.221-7.312-0.442V54.326
	c1.772-0.355,5.362-0.623,8.728-0.623c4.121,0,6.648,0.399,8.819,1.686c2.083,1.108,3.59,3.145,3.59,5.85
	c0,2.657-1.551,5.138-4.919,6.379v0.089C88.271,68.638,90.798,71.208,90.798,75.064z M97.008,49.041h-66V16.556H77.34v20.465
	c0,1.105,0.896,2,2,2h17.668V49.041z"/>
<path d="M47.631,58.89c-1.505,0-2.481,0.132-3.056,0.264v19.543c0.575,0.132,1.505,0.132,2.349,0.132
	c6.114,0.045,10.101-3.323,10.101-10.457C57.071,62.169,53.438,58.89,47.631,58.89z"/>
</svg>
