<?xml version="1.0" encoding="utf-8"?>
<!-- Generator: Adobe Illustrator 16.0.0, SVG Export Plug-In . SVG Version: 6.00 Build 0)  -->
<!DOCTYPE svg PUBLIC "-//W3C//DTD SVG 1.1//EN" "http://www.w3.org/Graphics/SVG/1.1/DTD/svg11.dtd">
<svg version="1.1" id="Layer_1" xmlns="http://www.w3.org/2000/svg" xmlns:xlink="http://www.w3.org/1999/xlink" x="0px" y="0px"
	 width="126px" height="126px" viewBox="0 0 126 126" enable-background="new 0 0 126 126" xml:space="preserve">
<g>
	<path d="M70.592,61.517c0-2.114-1.617-3.232-4.479-3.232c-1.368,0-2.156,0.082-2.695,0.164v6.512h2.074
		C68.81,64.96,70.592,63.591,70.592,61.517z"/>
	<path d="M46.294,67.406c0.042-5.806-3.359-8.874-8.793-8.874c-1.407,0-2.32,0.123-2.859,0.249v18.286
		c0.539,0.125,1.41,0.125,2.197,0.125C42.561,77.233,46.294,74.083,46.294,67.406z"/>
	<path d="M65.575,69.479h-2.156v7.88c0.622,0.082,1.369,0.082,2.446,0.082c2.861,0,5.392-1.076,5.392-4.021
		C71.257,70.599,68.727,69.479,65.575,69.479z"/>
	<path d="M102.495,48.944h-2.449V37.126c0-0.074-0.012-0.148-0.021-0.223c-0.004-0.469-0.154-0.93-0.475-1.295L79.883,13.144
		c-0.006-0.006-0.012-0.008-0.016-0.014c-0.117-0.131-0.254-0.24-0.398-0.334c-0.043-0.029-0.086-0.053-0.131-0.078
		c-0.125-0.068-0.258-0.125-0.395-0.166c-0.037-0.01-0.07-0.025-0.107-0.035c-0.148-0.035-0.303-0.057-0.459-0.057H30.045
		c-2.207,0-4,1.795-4,4v32.484h-2.449c-3.157,0-5.717,2.559-5.717,5.717v29.73c0,3.156,2.56,5.717,5.717,5.717h2.449v20.352
		c0,2.205,1.793,4,4,4h66c2.205,0,4-1.795,4-4V90.108h2.449c3.157,0,5.717-2.561,5.717-5.717v-29.73
		C108.211,51.503,105.652,48.944,102.495,48.944z M30.045,16.46h46.332v20.465c0,1.105,0.896,2,2,2h17.668v10.02h-66V16.46z
		 M77.891,73.666c0,2.531-1.161,4.521-2.902,5.932c-2.032,1.616-5.433,2.529-10.99,2.529c-3.11,0-5.433-0.207-6.843-0.414V54.26
		c1.661-0.331,5.018-0.578,8.17-0.578c3.855,0,6.22,0.371,8.253,1.573c1.949,1.039,3.358,2.945,3.358,5.476
		c0,2.486-1.452,4.811-4.604,5.969v0.084C75.528,67.655,77.891,70.06,77.891,73.666z M28.296,81.713V54.26
		c2.323-0.373,5.35-0.578,8.544-0.578c5.308,0,8.75,0.952,11.445,2.983c2.903,2.156,4.727,5.598,4.727,10.534
		c0,5.349-1.949,9.039-4.643,11.321c-2.946,2.445-7.424,3.606-12.897,3.606C32.194,82.127,29.874,81.92,28.296,81.713z
		 M96.045,109.376h-66V90.108h66V109.376z M99.288,59.069H88.546v6.388h10.035v5.142H88.546v11.237h-6.344V53.887h17.085V59.069z"/>
</g>
</svg>
