<?xml version="1.0" encoding="utf-8"?>
<!-- Generator: Adobe Illustrator 16.0.0, SVG Export Plug-In . SVG Version: 6.00 Build 0)  -->
<!DOCTYPE svg PUBLIC "-//W3C//DTD SVG 1.1//EN" "http://www.w3.org/Graphics/SVG/1.1/DTD/svg11.dtd">
<svg version="1.1" id="Layer_1" xmlns="http://www.w3.org/2000/svg" xmlns:xlink="http://www.w3.org/1999/xlink" x="0px" y="0px"
	 width="126px" height="126px" viewBox="0 0 126 126" enable-background="new 0 0 126 126" xml:space="preserve">
<path d="M102.042,41.515h-2.449V29.696c0-0.074-0.012-0.148-0.021-0.223c-0.004-0.469-0.154-0.93-0.475-1.295L79.431,5.714
	c-0.006-0.006-0.012-0.008-0.016-0.014c-0.117-0.131-0.254-0.24-0.398-0.334c-0.043-0.029-0.086-0.053-0.131-0.078
	c-0.125-0.068-0.258-0.125-0.395-0.166c-0.037-0.01-0.07-0.025-0.107-0.035c-0.148-0.035-0.303-0.057-0.459-0.057H29.593
	c-2.207,0-4,1.795-4,4v32.484h-2.449c-3.157,0-5.717,2.559-5.717,5.717v29.73c0,3.156,2.56,5.717,5.717,5.717h2.449v20.352
	c0,2.205,1.793,4,4,4h66c2.205,0,4-1.795,4-4V82.679h2.449c3.157,0,5.717-2.561,5.717-5.717v-29.73
	C107.759,44.073,105.2,41.515,102.042,41.515z M29.593,9.03h46.332v20.465c0,1.105,0.896,2,2,2h17.668v10.02h-66V9.03z
	 M79.43,74.845h-5.768l-0.388-9.989c-0.116-3.135-0.232-6.928-0.232-10.724h-0.116c-0.813,3.328-1.897,7.048-2.904,10.104
	l-3.174,10.181h-4.607l-2.787-10.103c-0.853-3.057-1.743-6.774-2.362-10.183h-0.077c-0.155,3.526-0.271,7.549-0.465,10.802
	l-0.465,9.911h-5.458l1.664-26.092h7.859l2.555,8.707c0.813,3.021,1.626,6.273,2.207,9.332h0.117
	c0.734-3.021,1.625-6.465,2.477-9.367l2.787-8.672h7.705L79.43,74.845z M24.258,74.729V49.101c2.168-0.348,4.994-0.543,7.975-0.543
	c4.955,0,8.168,0.893,10.686,2.787c2.71,2.012,4.412,5.227,4.412,9.835c0,4.993-1.819,8.438-4.335,10.568
	c-2.749,2.282-6.93,3.368-12.04,3.368C27.896,75.116,25.729,74.921,24.258,74.729z M95.593,101.946h-66V82.679h66V101.946z
	 M100.302,62.881c-2.013,1.899-4.994,2.751-8.479,2.751c-0.775,0-1.471-0.039-2.013-0.119v9.332h-5.846V49.101
	c1.819-0.31,4.375-0.543,7.975-0.543c3.639,0,6.233,0.696,7.976,2.09c1.664,1.316,2.787,3.484,2.787,6.04
	S101.851,61.409,100.302,62.881z"/>
<path d="M92.25,53.01c-1.201,0-2.013,0.113-2.439,0.231v7.705c0.502,0.115,1.123,0.156,1.974,0.156c3.136,0,5.072-1.588,5.072-4.262
	C96.856,54.443,95.192,53.01,92.25,53.01z"/>
<path d="M41.06,61.372c0.039-5.42-3.137-8.284-8.208-8.284c-1.316,0-2.168,0.113-2.672,0.231v17.073
	c0.503,0.115,1.316,0.115,2.053,0.115C37.575,70.548,41.06,67.603,41.06,61.372z"/>
</svg>
