<?xml version="1.0" encoding="utf-8"?>
<!-- Generator: Adobe Illustrator 16.0.0, SVG Export Plug-In . SVG Version: 6.00 Build 0)  -->
<!DOCTYPE svg PUBLIC "-//W3C//DTD SVG 1.1//EN" "http://www.w3.org/Graphics/SVG/1.1/DTD/svg11.dtd">
<svg version="1.1" id="Layer_1" xmlns="http://www.w3.org/2000/svg" xmlns:xlink="http://www.w3.org/1999/xlink" x="0px" y="0px"
	 width="126px" height="126px" viewBox="0 0 126 126" enable-background="new 0 0 126 126" xml:space="preserve">
<path d="M102.578,48.948h-2.449V37.129c0-0.074-0.012-0.148-0.021-0.223c-0.004-0.469-0.154-0.93-0.475-1.295L79.967,13.147
	c-0.006-0.006-0.012-0.008-0.016-0.014c-0.117-0.131-0.254-0.24-0.398-0.334c-0.043-0.029-0.086-0.053-0.131-0.078
	c-0.125-0.068-0.258-0.125-0.395-0.166c-0.037-0.01-0.07-0.025-0.107-0.035c-0.148-0.035-0.303-0.057-0.459-0.057H30.129
	c-2.207,0-4,1.795-4,4v32.484H23.68c-3.157,0-5.717,2.559-5.717,5.717v29.73c0,3.156,2.56,5.717,5.717,5.717h2.449v20.352
	c0,2.205,1.793,4,4,4h66c2.205,0,4-1.795,4-4V90.112h2.449c3.157,0,5.717-2.561,5.717-5.717v-29.73
	C108.295,51.506,105.735,48.948,102.578,48.948z M30.129,16.463h46.332v20.465c0,1.105,0.896,2,2,2h17.668v10.02h-66V16.463z
	 M78.122,67.904c0,9.093-5.513,14.605-13.619,14.605c-8.228,0-13.042-6.212-13.042-14.111c0-8.311,5.307-14.523,13.494-14.523
	C73.471,53.875,78.122,60.251,78.122,67.904z M24.099,81.934V54.699c2.304-0.371,5.307-0.577,8.476-0.577
	c5.266,0,8.68,0.947,11.354,2.962c2.88,2.14,4.691,5.555,4.691,10.45c0,5.308-1.933,8.969-4.607,11.231
	c-2.921,2.428-7.365,3.58-12.796,3.58C27.965,82.345,25.662,82.138,24.099,81.934z M96.129,109.379h-66V90.112h66V109.379z
	 M96.431,77.285c1.893,0,3.992-0.413,5.225-0.905l0.947,4.896c-1.152,0.577-3.744,1.192-7.117,1.192
	c-9.586,0-14.523-5.965-14.523-13.864c0-9.461,6.747-14.729,15.139-14.729c3.25,0,5.72,0.658,6.831,1.235l-1.276,4.977
	c-1.274-0.534-3.044-1.029-5.266-1.029c-4.978,0-8.846,3.004-8.846,9.175C87.544,73.787,90.836,77.285,96.431,77.285z"/>
<path d="M41.954,67.74c0.041-5.761-3.333-8.805-8.721-8.805c-1.399,0-2.306,0.123-2.84,0.247v18.144
	c0.534,0.124,1.399,0.124,2.181,0.124C38.251,77.49,41.954,74.363,41.954,67.74z"/>
<path d="M58.085,68.274c0,5.432,2.551,9.257,6.747,9.257c4.239,0,6.665-4.033,6.665-9.422c0-4.979-2.385-9.256-6.706-9.256
	C60.555,58.854,58.085,62.886,58.085,68.274z"/>
</svg>
