<?xml version="1.0" encoding="utf-8"?>
<!-- Generator: Adobe Illustrator 16.0.0, SVG Export Plug-In . SVG Version: 6.00 Build 0)  -->
<!DOCTYPE svg PUBLIC "-//W3C//DTD SVG 1.1//EN" "http://www.w3.org/Graphics/SVG/1.1/DTD/svg11.dtd">
<svg version="1.1" id="Layer_1" xmlns="http://www.w3.org/2000/svg" xmlns:xlink="http://www.w3.org/1999/xlink" x="0px" y="0px"
	 width="126px" height="126px" viewBox="0 0 126 126" enable-background="new 0 0 126 126" xml:space="preserve">
<path d="M62.891,52.106c-1.543,0-2.418,0.125-2.877,0.209v7.756h2.502c3.169,0,5.046-1.584,5.046-4.045
	C67.562,53.44,65.811,52.149,62.891,52.106z"/>
<path d="M101.737,41.524h-2.449V29.706c0-0.074-0.012-0.148-0.021-0.223c-0.004-0.469-0.154-0.93-0.475-1.295L79.125,5.724
	C79.12,5.718,79.114,5.716,79.11,5.71c-0.117-0.131-0.254-0.24-0.398-0.334c-0.043-0.029-0.086-0.053-0.131-0.078
	c-0.125-0.068-0.258-0.125-0.395-0.166c-0.037-0.01-0.07-0.025-0.107-0.035C77.93,5.062,77.776,5.04,77.62,5.04H29.288
	c-2.207,0-4,1.795-4,4v32.484h-2.449c-3.157,0-5.717,2.559-5.717,5.717v29.73c0,3.156,2.56,5.717,5.717,5.717h2.449v20.352
	c0,2.205,1.793,4,4,4h66c2.205,0,4-1.795,4-4V82.688h2.449c3.157,0,5.717-2.561,5.717-5.717v-29.73
	C107.454,44.083,104.894,41.524,101.737,41.524z M29.288,9.04H75.62v20.465c0,1.105,0.896,2,2,2h17.668v10.02h-66V9.04z
	 M72.649,67.786c0.875,3.17,1.751,6.84,2.293,7.924h-6.506c-0.458-0.793-1.125-3.086-1.959-6.547
	c-0.75-3.504-1.96-4.463-4.545-4.504h-1.919V75.71h-6.296V47.978c2.043-0.334,5.087-0.584,8.465-0.584
	c4.17,0,7.089,0.625,9.091,2.213c1.668,1.334,2.585,3.293,2.585,5.879c0,3.586-2.543,6.047-4.962,6.922v0.125
	C70.856,63.325,71.94,65.2,72.649,67.786z M24.688,75.585V47.978c2.335-0.375,5.379-0.584,8.59-0.584
	c5.338,0,8.799,0.959,11.51,3.004c2.919,2.168,4.753,5.629,4.753,10.59c0,5.383-1.959,9.092-4.67,11.387
	c-2.96,2.461-7.465,3.627-12.969,3.627C28.608,76.001,26.272,75.792,24.688,75.585z M95.288,101.956h-66V82.688h66V101.956z
	 M92.252,75.71H84.83l-9.008-28.107h6.964l3.42,11.885c0.958,3.338,1.834,6.547,2.502,10.051h0.125
	c0.709-3.379,1.585-6.713,2.543-9.926l3.586-12.01h6.756L92.252,75.71z"/>
<path d="M42.787,61.198c0.042-5.838-3.378-8.924-8.841-8.924c-1.418,0-2.335,0.125-2.877,0.25v18.389
	c0.542,0.125,1.418,0.125,2.21,0.125C39.034,71.081,42.787,67.911,42.787,61.198z"/>
</svg>
