<?xml version="1.0" encoding="utf-8"?>
<!-- Generator: Adobe Illustrator 16.0.0, SVG Export Plug-In . SVG Version: 6.00 Build 0)  -->
<!DOCTYPE svg PUBLIC "-//W3C//DTD SVG 1.1//EN" "http://www.w3.org/Graphics/SVG/1.1/DTD/svg11.dtd">
<svg version="1.1" id="Layer_1" xmlns="http://www.w3.org/2000/svg" xmlns:xlink="http://www.w3.org/1999/xlink" x="0px" y="0px"
	 width="126px" height="126px" viewBox="0 0 126 126" enable-background="new 0 0 126 126" xml:space="preserve">
<g>
	<path d="M101.486,41.505h-2.449V29.687c0-0.074-0.012-0.148-0.021-0.223c-0.004-0.469-0.154-0.93-0.475-1.295L78.875,5.704
		c-0.006-0.006-0.012-0.008-0.016-0.014c-0.117-0.131-0.254-0.24-0.398-0.334c-0.043-0.029-0.086-0.053-0.131-0.078
		c-0.125-0.068-0.258-0.125-0.395-0.166c-0.037-0.01-0.07-0.025-0.107-0.035c-0.148-0.035-0.303-0.057-0.459-0.057H29.037
		c-2.207,0-4,1.795-4,4v32.484h-2.449c-3.156,0-5.717,2.559-5.717,5.717v29.73c0,3.156,2.561,5.717,5.717,5.717h2.449v20.352
		c0,2.205,1.793,4,4,4h66c2.205,0,4-1.795,4-4V82.669h2.449c3.158,0,5.717-2.561,5.717-5.717v-29.73
		C107.203,44.063,104.645,41.505,101.486,41.505z M29.037,9.021h46.332v20.465c0,1.105,0.896,2,2,2h17.668v10.02h-66V9.021z
		 M50.006,52.345v-5.332h21.57v5.332h-7.664v22.731h-6.369V52.345H50.006z M24.307,74.953V47.388
		c2.332-0.375,5.369-0.583,8.578-0.583c5.328,0,8.785,0.959,11.492,2.997c2.912,2.168,4.746,5.622,4.746,10.577
		c0,5.37-1.959,9.075-4.666,11.367c-2.955,2.456-7.451,3.623-12.945,3.623C28.221,75.369,25.891,75.16,24.307,74.953z
		 M95.037,101.937h-66V82.669h66V101.937z M95.105,71.746c-2.955,2.456-7.453,3.623-12.951,3.623c-3.287,0-5.619-0.209-7.201-0.416
		V47.388c2.332-0.375,5.367-0.583,8.578-0.583c5.328,0,8.783,0.959,11.492,2.997c2.91,2.168,4.744,5.622,4.744,10.577
		C99.768,65.749,97.813,69.454,95.105,71.746z"/>
	<path d="M84.195,51.677c-1.416,0-2.33,0.125-2.871,0.248v18.363c0.541,0.125,1.416,0.125,2.207,0.125
		c5.746,0.044,9.49-3.121,9.49-9.824C93.064,54.759,89.648,51.677,84.195,51.677z"/>
	<path d="M42.377,60.589c0.041-5.83-3.373-8.912-8.824-8.912c-1.42,0-2.334,0.125-2.875,0.248v18.363
		c0.541,0.125,1.416,0.125,2.207,0.125C38.631,70.457,42.377,67.292,42.377,60.589z"/>
</g>
</svg>
