<?xml version="1.0" encoding="utf-8"?>
<!-- Generator: Adobe Illustrator 16.0.0, SVG Export Plug-In . SVG Version: 6.00 Build 0)  -->
<!DOCTYPE svg PUBLIC "-//W3C//DTD SVG 1.1//EN" "http://www.w3.org/Graphics/SVG/1.1/DTD/svg11.dtd">
<svg version="1.1" id="Layer_1" xmlns="http://www.w3.org/2000/svg" xmlns:xlink="http://www.w3.org/1999/xlink" x="0px" y="0px"
	 width="126px" height="126px" viewBox="0 0 126 126" enable-background="new 0 0 126 126" xml:space="preserve">
<path d="M66.078,64.156c0-2.747-1.907-4.387-5.275-4.387c-1.373,0-2.303,0.132-2.792,0.266v8.818
	c0.577,0.132,1.287,0.178,2.26,0.178C63.861,69.031,66.078,67.213,66.078,64.156z"/>
<path d="M102.884,48.938h-2.449V37.12c0-0.074-0.012-0.148-0.021-0.223c-0.004-0.469-0.154-0.93-0.475-1.295L80.272,13.137
	c-0.006-0.006-0.012-0.008-0.016-0.014c-0.117-0.131-0.254-0.24-0.398-0.334c-0.043-0.029-0.086-0.053-0.131-0.078
	c-0.125-0.068-0.258-0.125-0.395-0.166c-0.037-0.01-0.07-0.025-0.107-0.035c-0.148-0.035-0.303-0.057-0.459-0.057H30.435
	c-2.207,0-4,1.795-4,4v32.484h-2.449c-3.157,0-5.717,2.559-5.717,5.717v29.73c0,3.156,2.56,5.717,5.717,5.717h2.449v20.352
	c0,2.205,1.793,4,4,4h66c2.205,0,4-1.795,4-4V90.102h2.449c3.157,0,5.717-2.561,5.717-5.717v-29.73
	C108.601,51.497,106.041,48.938,102.884,48.938z M27.655,84.761V54.896H46.09v5.538H34.436v6.205h10.988v5.495H34.436v7.089H46.71
	v5.539H27.655z M96.435,109.37h-66V90.102h66V109.37z M51.319,84.761V55.293c2.085-0.354,5.008-0.62,9.13-0.62
	c4.164,0,7.134,0.797,9.129,2.394c1.904,1.505,3.188,3.986,3.188,6.913c0,2.924-0.974,5.405-2.746,7.089
	c-2.306,2.171-5.718,3.146-9.704,3.146c-0.887,0-1.686-0.045-2.306-0.132v10.678H51.319z M84.515,72.222
	c-4.963-1.729-8.199-4.477-8.199-8.819c0-5.095,4.253-8.995,11.301-8.995c3.366,0,5.848,0.709,7.622,1.506l-1.508,5.45
	c-1.197-0.575-3.323-1.416-6.249-1.416c-2.924,0-4.342,1.329-4.342,2.879c0,1.905,1.686,2.747,5.54,4.209
	c5.272,1.95,7.754,4.698,7.754,8.908c0,5.006-3.854,9.261-12.053,9.261c-3.412,0-6.778-0.886-8.464-1.816l1.375-5.583
	c1.815,0.93,4.607,1.861,7.487,1.861c3.102,0,4.742-1.287,4.742-3.235C89.521,74.57,88.103,73.506,84.515,72.222z M96.435,48.938
	h-66V16.454h46.332v20.465c0,1.105,0.896,2,2,2h17.668V48.938z"/>
</svg>
