<?xml version="1.0" encoding="utf-8"?>
<!-- Generator: Adobe Illustrator 16.0.0, SVG Export Plug-In . SVG Version: 6.00 Build 0)  -->
<!DOCTYPE svg PUBLIC "-//W3C//DTD SVG 1.1//EN" "http://www.w3.org/Graphics/SVG/1.1/DTD/svg11.dtd">
<svg version="1.1" id="Layer_1" xmlns="http://www.w3.org/2000/svg" xmlns:xlink="http://www.w3.org/1999/xlink" x="0px" y="0px"
	 width="126px" height="126px" viewBox="0 0 126 126" enable-background="new 0 0 126 126" xml:space="preserve">
<path d="M64.016,66.991c-0.338-1.211-0.672-2.727-0.953-3.938h-0.055c-0.279,1.211-0.559,2.758-0.865,3.938l-1.119,4.335h4.162
	L64.016,66.991z"/>
<path d="M103.207,49.021h-2.449V37.203c0-0.074-0.012-0.148-0.021-0.223c-0.004-0.469-0.154-0.93-0.475-1.295L80.596,13.22
	c-0.006-0.006-0.012-0.008-0.016-0.014c-0.117-0.131-0.254-0.24-0.398-0.334c-0.043-0.029-0.086-0.053-0.131-0.078
	c-0.125-0.068-0.258-0.125-0.395-0.166c-0.037-0.01-0.07-0.025-0.107-0.035c-0.148-0.035-0.303-0.057-0.459-0.057H30.758
	c-2.207,0-4,1.795-4,4v32.484h-2.449c-3.157,0-5.717,2.559-5.717,5.717v29.73c0,3.156,2.56,5.717,5.717,5.717h2.449v20.352
	c0,2.205,1.793,4,4,4h66c2.205,0,4-1.795,4-4V90.185h2.449c3.157,0,5.717-2.561,5.717-5.717v-29.73
	C108.924,51.58,106.364,49.021,103.207,49.021z M30.758,16.537H77.09v20.465c0,1.105,0.896,2,2,2h17.668v10.02h-66V16.537z
	 M79.039,71.447c-3.127-1.182-5.164-3.061-5.164-6.032c0-3.485,2.68-6.152,7.119-6.152c2.123,0,3.688,0.486,4.805,1.031
	l-0.949,3.726c-0.754-0.393-2.096-0.968-3.939-0.968c-1.842,0-2.736,0.909-2.736,1.969c0,1.303,1.061,1.878,3.492,2.878
	c3.322,1.334,4.889,3.214,4.889,6.093c0,3.424-2.432,6.334-7.6,6.334c-2.148,0-4.271-0.607-5.332-1.243l0.865-3.818
	c1.145,0.636,2.904,1.273,4.721,1.273c1.955,0,2.988-0.88,2.988-2.214C82.197,73.053,81.303,72.325,79.039,71.447z M71.834,80.023
	h-4.58l-1.453-5.243H60.41l-1.34,5.243h-4.412l5.752-20.426h5.586L71.834,80.023z M53.344,76.144v3.879H41.586V59.597h4.273v16.546
	H53.344z M26.867,80.023V59.597h11.504v3.787h-7.232v4.668h6.76v3.758h-6.76v8.212H26.867z M96.758,109.453h-66V90.185h66V109.453z
	 M104.959,80.023h-4.246v-8.546h-7.008v8.546H89.43V59.597h4.275v7.849h7.008v-7.849h4.246V80.023z"/>
</svg>
