<?xml version="1.0" encoding="utf-8"?>
<!-- Generator: Adobe Illustrator 16.0.0, SVG Export Plug-In . SVG Version: 6.00 Build 0)  -->
<!DOCTYPE svg PUBLIC "-//W3C//DTD SVG 1.1//EN" "http://www.w3.org/Graphics/SVG/1.1/DTD/svg11.dtd">
<svg version="1.1" id="Layer_1" xmlns="http://www.w3.org/2000/svg" xmlns:xlink="http://www.w3.org/1999/xlink" x="0px" y="0px"
	 width="126px" height="126px" viewBox="0 0 126 126" enable-background="new 0 0 126 126" xml:space="preserve">
<path d="M102.578,48.448h-2.449V36.63c0-0.074-0.012-0.148-0.021-0.223c-0.004-0.469-0.154-0.93-0.475-1.295L79.967,12.647
	c-0.006-0.006-0.012-0.008-0.016-0.014c-0.117-0.131-0.254-0.24-0.398-0.334c-0.043-0.029-0.086-0.053-0.131-0.078
	c-0.125-0.068-0.258-0.125-0.395-0.166c-0.037-0.01-0.07-0.025-0.107-0.035c-0.148-0.035-0.303-0.057-0.459-0.057H30.129
	c-2.207,0-4,1.795-4,4v32.484H23.68c-3.157,0-5.717,2.559-5.717,5.717v29.73c0,3.156,2.56,5.717,5.717,5.717h2.449v20.352
	c0,2.205,1.793,4,4,4h66c2.205,0,4-1.795,4-4V89.612h2.449c3.157,0,5.717-2.561,5.717-5.717v-29.73
	C108.295,51.007,105.735,48.448,102.578,48.448z M30.129,15.964h46.332v20.465c0,1.105,0.896,2,2,2h17.668v10.02h-66V15.964z
	 M71.877,77.118v5.672H53.221V52.923h6.781v24.195H71.877z M29.867,82.79V52.923h18.257v5.539H36.646v6.824H47.37v5.494H36.646
	v12.01H29.867z M96.129,108.88h-66V89.612h66V108.88z M87.922,82.79h-7.888l-9.572-29.867h7.401l3.633,12.629
	c1.02,3.545,1.95,6.957,2.659,10.68h0.134c0.752-3.59,1.683-7.135,2.702-10.547l3.812-12.762h7.178L87.922,82.79z"/>
</svg>
