<?xml version="1.0" encoding="utf-8"?>
<!-- Generator: Adobe Illustrator 16.0.0, SVG Export Plug-In . SVG Version: 6.00 Build 0)  -->
<!DOCTYPE svg PUBLIC "-//W3C//DTD SVG 1.1//EN" "http://www.w3.org/Graphics/SVG/1.1/DTD/svg11.dtd">
<svg version="1.1" id="Layer_1" xmlns="http://www.w3.org/2000/svg" xmlns:xlink="http://www.w3.org/1999/xlink" x="0px" y="0px"
	 width="126px" height="126px" viewBox="0 0 126 126" enable-background="new 0 0 126 126" xml:space="preserve">
<path d="M60.457,65.704c-0.455-1.514-0.906-3.404-1.287-4.918h-0.076c-0.377,1.514-0.756,3.443-1.172,4.918l-1.514,5.41h5.639
	L60.457,65.704z"/>
<path d="M102.494,48.944h-2.449V37.126c0-0.074-0.012-0.148-0.021-0.223c-0.004-0.469-0.154-0.93-0.475-1.295L79.883,13.144
	c-0.006-0.006-0.012-0.008-0.016-0.014c-0.117-0.131-0.254-0.24-0.398-0.334c-0.043-0.029-0.086-0.053-0.131-0.078
	c-0.125-0.068-0.258-0.125-0.395-0.166c-0.037-0.01-0.07-0.025-0.107-0.035c-0.148-0.035-0.303-0.057-0.459-0.057H30.045
	c-2.207,0-4,1.795-4,4v32.484h-2.449c-3.156,0-5.717,2.559-5.717,5.717v29.73c0,3.156,2.561,5.717,5.717,5.717h2.449v20.352
	c0,2.205,1.793,4,4,4h66c2.205,0,4-1.795,4-4V90.108h2.449c3.158,0,5.717-2.561,5.717-5.717v-29.73
	C108.211,51.503,105.652,48.944,102.494,48.944z M30.045,16.46h46.332v20.465c0,1.105,0.896,2,2,2h17.668v10.02h-66V16.46z
	 M71.049,81.972h-6.203l-1.967-6.545h-7.303l-1.816,6.545h-5.977l7.793-25.498h7.566L71.049,81.972z M26.264,78.794
	c-2.348-2.193-3.633-5.521-3.594-9.268c0.037-8.475,6.203-13.318,14.563-13.318c3.291,0,5.826,0.645,7.074,1.25l-1.209,4.615
	c-1.4-0.605-3.141-1.098-5.939-1.098c-4.805,0-8.438,2.725-8.438,8.246c0,5.26,3.291,8.361,8.021,8.361
	c1.322,0,2.383-0.152,2.838-0.377v-5.334h-3.938V67.37h9.496V80.8c-1.777,0.605-5.143,1.438-8.512,1.438
	C31.975,82.237,28.607,81.063,26.264,78.794z M96.045,109.376h-66V90.108h66V109.376z M96.391,81.972l-0.377-9.76
	c-0.113-3.064-0.227-6.773-0.227-10.479h-0.115c-0.793,3.252-1.854,6.883-2.836,9.873l-3.104,9.949h-4.5l-2.725-9.873
	c-0.832-2.988-1.701-6.621-2.309-9.949h-0.074c-0.15,3.441-0.268,7.377-0.455,10.555l-0.453,9.684h-5.334l1.625-25.498h7.68
	l2.5,8.512c0.793,2.951,1.586,6.129,2.156,9.117h0.113c0.719-2.951,1.586-6.316,2.42-9.154l2.725-8.475h7.525l1.4,25.498H96.391z"/>
</svg>
