<?xml version="1.0" encoding="utf-8"?>
<!-- Generator: Adobe Illustrator 16.0.0, SVG Export Plug-In . SVG Version: 6.00 Build 0)  -->
<!DOCTYPE svg PUBLIC "-//W3C//DTD SVG 1.1//EN" "http://www.w3.org/Graphics/SVG/1.1/DTD/svg11.dtd">
<svg version="1.1" id="Layer_1" xmlns="http://www.w3.org/2000/svg" xmlns:xlink="http://www.w3.org/1999/xlink" x="0px" y="0px"
	 width="126px" height="126px" viewBox="0 0 126 126" enable-background="new 0 0 126 126" xml:space="preserve">
<path d="M103.207,49.021h-2.449V37.203c0-0.074-0.012-0.148-0.021-0.223c-0.004-0.469-0.154-0.93-0.475-1.295L80.596,13.22
	c-0.006-0.006-0.012-0.008-0.016-0.014c-0.117-0.131-0.254-0.24-0.398-0.334c-0.043-0.029-0.086-0.053-0.131-0.078
	c-0.125-0.068-0.258-0.125-0.395-0.166c-0.037-0.01-0.07-0.025-0.107-0.035c-0.148-0.035-0.303-0.057-0.459-0.057H30.758
	c-2.207,0-4,1.795-4,4v32.484h-2.449c-3.157,0-5.717,2.559-5.717,5.717v29.73c0,3.156,2.56,5.717,5.717,5.717h2.449v20.352
	c0,2.205,1.793,4,4,4h66c2.205,0,4-1.795,4-4V90.185h2.449c3.157,0,5.717-2.561,5.717-5.717v-29.73
	C108.924,51.58,106.364,49.021,103.207,49.021z M96.758,109.453h-66V90.185h66V109.453z M48.654,79.759
	c1.551,0,2.793-0.176,3.324-0.442V73.07h-4.609v-5.275h11.123v15.732c-2.082,0.709-6.029,1.683-9.971,1.683
	c-5.451,0-9.395-1.373-12.143-4.032c-2.748-2.57-4.254-6.47-4.209-10.856c0.043-9.926,7.268-15.598,17.061-15.598
	c3.854,0,6.822,0.753,8.285,1.462l-1.418,5.405c-1.639-0.709-3.678-1.284-6.959-1.284c-5.625,0-9.881,3.191-9.881,9.659
	C39.258,76.126,43.115,79.759,48.654,79.759z M63.768,84.9V55.035h6.779V84.9H63.768z M93.902,67.398v5.494H83.178V84.9h-6.779
	V55.035h18.258v5.537H83.178v6.826H93.902z M96.758,49.021h-66V16.537H77.09v20.465c0,1.105,0.896,2,2,2h17.668V49.021z"/>
</svg>
