<?xml version="1.0" encoding="utf-8"?>
<!-- Generator: Adobe Illustrator 16.0.0, SVG Export Plug-In . SVG Version: 6.00 Build 0)  -->
<!DOCTYPE svg PUBLIC "-//W3C//DTD SVG 1.1//EN" "http://www.w3.org/Graphics/SVG/1.1/DTD/svg11.dtd">
<svg version="1.1" id="Layer_1" xmlns="http://www.w3.org/2000/svg" xmlns:xlink="http://www.w3.org/1999/xlink" x="0px" y="0px"
	 width="126px" height="126px" viewBox="0 0 126 126" enable-background="new 0 0 126 126" xml:space="preserve">
<g>
	<path d="M101.737,41.524h-2.449V29.706c0-0.074-0.012-0.148-0.021-0.223c-0.004-0.469-0.154-0.93-0.475-1.295L79.125,5.724
		C79.12,5.718,79.114,5.716,79.11,5.71c-0.117-0.131-0.254-0.24-0.398-0.334c-0.043-0.029-0.086-0.053-0.131-0.078
		c-0.125-0.068-0.258-0.125-0.395-0.166c-0.037-0.01-0.07-0.025-0.107-0.035C77.93,5.062,77.776,5.04,77.62,5.04H29.288
		c-2.207,0-4,1.795-4,4v32.484h-2.449c-3.157,0-5.717,2.559-5.717,5.717v29.73c0,3.156,2.56,5.717,5.717,5.717h2.449v20.352
		c0,2.205,1.793,4,4,4h66c2.205,0,4-1.795,4-4V82.688h2.449c3.157,0,5.717-2.561,5.717-5.717v-29.73
		C107.454,44.083,104.894,41.524,101.737,41.524z M29.288,9.04H75.62v20.465c0,1.105,0.896,2,2,2h17.668v10.02h-66V9.04z
		 M73.727,55.635c0,2.531-0.843,4.679-2.377,6.134c-1.993,1.881-4.945,2.723-8.396,2.723c-0.767,0-1.457-0.038-1.993-0.115v9.241
		h-5.79V48.121c1.802-0.307,4.332-0.537,7.898-0.537c3.604,0,6.172,0.689,7.897,2.071C72.615,50.958,73.727,53.104,73.727,55.635z
		 M27.838,61.004c0.04-8.589,6.288-13.496,14.761-13.496c3.335,0,5.904,0.65,7.169,1.263l-1.226,4.68
		c-1.419-0.615-3.182-1.113-6.02-1.113c-4.869,0-8.55,2.761-8.55,8.359c0,5.329,3.336,8.473,8.128,8.473
		c1.343,0,2.415-0.152,2.876-0.383V63.38h-3.988v-4.563h9.624v13.61c-1.801,0.614-5.214,1.458-8.626,1.458
		c-4.716,0-8.127-1.188-10.505-3.489C29.104,68.172,27.801,64.798,27.838,61.004z M95.288,101.956h-66V82.688h66V101.956z
		 M89.98,73.617l-2.339-4.678c-0.958-1.802-1.572-3.145-2.3-4.64h-0.077c-0.537,1.495-1.188,2.838-1.994,4.64l-2.146,4.678h-6.672
		l7.476-13.076l-7.207-12.765h6.709l2.262,4.716c0.767,1.572,1.342,2.837,1.956,4.294h0.077c0.614-1.649,1.112-2.801,1.764-4.294
		l2.185-4.716h6.671L89.06,60.39l7.667,13.228H89.98z"/>
	<path d="M63.376,51.992c-1.189,0-1.994,0.115-2.415,0.231v7.628c0.498,0.117,1.111,0.155,1.955,0.155
		c3.105,0,5.023-1.573,5.023-4.218C67.938,53.412,66.289,51.992,63.376,51.992z"/>
</g>
</svg>
