<?xml version="1.0" encoding="utf-8"?>
<!-- Generator: Adobe Illustrator 16.0.0, SVG Export Plug-In . SVG Version: 6.00 Build 0)  -->
<!DOCTYPE svg PUBLIC "-//W3C//DTD SVG 1.1//EN" "http://www.w3.org/Graphics/SVG/1.1/DTD/svg11.dtd">
<svg version="1.1" id="Layer_1" xmlns="http://www.w3.org/2000/svg" xmlns:xlink="http://www.w3.org/1999/xlink" x="0px" y="0px"
	 width="126px" height="126px" viewBox="0 0 126 126" enable-background="new 0 0 126 126" xml:space="preserve">
<path d="M102.616,41.617h-2.449V29.799c0-0.074-0.012-0.148-0.021-0.223c-0.004-0.469-0.154-0.93-0.475-1.295L80.004,5.816
	c-0.006-0.006-0.012-0.008-0.016-0.014c-0.117-0.131-0.254-0.24-0.398-0.334c-0.043-0.029-0.086-0.053-0.131-0.078
	c-0.125-0.068-0.258-0.125-0.395-0.166c-0.037-0.01-0.07-0.025-0.107-0.035c-0.148-0.035-0.303-0.057-0.459-0.057H30.167
	c-2.207,0-4,1.795-4,4v32.484h-2.449c-3.157,0-5.717,2.559-5.717,5.717v29.73c0,3.156,2.56,5.717,5.717,5.717h2.449v20.352
	c0,2.205,1.793,4,4,4h66c2.205,0,4-1.795,4-4V82.781h2.449c3.157,0,5.717-2.561,5.717-5.717v-29.73
	C108.333,44.176,105.773,41.617,102.616,41.617z M96.167,102.049h-66V82.781h66V102.049z M49.634,70.888
	c1.459,0,2.627-0.166,3.127-0.416v-5.881h-4.337V59.63h10.467v14.805c-1.96,0.666-5.671,1.584-9.383,1.584
	c-5.13,0-8.841-1.293-11.426-3.797c-2.585-2.418-4.003-6.088-3.962-10.217c0.042-9.34,6.839-14.678,16.055-14.678
	c3.628,0,6.422,0.709,7.798,1.375L56.64,53.79c-1.543-0.666-3.462-1.209-6.547-1.209c-5.296,0-9.3,3.002-9.3,9.09
	C40.793,67.468,44.421,70.888,49.634,70.888z M63.316,52.874V47.62h20.392v3.668L70.614,70.306v0.166h13.302v5.254H62.065v-3.42
	L75.451,53.04v-0.166H63.316z M96.167,41.617h-66V9.133h46.332v20.465c0,1.105,0.896,2,2,2h17.668V41.617z"/>
</svg>
