<?xml version="1.0" encoding="utf-8"?>
<!-- Generator: Adobe Illustrator 16.0.0, SVG Export Plug-In . SVG Version: 6.00 Build 0)  -->
<!DOCTYPE svg PUBLIC "-//W3C//DTD SVG 1.1//EN" "http://www.w3.org/Graphics/SVG/1.1/DTD/svg11.dtd">
<svg version="1.1" id="Layer_1" xmlns="http://www.w3.org/2000/svg" xmlns:xlink="http://www.w3.org/1999/xlink" x="0px" y="0px"
	 width="126px" height="126px" viewBox="0 0 126 126" enable-background="new 0 0 126 126" xml:space="preserve">
<path d="M103.207,49.021h-2.449V37.203c0-0.074-0.012-0.148-0.021-0.223c-0.004-0.469-0.154-0.93-0.475-1.295L80.596,13.22
	c-0.006-0.006-0.012-0.008-0.016-0.014c-0.117-0.131-0.254-0.24-0.398-0.334c-0.043-0.029-0.086-0.053-0.131-0.078
	c-0.125-0.068-0.258-0.125-0.395-0.166c-0.037-0.01-0.07-0.025-0.107-0.035c-0.148-0.035-0.303-0.057-0.459-0.057H30.758
	c-2.207,0-4,1.795-4,4v32.484h-2.449c-3.157,0-5.717,2.559-5.717,5.717v29.73c0,3.156,2.56,5.717,5.717,5.717h2.449v20.352
	c0,2.205,1.793,4,4,4h66c2.205,0,4-1.795,4-4V90.185h2.449c3.157,0,5.717-2.561,5.717-5.717v-29.73
	C108.924,51.58,106.364,49.021,103.207,49.021z M30.758,16.537H77.09v20.465c0,1.105,0.896,2,2,2h17.668v10.02h-66V16.537z
	 M88.029,79.941h-4.834l-0.324-8.605c-0.098-2.703-0.195-5.97-0.195-9.24H82.58c-0.684,2.868-1.592,6.071-2.438,8.707l-2.658,8.771
	h-3.861l-2.338-8.704c-0.713-2.635-1.461-5.838-1.98-8.773H69.24c-0.131,3.037-0.229,6.505-0.389,9.306l-0.391,8.54h-4.576
	l1.395-22.481h6.588l2.143,7.504c0.684,2.602,1.363,5.404,1.852,8.04h0.096c0.619-2.603,1.363-5.57,2.078-8.072l2.336-7.472h6.459
	L88.029,79.941z M45.061,61.729v-4.27h16.809v4.27H55.9v18.211h-4.967V61.729H45.061z M29.314,70.535v9.406h-4.963V57.459h4.963
	v8.639h8.148v-8.639h4.934v22.481h-4.934v-9.406H29.314z M96.758,109.453h-66V90.185h66V109.453z M105.496,79.941H91.832V57.459
	h4.965V75.67h8.699V79.941z"/>
</svg>
