<?xml version="1.0" encoding="utf-8"?>
<!-- Generator: Adobe Illustrator 16.0.0, SVG Export Plug-In . SVG Version: 6.00 Build 0)  -->
<!DOCTYPE svg PUBLIC "-//W3C//DTD SVG 1.1//EN" "http://www.w3.org/Graphics/SVG/1.1/DTD/svg11.dtd">
<svg version="1.1" id="Layer_1" xmlns="http://www.w3.org/2000/svg" xmlns:xlink="http://www.w3.org/1999/xlink" x="0px" y="0px"
	 width="126px" height="126px" viewBox="0 0 126 126" enable-background="new 0 0 126 126" xml:space="preserve">
<path d="M66.396,68.829c0,3.261,1.531,5.562,4.054,5.562c2.545,0,4.003-2.424,4.003-5.663c0-2.989-1.432-5.56-4.029-5.56
	C67.878,63.168,66.396,65.589,66.396,68.829z"/>
<path d="M38.928,72.09c0-1.68-1.508-2.348-3.386-2.348h-1.285v4.698c0.371,0.049,0.816,0.049,1.458,0.049
	C37.42,74.489,38.928,73.846,38.928,72.09z"/>
<path d="M48.67,68.829c0,3.261,1.533,5.562,4.053,5.562c2.545,0,4.004-2.424,4.004-5.663c0-2.989-1.434-5.56-4.029-5.56
	C50.152,63.168,48.67,65.589,48.67,68.829z"/>
<path d="M103.207,48.521h-2.449V36.703c0-0.074-0.012-0.148-0.021-0.223c-0.004-0.469-0.154-0.93-0.475-1.295L80.596,12.721
	c-0.006-0.006-0.012-0.008-0.016-0.014c-0.117-0.131-0.254-0.24-0.398-0.334c-0.043-0.029-0.086-0.053-0.131-0.078
	c-0.125-0.068-0.258-0.125-0.395-0.166c-0.037-0.01-0.07-0.025-0.107-0.035c-0.148-0.035-0.303-0.057-0.459-0.057H30.758
	c-2.207,0-4,1.795-4,4v32.484h-2.449c-3.157,0-5.717,2.559-5.717,5.717v29.73c0,3.156,2.56,5.717,5.717,5.717h2.449v20.352
	c0,2.205,1.793,4,4,4h66c2.205,0,4-1.795,4-4V89.686h2.449c3.157,0,5.717-2.561,5.717-5.717v-29.73
	C108.924,51.08,106.364,48.521,103.207,48.521z M27.261,77.109H23.48V60.45h3.781V77.109z M30.758,16.037H77.09v20.465
	c0,1.105,0.896,2,2,2h17.668v10.02h-66V16.037z M84.713,67.814c0.371-0.642,0.766-1.234,1.137-1.829l3.782-5.535h4.622l-5.512,7.093
	l5.808,9.566h-4.399l-4.078-7.195L84.64,71.67v5.439h-3.733V60.45h3.733v7.364H84.713z M78.432,68.604
	c0,5.463-3.312,8.775-8.181,8.775c-4.943,0-7.835-3.73-7.835-8.476c0-4.995,3.188-8.726,8.107-8.726
	C75.639,60.179,78.432,64.011,78.432,68.604z M60.707,68.604c0,5.463-3.312,8.775-8.181,8.775c-4.943,0-7.835-3.73-7.835-8.476
	c0-4.995,3.188-8.726,8.107-8.726C57.914,60.179,60.707,64.011,60.707,68.604z M30.525,77.035V60.672
	c0.989-0.198,2.991-0.347,4.869-0.347c2.298,0,3.708,0.224,4.919,0.94c1.162,0.616,2.001,1.754,2.001,3.262
	c0,1.484-0.864,2.867-2.743,3.561v0.047c1.903,0.521,3.312,1.954,3.312,4.104c0,1.508-0.691,2.695-1.73,3.535
	c-1.211,0.965-3.237,1.508-6.55,1.508C32.75,77.281,31.366,77.158,30.525,77.035z M96.758,108.953h-66V89.686h66V108.953z
	 M100.164,77.356c-1.903,0-3.781-0.495-4.72-1.015l0.767-3.114c1.012,0.519,2.57,1.038,4.177,1.038c1.73,0,2.644-0.715,2.644-1.803
	c0-1.041-0.791-1.633-2.793-2.351c-2.768-0.963-4.573-2.494-4.573-4.917c0-2.844,2.373-5.017,6.304-5.017
	c1.878,0,3.262,0.394,4.251,0.84l-0.84,3.041c-0.667-0.32-1.854-0.792-3.485-0.792c-1.631,0-2.422,0.743-2.422,1.606
	c0,1.062,0.939,1.531,3.089,2.348c2.942,1.088,4.325,2.62,4.325,4.968C106.886,74.982,104.737,77.356,100.164,77.356z"/>
<path d="M38.533,64.997c0-1.258-0.964-1.928-2.67-1.928c-0.815,0-1.284,0.05-1.606,0.099v3.882h1.235
	C37.47,67.05,38.533,66.233,38.533,64.997z"/>
</svg>
