<?xml version="1.0" encoding="utf-8"?>
<!-- Generator: Adobe Illustrator 16.0.0, SVG Export Plug-In . SVG Version: 6.00 Build 0)  -->
<!DOCTYPE svg PUBLIC "-//W3C//DTD SVG 1.1//EN" "http://www.w3.org/Graphics/SVG/1.1/DTD/svg11.dtd">
<svg version="1.1" id="Layer_1" xmlns="http://www.w3.org/2000/svg" xmlns:xlink="http://www.w3.org/1999/xlink" x="0px" y="0px"
	 width="126px" height="126px" viewBox="0 0 126 126" enable-background="new 0 0 126 126" xml:space="preserve">
<path d="M101.487,41.505h-2.449V29.687c0-0.074-0.012-0.148-0.021-0.223c-0.004-0.469-0.154-0.93-0.475-1.295L78.875,5.704
	C78.87,5.698,78.864,5.696,78.86,5.69c-0.117-0.131-0.254-0.24-0.398-0.334c-0.043-0.029-0.086-0.053-0.131-0.078
	c-0.125-0.068-0.258-0.125-0.395-0.166c-0.037-0.01-0.07-0.025-0.107-0.035c-0.148-0.035-0.303-0.057-0.459-0.057H29.038
	c-2.207,0-4,1.795-4,4v32.484h-2.449c-3.157,0-5.717,2.559-5.717,5.717v29.73c0,3.156,2.56,5.717,5.717,5.717h2.449v20.352
	c0,2.205,1.793,4,4,4h66c2.205,0,4-1.795,4-4V82.669h2.449c3.157,0,5.717-2.561,5.717-5.717v-29.73
	C107.204,44.063,104.644,41.505,101.487,41.505z M29.038,9.021H75.37v20.465c0,1.105,0.896,2,2,2h17.668v10.02h-66V9.021z
	 M64.943,66.985v7.861h-5.421V48.745h6.893l5.422,9.564c1.549,2.75,3.098,6.004,4.26,8.947h0.116
	c-0.387-3.447-0.504-6.971-0.504-10.883v-7.629h5.422v26.102h-6.196l-5.576-10.068c-1.549-2.789-3.252-6.158-4.531-9.217
	l-0.116,0.039C64.866,59.046,64.943,62.724,64.943,66.985z M49.837,70.353c1.781,0,3.756-0.387,4.918-0.85l0.891,4.609
	c-1.084,0.541-3.524,1.123-6.699,1.123c-9.024,0-13.671-5.617-13.671-13.053c0-8.908,6.352-13.863,14.252-13.863
	c3.06,0,5.383,0.617,6.428,1.162l-1.201,4.686c-1.2-0.506-2.865-0.969-4.957-0.969c-4.686,0-8.327,2.828-8.327,8.637
	C41.472,67.062,44.57,70.353,49.837,70.353z M25.438,74.847V48.745h5.925v26.102H25.438z M95.038,101.937h-66V82.669h66V101.937z
	 M92.637,75.235c-2.982,0-5.926-0.777-7.397-1.59l1.201-4.879c1.588,0.813,4.028,1.625,6.544,1.625c2.711,0,4.144-1.123,4.144-2.824
	c0-1.629-1.239-2.559-4.376-3.682c-4.337-1.508-7.165-3.91-7.165-7.707c0-4.453,3.718-7.859,9.875-7.859
	c2.943,0,5.111,0.617,6.661,1.314l-1.316,4.764c-1.046-0.502-2.905-1.238-5.461-1.238c-2.556,0-3.795,1.162-3.795,2.518
	c0,1.664,1.472,2.4,4.841,3.68c4.609,1.703,6.778,4.104,6.778,7.783C103.171,71.515,99.801,75.235,92.637,75.235z"/>
</svg>
