<?xml version="1.0" encoding="utf-8"?>
<!-- Generator: Adobe Illustrator 16.0.0, SVG Export Plug-In . SVG Version: 6.00 Build 0)  -->
<!DOCTYPE svg PUBLIC "-//W3C//DTD SVG 1.1//EN" "http://www.w3.org/Graphics/SVG/1.1/DTD/svg11.dtd">
<svg version="1.1" id="Layer_1" xmlns="http://www.w3.org/2000/svg" xmlns:xlink="http://www.w3.org/1999/xlink" x="0px" y="0px"
	 width="126px" height="126px" viewBox="0 0 126 126" enable-background="new 0 0 126 126" xml:space="preserve">
<path d="M81.859,58.836c-4.869,0-7.705,4.635-7.705,10.828c0,6.238,2.93,10.637,7.754,10.637c4.869,0,7.657-4.633,7.657-10.826
	C89.565,63.754,86.824,58.836,81.859,58.836z"/>
<path d="M103.05,48.954h-2.449V37.136c0-0.074-0.012-0.148-0.021-0.223c-0.004-0.469-0.154-0.93-0.475-1.295L80.439,13.153
	c-0.006-0.006-0.012-0.008-0.016-0.014c-0.117-0.131-0.254-0.24-0.398-0.334c-0.043-0.029-0.086-0.053-0.131-0.078
	c-0.125-0.068-0.258-0.125-0.395-0.166c-0.037-0.01-0.07-0.025-0.107-0.035c-0.148-0.035-0.303-0.057-0.459-0.057H30.601
	c-2.207,0-4,1.795-4,4v32.484h-2.449c-3.157,0-5.717,2.559-5.717,5.717v29.73c0,3.156,2.56,5.717,5.717,5.717h2.449v20.352
	c0,2.205,1.793,4,4,4h66c2.205,0,4-1.795,4-4V90.118h2.449c3.157,0,5.717-2.561,5.717-5.717v-29.73
	C108.767,51.513,106.208,48.954,103.05,48.954z M30.601,16.47h46.332v20.465c0,1.105,0.896,2,2,2h17.668v10.02h-66V16.47z
	 M57.598,80.018c2.175,0,4.585-0.475,6.004-1.041l1.087,5.625c-1.324,0.664-4.303,1.373-8.178,1.373
	c-11.016,0-16.688-6.857-16.688-15.934c0-10.873,7.752-16.924,17.398-16.924c3.732,0,6.571,0.754,7.847,1.418l-1.466,5.721
	c-1.466-0.613-3.498-1.18-6.051-1.18c-5.722,0-10.165,3.447-10.165,10.541C47.386,75.998,51.168,80.018,57.598,80.018z M27.809,85.5
	V53.639h7.233V85.5H27.809z M96.601,109.386h-66V90.118h66V109.386z M81.529,86.021c-9.456,0-14.985-7.139-14.985-16.217
	c0-9.549,6.098-16.688,15.505-16.688c9.786,0,15.128,7.326,15.128,16.123C97.177,79.684,90.842,86.021,81.529,86.021z"/>
</svg>
