<?xml version="1.0" encoding="utf-8"?>
<!-- Generator: Adobe Illustrator 16.0.0, SVG Export Plug-In . SVG Version: 6.00 Build 0)  -->
<!DOCTYPE svg PUBLIC "-//W3C//DTD SVG 1.1//EN" "http://www.w3.org/Graphics/SVG/1.1/DTD/svg11.dtd">
<svg version="1.1" id="Layer_1" xmlns="http://www.w3.org/2000/svg" xmlns:xlink="http://www.w3.org/1999/xlink" x="0px" y="0px"
	 width="126px" height="126px" viewBox="0 0 126 126" enable-background="new 0 0 126 126" xml:space="preserve">
<path d="M102.328,48.429h-2.449V36.61c0-0.074-0.012-0.148-0.021-0.223c-0.004-0.469-0.154-0.93-0.475-1.295L79.717,12.628
	c-0.006-0.006-0.012-0.008-0.016-0.014c-0.117-0.131-0.254-0.24-0.398-0.334c-0.043-0.029-0.086-0.053-0.131-0.078
	c-0.125-0.068-0.258-0.125-0.395-0.166c-0.037-0.01-0.07-0.025-0.107-0.035c-0.148-0.035-0.303-0.057-0.459-0.057H29.879
	c-2.207,0-4,1.795-4,4v32.484H23.43c-3.157,0-5.717,2.559-5.717,5.717v29.73c0,3.156,2.56,5.717,5.717,5.717h2.449v20.352
	c0,2.205,1.793,4,4,4h66c2.205,0,4-1.795,4-4V89.593h2.449c3.157,0,5.717-2.561,5.717-5.717v-29.73
	C108.045,50.987,105.485,48.429,102.328,48.429z M95.879,108.86h-66V89.593h66V108.86z M33.791,83.791V52.85h7.022v30.941H33.791z
	 M62.714,78.465c2.11,0,4.452-0.459,5.83-1.01l1.056,5.463c-1.285,0.645-4.178,1.332-7.941,1.332
	c-10.697,0-16.206-6.656-16.206-15.471c0-10.559,7.529-16.436,16.894-16.436c3.628,0,6.381,0.734,7.622,1.379l-1.424,5.555
	c-1.423-0.598-3.397-1.148-5.876-1.148c-5.555,0-9.87,3.352-9.87,10.236C52.798,74.564,56.471,78.465,62.714,78.465z M81.907,70.799
	c-5.143-1.789-8.494-4.637-8.494-9.135c0-5.279,4.407-9.32,11.707-9.32c3.489,0,6.06,0.734,7.896,1.561l-1.561,5.648
	c-1.241-0.598-3.443-1.469-6.474-1.469s-4.499,1.377-4.499,2.982c0,1.975,1.744,2.846,5.738,4.361
	c5.463,2.02,8.034,4.867,8.034,9.227c0,5.189-3.995,9.596-12.487,9.596c-3.534,0-7.023-0.918-8.769-1.883l1.423-5.783
	c1.883,0.965,4.775,1.928,7.759,1.928c3.214,0,4.913-1.332,4.913-3.352C87.095,73.232,85.625,72.131,81.907,70.799z M95.879,48.429
	h-66V15.944h46.332v20.465c0,1.105,0.896,2,2,2h17.668V48.429z"/>
</svg>
