<?xml version="1.0" encoding="utf-8"?>
<!-- Generator: Adobe Illustrator 16.0.0, SVG Export Plug-In . SVG Version: 6.00 Build 0)  -->
<!DOCTYPE svg PUBLIC "-//W3C//DTD SVG 1.1//EN" "http://www.w3.org/Graphics/SVG/1.1/DTD/svg11.dtd">
<svg version="1.1" id="Layer_1" xmlns="http://www.w3.org/2000/svg" xmlns:xlink="http://www.w3.org/1999/xlink" x="0px" y="0px"
	 width="126px" height="126px" viewBox="0 0 126 126" enable-background="new 0 0 126 126" xml:space="preserve">
<path d="M83.154,59.279c-4.566,0-7.223,4.342-7.223,10.148c0,5.849,2.746,9.97,7.267,9.97c4.563,0,7.179-4.342,7.179-10.146
	C90.377,63.888,87.807,59.279,83.154,59.279z"/>
<path d="M102.328,48.928h-2.449V37.11c0-0.074-0.012-0.148-0.021-0.223c-0.004-0.469-0.154-0.93-0.475-1.295L79.717,13.127
	c-0.006-0.006-0.012-0.008-0.016-0.014c-0.117-0.131-0.254-0.24-0.398-0.334c-0.043-0.029-0.086-0.053-0.131-0.078
	c-0.125-0.068-0.258-0.125-0.395-0.166c-0.037-0.01-0.07-0.025-0.107-0.035c-0.148-0.035-0.303-0.057-0.459-0.057H29.879
	c-2.207,0-4,1.795-4,4v32.484H23.43c-3.157,0-5.717,2.559-5.717,5.717v29.73c0,3.156,2.56,5.717,5.717,5.717h2.449v20.352
	c0,2.205,1.793,4,4,4h66c2.205,0,4-1.795,4-4V90.092h2.449c3.157,0,5.717-2.561,5.717-5.717v-29.73
	C108.045,51.487,105.485,48.928,102.328,48.928z M29.879,16.444h46.332v20.465c0,1.105,0.896,2,2,2h17.668v10.02h-66V16.444z
	 M53.683,71.731c-4.963-1.729-8.199-4.476-8.199-8.818c0-5.096,4.256-8.996,11.301-8.996c3.368,0,5.85,0.709,7.622,1.507
	l-1.507,5.451c-1.195-0.577-3.323-1.419-6.247-1.419c-2.926,0-4.343,1.33-4.343,2.881c0,1.904,1.683,2.747,5.538,4.21
	c5.273,1.949,7.757,4.696,7.757,8.906c0,5.007-3.857,9.262-12.054,9.262c-3.412,0-6.78-0.887-8.463-1.818l1.373-5.583
	c1.815,0.931,4.609,1.861,7.487,1.861c3.104,0,4.742-1.284,4.742-3.234C58.689,74.081,57.273,73.015,53.683,71.731z M40.387,54.405
	v29.866h-6.778V54.405H40.387z M95.879,109.36h-66V90.092h66V109.36z M82.844,84.759c-8.863,0-14.049-6.692-14.049-15.199
	c0-8.952,5.718-15.643,14.535-15.643c9.173,0,14.182,6.87,14.182,15.112C97.511,78.822,91.572,84.759,82.844,84.759z"/>
</svg>
