<?xml version="1.0" encoding="utf-8"?>
<!-- Generator: Adobe Illustrator 16.0.0, SVG Export Plug-In . SVG Version: 6.00 Build 0)  -->
<!DOCTYPE svg PUBLIC "-//W3C//DTD SVG 1.1//EN" "http://www.w3.org/Graphics/SVG/1.1/DTD/svg11.dtd">
<svg version="1.1" id="Layer_1" xmlns="http://www.w3.org/2000/svg" xmlns:xlink="http://www.w3.org/1999/xlink" x="0px" y="0px"
	 width="126px" height="126px" viewBox="0 0 126 126" enable-background="new 0 0 126 126" xml:space="preserve">
<path d="M88.322,62.416c0-5.047-2.418-9.385-6.797-9.385c-4.297,0-6.797,4.088-6.797,9.551c0,5.504,2.584,9.383,6.838,9.383
	C85.863,71.965,88.322,67.879,88.322,62.416z"/>
<path d="M102.365,41.598h-2.449V29.779c0-0.074-0.012-0.148-0.021-0.223c-0.004-0.469-0.154-0.93-0.475-1.295L79.754,5.797
	c-0.006-0.006-0.012-0.008-0.016-0.014c-0.117-0.131-0.254-0.24-0.398-0.334c-0.043-0.029-0.086-0.053-0.131-0.078
	c-0.125-0.068-0.258-0.125-0.395-0.166c-0.037-0.01-0.07-0.025-0.107-0.035c-0.148-0.035-0.303-0.057-0.459-0.057H29.916
	c-2.207,0-4,1.795-4,4v32.484h-2.449c-3.156,0-5.717,2.559-5.717,5.717v29.73c0,3.156,2.561,5.717,5.717,5.717h2.449v20.352
	c0,2.205,1.793,4,4,4h66c2.205,0,4-1.795,4-4V82.762h2.449c3.158,0,5.717-2.561,5.717-5.717v-29.73
	C108.082,44.156,105.523,41.598,102.365,41.598z M95.916,102.029h-66V82.762h66V102.029z M34.898,76.551V48.445h6.379v28.105H34.898
	z M53.789,64.75c-4.67-1.625-7.715-4.211-7.715-8.297c0-4.797,4.004-8.467,10.635-8.467c3.17,0,5.504,0.666,7.172,1.416
	l-1.418,5.133c-1.125-0.545-3.125-1.336-5.879-1.336s-4.088,1.25-4.088,2.711c0,1.793,1.584,2.584,5.213,3.963
	c4.963,1.834,7.297,4.418,7.297,8.381c0,4.713-3.627,8.717-11.342,8.717c-3.211,0-6.381-0.836-7.965-1.711l1.293-5.256
	c1.711,0.879,4.338,1.754,7.049,1.754c2.918,0,4.461-1.211,4.461-3.045C58.502,66.961,57.168,65.961,53.789,64.75z M68.012,62.707
	c0-8.422,5.381-14.721,13.68-14.721c8.631,0,13.344,6.463,13.344,14.221c0,9.217-5.588,14.805-13.803,14.805
	C72.893,77.012,68.012,70.713,68.012,62.707z M95.916,41.598h-66V9.113h46.332v20.465c0,1.105,0.896,2,2,2h17.668V41.598z"/>
</svg>
