<?xml version="1.0" encoding="utf-8"?>
<!-- Generator: Adobe Illustrator 16.0.0, SVG Export Plug-In . SVG Version: 6.00 Build 0)  -->
<!DOCTYPE svg PUBLIC "-//W3C//DTD SVG 1.1//EN" "http://www.w3.org/Graphics/SVG/1.1/DTD/svg11.dtd">
<svg version="1.1" id="Layer_1" xmlns="http://www.w3.org/2000/svg" xmlns:xlink="http://www.w3.org/1999/xlink" x="0px" y="0px"
	 width="126px" height="126px" viewBox="0 0 126 126" enable-background="new 0 0 126 126" xml:space="preserve">
<path d="M103.207,48.521h-2.449V36.703c0-0.074-0.012-0.148-0.021-0.223c-0.004-0.469-0.154-0.93-0.475-1.295L80.596,12.721
	c-0.006-0.006-0.012-0.008-0.016-0.014c-0.117-0.131-0.254-0.24-0.398-0.334c-0.043-0.029-0.086-0.053-0.131-0.078
	c-0.125-0.068-0.258-0.125-0.395-0.166c-0.037-0.01-0.07-0.025-0.107-0.035c-0.148-0.035-0.303-0.057-0.459-0.057H30.758
	c-2.207,0-4,1.795-4,4v32.484h-2.449c-3.157,0-5.717,2.559-5.717,5.717v29.73c0,3.156,2.56,5.717,5.717,5.717h2.449v20.352
	c0,2.205,1.793,4,4,4h66c2.205,0,4-1.795,4-4V89.686h2.449c3.157,0,5.717-2.561,5.717-5.717v-29.73
	C108.924,51.08,106.364,48.521,103.207,48.521z M30.758,16.037H77.09v20.465c0,1.105,0.896,2,2,2h17.668v10.02h-66V16.037z
	 M71.232,65.84v4.986h-9.975v6.436h11.141v5.027H55.104V55.184h16.731v5.025H61.258v5.631H71.232z M30.405,82.289V55.184h6.073
	v11.984h0.12c0.604-1.047,1.247-2.012,1.851-2.977l6.154-9.008h7.52l-8.969,11.541l9.451,15.564h-7.158l-6.637-11.703l-2.332,2.855
	v8.848H30.405z M96.758,108.953h-66V89.686h66V108.953z M88.972,70.988v11.301h-6.113v-11.1l-8.565-16.006h6.997l2.774,6.514
	c0.846,1.971,1.409,3.42,2.092,5.188h0.081c0.604-1.689,1.246-3.256,2.052-5.188l2.734-6.514h6.876L88.972,70.988z"/>
</svg>
