<?xml version="1.0" encoding="utf-8"?>
<!-- Generator: Adobe Illustrator 16.0.0, SVG Export Plug-In . SVG Version: 6.00 Build 0)  -->
<!DOCTYPE svg PUBLIC "-//W3C//DTD SVG 1.1//EN" "http://www.w3.org/Graphics/SVG/1.1/DTD/svg11.dtd">
<svg version="1.1" id="Layer_1" xmlns="http://www.w3.org/2000/svg" xmlns:xlink="http://www.w3.org/1999/xlink" x="0px" y="0px"
	 width="126px" height="126px" viewBox="0 0 126 126" enable-background="new 0 0 126 126" xml:space="preserve">
<path d="M102.328,48.429h-2.449V36.61c0-0.074-0.012-0.148-0.021-0.223c-0.004-0.469-0.154-0.93-0.475-1.295L79.717,12.628
	c-0.006-0.006-0.012-0.008-0.016-0.014c-0.117-0.131-0.254-0.24-0.398-0.334c-0.043-0.029-0.086-0.053-0.131-0.078
	c-0.125-0.068-0.258-0.125-0.395-0.166c-0.037-0.01-0.07-0.025-0.107-0.035c-0.148-0.035-0.303-0.057-0.459-0.057H29.879
	c-2.207,0-4,1.795-4,4v32.484H23.43c-3.157,0-5.717,2.559-5.717,5.717v29.73c0,3.156,2.56,5.717,5.717,5.717h2.449v20.352
	c0,2.205,1.793,4,4,4h66c2.205,0,4-1.795,4-4V89.593h2.449c3.157,0,5.717-2.561,5.717-5.717v-29.73
	C108.045,50.987,105.485,48.429,102.328,48.429z M29.879,15.944h46.332v20.465c0,1.105,0.896,2,2,2h17.668v10.02h-66V15.944z
	 M71.003,68.391c0,8.887-5.389,14.277-13.312,14.277c-8.043,0-12.749-6.072-12.749-13.795c0-8.125,5.188-14.197,13.191-14.197
	C66.459,54.676,71.003,60.91,71.003,68.391z M27.162,82.225V55.119h6.153v21.959h10.779v5.146H27.162z M95.879,108.86h-66V89.593h66
	V108.86z M97.673,80.979c-1.891,0.643-5.47,1.527-9.049,1.527c-4.946,0-8.526-1.246-11.02-3.658
	c-2.493-2.332-3.861-5.873-3.82-9.854c0.04-9.01,6.595-14.158,15.484-14.158c3.499,0,6.193,0.686,7.521,1.328l-1.287,4.906
	c-1.488-0.643-3.338-1.166-6.314-1.166c-5.107,0-8.969,2.896-8.969,8.768c0,5.59,3.499,8.887,8.526,8.887
	c1.408,0,2.534-0.158,3.016-0.4v-5.672h-4.182v-4.785h10.094V80.979z"/>
<path d="M51.417,68.752c0,5.309,2.494,9.049,6.595,9.049c4.143,0,6.516-3.941,6.516-9.209c0-4.865-2.333-9.051-6.556-9.051
	C53.83,59.541,51.417,63.484,51.417,68.752z"/>
</svg>
