<?xml version="1.0" encoding="utf-8"?>
<!-- Generator: Adobe Illustrator 16.0.0, SVG Export Plug-In . SVG Version: 6.00 Build 0)  -->
<!DOCTYPE svg PUBLIC "-//W3C//DTD SVG 1.1//EN" "http://www.w3.org/Graphics/SVG/1.1/DTD/svg11.dtd">
<svg version="1.1" id="Layer_1" xmlns="http://www.w3.org/2000/svg" xmlns:xlink="http://www.w3.org/1999/xlink" x="0px" y="0px"
	 width="126px" height="126px" viewBox="0 0 126 126" enable-background="new 0 0 126 126" xml:space="preserve">
<path d="M103.207,48.521h-2.449V36.703c0-0.074-0.012-0.148-0.021-0.223c-0.004-0.469-0.154-0.93-0.475-1.295L80.596,12.721
	c-0.006-0.006-0.012-0.008-0.016-0.014c-0.117-0.131-0.254-0.24-0.398-0.334c-0.043-0.029-0.086-0.053-0.131-0.078
	c-0.125-0.068-0.258-0.125-0.395-0.166c-0.037-0.01-0.07-0.025-0.107-0.035c-0.148-0.035-0.303-0.057-0.459-0.057H30.758
	c-2.207,0-4,1.795-4,4v32.484h-2.449c-3.157,0-5.717,2.559-5.717,5.717v29.73c0,3.156,2.56,5.717,5.717,5.717h2.449v20.352
	c0,2.205,1.793,4,4,4h66c2.205,0,4-1.795,4-4V89.686h2.449c3.157,0,5.717-2.561,5.717-5.717v-29.73
	C108.924,51.08,106.364,48.521,103.207,48.521z M30.758,16.037H77.09v20.465c0,1.105,0.896,2,2,2h17.668v10.02h-66V16.037z
	 M64.05,70.794h-2.414v-4.242h2.297c1.985-0.039,4.516-0.777,4.516-2.92c0-1.518-1.246-2.646-3.737-2.646
	c-2.063,0-4.243,0.895-5.294,1.518l-1.206-4.281c1.518-0.975,4.554-1.906,7.825-1.906c5.41,0,8.408,2.84,8.408,6.303
	c0,2.688-1.519,4.791-4.633,5.879v0.078c3.037,0.547,5.489,2.842,5.489,6.15c0,4.479-3.932,7.748-10.355,7.748
	c-3.27,0-6.034-0.855-7.513-1.791l1.207-4.438c1.051,0.545,3.465,1.557,5.878,1.557c3.075,0,4.632-1.479,4.632-3.387
	C69.15,71.925,66.659,70.794,64.05,70.794z M30.499,82.046H25.01l1.674-26.238h7.902l2.569,8.76
	c0.818,3.035,1.635,6.307,2.219,9.381h0.117c0.74-3.037,1.635-6.502,2.492-9.42l2.802-8.721h7.747l1.44,26.238h-5.801l-0.389-10.043
	c-0.117-3.154-0.233-6.971-0.233-10.785h-0.117c-0.817,3.35-1.908,7.086-2.919,10.16l-3.192,10.24h-4.633l-2.803-10.162
	c-0.856-3.074-1.751-6.813-2.374-10.238h-0.079c-0.155,3.543-0.272,7.592-0.466,10.861L30.499,82.046z M96.758,108.953h-66V89.686
	h66V108.953z M101.536,70.522c0,8.098-4.088,11.951-10.939,11.951c-6.618,0-10.511-3.66-10.511-12.029V55.808h5.956v15.104
	c0,4.516,1.712,6.814,4.749,6.814c3.115,0,4.827-2.18,4.827-6.814V55.808h5.917V70.522z"/>
</svg>
