<?xml version="1.0" encoding="utf-8"?>
<!-- Generator: Adobe Illustrator 16.0.0, SVG Export Plug-In . SVG Version: 6.00 Build 0)  -->
<!DOCTYPE svg PUBLIC "-//W3C//DTD SVG 1.1//EN" "http://www.w3.org/Graphics/SVG/1.1/DTD/svg11.dtd">
<svg version="1.1" id="Layer_1" xmlns="http://www.w3.org/2000/svg" xmlns:xlink="http://www.w3.org/1999/xlink" x="0px" y="0px"
	 width="126px" height="126px" viewBox="0 0 126 126" enable-background="new 0 0 126 126" xml:space="preserve">
<path d="M68.85,65.989c0-1.516,0.077-3.074,0.194-4.709h-0.156c-0.816,1.635-1.479,3.113-2.335,4.709l-3.387,5.529v0.078h5.684
	V65.989z"/>
<path d="M90.725,60.269h-0.078c-0.389,1.557-0.778,3.541-1.207,5.061l-1.557,5.566h5.801l-1.636-5.566
	C91.582,63.772,91.115,61.825,90.725,60.269z"/>
<path d="M103.207,48.521h-2.449V36.703c0-0.074-0.012-0.148-0.021-0.223c-0.004-0.469-0.154-0.93-0.475-1.295L80.596,12.721
	c-0.006-0.006-0.012-0.008-0.016-0.014c-0.117-0.131-0.254-0.24-0.398-0.334c-0.043-0.029-0.086-0.053-0.131-0.078
	c-0.125-0.068-0.258-0.125-0.395-0.166c-0.037-0.01-0.07-0.025-0.107-0.035c-0.148-0.035-0.303-0.057-0.459-0.057H30.758
	c-2.207,0-4,1.795-4,4v32.484h-2.449c-3.157,0-5.717,2.559-5.717,5.717v29.73c0,3.156,2.56,5.717,5.717,5.717h2.449v20.352
	c0,2.205,1.793,4,4,4h66c2.205,0,4-1.795,4-4V89.686h2.449c3.157,0,5.717-2.561,5.717-5.717v-29.73
	C108.924,51.08,106.364,48.521,103.207,48.521z M30.758,16.037H77.09v20.465c0,1.105,0.896,2,2,2h17.668v10.02h-66V16.037z
	 M57.639,76.034v-3.854l9.576-15.416h7.24v14.832h3.036v4.438h-3.036v6.033H68.85v-6.033H57.639z M25.799,82.067l1.674-26.236h7.902
	l2.569,8.758c0.817,3.037,1.635,6.307,2.219,9.381h0.117c0.74-3.035,1.635-6.5,2.491-9.42l2.803-8.719h7.747l1.44,26.236h-5.8
	l-0.389-10.043c-0.117-3.154-0.233-6.969-0.233-10.785h-0.117c-0.817,3.35-1.908,7.086-2.919,10.162L42.11,81.64h-4.633
	l-2.803-10.16c-0.857-3.076-1.752-6.813-2.375-10.24h-0.078c-0.156,3.543-0.272,7.594-0.466,10.863l-0.468,9.965H25.799z
	 M96.758,108.953h-66V89.686h66V108.953z M96.564,82.067l-2.023-6.734h-7.514l-1.869,6.734h-6.15l8.02-26.236h7.786l8.136,26.236
	H96.564z"/>
</svg>
