<?xml version="1.0" encoding="utf-8"?>
<!-- Generator: Adobe Illustrator 16.0.0, SVG Export Plug-In . SVG Version: 6.00 Build 0)  -->
<!DOCTYPE svg PUBLIC "-//W3C//DTD SVG 1.1//EN" "http://www.w3.org/Graphics/SVG/1.1/DTD/svg11.dtd">
<svg version="1.1" id="Layer_1" xmlns="http://www.w3.org/2000/svg" xmlns:xlink="http://www.w3.org/1999/xlink" x="0px" y="0px"
	 width="126px" height="126px" viewBox="0 0 126 126" enable-background="new 0 0 126 126" xml:space="preserve">
<path d="M103.457,48.541h-2.449V36.723c0-0.074-0.012-0.148-0.021-0.223c-0.004-0.469-0.154-0.93-0.475-1.295L80.846,12.74
	c-0.006-0.006-0.012-0.008-0.016-0.014c-0.117-0.131-0.254-0.24-0.398-0.334c-0.043-0.029-0.086-0.053-0.131-0.078
	c-0.125-0.068-0.258-0.125-0.395-0.166c-0.037-0.01-0.07-0.025-0.107-0.035c-0.148-0.035-0.303-0.057-0.459-0.057H31.008
	c-2.207,0-4,1.795-4,4v32.484h-2.449c-3.157,0-5.717,2.559-5.717,5.717v29.73c0,3.156,2.56,5.717,5.717,5.717h2.449v20.352
	c0,2.205,1.793,4,4,4h66c2.205,0,4-1.795,4-4V89.705h2.449c3.157,0,5.717-2.561,5.717-5.717v-29.73
	C109.174,51.1,106.614,48.541,103.457,48.541z M31.008,16.057H77.34v20.465c0,1.105,0.896,2,2,2h17.668v10.02h-66V16.057z
	 M58.648,75.334v-3.848L68.206,56.1h7.228v14.805h3.031v4.43h-3.031v6.021h-5.596v-6.021H58.648z M26.867,81.355l1.671-26.188h7.888
	l2.564,8.742c0.816,3.031,1.633,6.295,2.215,9.363h0.117c0.738-3.029,1.632-6.488,2.487-9.402l2.797-8.703h7.732l1.438,26.188h-5.79
	l-0.388-10.023c-0.117-3.146-0.233-6.955-0.233-10.764h-0.117c-0.815,3.342-1.903,7.072-2.913,10.141L43.148,80.93h-4.624
	l-2.797-10.143c-0.855-3.068-1.749-6.799-2.37-10.219h-0.078c-0.156,3.537-0.272,7.576-0.466,10.842l-0.467,9.945H26.867z
	 M97.008,108.973h-66V89.705h66V108.973z M94.975,81.355h-6.917l-8.393-26.188h6.489l3.186,11.072
	c0.894,3.109,1.709,6.102,2.332,9.365h0.116c0.661-3.146,1.477-6.256,2.371-9.246L97.5,55.168h6.295L94.975,81.355z"/>
<path d="M69.838,65.309c0-1.514,0.078-3.07,0.194-4.701h-0.155c-0.815,1.631-1.476,3.107-2.332,4.701l-3.38,5.518v0.078h5.672
	V65.309z"/>
</svg>
