<?xml version="1.0" encoding="utf-8"?>
<!-- Generator: Adobe Illustrator 16.0.0, SVG Export Plug-In . SVG Version: 6.00 Build 0)  -->
<!DOCTYPE svg PUBLIC "-//W3C//DTD SVG 1.1//EN" "http://www.w3.org/Graphics/SVG/1.1/DTD/svg11.dtd">
<svg version="1.1" id="Layer_1" xmlns="http://www.w3.org/2000/svg" xmlns:xlink="http://www.w3.org/1999/xlink" x="0px" y="0px"
	 width="126px" height="126px" viewBox="0 0 126 126" enable-background="new 0 0 126 126" xml:space="preserve">
<path d="M47.966,68.861c-0.267-0.889-0.533-1.998-0.756-2.889h-0.045c-0.222,0.891-0.444,2.023-0.688,2.889l-0.89,3.18H48.9
	L47.966,68.861z"/>
<path d="M103.207,49.021h-2.449V37.203c0-0.074-0.012-0.148-0.021-0.223c-0.004-0.469-0.154-0.93-0.475-1.295L80.596,13.22
	c-0.006-0.006-0.012-0.008-0.016-0.014c-0.117-0.131-0.254-0.24-0.398-0.334c-0.043-0.029-0.086-0.053-0.131-0.078
	c-0.125-0.068-0.258-0.125-0.395-0.166c-0.037-0.01-0.07-0.025-0.107-0.035c-0.148-0.035-0.303-0.057-0.459-0.057H30.758
	c-2.207,0-4,1.795-4,4v32.484h-2.449c-3.157,0-5.717,2.559-5.717,5.717v29.73c0,3.156,2.56,5.717,5.717,5.717h2.449v20.352
	c0,2.205,1.793,4,4,4h66c2.205,0,4-1.795,4-4V90.185h2.449c3.157,0,5.717-2.561,5.717-5.717v-29.73
	C108.924,51.58,106.364,49.021,103.207,49.021z M30.758,16.537H77.09v20.465c0,1.105,0.896,2,2,2h17.668v10.02h-66V16.537z
	 M89.21,71.464v2.244h-5.823v-2.244H89.21z M72.269,72.152v6.27h-3.4V63.439h3.4v5.758h5.58v-5.758h3.379v14.982h-3.379v-6.27
	H72.269z M63.308,75.843c1.021,0,2.156-0.221,2.822-0.49l0.512,2.645c-0.622,0.313-2.023,0.645-3.847,0.645
	c-5.179,0-7.847-3.223-7.847-7.49c0-5.111,3.646-7.957,8.182-7.957c1.756,0,3.09,0.354,3.69,0.666l-0.69,2.689
	c-0.688-0.289-1.645-0.557-2.846-0.557c-2.688,0-4.778,1.623-4.778,4.959C58.506,73.953,60.284,75.843,63.308,75.843z
	 M54.189,78.421h-3.645l-1.156-3.846h-4.29l-1.067,3.846h-3.513l4.581-14.982h4.446L54.189,78.421z M29.199,78.177l-1.6-5.803
	c-0.489-1.756-1-3.891-1.356-5.846h-0.044c-0.089,2.023-0.156,4.334-0.268,6.201l-0.266,5.691h-3.134l0.956-14.982h4.512l1.468,5
	c0.466,1.734,0.933,3.602,1.267,5.359H30.8c0.423-1.734,0.933-3.711,1.423-5.381l1.6-4.979h4.423l0.822,14.982h-3.311l-0.222-5.736
	c-0.066-1.797-0.133-3.979-0.133-6.156h-0.067c-0.467,1.91-1.089,4.047-1.667,5.803l-1.824,5.846H29.199z M96.758,109.453h-66
	V90.185h66V109.453z M97.971,78.666c-4.445,0-7.046-3.355-7.046-7.625c0-4.49,2.867-7.846,7.29-7.846
	c4.603,0,7.115,3.443,7.115,7.58C105.33,75.687,102.351,78.666,97.971,78.666z"/>
<path d="M98.126,65.884c-2.289,0-3.623,2.178-3.623,5.09c0,2.934,1.379,5.002,3.646,5.002c2.291,0,3.601-2.178,3.601-5.088
	C101.749,68.195,100.461,65.884,98.126,65.884z"/>
</svg>
