<?xml version="1.0" encoding="utf-8"?>
<!-- Generator: Adobe Illustrator 16.0.0, SVG Export Plug-In . SVG Version: 6.00 Build 0)  -->
<!DOCTYPE svg PUBLIC "-//W3C//DTD SVG 1.1//EN" "http://www.w3.org/Graphics/SVG/1.1/DTD/svg11.dtd">
<svg version="1.1" id="Layer_1" xmlns="http://www.w3.org/2000/svg" xmlns:xlink="http://www.w3.org/1999/xlink" x="0px" y="0px"
	 width="126px" height="126px" viewBox="0 0 126 126" enable-background="new 0 0 126 126" xml:space="preserve">
<path d="M69.053,65.169c-0.453-1.506-0.904-3.391-1.281-4.898h-0.076c-0.377,1.508-0.754,3.43-1.168,4.898l-1.508,5.387h5.615
	L69.053,65.169z"/>
<path d="M103.207,48.521h-2.449V36.703c0-0.074-0.012-0.148-0.021-0.223c-0.004-0.469-0.154-0.93-0.475-1.295L80.596,12.721
	c-0.006-0.006-0.012-0.008-0.016-0.014c-0.117-0.131-0.254-0.24-0.398-0.334c-0.043-0.029-0.086-0.053-0.131-0.078
	c-0.125-0.068-0.258-0.125-0.395-0.166c-0.037-0.01-0.07-0.025-0.107-0.035c-0.148-0.035-0.303-0.057-0.459-0.057H30.758
	c-2.207,0-4,1.795-4,4v32.484h-2.449c-3.157,0-5.717,2.559-5.717,5.717v29.73c0,3.156,2.56,5.717,5.717,5.717h2.449v20.352
	c0,2.205,1.793,4,4,4h66c2.205,0,4-1.795,4-4V89.686h2.449c3.157,0,5.717-2.561,5.717-5.717v-29.73
	C108.924,51.08,106.364,48.521,103.207,48.521z M30.758,16.037H77.09v20.465c0,1.105,0.896,2,2,2h17.668v10.02h-66V16.037z
	 M79.6,81.368h-6.178l-1.961-6.518h-7.268l-1.809,6.518h-5.953l7.762-25.391h7.533L79.6,81.368z M25.957,81.368l1.619-25.391h7.648
	l2.486,8.475c0.791,2.939,1.582,6.104,2.146,9.08h0.113c0.717-2.939,1.582-6.291,2.412-9.115l2.711-8.439h7.498l1.393,25.391h-5.613
	l-0.377-9.719c-0.113-3.051-0.227-6.744-0.227-10.436h-0.113c-0.791,3.238-1.846,6.855-2.824,9.832l-3.09,9.906h-4.482l-2.711-9.83
	c-0.83-2.979-1.695-6.594-2.299-9.908h-0.074c-0.152,3.428-0.266,7.346-0.453,10.51l-0.451,9.645H25.957z M96.758,108.953h-66
	V89.686h66V108.953z M95.457,81.368l-2.299-4.596c-0.939-1.771-1.543-3.09-2.26-4.561h-0.074c-0.527,1.471-1.168,2.789-1.959,4.561
	l-2.109,4.596h-6.555l7.346-12.848l-7.084-12.543h6.594l2.225,4.635c0.752,1.543,1.316,2.785,1.92,4.217h0.074
	c0.604-1.619,1.092-2.75,1.734-4.217l2.146-4.635h6.555L94.553,68.37l7.537,12.998H95.457z"/>
</svg>
