<?xml version="1.0" encoding="utf-8"?>
<!-- Generator: Adobe Illustrator 16.0.0, SVG Export Plug-In . SVG Version: 6.00 Build 0)  -->
<!DOCTYPE svg PUBLIC "-//W3C//DTD SVG 1.1//EN" "http://www.w3.org/Graphics/SVG/1.1/DTD/svg11.dtd">
<svg version="1.1" id="Layer_1" xmlns="http://www.w3.org/2000/svg" xmlns:xlink="http://www.w3.org/1999/xlink" x="0px" y="0px"
	 width="126px" height="126px" viewBox="0 0 126 126" enable-background="new 0 0 126 126" xml:space="preserve">
<path d="M68.477,53.902c-1.332,0-2.193,0.117-2.703,0.236v17.275c0.51,0.117,1.332,0.117,2.078,0.117
	c5.404,0.041,8.932-2.938,8.932-9.244C76.82,56.803,73.609,53.902,68.477,53.902z"/>
<path d="M102.365,41.598h-2.449V29.779c0-0.074-0.012-0.148-0.021-0.223c-0.004-0.469-0.154-0.93-0.475-1.295L79.754,5.797
	c-0.006-0.006-0.012-0.008-0.016-0.014c-0.117-0.131-0.254-0.24-0.398-0.334c-0.043-0.029-0.086-0.053-0.131-0.078
	c-0.125-0.068-0.258-0.125-0.395-0.166c-0.037-0.01-0.07-0.025-0.107-0.035c-0.148-0.035-0.303-0.057-0.459-0.057H29.916
	c-2.207,0-4,1.795-4,4v32.484h-2.449c-3.156,0-5.717,2.559-5.717,5.717v29.73c0,3.156,2.561,5.717,5.717,5.717h2.449v20.352
	c0,2.205,1.793,4,4,4h66c2.205,0,4-1.795,4-4V82.762h2.449c3.158,0,5.717-2.561,5.717-5.717v-29.73
	C108.082,44.156,105.523,41.598,102.365,41.598z M29.916,9.113h46.332v20.465c0,1.105,0.896,2,2,2h17.668v10.02h-66V9.113z
	 M83.129,62.09c0,5.055-1.842,8.541-4.389,10.697c-2.779,2.311-7.014,3.406-12.182,3.406c-3.096,0-5.291-0.197-6.779-0.391V49.867
	c2.193-0.354,5.055-0.551,8.072-0.551c5.014,0,8.264,0.904,10.813,2.824C81.404,54.176,83.129,57.428,83.129,62.09z M26.043,75.92
	l1.684-26.406h7.953l2.588,8.814c0.822,3.057,1.645,6.348,2.234,9.443h0.115c0.744-3.057,1.646-6.543,2.508-9.48l2.82-8.777h7.795
	l1.451,26.406h-5.838l-0.391-10.107c-0.119-3.174-0.236-7.012-0.236-10.852h-0.117c-0.822,3.367-1.92,7.129-2.936,10.225
	L42.459,75.49h-4.662l-2.82-10.227c-0.863-3.096-1.764-6.855-2.391-10.303h-0.08c-0.156,3.563-0.273,7.639-0.469,10.93L31.566,75.92
	H26.043z M95.916,102.029h-66V82.762h66V102.029z M103.191,54.412H93.045v6.033h9.48v4.859h-9.48V75.92h-5.992V49.514h16.139V54.412
	z"/>
</svg>
