<?xml version="1.0" encoding="utf-8"?>
<!-- Generator: Adobe Illustrator 16.0.0, SVG Export Plug-In . SVG Version: 6.00 Build 0)  -->
<!DOCTYPE svg PUBLIC "-//W3C//DTD SVG 1.1//EN" "http://www.w3.org/Graphics/SVG/1.1/DTD/svg11.dtd">
<svg version="1.1" id="Layer_1" xmlns="http://www.w3.org/2000/svg" xmlns:xlink="http://www.w3.org/1999/xlink" x="0px" y="0px"
	 width="126px" height="126px" viewBox="0 0 126 126" enable-background="new 0 0 126 126" xml:space="preserve">
<path d="M69.199,60.107c-1.207,0-2.023,0.117-2.453,0.234v7.746c0.506,0.117,1.131,0.156,1.986,0.156c3.152,0,5.1-1.596,5.1-4.283
	C73.832,61.547,72.156,60.107,69.199,60.107z"/>
<path d="M90.957,60.264h-0.076c-0.391,1.557-0.779,3.543-1.207,5.061l-1.559,5.566h5.801l-1.635-5.566
	C91.813,63.768,91.346,61.82,90.957,60.264z"/>
<path d="M103.207,48.521h-2.449V36.703c0-0.074-0.012-0.148-0.021-0.223c-0.004-0.469-0.154-0.93-0.475-1.295L80.596,12.721
	c-0.006-0.006-0.012-0.008-0.016-0.014c-0.117-0.131-0.254-0.24-0.398-0.334c-0.043-0.029-0.086-0.053-0.131-0.078
	c-0.125-0.068-0.258-0.125-0.395-0.166c-0.037-0.01-0.07-0.025-0.107-0.035c-0.148-0.035-0.303-0.057-0.459-0.057H30.758
	c-2.207,0-4,1.795-4,4v32.484h-2.449c-3.157,0-5.717,2.559-5.717,5.717v29.73c0,3.156,2.56,5.717,5.717,5.717h2.449v20.352
	c0,2.205,1.793,4,4,4h66c2.205,0,4-1.795,4-4V89.686h2.449c3.157,0,5.717-2.561,5.717-5.717v-29.73
	C108.924,51.08,106.364,48.521,103.207,48.521z M30.758,16.037H77.09v20.465c0,1.105,0.896,2,2,2h17.668v10.02h-66V16.037z
	 M79.709,63.807c0,2.568-0.855,4.748-2.412,6.227c-2.023,1.908-5.021,2.766-8.525,2.766c-0.779,0-1.479-0.039-2.025-0.117v9.381
	h-5.879V56.176c1.83-0.311,4.4-0.545,8.02-0.545c3.66,0,6.268,0.701,8.021,2.104C78.582,59.057,79.709,61.236,79.709,63.807z
	 M27.355,82.063l1.674-26.238h7.902l2.568,8.76c0.816,3.037,1.635,6.307,2.219,9.383h0.119c0.74-3.037,1.635-6.502,2.49-9.422
	l2.803-8.721h7.748l1.439,26.238h-5.801L50.127,72.02c-0.115-3.152-0.232-6.967-0.232-10.783h-0.115
	c-0.818,3.348-1.91,7.084-2.922,10.16l-3.191,10.238h-4.633l-2.803-10.16c-0.857-3.074-1.752-6.813-2.373-10.238h-0.08
	c-0.154,3.543-0.271,7.592-0.467,10.861l-0.467,9.965H27.355z M96.758,108.953h-66V89.686h66V108.953z M96.797,82.063l-2.023-6.734
	H87.26l-1.869,6.734h-6.15l8.02-26.238h7.785l8.137,26.238H96.797z"/>
</svg>
