<?xml version="1.0" encoding="utf-8"?>
<!-- Generator: Adobe Illustrator 16.0.0, SVG Export Plug-In . SVG Version: 6.00 Build 0)  -->
<!DOCTYPE svg PUBLIC "-//W3C//DTD SVG 1.1//EN" "http://www.w3.org/Graphics/SVG/1.1/DTD/svg11.dtd">
<svg version="1.1" id="Layer_1" xmlns="http://www.w3.org/2000/svg" xmlns:xlink="http://www.w3.org/1999/xlink" x="0px" y="0px"
	 width="126px" height="126px" viewBox="0 0 126 126" enable-background="new 0 0 126 126" xml:space="preserve">
<path d="M102.328,48.928h-2.449V37.11c0-0.074-0.012-0.148-0.021-0.223c-0.004-0.469-0.154-0.93-0.475-1.295L79.717,13.127
	c-0.006-0.006-0.012-0.008-0.016-0.014c-0.117-0.131-0.254-0.24-0.398-0.334c-0.043-0.029-0.086-0.053-0.131-0.078
	c-0.125-0.068-0.258-0.125-0.395-0.166c-0.037-0.01-0.07-0.025-0.107-0.035c-0.148-0.035-0.303-0.057-0.459-0.057H29.879
	c-2.207,0-4,1.795-4,4v32.484H23.43c-3.157,0-5.717,2.559-5.717,5.717v29.73c0,3.156,2.56,5.717,5.717,5.717h2.449v20.352
	c0,2.205,1.793,4,4,4h66c2.205,0,4-1.795,4-4V90.092h2.449c3.157,0,5.717-2.561,5.717-5.717v-29.73
	C108.045,51.487,105.485,48.928,102.328,48.928z M29.879,16.444h46.332v20.465c0,1.105,0.896,2,2,2h17.668v10.02h-66V16.444z
	 M76.504,63.009c0,2.57-0.858,4.751-2.417,6.232c-2.024,1.907-5.022,2.765-8.528,2.765c-0.779,0-1.479-0.04-2.024-0.118v9.387
	h-5.881V55.375c1.829-0.311,4.399-0.544,8.021-0.544c3.662,0,6.271,0.7,8.023,2.103C75.371,58.257,76.504,60.438,76.504,63.009z
	 M29.61,81.275h-5.492l1.676-26.249h7.903l2.57,8.762c0.818,3.038,1.636,6.309,2.223,9.386h0.115
	c0.74-3.038,1.635-6.504,2.493-9.424l2.804-8.723h7.749l1.442,26.249H47.29L46.9,71.227c-0.118-3.155-0.233-6.972-0.233-10.789
	h-0.115c-0.82,3.349-1.909,7.088-2.921,10.165l-3.196,10.243h-4.633l-2.804-10.165c-0.856-3.077-1.753-6.815-2.376-10.243h-0.079
	c-0.156,3.544-0.271,7.595-0.467,10.865L29.61,81.275z M95.879,109.36h-66V90.092h66V109.36z M102.209,80.067
	c-1.832,0.623-5.297,1.48-8.764,1.48c-4.789,0-8.254-1.207-10.671-3.544c-2.414-2.258-3.739-5.687-3.698-9.541
	c0.039-8.723,6.387-13.709,14.992-13.709c3.388,0,5.999,0.663,7.283,1.285l-1.246,4.751c-1.44-0.623-3.231-1.13-6.114-1.13
	c-4.946,0-8.685,2.805-8.685,8.49c0,5.415,3.39,8.608,8.257,8.608c1.363,0,2.452-0.157,2.921-0.39v-5.492h-4.051v-4.633h9.775
	V80.067z"/>
<path d="M65.986,59.31c-1.207,0-2.024,0.116-2.452,0.234v7.75c0.505,0.116,1.128,0.156,1.986,0.156c3.154,0,5.103-1.598,5.103-4.285
	C70.623,60.751,68.946,59.31,65.986,59.31z"/>
</svg>
