<?xml version="1.0" encoding="utf-8"?>
<!-- Generator: Adobe Illustrator 16.0.0, SVG Export Plug-In . SVG Version: 6.00 Build 0)  -->
<!DOCTYPE svg PUBLIC "-//W3C//DTD SVG 1.1//EN" "http://www.w3.org/Graphics/SVG/1.1/DTD/svg11.dtd">
<svg version="1.1" id="Layer_1" xmlns="http://www.w3.org/2000/svg" xmlns:xlink="http://www.w3.org/1999/xlink" x="0px" y="0px"
	 width="126px" height="126px" viewBox="0 0 126 126" enable-background="new 0 0 126 126" xml:space="preserve">
<path d="M102.328,48.429h-2.449V36.61c0-0.074-0.012-0.148-0.021-0.223c-0.004-0.469-0.154-0.93-0.475-1.295L79.717,12.628
	c-0.006-0.006-0.012-0.008-0.016-0.014c-0.117-0.131-0.254-0.24-0.398-0.334c-0.043-0.029-0.086-0.053-0.131-0.078
	c-0.125-0.068-0.258-0.125-0.395-0.166c-0.037-0.01-0.07-0.025-0.107-0.035c-0.148-0.035-0.303-0.057-0.459-0.057H29.879
	c-2.207,0-4,1.795-4,4v32.484H23.43c-3.157,0-5.717,2.559-5.717,5.717v29.73c0,3.156,2.56,5.717,5.717,5.717h2.449v20.352
	c0,2.205,1.793,4,4,4h66c2.205,0,4-1.795,4-4V89.593h2.449c3.157,0,5.717-2.561,5.717-5.717v-29.73
	C108.045,50.987,105.485,48.429,102.328,48.429z M29.879,15.944h46.332v20.465c0,1.105,0.896,2,2,2h17.668v10.02h-66V15.944z
	 M63.296,70.367c-4.169-1.453-6.887-3.762-6.887-7.408c0-4.281,3.574-7.557,9.493-7.557c2.828,0,4.912,0.596,6.401,1.266
	l-1.266,4.578c-1.005-0.484-2.791-1.191-5.248-1.191s-3.648,1.117-3.648,2.42c0,1.602,1.415,2.307,4.653,3.537
	c4.43,1.639,6.514,3.945,6.514,7.482c0,4.205-3.238,7.779-10.125,7.779c-2.865,0-5.694-0.746-7.109-1.527l1.153-4.689
	c1.527,0.781,3.872,1.563,6.292,1.563c2.605,0,3.982-1.078,3.982-2.717C67.502,72.34,66.311,71.445,63.296,70.367z M24.986,80.9
	l1.601-25.088h7.557l2.457,8.375c0.781,2.902,1.563,6.029,2.122,8.971h0.111c0.708-2.904,1.563-6.217,2.382-9.008l2.681-8.338h7.407
	L52.681,80.9h-5.547l-0.372-9.604c-0.11-3.016-0.223-6.664-0.223-10.311h-0.111c-0.782,3.201-1.824,6.773-2.793,9.715l-3.051,9.789
	h-4.43l-2.68-9.715c-0.819-2.941-1.675-6.516-2.271-9.789h-0.075c-0.149,3.387-0.261,7.258-0.447,10.385L30.235,80.9H24.986z
	 M95.879,108.86h-66V89.593h66V108.86z M98.104,79.746c-1.75,0.596-5.063,1.416-8.375,1.416c-4.578,0-7.892-1.154-10.199-3.389
	c-2.308-2.158-3.574-5.434-3.536-9.121c0.037-8.338,6.104-13.102,14.331-13.102c3.237,0,5.731,0.633,6.96,1.229l-1.191,4.541
	c-1.376-0.596-3.089-1.078-5.843-1.078c-4.728,0-8.302,2.68-8.302,8.113c0,5.174,3.239,8.227,7.892,8.227
	c1.304,0,2.346-0.148,2.792-0.371v-5.25h-3.871v-4.43h9.343V79.746z"/>
</svg>
