<?xml version="1.0" encoding="utf-8"?>
<!-- Generator: Adobe Illustrator 16.0.0, SVG Export Plug-In . SVG Version: 6.00 Build 0)  -->
<!DOCTYPE svg PUBLIC "-//W3C//DTD SVG 1.1//EN" "http://www.w3.org/Graphics/SVG/1.1/DTD/svg11.dtd">
<svg version="1.1" id="Layer_1" xmlns="http://www.w3.org/2000/svg" xmlns:xlink="http://www.w3.org/1999/xlink" x="0px" y="0px"
	 width="126px" height="126px" viewBox="0 0 126 126" enable-background="new 0 0 126 126" xml:space="preserve">
<path d="M102.366,41.598h-2.449V29.779c0-0.074-0.012-0.148-0.021-0.223c-0.004-0.469-0.154-0.93-0.475-1.295L79.754,5.797
	c-0.006-0.006-0.012-0.008-0.016-0.014c-0.117-0.131-0.254-0.24-0.398-0.334c-0.043-0.029-0.086-0.053-0.131-0.078
	c-0.125-0.068-0.258-0.125-0.395-0.166c-0.037-0.01-0.07-0.025-0.107-0.035c-0.148-0.035-0.303-0.057-0.459-0.057H29.917
	c-2.207,0-4,1.795-4,4v32.484h-2.449c-3.157,0-5.717,2.559-5.717,5.717v29.73c0,3.156,2.56,5.717,5.717,5.717h2.449v20.352
	c0,2.205,1.793,4,4,4h66c2.205,0,4-1.795,4-4V82.762h2.449c3.157,0,5.717-2.561,5.717-5.717v-29.73
	C108.083,44.156,105.523,41.598,102.366,41.598z M95.917,102.029h-66V82.762h66V102.029z M30.548,74.863l1.792-28.107h8.467
	l2.753,9.381c0.875,3.254,1.75,6.756,2.376,10.051h0.125c0.793-3.254,1.752-6.963,2.669-10.092l3.002-9.34h8.3l1.542,28.107H55.36
	l-0.417-10.76c-0.125-3.379-0.25-7.465-0.25-11.551h-0.125c-0.877,3.584-2.043,7.588-3.127,10.885l-3.421,10.967h-4.962
	L40.056,63.52c-0.918-3.295-1.876-7.299-2.544-10.967h-0.084c-0.166,3.793-0.291,8.131-0.5,11.635l-0.5,10.676H30.548z
	 M73.464,63.059c-4.67-1.625-7.714-4.209-7.714-8.297c0-4.795,4.003-8.467,10.633-8.467c3.17,0,5.506,0.67,7.173,1.42l-1.417,5.129
	c-1.126-0.541-3.129-1.336-5.881-1.336s-4.086,1.254-4.086,2.713c0,1.791,1.585,2.584,5.213,3.961
	c4.963,1.834,7.298,4.422,7.298,8.381c0,4.713-3.629,8.717-11.344,8.717c-3.211,0-6.38-0.834-7.964-1.711l1.292-5.252
	c1.71,0.875,4.336,1.75,7.048,1.75c2.919,0,4.461-1.209,4.461-3.045C78.176,65.271,76.842,64.27,73.464,63.059z M88.98,74.863
	V46.756h6.38v28.107H88.98z M95.917,41.598h-66V9.113h46.332v20.465c0,1.105,0.896,2,2,2h17.668V41.598z"/>
</svg>
