<?xml version="1.0" encoding="utf-8"?>
<!-- Generator: Adobe Illustrator 16.0.0, SVG Export Plug-In . SVG Version: 6.00 Build 0)  -->
<!DOCTYPE svg PUBLIC "-//W3C//DTD SVG 1.1//EN" "http://www.w3.org/Graphics/SVG/1.1/DTD/svg11.dtd">
<svg version="1.1" id="Layer_1" xmlns="http://www.w3.org/2000/svg" xmlns:xlink="http://www.w3.org/1999/xlink" x="0px" y="0px"
	 width="126px" height="126px" viewBox="0 0 126 126" enable-background="new 0 0 126 126" xml:space="preserve">
<path d="M102.494,48.944h-2.449V37.126c0-0.074-0.012-0.148-0.021-0.223c-0.004-0.469-0.154-0.93-0.475-1.295L79.883,13.144
	c-0.006-0.006-0.012-0.008-0.016-0.014c-0.117-0.131-0.254-0.24-0.398-0.334c-0.043-0.029-0.086-0.053-0.131-0.078
	c-0.125-0.068-0.258-0.125-0.395-0.166c-0.037-0.01-0.07-0.025-0.107-0.035c-0.148-0.035-0.303-0.057-0.459-0.057H30.045
	c-2.207,0-4,1.795-4,4v32.484h-2.449c-3.156,0-5.717,2.559-5.717,5.717v29.73c0,3.156,2.561,5.717,5.717,5.717h2.449v20.352
	c0,2.205,1.793,4,4,4h66c2.205,0,4-1.795,4-4V90.108h2.449c3.158,0,5.717-2.561,5.717-5.717v-29.73
	C108.211,51.503,105.652,48.944,102.494,48.944z M30.045,16.46h46.332v20.465c0,1.105,0.896,2,2,2h17.668v10.02h-66V16.46z
	 M74.514,66.548v4.691h-9.383v6.051h10.479v4.73H59.344V56.522H75.08v4.729h-9.949v5.297H74.514z M38.541,74.341v7.68h-5.297V56.522
	h6.734l5.297,9.344c1.512,2.688,3.023,5.863,4.16,8.74h0.111c-0.377-3.367-0.49-6.811-0.49-10.631v-7.453h5.297v25.498h-6.055
	l-5.445-9.836c-1.514-2.725-3.178-6.016-4.426-9.002l-0.113,0.035C38.465,66.585,38.541,70.179,38.541,74.341z M96.045,109.376h-66
	V90.108h66V109.376z M85.783,82.399c-2.912,0-5.789-0.758-7.227-1.551l1.174-4.77c1.551,0.795,3.934,1.59,6.393,1.59
	c2.648,0,4.047-1.096,4.047-2.762c0-1.588-1.209-2.496-4.275-3.592c-4.236-1.477-6.996-3.822-6.996-7.529
	c0-4.352,3.631-7.68,9.646-7.68c2.873,0,4.992,0.605,6.506,1.287l-1.285,4.652c-1.021-0.492-2.838-1.211-5.334-1.211
	c-2.498,0-3.707,1.135-3.707,2.459c0,1.627,1.436,2.346,4.727,3.594c4.504,1.666,6.623,4.012,6.623,7.605
	C96.074,78.767,92.781,82.399,85.783,82.399z"/>
</svg>
