<?xml version="1.0" encoding="utf-8"?>
<!-- Generator: Adobe Illustrator 16.0.0, SVG Export Plug-In . SVG Version: 6.00 Build 0)  -->
<!DOCTYPE svg PUBLIC "-//W3C//DTD SVG 1.1//EN" "http://www.w3.org/Graphics/SVG/1.1/DTD/svg11.dtd">
<svg version="1.1" id="Layer_1" xmlns="http://www.w3.org/2000/svg" xmlns:xlink="http://www.w3.org/1999/xlink" x="0px" y="0px"
	 width="126px" height="126px" viewBox="0 0 126 126" enable-background="new 0 0 126 126" xml:space="preserve">
<path d="M42.466,67.861c0-4.791-2.296-8.91-6.453-8.91c-4.078,0-6.454,3.883-6.454,9.07c0,5.227,2.455,8.906,6.494,8.906
	C40.131,76.928,42.466,73.049,42.466,67.861z"/>
<path d="M61.593,59.031c-1.347,0-2.217,0.119-2.731,0.24V76.73c0.515,0.119,1.347,0.119,2.1,0.119
	c5.463,0.039,9.025-2.971,9.025-9.346C70.027,61.961,66.781,59.031,61.593,59.031z"/>
<path d="M102.328,48.429h-2.449V36.61c0-0.074-0.012-0.148-0.021-0.223c-0.004-0.469-0.154-0.93-0.475-1.295L79.717,12.628
	c-0.006-0.006-0.012-0.008-0.016-0.014c-0.117-0.131-0.254-0.24-0.398-0.334c-0.043-0.029-0.086-0.053-0.131-0.078
	c-0.125-0.068-0.258-0.125-0.395-0.166c-0.037-0.01-0.07-0.025-0.107-0.035c-0.148-0.035-0.303-0.057-0.459-0.057H29.879
	c-2.207,0-4,1.795-4,4v32.484H23.43c-3.157,0-5.717,2.559-5.717,5.717v29.73c0,3.156,2.56,5.717,5.717,5.717h2.449v20.352
	c0,2.205,1.793,4,4,4h66c2.205,0,4-1.795,4-4V89.593h2.449c3.157,0,5.717-2.561,5.717-5.717v-29.73
	C108.045,50.987,105.485,48.429,102.328,48.429z M29.879,15.944h46.332v20.465c0,1.105,0.896,2,2,2h17.668v10.02h-66V15.944z
	 M76.402,67.307c0,5.109-1.861,8.633-4.437,10.809c-2.811,2.336-7.086,3.447-12.313,3.447c-3.128,0-5.345-0.199-6.85-0.398V54.953
	c2.217-0.355,5.109-0.553,8.158-0.553c5.065,0,8.353,0.91,10.926,2.852C74.658,59.309,76.402,62.596,76.402,67.307z M23.185,68.139
	c0-8,5.107-13.977,12.986-13.977c8.196,0,12.669,6.139,12.669,13.5c0,8.752-5.304,14.057-13.106,14.057
	C27.815,81.719,23.185,75.742,23.185,68.139z M95.879,108.86h-66V89.593h66V108.86z M94.023,76.691c1.82,0,3.841-0.395,5.028-0.873
	l0.911,4.715c-1.108,0.553-3.604,1.146-6.851,1.146c-9.223,0-13.977-5.74-13.977-13.344c0-9.105,6.494-14.174,14.571-14.174
	c3.128,0,5.503,0.633,6.573,1.188l-1.229,4.789c-1.227-0.512-2.929-0.988-5.066-0.988c-4.792,0-8.514,2.891-8.514,8.83
	C85.472,73.324,88.638,76.691,94.023,76.691z"/>
</svg>
