<?xml version="1.0" encoding="utf-8"?>
<!-- Generator: Adobe Illustrator 16.0.0, SVG Export Plug-In . SVG Version: 6.00 Build 0)  -->
<!DOCTYPE svg PUBLIC "-//W3C//DTD SVG 1.1//EN" "http://www.w3.org/Graphics/SVG/1.1/DTD/svg11.dtd">
<svg version="1.1" id="Layer_1" xmlns="http://www.w3.org/2000/svg" xmlns:xlink="http://www.w3.org/1999/xlink" x="0px" y="0px"
	 width="126px" height="126px" viewBox="0 0 126 126" enable-background="new 0 0 126 126" xml:space="preserve">
<path d="M43.625,68.465c0-5.102-2.443-9.484-6.87-9.484c-4.34,0-6.869,4.131-6.869,9.65c0,5.564,2.613,9.486,6.913,9.486
	C41.141,78.117,43.625,73.986,43.625,68.465z"/>
<path d="M102.328,48.429h-2.449V36.61c0-0.074-0.012-0.148-0.021-0.223c-0.004-0.469-0.154-0.93-0.475-1.295L79.717,12.628
	c-0.006-0.006-0.012-0.008-0.016-0.014c-0.117-0.131-0.254-0.24-0.398-0.334c-0.043-0.029-0.086-0.053-0.131-0.078
	c-0.125-0.068-0.258-0.125-0.395-0.166c-0.037-0.01-0.07-0.025-0.107-0.035c-0.148-0.035-0.303-0.057-0.459-0.057H29.879
	c-2.207,0-4,1.795-4,4v32.484H23.43c-3.157,0-5.717,2.559-5.717,5.717v29.73c0,3.156,2.56,5.717,5.717,5.717h2.449v20.352
	c0,2.205,1.793,4,4,4h66c2.205,0,4-1.795,4-4V89.593h2.449c3.157,0,5.717-2.561,5.717-5.717v-29.73
	C108.045,50.987,105.485,48.429,102.328,48.429z M29.879,15.944h46.332v20.465c0,1.105,0.896,2,2,2h17.668v10.02h-66V15.944z
	 M79.754,67.875c0,5.436-1.981,9.188-4.723,11.506c-2.991,2.486-7.545,3.666-13.106,3.666c-3.33,0-5.691-0.209-7.293-0.422v-27.9
	c2.359-0.381,5.437-0.594,8.683-0.594c5.396,0,8.895,0.971,11.633,3.037C77.897,59.359,79.754,62.855,79.754,67.875z M23.099,68.76
	c0-8.516,5.438-14.879,13.825-14.879c8.726,0,13.488,6.533,13.488,14.371c0,9.314-5.647,14.965-13.952,14.965
	C28.029,83.217,23.099,76.852,23.099,68.76z M95.879,108.86h-66V89.593h66V108.86z M101.339,59.609H90.42v6.496h10.199v5.225H90.42
	v11.422h-6.448V54.344h17.367V59.609z"/>
<path d="M63.988,59.064c-1.431,0-2.359,0.125-2.907,0.252v18.59c0.548,0.125,1.433,0.125,2.233,0.125
	c5.816,0.043,9.61-3.16,9.61-9.945C72.966,62.186,69.511,59.064,63.988,59.064z"/>
</svg>
