<?xml version="1.0" encoding="utf-8"?>
<!-- Generator: Adobe Illustrator 16.0.0, SVG Export Plug-In . SVG Version: 6.00 Build 0)  -->
<!DOCTYPE svg PUBLIC "-//W3C//DTD SVG 1.1//EN" "http://www.w3.org/Graphics/SVG/1.1/DTD/svg11.dtd">
<svg version="1.1" id="Layer_1" xmlns="http://www.w3.org/2000/svg" xmlns:xlink="http://www.w3.org/1999/xlink" x="0px" y="0px"
	 width="126px" height="126px" viewBox="0 0 126 126" enable-background="new 0 0 126 126" xml:space="preserve">
<path d="M42.243,67.754c0-4.791-2.297-8.91-6.456-8.91c-4.078,0-6.454,3.881-6.454,9.066c0,5.229,2.455,8.912,6.495,8.912
	C39.906,76.822,42.243,72.941,42.243,67.754z"/>
<path d="M61.37,58.924c-1.344,0-2.217,0.117-2.731,0.234v17.465c0.515,0.117,1.347,0.117,2.099,0.117
	c5.466,0.041,9.029-2.967,9.029-9.344C69.805,61.854,66.559,58.924,61.37,58.924z"/>
<path d="M102.328,48.429h-2.449V36.61c0-0.074-0.012-0.148-0.021-0.223c-0.004-0.469-0.154-0.93-0.475-1.295L79.717,12.628
	c-0.006-0.006-0.012-0.008-0.016-0.014c-0.117-0.131-0.254-0.24-0.398-0.334c-0.043-0.029-0.086-0.053-0.131-0.078
	c-0.125-0.068-0.258-0.125-0.395-0.166c-0.037-0.01-0.07-0.025-0.107-0.035c-0.148-0.035-0.303-0.057-0.459-0.057H29.879
	c-2.207,0-4,1.795-4,4v32.484H23.43c-3.157,0-5.717,2.559-5.717,5.717v29.73c0,3.156,2.56,5.717,5.717,5.717h2.449v20.352
	c0,2.205,1.793,4,4,4h66c2.205,0,4-1.795,4-4V89.593h2.449c3.157,0,5.717-2.561,5.717-5.717v-29.73
	C108.045,50.987,105.485,48.429,102.328,48.429z M29.879,15.944h46.332v20.465c0,1.105,0.896,2,2,2h17.668v10.02h-66V15.944z
	 M76.179,67.199c0,5.107-1.858,8.633-4.434,10.811c-2.811,2.334-7.088,3.443-12.313,3.443c-3.129,0-5.348-0.197-6.854-0.395V54.846
	c2.22-0.355,5.109-0.557,8.158-0.557c5.069,0,8.354,0.912,10.929,2.85C74.438,59.199,76.179,62.486,76.179,67.199z M22.959,68.031
	c0-8,5.107-13.979,12.986-13.979c8.197,0,12.672,6.137,12.672,13.502c0,8.75-5.305,14.057-13.106,14.057
	C27.591,81.611,22.959,75.631,22.959,68.031z M95.879,108.86h-66V89.593h66V108.86z M102.436,79.949
	c-1.861,0.633-5.386,1.504-8.908,1.504c-4.872,0-8.395-1.227-10.849-3.602c-2.455-2.299-3.802-5.783-3.764-9.703
	c0.041-8.869,6.494-13.938,15.247-13.938c3.442,0,6.098,0.672,7.403,1.307l-1.268,4.832c-1.464-0.635-3.287-1.15-6.216-1.15
	c-5.029,0-8.831,2.852-8.831,8.633c0,5.504,3.445,8.75,8.394,8.75c1.388,0,2.496-0.156,2.97-0.395v-5.584h-4.116v-4.713h9.938
	V79.949z"/>
</svg>
