<?xml version="1.0" encoding="utf-8"?>
<!-- Generator: Adobe Illustrator 16.0.0, SVG Export Plug-In . SVG Version: 6.00 Build 0)  -->
<!DOCTYPE svg PUBLIC "-//W3C//DTD SVG 1.1//EN" "http://www.w3.org/Graphics/SVG/1.1/DTD/svg11.dtd">
<svg version="1.1" id="Layer_1" xmlns="http://www.w3.org/2000/svg" xmlns:xlink="http://www.w3.org/1999/xlink" x="0px" y="0px"
	 width="126px" height="126px" viewBox="0 0 126 126" enable-background="new 0 0 126 126" xml:space="preserve">
<path d="M69.232,58.947c-1.505,0-2.481,0.135-3.056,0.268v19.539c0.574,0.135,1.505,0.135,2.347,0.135
	c6.117,0.045,10.104-3.324,10.104-10.459C78.673,62.227,75.039,58.947,69.232,58.947z"/>
<path d="M40.649,78.977c4.563,0,7.177-4.344,7.177-10.146c0-5.363-2.57-9.973-7.223-9.973c-4.563,0-7.224,4.346-7.224,10.15
	C33.38,74.857,36.129,78.977,40.649,78.977z"/>
<path d="M102.328,48.429h-2.449V36.61c0-0.074-0.012-0.148-0.021-0.223c-0.004-0.469-0.154-0.93-0.475-1.295L79.717,12.628
	c-0.006-0.006-0.012-0.008-0.016-0.014c-0.117-0.131-0.254-0.24-0.398-0.334c-0.043-0.029-0.086-0.053-0.131-0.078
	c-0.125-0.068-0.258-0.125-0.395-0.166c-0.037-0.01-0.07-0.025-0.107-0.035c-0.148-0.035-0.303-0.057-0.459-0.057H29.879
	c-2.207,0-4,1.795-4,4v32.484H23.43c-3.157,0-5.717,2.559-5.717,5.717v29.73c0,3.156,2.56,5.717,5.717,5.717h2.449v20.352
	c0,2.205,1.793,4,4,4h66c2.205,0,4-1.795,4-4V89.593h2.449c3.157,0,5.717-2.561,5.717-5.717v-29.73
	C108.045,50.987,105.485,48.429,102.328,48.429z M29.879,15.944h46.332v20.465c0,1.105,0.896,2,2,2h17.668v10.02h-66V15.944z
	 M85.807,68.209c0,5.717-2.082,9.66-4.963,12.098c-3.147,2.615-7.933,3.855-13.782,3.855c-3.501,0-5.982-0.221-7.665-0.445V54.383
	c2.481-0.398,5.715-0.619,9.127-0.619c5.672,0,9.351,1.02,12.231,3.189C83.856,59.258,85.807,62.936,85.807,68.209z M26.246,69.139
	c0-8.951,5.716-15.643,14.535-15.643c9.173,0,14.179,6.869,14.179,15.111c0,9.795-5.937,15.73-14.667,15.73
	C31.431,84.338,26.246,77.648,26.246,69.139z M95.879,108.86h-66V89.593h66V108.86z M97.021,83.852h-6.78V53.984h6.78V83.852z"/>
</svg>
