<?xml version="1.0" encoding="utf-8"?>
<!-- Generator: Adobe Illustrator 16.0.0, SVG Export Plug-In . SVG Version: 6.00 Build 0)  -->
<!DOCTYPE svg PUBLIC "-//W3C//DTD SVG 1.1//EN" "http://www.w3.org/Graphics/SVG/1.1/DTD/svg11.dtd">
<svg version="1.1" id="Layer_1" xmlns="http://www.w3.org/2000/svg" xmlns:xlink="http://www.w3.org/1999/xlink" x="0px" y="0px"
	 width="126px" height="126px" viewBox="0 0 126 126" enable-background="new 0 0 126 126" xml:space="preserve">
<path d="M64.443,59.299c-1.404,0-2.315,0.127-2.852,0.25v18.24c0.536,0.125,1.404,0.125,2.19,0.125
	c5.708,0.041,9.43-3.105,9.43-9.762C73.256,62.359,69.862,59.299,64.443,59.299z"/>
<path d="M92.904,59.217c-1.281,0-2.152,0.125-2.606,0.248v8.23c0.539,0.127,1.2,0.166,2.111,0.166c3.35,0,5.419-1.693,5.419-4.549
	C97.828,60.746,96.047,59.217,92.904,59.217z"/>
<path d="M102.328,48.429h-2.449V36.61c0-0.074-0.012-0.148-0.021-0.223c-0.004-0.469-0.154-0.93-0.475-1.295L79.717,12.628
	c-0.006-0.006-0.012-0.008-0.016-0.014c-0.117-0.131-0.254-0.24-0.398-0.334c-0.043-0.029-0.086-0.053-0.131-0.078
	c-0.125-0.068-0.258-0.125-0.395-0.166c-0.037-0.01-0.07-0.025-0.107-0.035c-0.148-0.035-0.303-0.057-0.459-0.057H29.879
	c-2.207,0-4,1.795-4,4v32.484H23.43c-3.157,0-5.717,2.559-5.717,5.717v29.73c0,3.156,2.56,5.717,5.717,5.717h2.449v20.352
	c0,2.205,1.793,4,4,4h66c2.205,0,4-1.795,4-4V89.593h2.449c3.157,0,5.717-2.561,5.717-5.717v-29.73
	C108.045,50.987,105.485,48.429,102.328,48.429z M29.879,15.944h46.332v20.465c0,1.105,0.896,2,2,2h17.668v10.02h-66V15.944z
	 M79.913,67.945c0,5.338-1.942,9.016-4.633,11.291c-2.937,2.439-7.403,3.6-12.864,3.6c-3.268,0-5.583-0.207-7.155-0.416V55.041
	c2.317-0.373,5.335-0.58,8.521-0.58c5.294,0,8.728,0.951,11.416,2.979C78.093,59.59,79.913,63.023,79.913,67.945z M24.318,68.813
	c0-8.355,5.335-14.602,13.568-14.602c8.562,0,13.236,6.412,13.236,14.107c0,9.141-5.545,14.68-13.693,14.68
	C29.158,82.998,24.318,76.754,24.318,68.813z M95.879,108.86h-66V89.593h66V108.86z M101.508,69.766
	c-2.15,2.025-5.336,2.936-9.058,2.936c-0.827,0-1.573-0.041-2.152-0.125v9.971h-6.244V55.041c1.942-0.332,4.674-0.58,8.519-0.58
	c3.891,0,6.66,0.746,8.524,2.234c1.776,1.406,2.977,3.721,2.977,6.451S103.162,68.193,101.508,69.766z"/>
<path d="M44.462,68.523c0-5.006-2.399-9.307-6.741-9.307c-4.261,0-6.742,4.055-6.742,9.473c0,5.461,2.565,9.307,6.783,9.307
	C42.021,77.996,44.462,73.941,44.462,68.523z"/>
</svg>
