<?xml version="1.0" encoding="utf-8"?>
<!-- Generator: Adobe Illustrator 16.0.0, SVG Export Plug-In . SVG Version: 6.00 Build 0)  -->
<!DOCTYPE svg PUBLIC "-//W3C//DTD SVG 1.1//EN" "http://www.w3.org/Graphics/SVG/1.1/DTD/svg11.dtd">
<svg version="1.1" id="Layer_1" xmlns="http://www.w3.org/2000/svg" xmlns:xlink="http://www.w3.org/1999/xlink" x="0px" y="0px"
	 width="126px" height="126px" viewBox="0 0 126 126" enable-background="new 0 0 126 126" xml:space="preserve">
<path d="M64.417,59.356c-1.407,0-2.319,0.125-2.857,0.248v18.258c0.538,0.125,1.408,0.125,2.194,0.125
	c5.714,0.041,9.439-3.105,9.439-9.771C73.235,62.419,69.841,59.356,64.417,59.356z"/>
<path d="M102.328,48.429h-2.449V36.61c0-0.074-0.012-0.148-0.021-0.223c-0.004-0.469-0.154-0.93-0.475-1.295L79.717,12.628
	c-0.006-0.006-0.012-0.008-0.016-0.014c-0.117-0.131-0.254-0.24-0.398-0.334c-0.043-0.029-0.086-0.053-0.131-0.078
	c-0.125-0.068-0.258-0.125-0.395-0.166c-0.037-0.01-0.07-0.025-0.107-0.035c-0.148-0.035-0.303-0.057-0.459-0.057H29.879
	c-2.207,0-4,1.795-4,4v32.484H23.43c-3.157,0-5.717,2.559-5.717,5.717v29.73c0,3.156,2.56,5.717,5.717,5.717h2.449v20.352
	c0,2.205,1.793,4,4,4h66c2.205,0,4-1.795,4-4V89.593h2.449c3.157,0,5.717-2.561,5.717-5.717v-29.73
	C108.045,50.987,105.485,48.429,102.328,48.429z M29.879,15.944h46.332v20.465c0,1.105,0.896,2,2,2h17.668v10.02h-66V15.944z
	 M79.901,68.009c0,5.342-1.946,9.027-4.638,11.301c-2.938,2.445-7.41,3.605-12.876,3.605c-3.27,0-5.589-0.207-7.163-0.416V55.091
	c2.318-0.373,5.342-0.58,8.529-0.58c5.299,0,8.736,0.953,11.428,2.982C78.079,59.646,79.901,63.081,79.901,68.009z M24.251,68.878
	c0-8.365,5.342-14.617,13.581-14.617c8.572,0,13.25,6.42,13.25,14.121c0,9.15-5.549,14.697-13.704,14.697
	C29.096,83.079,24.251,76.829,24.251,68.878z M95.879,108.86h-66V89.593h66V108.86z M102.221,60.017h-7.618v22.609H88.27V60.017
	h-7.495v-5.299h21.446V60.017z"/>
<path d="M44.415,68.589c0-5.01-2.401-9.316-6.749-9.316c-4.264,0-6.749,4.061-6.749,9.482c0,5.465,2.567,9.314,6.79,9.314
	C41.972,78.069,44.415,74.011,44.415,68.589z"/>
</svg>
