<?xml version="1.0" encoding="utf-8"?>
<!-- Generator: Adobe Illustrator 16.0.0, SVG Export Plug-In . SVG Version: 6.00 Build 0)  -->
<!DOCTYPE svg PUBLIC "-//W3C//DTD SVG 1.1//EN" "http://www.w3.org/Graphics/SVG/1.1/DTD/svg11.dtd">
<svg version="1.1" id="Layer_1" xmlns="http://www.w3.org/2000/svg" xmlns:xlink="http://www.w3.org/1999/xlink" x="0px" y="0px"
	 width="126px" height="126px" viewBox="0 0 126 126" enable-background="new 0 0 126 126" xml:space="preserve">
<path d="M44.057,70.045c0-4.775-2.289-8.881-6.432-8.881c-4.063,0-6.432,3.867-6.432,9.037c0,5.209,2.445,8.879,6.47,8.879
	C41.729,79.081,44.057,75.213,44.057,70.045z"/>
<path d="M103.207,49.021h-2.449V37.203c0-0.074-0.012-0.148-0.021-0.223c-0.004-0.469-0.154-0.93-0.475-1.295L80.596,13.22
	c-0.006-0.006-0.012-0.008-0.016-0.014c-0.117-0.131-0.254-0.24-0.398-0.334c-0.043-0.029-0.086-0.053-0.131-0.078
	c-0.125-0.068-0.258-0.125-0.395-0.166c-0.037-0.01-0.07-0.025-0.107-0.035c-0.148-0.035-0.303-0.057-0.459-0.057H30.758
	c-2.207,0-4,1.795-4,4v32.484h-2.449c-3.157,0-5.717,2.559-5.717,5.717v29.73c0,3.156,2.56,5.717,5.717,5.717h2.449v20.352
	c0,2.205,1.793,4,4,4h66c2.205,0,4-1.795,4-4V90.185h2.449c3.157,0,5.717-2.561,5.717-5.717v-29.73
	C108.924,51.58,106.364,49.021,103.207,49.021z M30.758,16.537H77.09v20.465c0,1.105,0.896,2,2,2h17.668v10.02h-66V16.537z
	 M67.82,78.844c1.38,0,2.485-0.156,2.959-0.395v-5.564h-4.104v-4.699h9.906v14.012c-1.856,0.633-5.369,1.5-8.883,1.5
	c-4.854,0-8.364-1.223-10.813-3.592c-2.445-2.289-3.789-5.762-3.748-9.668c0.038-8.84,6.473-13.891,15.193-13.891
	c3.434,0,6.078,0.67,7.379,1.303l-1.262,4.814c-1.46-0.633-3.275-1.145-6.196-1.145c-5.011,0-8.801,2.842-8.801,8.604
	C59.452,75.608,62.886,78.844,67.82,78.844z M24.838,70.323c0-7.975,5.091-13.934,12.945-13.934c8.168,0,12.629,6.119,12.629,13.457
	c0,8.721-5.288,14.01-13.063,14.01C29.455,83.856,24.838,77.897,24.838,70.323z M96.758,109.453h-66V90.185h66V109.453z
	 M103.497,82.198c-1.854,0.633-5.367,1.5-8.88,1.5c-4.853,0-8.365-1.223-10.813-3.592c-2.448-2.289-3.787-5.762-3.749-9.668
	c0.039-8.84,6.473-13.891,15.194-13.891c3.433,0,6.078,0.67,7.381,1.303l-1.265,4.814c-1.459-0.633-3.274-1.145-6.196-1.145
	c-5.011,0-8.8,2.842-8.8,8.604c0,5.484,3.434,8.721,8.367,8.721c1.38,0,2.486-0.156,2.96-0.395v-5.564h-4.104v-4.699h9.904V82.198z"
	/>
</svg>
