<?xml version="1.0" encoding="utf-8"?>
<!-- Generator: Adobe Illustrator 16.0.0, SVG Export Plug-In . SVG Version: 6.00 Build 0)  -->
<!DOCTYPE svg PUBLIC "-//W3C//DTD SVG 1.1//EN" "http://www.w3.org/Graphics/SVG/1.1/DTD/svg11.dtd">
<svg version="1.1" id="Layer_1" xmlns="http://www.w3.org/2000/svg" xmlns:xlink="http://www.w3.org/1999/xlink" x="0px" y="0px"
	 width="126px" height="126px" viewBox="0 0 126 126" enable-background="new 0 0 126 126" xml:space="preserve">
<path d="M42.49,63.147c0-2.645-1.834-4.225-5.072-4.225c-1.326,0-2.221,0.129-2.689,0.258v8.488c0.553,0.127,1.236,0.17,2.174,0.17
	C40.357,67.839,42.49,66.091,42.49,63.147z"/>
<path d="M102.494,48.944h-2.449V37.126c0-0.074-0.012-0.148-0.021-0.223c-0.004-0.469-0.154-0.93-0.475-1.295L79.883,13.144
	c-0.006-0.006-0.012-0.008-0.016-0.014c-0.117-0.131-0.254-0.24-0.398-0.334c-0.043-0.029-0.086-0.053-0.131-0.078
	c-0.125-0.068-0.258-0.125-0.395-0.166c-0.037-0.01-0.07-0.025-0.107-0.035c-0.148-0.035-0.303-0.057-0.459-0.057H30.045
	c-2.207,0-4,1.795-4,4v32.484h-2.449c-3.156,0-5.717,2.559-5.717,5.717v29.73c0,3.156,2.561,5.717,5.717,5.717h2.449v20.352
	c0,2.205,1.793,4,4,4h66c2.205,0,4-1.795,4-4V90.108h2.449c3.158,0,5.717-2.561,5.717-5.717v-29.73
	C108.211,51.503,105.652,48.944,102.494,48.944z M30.045,16.46h46.332v20.465c0,1.105,0.896,2,2,2h17.668v10.02h-66V16.46z
	 M67.783,78.032c1.961,0,4.139-0.428,5.416-0.938l0.982,5.076c-1.195,0.596-3.883,1.236-7.379,1.236
	c-9.938,0-15.057-6.184-15.057-14.375c0-9.811,6.996-15.27,15.695-15.27c3.371,0,5.93,0.684,7.082,1.279l-1.324,5.162
	c-1.322-0.555-3.156-1.066-5.459-1.066c-5.16,0-9.172,3.113-9.172,9.512C58.568,74.407,61.98,78.032,67.783,78.032z M28.287,82.979
	V54.616c2.004-0.342,4.822-0.596,8.789-0.596c4.008,0,6.865,0.766,8.783,2.303c1.836,1.449,3.072,3.838,3.072,6.652
	c0,2.816-0.938,5.203-2.645,6.826c-2.217,2.09-5.502,3.027-9.342,3.027c-0.854,0-1.619-0.043-2.217-0.129v10.279H28.287z
	 M96.045,109.376h-66V90.108h66V109.376z M98.961,59.692h-7.85v23.287h-6.523V59.692h-7.721v-5.461h22.094V59.692z"/>
</svg>
