<?xml version="1.0" encoding="utf-8"?>
<!-- Generator: Adobe Illustrator 16.0.0, SVG Export Plug-In . SVG Version: 6.00 Build 0)  -->
<!DOCTYPE svg PUBLIC "-//W3C//DTD SVG 1.1//EN" "http://www.w3.org/Graphics/SVG/1.1/DTD/svg11.dtd">
<svg version="1.1" id="Layer_1" xmlns="http://www.w3.org/2000/svg" xmlns:xlink="http://www.w3.org/1999/xlink" x="0px" y="0px"
	 width="126px" height="126px" viewBox="0 0 126 126" enable-background="new 0 0 126 126" xml:space="preserve">
<g>
	<path d="M42.225,63.711c0-2.398-1.665-3.831-4.605-3.831c-1.199,0-2.012,0.118-2.437,0.233v7.699
		c0.502,0.118,1.122,0.155,1.971,0.155C40.289,67.968,42.225,66.382,42.225,63.711z"/>
	<path d="M60.406,59.958c-1.315,0-2.167,0.117-2.669,0.232v17.063c0.502,0.116,1.316,0.116,2.051,0.116
		c5.338,0.04,8.822-2.9,8.822-9.13C68.649,62.822,65.476,59.958,60.406,59.958z"/>
	<path d="M102.495,48.944h-2.449V37.126c0-0.074-0.012-0.148-0.021-0.223c-0.004-0.469-0.154-0.93-0.475-1.295L79.883,13.144
		c-0.006-0.006-0.012-0.008-0.016-0.014c-0.117-0.131-0.254-0.24-0.398-0.334c-0.043-0.029-0.086-0.053-0.131-0.078
		c-0.125-0.068-0.258-0.125-0.395-0.166c-0.037-0.01-0.07-0.025-0.107-0.035c-0.148-0.035-0.303-0.057-0.459-0.057H30.045
		c-2.207,0-4,1.795-4,4v32.484h-2.449c-3.157,0-5.717,2.559-5.717,5.717v29.73c0,3.156,2.56,5.717,5.717,5.717h2.449v20.352
		c0,2.205,1.793,4,4,4h66c2.205,0,4-1.795,4-4V90.108h2.449c3.157,0,5.717-2.561,5.717-5.717v-29.73
		C108.211,51.503,105.652,48.944,102.495,48.944z M30.045,16.46h46.332v20.465c0,1.105,0.896,2,2,2h17.668v10.02h-66V16.46z
		 M74.876,68.046c0,4.99-1.817,8.435-4.332,10.563c-2.748,2.281-6.926,3.365-12.033,3.365c-3.057,0-5.223-0.193-6.694-0.387V55.974
		c2.167-0.349,4.991-0.54,7.972-0.54c4.951,0,8.164,0.889,10.679,2.785C73.175,60.229,74.876,63.442,74.876,68.046z M29.339,81.704
		v-25.73c1.818-0.309,4.373-0.54,7.97-0.54c3.637,0,6.229,0.693,7.971,2.088c1.664,1.315,2.787,3.482,2.787,6.036
		s-0.852,4.72-2.399,6.191c-2.012,1.895-4.991,2.747-8.474,2.747c-0.773,0-1.471-0.04-2.01-0.117v9.325H29.339z M96.045,109.376h-66
		V90.108h66V109.376z M95.383,79.614c-1.897,1.51-5.069,2.36-10.254,2.36c-2.901,0-5.069-0.193-6.384-0.387V55.974
		c1.549-0.309,4.681-0.54,7.622-0.54c3.599,0,5.804,0.347,7.701,1.469c1.818,0.968,3.133,2.747,3.133,5.107
		c0,2.321-1.354,4.488-4.294,5.571v0.076c2.979,0.814,5.185,3.058,5.185,6.425C98.092,76.44,97.008,78.299,95.383,79.614z"/>
	<path d="M91.281,62.745c0-1.975-1.508-3.019-4.178-3.019c-1.277,0-2.012,0.078-2.514,0.153v6.076h1.934
		C89.618,65.956,91.281,64.679,91.281,62.745z"/>
	<path d="M86.6,70.174h-2.011v7.351c0.58,0.078,1.277,0.078,2.283,0.078c2.67,0,5.029-1.007,5.029-3.754
		C91.9,71.218,89.542,70.174,86.6,70.174z"/>
</g>
</svg>
