<?xml version="1.0" encoding="utf-8"?>
<!-- Generator: Adobe Illustrator 16.0.0, SVG Export Plug-In . SVG Version: 6.00 Build 0)  -->
<!DOCTYPE svg PUBLIC "-//W3C//DTD SVG 1.1//EN" "http://www.w3.org/Graphics/SVG/1.1/DTD/svg11.dtd">
<svg version="1.1" id="Layer_1" xmlns="http://www.w3.org/2000/svg" xmlns:xlink="http://www.w3.org/1999/xlink" x="0px" y="0px"
	 width="126px" height="126px" viewBox="0 0 126 126" enable-background="new 0 0 126 126" xml:space="preserve">
<path d="M102.745,48.964h-2.449V37.146c0-0.074-0.012-0.148-0.021-0.223c-0.004-0.469-0.154-0.93-0.475-1.295L80.133,13.163
	c-0.006-0.006-0.012-0.008-0.016-0.014c-0.117-0.131-0.254-0.24-0.398-0.334c-0.043-0.029-0.086-0.053-0.131-0.078
	c-0.125-0.068-0.258-0.125-0.395-0.166c-0.037-0.01-0.07-0.025-0.107-0.035c-0.148-0.035-0.303-0.057-0.459-0.057H30.295
	c-2.207,0-4,1.795-4,4v32.484h-2.449c-3.157,0-5.717,2.559-5.717,5.717v29.73c0,3.156,2.56,5.717,5.717,5.717h2.449v20.352
	c0,2.205,1.793,4,4,4h66c2.205,0,4-1.795,4-4V90.128h2.449c3.157,0,5.717-2.561,5.717-5.717v-29.73
	C108.461,51.522,105.902,48.964,102.745,48.964z M96.295,109.396h-66V90.128h66V109.396z M34.35,83.676V53.533
	c2.13-0.363,5.124-0.635,9.339-0.635c4.261,0,7.297,0.816,9.336,2.447c1.95,1.541,3.265,4.08,3.265,7.07
	c0,2.992-0.998,5.531-2.811,7.254c-2.356,2.221-5.848,3.219-9.928,3.219c-0.906,0-1.721-0.047-2.356-0.137v10.924H34.35z
	 M60.683,83.676V53.125h6.937v30.551H60.683z M91.505,65.771v5.619H80.537v12.285H73.6V53.125h18.675v5.666H80.537v6.98H91.505z
	 M96.295,48.964h-66V16.479h46.332v20.465c0,1.105,0.896,2,2,2h17.668V48.964z"/>
<path d="M49.445,62.598c0-2.811-1.95-4.486-5.393-4.486c-1.407,0-2.359,0.137-2.856,0.271v9.021c0.589,0.135,1.315,0.18,2.311,0.18
	C47.177,67.584,49.445,65.727,49.445,62.598z"/>
</svg>
