<?xml version="1.0" encoding="utf-8"?>
<!-- Generator: Adobe Illustrator 16.0.0, SVG Export Plug-In . SVG Version: 6.00 Build 0)  -->
<!DOCTYPE svg PUBLIC "-//W3C//DTD SVG 1.1//EN" "http://www.w3.org/Graphics/SVG/1.1/DTD/svg11.dtd">
<svg version="1.1" id="Layer_1" xmlns="http://www.w3.org/2000/svg" xmlns:xlink="http://www.w3.org/1999/xlink" x="0px" y="0px"
	 width="126px" height="126px" viewBox="0 0 126 126" enable-background="new 0 0 126 126" xml:space="preserve">
<path d="M63.883,59.168c-1.373,0-2.304,0.132-2.792,0.264v8.82c0.577,0.132,1.286,0.177,2.26,0.177c3.59,0,5.805-1.817,5.805-4.875
	C69.156,60.807,67.251,59.168,63.883,59.168z"/>
<path d="M43.406,63.554c0-2.747-1.904-4.386-5.272-4.386c-1.373,0-2.304,0.132-2.792,0.264v8.82c0.577,0.132,1.287,0.177,2.26,0.177
	C41.192,68.429,43.406,66.612,43.406,63.554z"/>
<path d="M102.328,48.928h-2.449V37.11c0-0.074-0.012-0.148-0.021-0.223c-0.004-0.469-0.154-0.93-0.475-1.295L79.717,13.127
	c-0.006-0.006-0.012-0.008-0.016-0.014c-0.117-0.131-0.254-0.24-0.398-0.334c-0.043-0.029-0.086-0.053-0.131-0.078
	c-0.125-0.068-0.258-0.125-0.395-0.166c-0.037-0.01-0.07-0.025-0.107-0.035c-0.148-0.035-0.303-0.057-0.459-0.057H29.879
	c-2.207,0-4,1.795-4,4v32.484H23.43c-3.157,0-5.717,2.559-5.717,5.717v29.73c0,3.156,2.56,5.717,5.717,5.717h2.449v20.352
	c0,2.205,1.793,4,4,4h66c2.205,0,4-1.795,4-4V90.092h2.449c3.157,0,5.717-2.561,5.717-5.717v-29.73
	C108.045,51.487,105.485,48.928,102.328,48.928z M29.879,16.444h46.332v20.465c0,1.105,0.896,2,2,2h17.668v10.02h-66V16.444z
	 M75.847,63.377c0,2.925-0.974,5.406-2.746,7.089c-2.306,2.171-5.718,3.147-9.707,3.147c-0.885,0-1.683-0.046-2.303-0.133V84.16
	h-6.692V54.691c2.083-0.354,5.009-0.621,9.13-0.621c4.165,0,7.134,0.798,9.127,2.394C74.563,57.971,75.847,60.452,75.847,63.377z
	 M28.65,84.16V54.691c2.083-0.354,5.009-0.621,9.13-0.621c4.165,0,7.134,0.798,9.127,2.394c1.907,1.507,3.191,3.988,3.191,6.913
	c0,2.925-0.974,5.406-2.746,7.089c-2.306,2.171-5.718,3.147-9.707,3.147c-0.885,0-1.683-0.046-2.304-0.133V84.16H28.65z
	 M95.879,109.36h-66V90.092h66V109.36z M100.844,59.965H92.69V84.16h-6.78V59.965h-8.021v-5.672h22.955V59.965z"/>
</svg>
