<?xml version="1.0" encoding="utf-8"?>
<!-- Generator: Adobe Illustrator 16.0.0, SVG Export Plug-In . SVG Version: 6.00 Build 0)  -->
<!DOCTYPE svg PUBLIC "-//W3C//DTD SVG 1.1//EN" "http://www.w3.org/Graphics/SVG/1.1/DTD/svg11.dtd">
<svg version="1.1" id="Layer_1" xmlns="http://www.w3.org/2000/svg" xmlns:xlink="http://www.w3.org/1999/xlink" x="0px" y="0px"
	 width="126px" height="126px" viewBox="0 0 126 126" enable-background="new 0 0 126 126" xml:space="preserve">
<path d="M54.165,60.841c-1.024,0-1.717,0.1-2.079,0.197v6.566c0.43,0.1,0.957,0.133,1.683,0.133c2.674,0,4.323-1.354,4.323-3.631
	C58.092,62.062,56.671,60.841,54.165,60.841z"/>
<path d="M103.207,48.521h-2.449V36.703c0-0.074-0.012-0.148-0.021-0.223c-0.004-0.469-0.154-0.93-0.475-1.295L80.596,12.721
	c-0.006-0.006-0.012-0.008-0.016-0.014c-0.117-0.131-0.254-0.24-0.398-0.334c-0.043-0.029-0.086-0.053-0.131-0.078
	c-0.125-0.068-0.258-0.125-0.395-0.166c-0.037-0.01-0.07-0.025-0.107-0.035c-0.148-0.035-0.303-0.057-0.459-0.057H30.758
	c-2.207,0-4,1.795-4,4v32.484h-2.449c-3.157,0-5.717,2.559-5.717,5.717v29.73c0,3.156,2.56,5.717,5.717,5.717h2.449v20.352
	c0,2.205,1.793,4,4,4h66c2.205,0,4-1.795,4-4V89.686h2.449c3.157,0,5.717-2.561,5.717-5.717v-29.73
	C108.924,51.08,106.364,48.521,103.207,48.521z M30.758,16.037H77.09v20.465c0,1.105,0.896,2,2,2h17.668v10.02h-66V16.037z
	 M64.594,61.437v-4.225h17.09v4.225h-6.07v18.012h-5.047V61.437H64.594z M63.071,63.976c0,2.176-0.724,4.023-2.044,5.277
	c-1.717,1.617-4.258,2.344-7.225,2.344c-0.662,0-1.256-0.033-1.717-0.1v7.951h-4.982V57.509c1.551-0.264,3.729-0.463,6.797-0.463
	c3.103,0,5.312,0.594,6.798,1.781C62.117,59.95,63.071,61.798,63.071,63.976z M27.934,79.448V57.509
	c1.551-0.264,3.727-0.463,6.795-0.463c3.102,0,5.311,0.594,6.797,1.781c1.419,1.123,2.375,2.971,2.375,5.148
	c0,2.176-0.726,4.023-2.046,5.277c-1.717,1.617-4.256,2.344-7.226,2.344c-0.658,0-1.255-0.033-1.717-0.1v7.951H27.934z
	 M96.758,108.953h-66V89.686h66V108.953z M96.666,79.448l-2.013-4.025c-0.824-1.551-1.354-2.705-1.981-3.992h-0.064
	c-0.462,1.287-1.024,2.441-1.715,3.992l-1.849,4.025h-5.739l6.432-11.252l-6.201-10.984h5.773l1.945,4.059
	c0.661,1.352,1.156,2.441,1.683,3.695h0.067c0.527-1.42,0.957-2.41,1.518-3.695l1.88-4.059h5.742l-6.269,10.855l6.598,11.381H96.666
	z"/>
<path d="M38.919,64.106c0-2.045-1.419-3.266-3.927-3.266c-1.021,0-1.717,0.1-2.08,0.197v6.566c0.431,0.1,0.957,0.133,1.684,0.133
	C37.27,67.737,38.919,66.384,38.919,64.106z"/>
</svg>
