<?xml version="1.0" encoding="utf-8"?>
<!-- Generator: Adobe Illustrator 16.0.0, SVG Export Plug-In . SVG Version: 6.00 Build 0)  -->
<!DOCTYPE svg PUBLIC "-//W3C//DTD SVG 1.1//EN" "http://www.w3.org/Graphics/SVG/1.1/DTD/svg11.dtd">
<svg version="1.1" id="Layer_1" xmlns="http://www.w3.org/2000/svg" xmlns:xlink="http://www.w3.org/1999/xlink" x="0px" y="0px"
	 width="126px" height="126px" viewBox="0 0 126 126" enable-background="new 0 0 126 126" xml:space="preserve">
<path d="M93.46,63.34c0-2.145-1.64-3.279-4.537-3.279c-1.388,0-2.19,0.084-2.734,0.168v6.602h2.102
	C91.654,66.831,93.46,65.442,93.46,63.34z"/>
<path d="M40.73,64.391c0-2.605-1.808-4.162-5.001-4.162c-1.303,0-2.186,0.127-2.649,0.252v8.367
	c0.546,0.127,1.219,0.168,2.145,0.168C38.632,69.016,40.73,67.293,40.73,64.391z"/>
<path d="M103.207,49.021h-2.449V37.203c0-0.074-0.012-0.148-0.021-0.223c-0.004-0.469-0.154-0.93-0.475-1.295L80.596,13.22
	c-0.006-0.006-0.012-0.008-0.016-0.014c-0.117-0.131-0.254-0.24-0.398-0.334c-0.043-0.029-0.086-0.053-0.131-0.078
	c-0.125-0.068-0.258-0.125-0.395-0.166c-0.037-0.01-0.07-0.025-0.107-0.035c-0.148-0.035-0.303-0.057-0.459-0.057H30.758
	c-2.207,0-4,1.795-4,4v32.484h-2.449c-3.157,0-5.717,2.559-5.717,5.717v29.73c0,3.156,2.56,5.717,5.717,5.717h2.449v20.352
	c0,2.205,1.793,4,4,4h66c2.205,0,4-1.795,4-4V90.185h2.449c3.157,0,5.717-2.561,5.717-5.717v-29.73
	C108.924,51.58,106.364,49.021,103.207,49.021z M30.758,16.537H77.09v20.465c0,1.105,0.896,2,2,2h17.668v10.02h-66V16.537z
	 M62.683,79.276c3.364,0,5.213-2.357,5.213-7.361V55.606h6.392v15.891c0,8.746-4.415,12.908-11.815,12.908
	c-7.146,0-11.352-3.951-11.352-12.992V55.606h6.432v16.309C57.552,76.793,59.403,79.276,62.683,79.276z M26.732,83.942V55.983
	c1.976-0.336,4.751-0.588,8.66-0.588c3.953,0,6.769,0.758,8.661,2.27c1.808,1.43,3.027,3.785,3.027,6.559
	c0,2.775-0.924,5.129-2.606,6.727c-2.186,2.063-5.422,2.986-9.207,2.986c-0.841,0-1.597-0.041-2.188-0.125v10.131H26.732z
	 M96.758,109.453h-66V90.185h66V109.453z M97.92,81.672c-2.063,1.639-5.509,2.563-11.142,2.563c-3.155,0-5.509-0.209-6.939-0.42
	V55.983c1.681-0.336,5.088-0.588,8.283-0.588c3.909,0,6.305,0.377,8.367,1.596c1.977,1.053,3.404,2.986,3.404,5.553
	c0,2.521-1.471,4.875-4.664,6.051v0.088c3.236,0.881,5.631,3.32,5.631,6.977C100.86,78.225,99.685,80.243,97.92,81.672z"/>
<path d="M88.372,71.413h-2.184v7.988c0.631,0.084,1.388,0.084,2.479,0.084c2.902,0,5.468-1.092,5.468-4.078
	C94.136,72.547,91.57,71.413,88.372,71.413z"/>
</svg>
