<?xml version="1.0" encoding="utf-8"?>
<!-- Generator: Adobe Illustrator 16.0.0, SVG Export Plug-In . SVG Version: 6.00 Build 0)  -->
<!DOCTYPE svg PUBLIC "-//W3C//DTD SVG 1.1//EN" "http://www.w3.org/Graphics/SVG/1.1/DTD/svg11.dtd">
<svg version="1.1" id="Layer_1" xmlns="http://www.w3.org/2000/svg" xmlns:xlink="http://www.w3.org/1999/xlink" x="0px" y="0px"
	 width="126px" height="126px" viewBox="0 0 126 126" enable-background="new 0 0 126 126" xml:space="preserve">
<path d="M50.979,57.277c-1.564,0-2.449,0.127-2.912,0.211v7.844h2.531c3.205,0,5.102-1.602,5.102-4.092
	C55.699,58.627,53.928,57.318,50.979,57.277z"/>
<path d="M79.146,63.014c-0.508-1.688-1.014-3.797-1.434-5.482h-0.084c-0.424,1.686-0.844,3.838-1.309,5.482l-1.688,6.031h6.285
	L79.146,63.014z"/>
<path d="M103.207,48.521h-2.449V36.703c0-0.074-0.012-0.148-0.021-0.223c-0.004-0.469-0.154-0.93-0.475-1.295L80.596,12.721
	c-0.006-0.006-0.012-0.008-0.016-0.014c-0.117-0.131-0.254-0.24-0.398-0.334c-0.043-0.029-0.086-0.053-0.131-0.078
	c-0.125-0.068-0.258-0.125-0.395-0.166c-0.037-0.01-0.07-0.025-0.107-0.035c-0.148-0.035-0.303-0.057-0.459-0.057H30.758
	c-2.207,0-4,1.795-4,4v32.484h-2.449c-3.157,0-5.717,2.559-5.717,5.717v29.73c0,3.156,2.56,5.717,5.717,5.717h2.449v20.352
	c0,2.205,1.793,4,4,4h66c2.205,0,4-1.795,4-4V89.686h2.449c3.157,0,5.717-2.561,5.717-5.717v-29.73
	C108.924,51.08,106.364,48.521,103.207,48.521z M96.758,108.953h-66V89.686h66V108.953z M60.846,73.135
	c0.885,3.205,1.771,6.918,2.32,8.014h-6.578c-0.467-0.801-1.141-3.121-1.984-6.621c-0.76-3.543-1.98-4.514-4.598-4.557h-1.939
	v11.178h-6.369V53.102c2.066-0.338,5.146-0.59,8.561-0.59c4.221,0,7.174,0.633,9.195,2.234c1.688,1.35,2.615,3.332,2.615,5.947
	c0,3.627-2.572,6.115-5.02,7.002v0.125C59.033,68.623,60.129,70.52,60.846,73.135z M65.018,81.148l8.688-28.426h8.436l8.813,28.426
	h-6.916l-2.191-7.297h-8.141l-2.025,7.297H65.018z M96.758,48.521h-66V16.037H77.09v20.465c0,1.105,0.896,2,2,2h17.668V48.521z"/>
</svg>
