<?xml version="1.0" encoding="utf-8"?>
<!-- Generator: Adobe Illustrator 16.0.0, SVG Export Plug-In . SVG Version: 6.00 Build 0)  -->
<!DOCTYPE svg PUBLIC "-//W3C//DTD SVG 1.1//EN" "http://www.w3.org/Graphics/SVG/1.1/DTD/svg11.dtd">
<svg version="1.1" id="Layer_1" xmlns="http://www.w3.org/2000/svg" xmlns:xlink="http://www.w3.org/1999/xlink" x="0px" y="0px"
	 width="126px" height="126px" viewBox="0 0 126 126" enable-background="new 0 0 126 126" xml:space="preserve">
<path d="M102.328,48.928h-2.449V37.11c0-0.074-0.012-0.148-0.021-0.223c-0.004-0.469-0.154-0.93-0.475-1.295L79.717,13.127
	c-0.006-0.006-0.012-0.008-0.016-0.014c-0.117-0.131-0.254-0.24-0.398-0.334c-0.043-0.029-0.086-0.053-0.131-0.078
	c-0.125-0.068-0.258-0.125-0.395-0.166c-0.037-0.01-0.07-0.025-0.107-0.035c-0.148-0.035-0.303-0.057-0.459-0.057H29.879
	c-2.207,0-4,1.795-4,4v32.484H23.43c-3.157,0-5.717,2.559-5.717,5.717v29.73c0,3.156,2.56,5.717,5.717,5.717h2.449v20.352
	c0,2.205,1.793,4,4,4h66c2.205,0,4-1.795,4-4V90.092h2.449c3.157,0,5.717-2.561,5.717-5.717v-29.73
	C108.045,51.487,105.485,48.928,102.328,48.928z M29.879,16.444h46.332v20.465c0,1.105,0.896,2,2,2h17.668v10.02h-66V16.444z
	 M61.564,56.062l8.224,26.515h-6.451l-2.046-6.806h-7.594l-1.887,6.806h-6.216l8.103-26.515H61.564z M29.778,72.152v10.424H23.84
	v-26.16c1.928-0.315,4.797-0.552,7.984-0.552c3.934,0,6.688,0.592,8.574,2.086c1.575,1.259,2.44,3.108,2.44,5.546
	c0,3.383-2.399,5.706-4.681,6.532v0.116c1.846,0.748,2.87,2.519,3.541,4.957c0.825,2.99,1.652,6.452,2.162,7.475h-6.137
	c-0.433-0.748-1.063-2.912-1.849-6.178c-0.709-3.303-1.849-4.208-4.287-4.246H29.778z M95.879,109.36h-66V90.092h66V109.36z
	 M95.991,82.577H89.5l-2.244-11.409c-0.51-2.675-0.944-5.153-1.257-8.181H85.92c-0.472,2.989-0.904,5.506-1.534,8.181l-2.518,11.409
	h-6.569l-6.295-26.515h6.41l2.008,10.936c0.59,3.147,1.14,6.57,1.572,9.245h0.08c0.433-2.871,1.063-6.058,1.73-9.322l2.244-10.858
	h6.371l2.126,11.171c0.589,3.109,1.021,5.941,1.416,8.892h0.079c0.393-2.95,0.983-6.058,1.532-9.204l2.164-10.858h6.098
	L95.991,82.577z"/>
<path d="M58.773,65.661c-0.474-1.573-0.942-3.541-1.337-5.114h-0.079c-0.395,1.574-0.786,3.58-1.222,5.114l-1.572,5.626h5.861
	L58.773,65.661z"/>
<path d="M36.897,64.009c0-2.44-1.651-3.659-4.404-3.698c-1.457,0-2.282,0.118-2.715,0.197v7.317h2.361
	C35.128,67.825,36.897,66.329,36.897,64.009z"/>
</svg>
