<?xml version="1.0" encoding="utf-8"?>
<!-- Generator: Adobe Illustrator 16.0.0, SVG Export Plug-In . SVG Version: 6.00 Build 0)  -->
<!DOCTYPE svg PUBLIC "-//W3C//DTD SVG 1.1//EN" "http://www.w3.org/Graphics/SVG/1.1/DTD/svg11.dtd">
<svg version="1.1" id="Layer_1" xmlns="http://www.w3.org/2000/svg" xmlns:xlink="http://www.w3.org/1999/xlink" x="0px" y="0px"
	 width="126px" height="126px" viewBox="0 0 126 126" enable-background="new 0 0 126 126" xml:space="preserve">
<path d="M43.555,56.412c-1.785,0-2.797,0.145-3.328,0.242v8.969h2.894c3.664,0,5.834-1.834,5.834-4.678
	C48.955,57.955,46.93,56.461,43.555,56.412z"/>
<path d="M103.207,48.521h-2.449V36.703c0-0.074-0.012-0.148-0.021-0.223c-0.004-0.469-0.154-0.93-0.475-1.295L80.596,12.721
	c-0.006-0.006-0.012-0.008-0.016-0.014c-0.117-0.131-0.254-0.24-0.398-0.334c-0.043-0.029-0.086-0.053-0.131-0.078
	c-0.125-0.068-0.258-0.125-0.395-0.166c-0.037-0.01-0.07-0.025-0.107-0.035c-0.148-0.035-0.303-0.057-0.459-0.057H30.758
	c-2.207,0-4,1.795-4,4v32.484h-2.449c-3.157,0-5.717,2.559-5.717,5.717v29.73c0,3.156,2.56,5.717,5.717,5.717h2.449v20.352
	c0,2.205,1.793,4,4,4h66c2.205,0,4-1.795,4-4V89.686h2.449c3.157,0,5.717-2.561,5.717-5.717v-29.73
	C108.924,51.08,106.364,48.521,103.207,48.521z M96.758,108.953h-66V89.686h66V108.953z M54.838,74.543
	c1.012,3.666,2.025,7.908,2.652,9.162h-7.522c-0.531-0.916-1.302-3.568-2.267-7.57c-0.868-4.051-2.267-5.16-5.256-5.209h-2.219
	v12.779h-7.281V51.639c2.363-0.387,5.883-0.676,9.789-0.676c4.822,0,8.197,0.723,10.512,2.557c1.929,1.543,2.99,3.809,2.99,6.799
	c0,4.146-2.941,6.992-5.738,8.004v0.145C52.764,69.385,54.018,71.553,54.838,74.543z M60.813,83.705l2.074-32.502h9.789
	l3.182,10.852c1.013,3.76,2.026,7.811,2.749,11.619h0.145c0.916-3.76,2.025-8.051,3.086-11.668l3.471-10.803h9.596l1.784,32.502
	h-7.185l-0.482-12.441c-0.145-3.906-0.289-8.631-0.289-13.357h-0.145c-1.013,4.148-2.363,8.775-3.616,12.586l-3.954,12.682h-5.738
	l-3.472-12.586c-1.061-3.809-2.17-8.438-2.941-12.682h-0.097c-0.193,4.389-0.337,9.404-0.578,13.455l-0.579,12.344H60.813z
	 M96.758,48.521h-66V16.037H77.09v20.465c0,1.105,0.896,2,2,2h17.668V48.521z"/>
</svg>
