<?xml version="1.0" encoding="utf-8"?>
<!-- Generator: Adobe Illustrator 16.0.0, SVG Export Plug-In . SVG Version: 6.00 Build 0)  -->
<!DOCTYPE svg PUBLIC "-//W3C//DTD SVG 1.1//EN" "http://www.w3.org/Graphics/SVG/1.1/DTD/svg11.dtd">
<svg version="1.1" id="Layer_1" xmlns="http://www.w3.org/2000/svg" xmlns:xlink="http://www.w3.org/1999/xlink" x="0px" y="0px"
	 width="126px" height="126px" viewBox="0 0 126 126" enable-background="new 0 0 126 126" xml:space="preserve">
<path d="M36.383,63.667c0-2.346-1.59-3.518-4.236-3.555c-1.398,0-2.195,0.113-2.611,0.188v7.037h2.27
	C34.682,67.337,36.383,65.899,36.383,63.667z"/>
<path d="M51.02,68.851c0,4.994,2.346,8.512,6.205,8.512c3.895,0,6.127-3.709,6.127-8.664c0-4.576-2.193-8.512-6.166-8.512
	C53.289,60.187,51.02,63.896,51.02,68.851z"/>
<path d="M102.494,48.944h-2.449V37.126c0-0.074-0.012-0.148-0.021-0.223c-0.004-0.469-0.154-0.93-0.475-1.295L79.883,13.144
	c-0.006-0.006-0.012-0.008-0.016-0.014c-0.117-0.131-0.254-0.24-0.398-0.334c-0.043-0.029-0.086-0.053-0.131-0.078
	c-0.125-0.068-0.258-0.125-0.395-0.166c-0.037-0.01-0.07-0.025-0.107-0.035c-0.148-0.035-0.303-0.057-0.459-0.057H30.045
	c-2.207,0-4,1.795-4,4v32.484h-2.449c-3.156,0-5.717,2.559-5.717,5.717v29.73c0,3.156,2.561,5.717,5.717,5.717h2.449v20.352
	c0,2.205,1.793,4,4,4h66c2.205,0,4-1.795,4-4V90.108h2.449c3.158,0,5.717-2.561,5.717-5.717v-29.73
	C108.211,51.503,105.652,48.944,102.494,48.944z M30.045,16.46h46.332v20.465c0,1.105,0.896,2,2,2h17.668v10.02h-66V16.46z
	 M69.441,68.511c0,8.359-5.068,13.428-12.52,13.428c-7.566,0-11.994-5.711-11.994-12.975c0-7.643,4.881-13.354,12.41-13.354
	C65.17,55.61,69.441,61.474,69.441,68.511z M29.535,71.499v10.023h-5.713V56.366c1.854-0.303,4.617-0.529,7.68-0.529
	c3.783,0,6.432,0.566,8.248,2.006c1.514,1.211,2.346,2.988,2.346,5.332c0,3.256-2.309,5.486-4.504,6.279v0.115
	c1.779,0.719,2.764,2.422,3.406,4.766c0.795,2.875,1.588,6.205,2.082,7.188h-5.904c-0.416-0.717-1.021-2.799-1.775-5.938
	c-0.684-3.178-1.779-4.047-4.125-4.086H29.535z M96.045,109.376h-66V90.108h66V109.376z M95.164,81.522l-0.379-9.758
	c-0.113-3.066-0.227-6.773-0.227-10.48h-0.113c-0.795,3.254-1.854,6.885-2.838,9.873l-3.104,9.951h-4.502l-2.723-9.875
	c-0.832-2.988-1.703-6.621-2.307-9.949h-0.076c-0.152,3.441-0.266,7.377-0.455,10.555l-0.451,9.684h-5.336l1.627-25.496h7.68
	l2.496,8.512c0.797,2.949,1.59,6.129,2.156,9.115h0.113c0.719-2.949,1.59-6.316,2.422-9.154l2.725-8.473h7.525l1.402,25.496H95.164z
	"/>
</svg>
