<?xml version="1.0" encoding="utf-8"?>
<!-- Generator: Adobe Illustrator 16.0.0, SVG Export Plug-In . SVG Version: 6.00 Build 0)  -->
<!DOCTYPE svg PUBLIC "-//W3C//DTD SVG 1.1//EN" "http://www.w3.org/Graphics/SVG/1.1/DTD/svg11.dtd">
<svg version="1.1" id="Layer_1" xmlns="http://www.w3.org/2000/svg" xmlns:xlink="http://www.w3.org/1999/xlink" x="0px" y="0px"
	 width="126px" height="126px" viewBox="0 0 126 126" enable-background="new 0 0 126 126" xml:space="preserve">
<path d="M58.637,51.245c-1.293,0-2.169,0.125-2.627,0.25v8.301c0.542,0.125,1.209,0.166,2.127,0.166
	c3.377,0,5.463-1.709,5.463-4.588C63.6,52.79,61.806,51.245,58.637,51.245z"/>
<path d="M38.825,55.083c0-2.584-1.751-3.879-4.67-3.92c-1.543,0-2.418,0.125-2.877,0.207v7.758h2.502
	C36.948,59.128,38.825,57.542,38.825,55.083z"/>
<path d="M102.366,41.598h-2.449V29.779c0-0.074-0.012-0.148-0.021-0.223c-0.004-0.469-0.154-0.93-0.475-1.295L79.754,5.797
	c-0.006-0.006-0.012-0.008-0.016-0.014c-0.117-0.131-0.254-0.24-0.398-0.334c-0.043-0.029-0.086-0.053-0.131-0.078
	c-0.125-0.068-0.258-0.125-0.395-0.166c-0.037-0.01-0.07-0.025-0.107-0.035c-0.148-0.035-0.303-0.057-0.459-0.057H29.917
	c-2.207,0-4,1.795-4,4v32.484h-2.449c-3.157,0-5.717,2.559-5.717,5.717v29.73c0,3.156,2.56,5.717,5.717,5.717h2.449v20.352
	c0,2.205,1.793,4,4,4h66c2.205,0,4-1.795,4-4V82.762h2.449c3.157,0,5.717-2.561,5.717-5.717v-29.73
	C108.083,44.156,105.523,41.598,102.366,41.598z M29.917,9.113h46.332v20.465c0,1.105,0.896,2,2,2h17.668v10.02h-66V9.113z
	 M69.896,55.208c0,2.754-0.917,5.088-2.585,6.672c-2.169,2.045-5.379,2.961-9.132,2.961c-0.834,0-1.584-0.041-2.169-0.125v10.049
	h-6.296V47.036c1.959-0.336,4.712-0.586,8.59-0.586c3.919,0,6.713,0.752,8.59,2.252C68.687,50.12,69.896,52.454,69.896,55.208z
	 M24.98,74.765V47.036c2.043-0.336,5.087-0.586,8.465-0.586c4.17,0,7.09,0.627,9.091,2.211c1.668,1.334,2.585,3.293,2.585,5.881
	c0,3.586-2.544,6.045-4.963,6.922v0.125c1.96,0.791,3.045,2.67,3.753,5.254c0.875,3.17,1.751,6.838,2.294,7.922h-6.506
	c-0.458-0.791-1.126-3.084-1.959-6.547c-0.751-3.502-1.96-4.459-4.546-4.502h-1.918v11.049H24.98z M95.917,102.029h-66V82.762h66
	V102.029z M97.547,74.765L97.13,64.009c-0.125-3.379-0.25-7.467-0.25-11.555h-0.125c-0.876,3.588-2.043,7.592-3.127,10.885
	l-3.42,10.967h-4.962l-3.003-10.881c-0.917-3.295-1.876-7.299-2.544-10.971h-0.083c-0.167,3.797-0.292,8.133-0.5,11.637l-0.5,10.674
	h-5.88l1.793-28.104h8.465l2.752,9.381c0.876,3.254,1.751,6.756,2.377,10.051h0.125c0.792-3.254,1.751-6.965,2.669-10.092
	l3.002-9.34h8.298l1.543,28.104H97.547z"/>
</svg>
