<?xml version="1.0" encoding="utf-8"?>
<!-- Generator: Adobe Illustrator 16.0.0, SVG Export Plug-In . SVG Version: 6.00 Build 0)  -->
<!DOCTYPE svg PUBLIC "-//W3C//DTD SVG 1.1//EN" "http://www.w3.org/Graphics/SVG/1.1/DTD/svg11.dtd">
<svg version="1.1" id="Layer_1" xmlns="http://www.w3.org/2000/svg" xmlns:xlink="http://www.w3.org/1999/xlink" x="0px" y="0px"
	 width="126px" height="126px" viewBox="0 0 126 126" enable-background="new 0 0 126 126" xml:space="preserve">
<path d="M101.737,41.524h-2.449V29.706c0-0.074-0.012-0.148-0.021-0.223c-0.004-0.469-0.154-0.93-0.475-1.295L79.125,5.724
	C79.12,5.718,79.114,5.716,79.11,5.71c-0.117-0.131-0.254-0.24-0.398-0.334c-0.043-0.029-0.086-0.053-0.131-0.078
	c-0.125-0.068-0.258-0.125-0.395-0.166c-0.037-0.01-0.07-0.025-0.107-0.035C77.93,5.062,77.776,5.04,77.62,5.04H29.288
	c-2.207,0-4,1.795-4,4v32.484h-2.449c-3.157,0-5.717,2.559-5.717,5.717v29.73c0,3.156,2.56,5.717,5.717,5.717h2.449v20.352
	c0,2.205,1.793,4,4,4h66c2.205,0,4-1.795,4-4V82.688h2.449c3.157,0,5.717-2.561,5.717-5.717v-29.73
	C107.454,44.083,104.894,41.524,101.737,41.524z M29.288,9.04H75.62v20.465c0,1.105,0.896,2,2,2h17.668v10.02h-66V9.04z
	 M60.119,63.327c-4.904-1.707-8.098-4.419-8.098-8.711c0-5.033,4.202-8.887,11.163-8.887c3.326,0,5.776,0.701,7.529,1.487
	l-1.488,5.386c-1.183-0.569-3.283-1.401-6.173-1.401c-2.889,0-4.289,1.313-4.289,2.846c0,1.883,1.662,2.714,5.471,4.159
	c5.208,1.925,7.66,4.642,7.66,8.801c0,4.944-3.808,9.146-11.908,9.146c-3.369,0-6.697-0.875-8.36-1.795l1.357-5.515
	c1.794,0.92,4.552,1.837,7.398,1.837c3.063,0,4.683-1.27,4.683-3.193C65.064,65.647,63.665,64.597,60.119,63.327z M26.809,75.717
	V46.604c2.145-0.351,5.341-0.612,8.887-0.612c4.378,0,7.441,0.655,9.543,2.321c1.751,1.398,2.714,3.457,2.714,6.17
	c0,3.768-2.671,6.349-5.208,7.268v0.132c2.056,0.831,3.194,2.8,3.939,5.517c0.918,3.327,1.836,7.178,2.407,8.317h-6.829
	c-0.481-0.834-1.181-3.241-2.058-6.873c-0.788-3.68-2.058-4.685-4.771-4.728h-2.015v11.601H26.809z M95.288,101.956h-66V82.688h66
	V101.956z M83.623,76.153c-3.372,0-6.697-0.875-8.36-1.795l1.356-5.515c1.794,0.92,4.553,1.837,7.396,1.837
	c3.066,0,4.686-1.27,4.686-3.193c0-1.84-1.402-2.891-4.947-4.16c-4.902-1.707-8.099-4.419-8.099-8.711
	c0-5.033,4.204-8.887,11.164-8.887c3.327,0,5.777,0.701,7.529,1.487l-1.489,5.386c-1.181-0.569-3.281-1.401-6.172-1.401
	c-2.888,0-4.289,1.313-4.289,2.846c0,1.883,1.663,2.714,5.471,4.159c5.209,1.925,7.66,4.642,7.66,8.801
	C95.528,71.951,91.721,76.153,83.623,76.153z"/>
<path d="M41.342,55.055c0-2.714-1.839-4.072-4.903-4.115c-1.619,0-2.539,0.131-3.021,0.219V59.3h2.628
	C39.372,59.3,41.342,57.638,41.342,55.055z"/>
</svg>
