<?xml version="1.0" encoding="utf-8"?>
<!-- Generator: Adobe Illustrator 16.0.0, SVG Export Plug-In . SVG Version: 6.00 Build 0)  -->
<!DOCTYPE svg PUBLIC "-//W3C//DTD SVG 1.1//EN" "http://www.w3.org/Graphics/SVG/1.1/DTD/svg11.dtd">
<svg version="1.1" id="Layer_1" xmlns="http://www.w3.org/2000/svg" xmlns:xlink="http://www.w3.org/1999/xlink" x="0px" y="0px"
	 width="126px" height="126px" viewBox="0 0 126 126" enable-background="new 0 0 126 126" xml:space="preserve">
<path d="M102.328,48.429h-2.449V36.61c0-0.074-0.012-0.148-0.021-0.223c-0.004-0.469-0.154-0.93-0.475-1.295L79.717,12.628
	c-0.006-0.006-0.012-0.008-0.016-0.014c-0.117-0.131-0.254-0.24-0.398-0.334c-0.043-0.029-0.086-0.053-0.131-0.078
	c-0.125-0.068-0.258-0.125-0.395-0.166c-0.037-0.01-0.07-0.025-0.107-0.035c-0.148-0.035-0.303-0.057-0.459-0.057H29.879
	c-2.207,0-4,1.795-4,4v32.484H23.43c-3.157,0-5.717,2.559-5.717,5.717v29.73c0,3.156,2.56,5.717,5.717,5.717h2.449v20.352
	c0,2.205,1.793,4,4,4h66c2.205,0,4-1.795,4-4V89.593h2.449c3.157,0,5.717-2.561,5.717-5.717v-29.73
	C108.045,50.987,105.485,48.429,102.328,48.429z M95.879,108.86h-66V89.593h66V108.86z M51.513,74.528
	c0.847,3.055,1.69,6.594,2.212,7.641h-6.272c-0.443-0.766-1.087-2.977-1.891-6.314c-0.724-3.379-1.89-4.305-4.383-4.344h-1.852
	v10.658h-6.071V55.425c1.97-0.322,4.905-0.564,8.163-0.564c4.022,0,6.838,0.604,8.767,2.131c1.611,1.289,2.496,3.178,2.496,5.672
	c0,3.459-2.455,5.832-4.788,6.676v0.121C49.784,70.224,50.83,72.034,51.513,74.528z M55.057,60.21v-5.148h20.835v5.148H68.49v21.959
	h-6.152V60.21H55.057z M95.038,66.282v4.986h-9.733v10.9h-6.153V55.062h16.569v5.027H85.305v6.193H95.038z M95.879,48.429h-66
	V15.944h46.332v20.465c0,1.105,0.896,2,2,2h17.668V48.429z"/>
<path d="M42.102,59.405c-1.485,0-2.332,0.121-2.774,0.201v7.48h2.414c3.056,0,4.866-1.527,4.866-3.9
	C46.607,60.692,44.917,59.446,42.102,59.405z"/>
</svg>
