<?xml version="1.0" encoding="utf-8"?>
<!-- Generator: Adobe Illustrator 16.0.0, SVG Export Plug-In . SVG Version: 6.00 Build 0)  -->
<!DOCTYPE svg PUBLIC "-//W3C//DTD SVG 1.1//EN" "http://www.w3.org/Graphics/SVG/1.1/DTD/svg11.dtd">
<svg version="1.1" id="Layer_1" xmlns="http://www.w3.org/2000/svg" xmlns:xlink="http://www.w3.org/1999/xlink" x="0px" y="0px"
	 width="126px" height="126px" viewBox="0 0 126 126" enable-background="new 0 0 126 126" xml:space="preserve">
<path d="M63.568,65.808c-0.5-1.665-0.998-3.745-1.416-5.407H62.07c-0.414,1.662-0.832,3.786-1.291,5.407l-1.662,5.945h6.199
	L63.568,65.808z"/>
<path d="M102.494,48.944h-2.449V37.126c0-0.074-0.012-0.148-0.021-0.223c-0.004-0.469-0.154-0.93-0.475-1.295L79.883,13.144
	c-0.006-0.006-0.012-0.008-0.016-0.014c-0.117-0.131-0.254-0.24-0.398-0.334c-0.043-0.029-0.086-0.053-0.131-0.078
	c-0.125-0.068-0.258-0.125-0.395-0.166c-0.037-0.01-0.07-0.025-0.107-0.035c-0.148-0.035-0.303-0.057-0.459-0.057H30.045
	c-2.207,0-4,1.795-4,4v32.484h-2.449c-3.156,0-5.717,2.559-5.717,5.717v29.73c0,3.156,2.561,5.717,5.717,5.717h2.449v20.352
	c0,2.205,1.793,4,4,4h66c2.205,0,4-1.795,4-4V90.108h2.449c3.158,0,5.717-2.561,5.717-5.717v-29.73
	C108.211,51.503,105.652,48.944,102.494,48.944z M30.045,16.46h46.332v20.465c0,1.105,0.896,2,2,2h17.668v10.02h-66V16.46z
	 M66.521,55.659l8.693,28.034h-6.822l-2.162-7.198h-8.027l-1.998,7.198h-6.572l8.57-28.034H66.521z M28.135,82.403l1.289-5.241
	c1.703,0.873,4.324,1.746,7.029,1.746c2.91,0,4.449-1.206,4.449-3.036c0-1.745-1.33-2.744-4.699-3.951
	c-4.658-1.62-7.697-4.2-7.697-8.275c0-4.785,3.994-8.446,10.609-8.446c3.16,0,5.486,0.668,7.154,1.415l-1.416,5.115
	C43.73,61.19,41.734,60.4,38.988,60.4c-2.744,0-4.076,1.245-4.076,2.703c0,1.789,1.58,2.579,5.201,3.951
	c4.949,1.83,7.279,4.411,7.279,8.36c0,4.7-3.619,8.692-11.314,8.692C32.875,84.107,29.715,83.276,28.135,82.403z M96.045,109.376
	h-66V90.108h66V109.376z M90.514,83.693h-7.402l-8.982-28.034h6.945l3.41,11.853c0.957,3.327,1.83,6.531,2.494,10.024h0.125
	c0.709-3.369,1.582-6.697,2.539-9.898l3.576-11.979h6.74L90.514,83.693z"/>
</svg>
