<?xml version="1.0" encoding="utf-8"?>
<!-- Generator: Adobe Illustrator 16.0.0, SVG Export Plug-In . SVG Version: 6.00 Build 0)  -->
<!DOCTYPE svg PUBLIC "-//W3C//DTD SVG 1.1//EN" "http://www.w3.org/Graphics/SVG/1.1/DTD/svg11.dtd">
<svg version="1.1" id="Layer_1" xmlns="http://www.w3.org/2000/svg" xmlns:xlink="http://www.w3.org/1999/xlink" x="0px" y="0px"
	 width="126px" height="126px" viewBox="0 0 126 126" enable-background="new 0 0 126 126" xml:space="preserve">
<path d="M102.366,41.598h-2.449V29.779c0-0.074-0.012-0.148-0.021-0.223c-0.004-0.469-0.154-0.93-0.475-1.295L79.754,5.797
	c-0.006-0.006-0.012-0.008-0.016-0.014c-0.117-0.131-0.254-0.24-0.398-0.334c-0.043-0.029-0.086-0.053-0.131-0.078
	c-0.125-0.068-0.258-0.125-0.395-0.166c-0.037-0.01-0.07-0.025-0.107-0.035c-0.148-0.035-0.303-0.057-0.459-0.057H29.917
	c-2.207,0-4,1.795-4,4v32.484h-2.449c-3.157,0-5.717,2.559-5.717,5.717v29.73c0,3.156,2.56,5.717,5.717,5.717h2.449v20.352
	c0,2.205,1.793,4,4,4h66c2.205,0,4-1.795,4-4V82.762h2.449c3.157,0,5.717-2.561,5.717-5.717v-29.73
	C108.083,44.156,105.523,41.598,102.366,41.598z M29.917,9.113h46.332v20.465c0,1.105,0.896,2,2,2h17.668v10.02h-66V9.113z
	 M55.949,53.438v-5.338h21.602v5.338h-7.673v22.77h-6.381v-22.77H55.949z M52.57,48.101v28.107h-6.38V48.101H52.57z M22.583,74.915
	l1.293-5.254c1.709,0.875,4.337,1.75,7.047,1.75c2.919,0,4.462-1.209,4.462-3.043c0-1.752-1.334-2.754-4.712-3.963
	c-4.671-1.625-7.715-4.211-7.715-8.299c0-4.793,4.003-8.465,10.634-8.465c3.169,0,5.505,0.668,7.172,1.418l-1.417,5.129
	c-1.126-0.541-3.127-1.334-5.88-1.334s-4.087,1.252-4.087,2.711c0,1.791,1.584,2.586,5.213,3.961
	c4.962,1.834,7.298,4.422,7.298,8.381c0,4.713-3.628,8.717-11.343,8.717C27.337,76.624,24.167,75.79,22.583,74.915z M95.917,102.029
	h-66V82.762h66V102.029z M96.486,76.208l-2.544-5.088c-1.042-1.959-1.71-3.418-2.502-5.047h-0.084
	c-0.583,1.629-1.293,3.088-2.168,5.047l-2.336,5.088h-7.256l8.132-14.219l-7.84-13.889h7.298l2.46,5.129
	c0.835,1.709,1.46,3.086,2.127,4.672h0.084c0.667-1.795,1.209-3.045,1.918-4.672l2.377-5.129h7.256l-7.923,13.719l8.34,14.389
	H96.486z"/>
</svg>
