<?xml version="1.0" encoding="utf-8"?>
<!-- Generator: Adobe Illustrator 16.0.0, SVG Export Plug-In . SVG Version: 6.00 Build 0)  -->
<!DOCTYPE svg PUBLIC "-//W3C//DTD SVG 1.1//EN" "http://www.w3.org/Graphics/SVG/1.1/DTD/svg11.dtd">
<svg version="1.1" id="Layer_1" xmlns="http://www.w3.org/2000/svg" xmlns:xlink="http://www.w3.org/1999/xlink" x="0px" y="0px"
	 width="126px" height="126px" viewBox="0 0 126 126" enable-background="new 0 0 126 126" xml:space="preserve">
<path d="M103.207,48.521h-2.449V36.703c0-0.074-0.012-0.148-0.021-0.223c-0.004-0.469-0.154-0.93-0.475-1.295L80.596,12.721
	c-0.006-0.006-0.012-0.008-0.016-0.014c-0.117-0.131-0.254-0.24-0.398-0.334c-0.043-0.029-0.086-0.053-0.131-0.078
	c-0.125-0.068-0.258-0.125-0.395-0.166c-0.037-0.01-0.07-0.025-0.107-0.035c-0.148-0.035-0.303-0.057-0.459-0.057H30.758
	c-2.207,0-4,1.795-4,4v32.484h-2.449c-3.157,0-5.717,2.559-5.717,5.717v29.73c0,3.156,2.56,5.717,5.717,5.717h2.449v20.352
	c0,2.205,1.793,4,4,4h66c2.205,0,4-1.795,4-4V89.686h2.449c3.157,0,5.717-2.561,5.717-5.717v-29.73
	C108.924,51.08,106.364,48.521,103.207,48.521z M30.758,16.037H77.09v20.465c0,1.105,0.896,2,2,2h17.668v10.02h-66V16.037z
	 M72.778,75.326c0.919,3.33,1.84,7.184,2.409,8.322h-6.833c-0.482-0.832-1.183-3.24-2.06-6.875
	c-0.788-3.682-2.058-4.688-4.773-4.732h-2.016v11.607h-6.614V54.521c2.146-0.352,5.345-0.613,8.893-0.613
	c4.38,0,7.446,0.656,9.549,2.32c1.752,1.4,2.715,3.461,2.715,6.176c0,3.768-2.671,6.352-5.212,7.271v0.131
	C70.895,70.641,72.034,72.611,72.778,75.326z M28.103,82.291l1.358-5.518c1.796,0.918,4.555,1.838,7.402,1.838
	c3.066,0,4.687-1.27,4.687-3.197c0-1.84-1.401-2.891-4.949-4.16c-4.906-1.709-8.103-4.426-8.103-8.719
	c0-5.035,4.205-8.891,11.169-8.891c3.329,0,5.782,0.701,7.534,1.49l-1.489,5.387c-1.182-0.568-3.286-1.4-6.176-1.4
	c-2.891,0-4.293,1.313-4.293,2.846c0,1.885,1.665,2.717,5.475,4.162c5.212,1.926,7.666,4.643,7.666,8.803
	c0,4.951-3.811,9.154-11.914,9.154C33.097,84.086,29.768,83.211,28.103,82.291z M96.758,108.953h-66V89.686h66V108.953z
	 M99.318,59.732h-8.06v23.916h-6.701V59.732h-7.929v-5.605h22.689V59.732z"/>
<path d="M62.528,58.857c-1.621,0-2.54,0.131-3.022,0.219v8.146h2.629c3.328,0,5.3-1.664,5.3-4.25
	C67.435,60.26,65.595,58.9,62.528,58.857z"/>
</svg>
