<?xml version="1.0" encoding="utf-8"?>
<!-- Generator: Adobe Illustrator 16.0.0, SVG Export Plug-In . SVG Version: 6.00 Build 0)  -->
<!DOCTYPE svg PUBLIC "-//W3C//DTD SVG 1.1//EN" "http://www.w3.org/Graphics/SVG/1.1/DTD/svg11.dtd">
<svg version="1.1" id="Layer_1" xmlns="http://www.w3.org/2000/svg" xmlns:xlink="http://www.w3.org/1999/xlink" x="0px" y="0px"
	 width="126px" height="126px" viewBox="0 0 126 126" enable-background="new 0 0 126 126" xml:space="preserve">
<path d="M102.328,48.928h-2.449V37.11c0-0.074-0.012-0.148-0.021-0.223c-0.004-0.469-0.154-0.93-0.475-1.295L79.717,13.127
	c-0.006-0.006-0.012-0.008-0.016-0.014c-0.117-0.131-0.254-0.24-0.398-0.334c-0.043-0.029-0.086-0.053-0.131-0.078
	c-0.125-0.068-0.258-0.125-0.395-0.166c-0.037-0.01-0.07-0.025-0.107-0.035c-0.148-0.035-0.303-0.057-0.459-0.057H29.879
	c-2.207,0-4,1.795-4,4v32.484H23.43c-3.157,0-5.717,2.559-5.717,5.717v29.73c0,3.156,2.56,5.717,5.717,5.717h2.449v20.352
	c0,2.205,1.793,4,4,4h66c2.205,0,4-1.795,4-4V90.092h2.449c3.157,0,5.717-2.561,5.717-5.717v-29.73
	C108.045,51.487,105.485,48.928,102.328,48.928z M29.879,16.444h46.332v20.465c0,1.105,0.896,2,2,2h17.668v10.02h-66V16.444z
	 M74.633,54.234L64.572,84.102h-7.887l-9.572-29.868h7.401l3.633,12.629c1.02,3.545,1.95,6.957,2.659,10.679h0.133
	c0.752-3.59,1.683-7.134,2.702-10.546l3.812-12.763H74.633z M24.556,82.728l1.373-5.584c1.817,0.93,4.609,1.861,7.489,1.861
	c3.102,0,4.742-1.284,4.742-3.234c0-1.861-1.419-2.925-5.009-4.21c-4.963-1.728-8.197-4.475-8.197-8.817
	c0-5.097,4.254-8.996,11.299-8.996c3.368,0,5.85,0.708,7.622,1.506l-1.505,5.451c-1.197-0.577-3.323-1.418-6.249-1.418
	c-2.924,0-4.343,1.33-4.343,2.88c0,1.906,1.683,2.749,5.54,4.21c5.272,1.95,7.754,4.697,7.754,8.906
	c0,5.008-3.854,9.262-12.054,9.262C29.607,84.545,26.238,83.659,24.556,82.728z M95.879,109.36h-66V90.092h66V109.36z
	 M102.418,82.728c-2.082,0.708-6.025,1.685-9.969,1.685c-5.451,0-9.395-1.375-12.143-4.032c-2.748-2.57-4.253-6.471-4.21-10.857
	c0.046-9.927,7.269-15.599,17.062-15.599c3.854,0,6.824,0.754,8.286,1.462l-1.419,5.408c-1.64-0.709-3.676-1.287-6.956-1.287
	c-5.629,0-9.882,3.191-9.882,9.661c0,6.16,3.854,9.793,9.395,9.793c1.551,0,2.791-0.178,3.322-0.443V72.27h-4.606v-5.273h11.12
	V82.728z"/>
</svg>
