<?xml version="1.0" encoding="utf-8"?>
<!-- Generator: Adobe Illustrator 16.0.0, SVG Export Plug-In . SVG Version: 6.00 Build 0)  -->
<!DOCTYPE svg PUBLIC "-//W3C//DTD SVG 1.1//EN" "http://www.w3.org/Graphics/SVG/1.1/DTD/svg11.dtd">
<svg version="1.1" id="Layer_1" xmlns="http://www.w3.org/2000/svg" xmlns:xlink="http://www.w3.org/1999/xlink" x="0px" y="0px"
	 width="126px" height="126px" viewBox="0 0 126 126" enable-background="new 0 0 126 126" xml:space="preserve">
<path d="M102.578,48.448h-2.449V36.63c0-0.074-0.012-0.148-0.021-0.223c-0.004-0.469-0.154-0.93-0.475-1.295L79.967,12.647
	c-0.006-0.006-0.012-0.008-0.016-0.014c-0.117-0.131-0.254-0.24-0.398-0.334c-0.043-0.029-0.086-0.053-0.131-0.078
	c-0.125-0.068-0.258-0.125-0.395-0.166c-0.037-0.01-0.07-0.025-0.107-0.035c-0.148-0.035-0.303-0.057-0.459-0.057H30.129
	c-2.207,0-4,1.795-4,4v32.484H23.68c-3.157,0-5.717,2.559-5.717,5.717v29.73c0,3.156,2.56,5.717,5.717,5.717h2.449v20.352
	c0,2.205,1.793,4,4,4h66c2.205,0,4-1.795,4-4V89.612h2.449c3.157,0,5.717-2.561,5.717-5.717v-29.73
	C108.295,51.007,105.735,48.448,102.578,48.448z M30.129,15.964h46.332v20.465c0,1.105,0.896,2,2,2h17.668v10.02h-66V15.964z
	 M82.788,54.188l-7.194,27.867h-6.823l-2.356-11.99c-0.537-2.811-0.992-5.418-1.323-8.602H65.01
	c-0.497,3.145-0.952,5.791-1.613,8.602l-2.645,11.99h-6.905l-6.615-27.867h6.74l2.109,11.492c0.619,3.309,1.197,6.906,1.653,9.717
	h0.083c0.455-3.018,1.116-6.367,1.819-9.797l2.356-11.412h6.697l2.234,11.744c0.621,3.264,1.075,6.24,1.488,9.342h0.082
	c0.414-3.102,1.034-6.369,1.613-9.674l2.274-11.412H82.788z M25.937,80.774l1.282-5.211c1.695,0.869,4.3,1.736,6.987,1.736
	c2.894,0,4.423-1.199,4.423-3.018c0-1.736-1.322-2.729-4.672-3.93c-4.629-1.609-7.648-4.174-7.648-8.225
	c0-4.756,3.97-8.395,10.543-8.395c3.143,0,5.457,0.662,7.111,1.404l-1.406,5.086c-1.117-0.537-3.102-1.322-5.831-1.322
	c-2.728,0-4.051,1.24-4.051,2.688c0,1.779,1.571,2.564,5.169,3.928c4.919,1.818,7.235,4.385,7.235,8.311
	c0,4.672-3.597,8.641-11.246,8.641C30.65,82.468,27.508,81.642,25.937,80.774z M96.129,108.88h-66V89.612h66V108.88z
	 M103.091,59.356H92.383v6.365h10.006v5.129H92.383v11.205h-6.325V54.188h17.033V59.356z"/>
</svg>
