<?xml version="1.0" encoding="utf-8"?>
<!-- Generator: Adobe Illustrator 16.0.0, SVG Export Plug-In . SVG Version: 6.00 Build 0)  -->
<!DOCTYPE svg PUBLIC "-//W3C//DTD SVG 1.1//EN" "http://www.w3.org/Graphics/SVG/1.1/DTD/svg11.dtd">
<svg version="1.1" id="Layer_1" xmlns="http://www.w3.org/2000/svg" xmlns:xlink="http://www.w3.org/1999/xlink" x="0px" y="0px"
	 width="126px" height="126px" viewBox="0 0 126 126" enable-background="new 0 0 126 126" xml:space="preserve">
<path d="M102.745,48.964h-2.449V37.146c0-0.074-0.012-0.148-0.021-0.223c-0.004-0.469-0.154-0.93-0.475-1.295L80.133,13.163
	c-0.006-0.006-0.012-0.008-0.016-0.014c-0.117-0.131-0.254-0.24-0.398-0.334c-0.043-0.029-0.086-0.053-0.131-0.078
	c-0.125-0.068-0.258-0.125-0.395-0.166c-0.037-0.01-0.07-0.025-0.107-0.035c-0.148-0.035-0.303-0.057-0.459-0.057H30.295
	c-2.207,0-4,1.795-4,4v32.484h-2.449c-3.157,0-5.717,2.559-5.717,5.717v29.73c0,3.156,2.56,5.717,5.717,5.717h2.449v20.352
	c0,2.205,1.793,4,4,4h66c2.205,0,4-1.795,4-4V90.128h2.449c3.157,0,5.717-2.561,5.717-5.717v-29.73
	C108.461,51.522,105.902,48.964,102.745,48.964z M30.295,16.479h46.332v20.465c0,1.105,0.896,2,2,2h17.668v10.02h-66V16.479z
	 M63.941,78.17c1.499,0,2.697-0.172,3.212-0.428v-6.039h-4.454v-5.096h10.749v15.203c-2.013,0.684-5.824,1.627-9.636,1.627
	c-5.267,0-9.079-1.328-11.734-3.896c-2.654-2.484-4.111-6.254-4.068-10.492c0.042-9.594,7.023-15.074,16.487-15.074
	c3.725,0,6.595,0.729,8.009,1.412l-1.371,5.225c-1.584-0.684-3.554-1.24-6.723-1.24c-5.438,0-9.55,3.082-9.55,9.334
	C54.862,74.658,58.587,78.17,63.941,78.17z M24.929,59.756v-5.482h22.183v5.482h-7.88v23.383H32.68V59.756H24.929z M96.295,109.396
	h-66V90.128h66V109.396z M95.758,83.139l-2.227-7.41h-8.265l-2.056,7.41h-6.767l8.823-28.865h8.564l8.95,28.865H95.758z"/>
<path d="M89.335,59.156h-0.086c-0.429,1.713-0.857,3.896-1.328,5.568l-1.713,6.123h6.381l-1.799-6.123
	C90.277,63.012,89.763,60.869,89.335,59.156z"/>
</svg>
