<?xml version="1.0" encoding="utf-8"?>
<!-- Generator: Adobe Illustrator 16.0.0, SVG Export Plug-In . SVG Version: 6.00 Build 0)  -->
<!DOCTYPE svg PUBLIC "-//W3C//DTD SVG 1.1//EN" "http://www.w3.org/Graphics/SVG/1.1/DTD/svg11.dtd">
<svg version="1.1" id="Layer_1" xmlns="http://www.w3.org/2000/svg" xmlns:xlink="http://www.w3.org/1999/xlink" x="0px" y="0px"
	 width="126px" height="126px" viewBox="0 0 126 126" enable-background="new 0 0 126 126" xml:space="preserve">
<path d="M102.495,48.944h-2.449V37.126c0-0.074-0.012-0.148-0.021-0.223c-0.004-0.469-0.154-0.93-0.475-1.295L79.883,13.144
	c-0.006-0.006-0.012-0.008-0.016-0.014c-0.117-0.131-0.254-0.24-0.398-0.334c-0.043-0.029-0.086-0.053-0.131-0.078
	c-0.125-0.068-0.258-0.125-0.395-0.166c-0.037-0.01-0.07-0.025-0.107-0.035c-0.148-0.035-0.303-0.057-0.459-0.057H30.045
	c-2.207,0-4,1.795-4,4v32.484h-2.449c-3.157,0-5.717,2.559-5.717,5.717v29.73c0,3.156,2.56,5.717,5.717,5.717h2.449v20.352
	c0,2.205,1.793,4,4,4h66c2.205,0,4-1.795,4-4V90.108h2.449c3.157,0,5.717-2.561,5.717-5.717v-29.73
	C108.211,51.503,105.652,48.944,102.495,48.944z M30.045,16.46h46.332v20.465c0,1.105,0.896,2,2,2h17.668v10.02h-66V16.46z
	 M53.931,71.037v10.98h-5.958V55.775h5.958v10.084h9.772V55.775h5.918v26.242h-5.918v-10.98H53.931z M24.654,60.758v-4.982h20.168
	v4.982h-7.165v21.26h-5.957v-21.26H24.654z M96.045,109.376h-66V90.108h66V109.376z M97.38,82.018l-0.39-10.045
	c-0.117-3.154-0.233-6.971-0.233-10.785h-0.117c-0.818,3.348-1.908,7.086-2.92,10.16l-3.193,10.24h-4.633l-2.803-10.162
	c-0.856-3.074-1.751-6.813-2.375-10.238h-0.078c-0.156,3.543-0.273,7.592-0.468,10.861l-0.466,9.969h-5.489l1.673-26.242h7.904
	l2.569,8.76c0.818,3.037,1.636,6.307,2.219,9.383h0.117c0.74-3.037,1.636-6.502,2.492-9.422l2.804-8.721h7.748l1.44,26.242H97.38z"
	/>
</svg>
