<?xml version="1.0" encoding="utf-8"?>
<!-- Generator: Adobe Illustrator 16.0.0, SVG Export Plug-In . SVG Version: 6.00 Build 0)  -->
<!DOCTYPE svg PUBLIC "-//W3C//DTD SVG 1.1//EN" "http://www.w3.org/Graphics/SVG/1.1/DTD/svg11.dtd">
<svg version="1.1" id="Layer_1" xmlns="http://www.w3.org/2000/svg" xmlns:xlink="http://www.w3.org/1999/xlink" x="0px" y="0px"
	 width="126px" height="126px" viewBox="0 0 126 126" enable-background="new 0 0 126 126" xml:space="preserve">
<path d="M90.784,53.576c-1.218,0-2.043,0.117-2.476,0.236v7.818c0.511,0.117,1.14,0.156,2.004,0.156c3.183,0,5.147-1.609,5.147-4.32
	C95.46,55.031,93.77,53.576,90.784,53.576z"/>
<path d="M102.366,41.598h-2.449V29.779c0-0.074-0.012-0.148-0.021-0.223c-0.004-0.469-0.154-0.93-0.475-1.295L79.754,5.797
	c-0.006-0.006-0.012-0.008-0.016-0.014c-0.117-0.131-0.254-0.24-0.398-0.334c-0.043-0.029-0.086-0.053-0.131-0.078
	c-0.125-0.068-0.258-0.125-0.395-0.166c-0.037-0.01-0.07-0.025-0.107-0.035c-0.148-0.035-0.303-0.057-0.459-0.057H29.917
	c-2.207,0-4,1.795-4,4v32.484h-2.449c-3.157,0-5.717,2.559-5.717,5.717v29.73c0,3.156,2.56,5.717,5.717,5.717h2.449v20.352
	c0,2.205,1.793,4,4,4h66c2.205,0,4-1.795,4-4V82.762h2.449c3.157,0,5.717-2.561,5.717-5.717v-29.73
	C108.083,44.156,105.523,41.598,102.366,41.598z M29.917,9.113h46.332v20.465c0,1.105,0.896,2,2,2h17.668v10.02h-66V9.113z
	 M77.775,75.734h-5.854l-0.392-10.137c-0.118-3.18-0.236-7.029-0.236-10.883h-0.117c-0.825,3.379-1.925,7.152-2.947,10.256
	l-3.221,10.332h-4.675l-2.829-10.252c-0.865-3.105-1.768-6.877-2.396-10.336h-0.079c-0.157,3.576-0.275,7.662-0.471,10.963
	l-0.472,10.057h-5.54l1.689-26.479h7.976l2.593,8.838c0.825,3.066,1.65,6.367,2.238,9.469h0.119
	c0.746-3.063,1.649-6.559,2.514-9.508l2.829-8.799h7.817L77.775,75.734z M25.757,54.285v-5.029h20.351v5.029h-7.229v21.449h-6.01
	V54.285H25.757z M95.917,102.029h-66V82.762h66V102.029z M98.956,63.596c-2.043,1.926-5.067,2.789-8.604,2.789
	c-0.786,0-1.493-0.039-2.044-0.117v9.467h-5.932V49.609c1.846-0.316,4.439-0.551,8.094-0.551c3.692,0,6.324,0.709,8.093,2.123
	c1.688,1.334,2.828,3.533,2.828,6.129C101.392,59.902,100.527,62.102,98.956,63.596z"/>
</svg>
