<?xml version="1.0" encoding="utf-8"?>
<!-- Generator: Adobe Illustrator 16.0.0, SVG Export Plug-In . SVG Version: 6.00 Build 0)  -->
<!DOCTYPE svg PUBLIC "-//W3C//DTD SVG 1.1//EN" "http://www.w3.org/Graphics/SVG/1.1/DTD/svg11.dtd">
<svg version="1.1" id="Layer_1" xmlns="http://www.w3.org/2000/svg" xmlns:xlink="http://www.w3.org/1999/xlink" x="0px" y="0px"
	 width="126px" height="126px" viewBox="0 0 126 126" enable-background="new 0 0 126 126" xml:space="preserve">
<path d="M102.449,48.948H100V37.129c0-0.074-0.012-0.148-0.021-0.223c-0.004-0.469-0.154-0.93-0.475-1.295L79.838,13.147
	c-0.006-0.006-0.012-0.008-0.016-0.014c-0.117-0.131-0.254-0.24-0.398-0.334c-0.043-0.029-0.086-0.053-0.131-0.078
	c-0.125-0.068-0.258-0.125-0.395-0.166c-0.037-0.01-0.07-0.025-0.107-0.035c-0.148-0.035-0.303-0.057-0.459-0.057H30
	c-2.207,0-4,1.795-4,4v32.484h-2.449c-3.157,0-5.717,2.559-5.717,5.717v29.73c0,3.156,2.56,5.717,5.717,5.717H26v20.352
	c0,2.205,1.793,4,4,4h66c2.205,0,4-1.795,4-4V90.112h2.449c3.157,0,5.717-2.561,5.717-5.717v-29.73
	C108.166,51.506,105.606,48.948,102.449,48.948z M30,16.463h46.332v20.465c0,1.105,0.896,2,2,2H96v10.02H30V16.463z M49.73,54.328
	h7.754l2.616,5.451c0.885,1.815,1.551,3.278,2.26,4.962h0.089c0.707-1.905,1.284-3.235,2.037-4.962l2.527-5.451h7.711l-8.42,14.578
	l8.863,15.289h-7.8l-2.702-5.406c-1.108-2.083-1.818-3.633-2.66-5.362h-0.089c-0.62,1.729-1.373,3.279-2.303,5.362l-2.481,5.406
	H49.42l8.642-15.11L49.73,54.328z M24.293,60v-5.672h22.953V60h-8.153v24.194h-6.778V60H24.293z M96,109.379H30V90.112h66V109.379z
	 M99.764,60H91.61v24.194h-6.78V60h-8.021v-5.672h22.955V60z"/>
</svg>
