<?xml version="1.0" encoding="utf-8"?>
<!-- Generator: Adobe Illustrator 16.0.0, SVG Export Plug-In . SVG Version: 6.00 Build 0)  -->
<!DOCTYPE svg PUBLIC "-//W3C//DTD SVG 1.1//EN" "http://www.w3.org/Graphics/SVG/1.1/DTD/svg11.dtd">
<svg version="1.1" id="Layer_1" xmlns="http://www.w3.org/2000/svg" xmlns:xlink="http://www.w3.org/1999/xlink" x="0px" y="0px"
	 width="126px" height="126px" viewBox="0 0 126 126" enable-background="new 0 0 126 126" xml:space="preserve">
<path d="M102.495,48.944h-2.449V37.126c0-0.074-0.012-0.148-0.021-0.223c-0.004-0.469-0.154-0.93-0.475-1.295L79.883,13.144
	c-0.006-0.006-0.012-0.008-0.016-0.014c-0.117-0.131-0.254-0.24-0.398-0.334c-0.043-0.029-0.086-0.053-0.131-0.078
	c-0.125-0.068-0.258-0.125-0.395-0.166c-0.037-0.01-0.07-0.025-0.107-0.035c-0.148-0.035-0.303-0.057-0.459-0.057H30.045
	c-2.207,0-4,1.795-4,4v32.484h-2.449c-3.157,0-5.717,2.559-5.717,5.717v29.73c0,3.156,2.56,5.717,5.717,5.717h2.449v20.352
	c0,2.205,1.793,4,4,4h66c2.205,0,4-1.795,4-4V90.108h2.449c3.157,0,5.717-2.561,5.717-5.717v-29.73
	C108.211,51.503,105.652,48.944,102.495,48.944z M96.045,109.376h-66V90.108h66V109.376z M36.854,53.758h7.569l3.717,12.918
	c1.043,3.627,1.993,7.117,2.719,10.926h0.137c0.769-3.672,1.721-7.299,2.765-10.789l3.897-13.055h7.343L54.712,84.309h-8.067
	L36.854,53.758z M90.927,75.379c0,2.766-1.27,4.941-3.174,6.482c-2.222,1.768-5.937,2.766-12.013,2.766
	c-3.397,0-5.937-0.229-7.478-0.453V54.166c1.813-0.361,5.484-0.633,8.93-0.633c4.215,0,6.797,0.406,9.019,1.721
	c2.13,1.133,3.671,3.219,3.671,5.984c0,2.719-1.587,5.258-5.03,6.525v0.092C88.342,68.809,90.927,71.436,90.927,75.379z
	 M96.045,48.944h-66V16.46h46.332v20.465c0,1.105,0.896,2,2,2h17.668V48.944z"/>
<path d="M77.465,70.801h-2.356v8.613c0.678,0.09,1.496,0.09,2.674,0.09c3.128,0,5.891-1.178,5.891-4.396
	C83.673,72.025,80.911,70.801,77.465,70.801z"/>
<path d="M82.949,62.098c0-2.311-1.767-3.533-4.895-3.533c-1.496,0-2.356,0.09-2.946,0.18v7.117h2.265
	C81,65.861,82.949,64.365,82.949,62.098z"/>
</svg>
