<?xml version="1.0" encoding="utf-8"?>
<!-- Generator: Adobe Illustrator 16.0.0, SVG Export Plug-In . SVG Version: 6.00 Build 0)  -->
<!DOCTYPE svg PUBLIC "-//W3C//DTD SVG 1.1//EN" "http://www.w3.org/Graphics/SVG/1.1/DTD/svg11.dtd">
<svg version="1.1" id="Layer_1" xmlns="http://www.w3.org/2000/svg" xmlns:xlink="http://www.w3.org/1999/xlink" x="0px" y="0px"
	 width="126px" height="126px" viewBox="0 0 126 126" enable-background="new 0 0 126 126" xml:space="preserve">
<path d="M89.631,69.947h-2.109v7.697c0.608,0.082,1.339,0.082,2.393,0.082c2.795,0,5.269-1.053,5.269-3.93
	C95.183,71.039,92.709,69.947,89.631,69.947z"/>
<path d="M103.207,48.521h-2.449V36.703c0-0.074-0.012-0.148-0.021-0.223c-0.004-0.469-0.154-0.93-0.475-1.295L80.596,12.721
	c-0.006-0.006-0.012-0.008-0.016-0.014c-0.117-0.131-0.254-0.24-0.398-0.334c-0.043-0.029-0.086-0.053-0.131-0.078
	c-0.125-0.068-0.258-0.125-0.395-0.166c-0.037-0.01-0.07-0.025-0.107-0.035c-0.148-0.035-0.303-0.057-0.459-0.057H30.758
	c-2.207,0-4,1.795-4,4v32.484h-2.449c-3.157,0-5.717,2.559-5.717,5.717v29.73c0,3.156,2.56,5.717,5.717,5.717h2.449v20.352
	c0,2.205,1.793,4,4,4h66c2.205,0,4-1.795,4-4V89.686h2.449c3.157,0,5.717-2.561,5.717-5.717v-29.73
	C108.924,51.08,106.364,48.521,103.207,48.521z M30.758,16.037H77.09v20.465c0,1.105,0.896,2,2,2h17.668v10.02h-66V16.037z
	 M77.354,68.08c0,8.959-5.43,14.389-13.414,14.389c-8.105,0-12.846-6.119-12.846-13.9c0-8.186,5.229-14.307,13.291-14.307
	C72.775,54.262,77.354,60.543,77.354,68.08z M24.592,54.707h6.768l3.324,11.551c0.932,3.242,1.782,6.363,2.432,9.768h0.12
	c0.69-3.283,1.541-6.525,2.473-9.646l3.485-11.672h6.565l-9.2,27.316h-7.214L24.592,54.707z M96.758,108.953h-66V89.686h66V108.953z
	 M98.83,79.834c-1.986,1.58-5.31,2.473-10.741,2.473c-3.039,0-5.309-0.203-6.687-0.404v-26.83c1.621-0.322,4.904-0.566,7.985-0.566
	c3.768,0,6.078,0.365,8.064,1.541c1.904,1.014,3.282,2.877,3.282,5.348c0,2.434-1.419,4.701-4.499,5.836v0.08
	c3.121,0.854,5.432,3.201,5.432,6.729C101.667,76.51,100.531,78.457,98.83,79.834z"/>
<path d="M94.533,62.164c0-2.064-1.58-3.16-4.376-3.16c-1.338,0-2.107,0.082-2.636,0.162v6.361h2.027
	C92.791,65.527,94.533,64.191,94.533,62.164z"/>
<path d="M57.618,68.445c0,5.352,2.513,9.119,6.646,9.119c4.174,0,6.565-3.971,6.565-9.279c0-4.902-2.351-9.119-6.606-9.119
	C60.049,59.166,57.618,63.137,57.618,68.445z"/>
</svg>
