<?xml version="1.0" encoding="utf-8"?>
<!-- Generator: Adobe Illustrator 16.0.0, SVG Export Plug-In . SVG Version: 6.00 Build 0)  -->
<!DOCTYPE svg PUBLIC "-//W3C//DTD SVG 1.1//EN" "http://www.w3.org/Graphics/SVG/1.1/DTD/svg11.dtd">
<svg version="1.1" id="Layer_1" xmlns="http://www.w3.org/2000/svg" xmlns:xlink="http://www.w3.org/1999/xlink" x="0px" y="0px"
	 width="126px" height="126px" viewBox="0 0 126 126" enable-background="new 0 0 126 126" xml:space="preserve">
<path d="M69.16,64.882c-0.455-1.513-0.909-3.402-1.287-4.915h-0.076c-0.378,1.512-0.756,3.44-1.172,4.915l-1.515,5.41h5.637
	L69.16,64.882z"/>
<path d="M103.207,49.021h-2.449V37.203c0-0.074-0.012-0.148-0.021-0.223c-0.004-0.469-0.154-0.93-0.475-1.295L80.596,13.22
	c-0.006-0.006-0.012-0.008-0.016-0.014c-0.117-0.131-0.254-0.24-0.398-0.334c-0.043-0.029-0.086-0.053-0.131-0.078
	c-0.125-0.068-0.258-0.125-0.395-0.166c-0.037-0.01-0.07-0.025-0.107-0.035c-0.148-0.035-0.303-0.057-0.459-0.057H30.758
	c-2.207,0-4,1.795-4,4v32.484h-2.449c-3.157,0-5.717,2.559-5.717,5.717v29.73c0,3.156,2.56,5.717,5.717,5.717h2.449v20.352
	c0,2.205,1.793,4,4,4h66c2.205,0,4-1.795,4-4V90.185h2.449c3.157,0,5.717-2.561,5.717-5.717v-29.73
	C108.924,51.58,106.364,49.021,103.207,49.021z M30.758,16.537H77.09v20.465c0,1.105,0.896,2,2,2h17.668v10.02h-66V16.537z
	 M71.842,55.653l7.906,25.492h-6.204l-1.967-6.542h-7.3l-1.815,6.542h-5.975l7.79-25.492H71.842z M24.865,55.653h6.165l1.928,10.515
	c0.567,3.025,1.097,6.316,1.513,8.889h0.077c0.416-2.76,1.02-5.826,1.664-8.965l2.154-10.439h6.129l2.041,10.743
	c0.567,2.987,0.983,5.71,1.361,8.548h0.077c0.377-2.837,0.944-5.825,1.474-8.852l2.082-10.439h5.862l-6.581,25.492h-6.242
	l-2.156-10.967c-0.491-2.574-0.907-4.957-1.209-7.87h-0.075c-0.455,2.875-0.871,5.295-1.477,7.87l-2.418,10.967h-6.317
	L24.865,55.653z M96.758,109.453h-66V90.185h66V109.453z M93.67,81.146h-6.732l-8.171-25.492h6.319l3.099,10.779
	c0.871,3.025,1.664,5.939,2.271,9.116h0.112c0.645-3.064,1.438-6.091,2.309-9.003l3.253-10.892h6.127L93.67,81.146z"/>
</svg>
