<?xml version="1.0" encoding="utf-8"?>
<!-- Generator: Adobe Illustrator 16.0.0, SVG Export Plug-In . SVG Version: 6.00 Build 0)  -->
<!DOCTYPE svg PUBLIC "-//W3C//DTD SVG 1.1//EN" "http://www.w3.org/Graphics/SVG/1.1/DTD/svg11.dtd">
<svg version="1.1" id="Layer_1" xmlns="http://www.w3.org/2000/svg" xmlns:xlink="http://www.w3.org/1999/xlink" x="0px" y="0px"
	 width="126px" height="126px" viewBox="0 0 126 126" enable-background="new 0 0 126 126" xml:space="preserve">
<path d="M66.764,60.569c-1.14,0-1.911,0.111-2.315,0.221v7.309c0.479,0.111,1.065,0.146,1.873,0.146
	c2.977,0,4.813-1.504,4.813-4.039C71.135,61.929,69.553,60.569,66.764,60.569z"/>
<path d="M88.401,60.644c-1.25,0-2.059,0.109-2.537,0.221V77.06c0.479,0.111,1.248,0.111,1.948,0.111
	c5.068,0.037,8.374-2.756,8.374-8.668C96.223,63.36,93.21,60.644,88.401,60.644z"/>
<path d="M102.328,48.429h-2.449V36.61c0-0.074-0.012-0.148-0.021-0.223c-0.004-0.469-0.154-0.93-0.475-1.295L79.717,12.628
	c-0.006-0.006-0.012-0.008-0.016-0.014c-0.117-0.131-0.254-0.24-0.398-0.334c-0.043-0.029-0.086-0.053-0.131-0.078
	c-0.125-0.068-0.258-0.125-0.395-0.166c-0.037-0.01-0.07-0.025-0.107-0.035c-0.148-0.035-0.303-0.057-0.459-0.057H29.879
	c-2.207,0-4,1.795-4,4v32.484H23.43c-3.157,0-5.717,2.559-5.717,5.717v29.73c0,3.156,2.56,5.717,5.717,5.717h2.449v20.352
	c0,2.205,1.793,4,4,4h66c2.205,0,4-1.795,4-4V89.593h2.449c3.157,0,5.717-2.561,5.717-5.717v-29.73
	C108.045,50.987,105.485,48.429,102.328,48.429z M29.879,15.944h46.332v20.465c0,1.105,0.896,2,2,2h17.668v10.02h-66V15.944z
	 M76.68,64.058c0,2.426-0.808,4.482-2.277,5.879c-1.911,1.799-4.739,2.607-8.042,2.607c-0.736,0-1.397-0.037-1.912-0.111v8.852
	h-5.545V56.86c1.727-0.295,4.15-0.514,7.564-0.514c3.453,0,5.915,0.66,7.567,1.982C75.614,59.577,76.68,61.636,76.68,64.058z
	 M24.41,56.53h5.986l1.873,10.211c0.551,2.938,1.065,6.131,1.47,8.629h0.074c0.404-2.68,0.99-5.656,1.613-8.703l2.097-10.137h5.948
	l1.984,10.43c0.551,2.902,0.954,5.547,1.322,8.301h0.072c0.367-2.754,0.918-5.656,1.433-8.594l2.02-10.137h5.691l-6.389,24.754
	h-6.062l-2.092-10.65c-0.479-2.498-0.882-4.813-1.176-7.641h-0.072c-0.442,2.793-0.846,5.143-1.433,7.641l-2.352,10.65h-6.134
	L24.41,56.53z M95.879,108.86h-66V89.593h66V108.86z M98.021,78.347c-2.606,2.166-6.574,3.193-11.421,3.193
	c-2.902,0-4.958-0.182-6.355-0.365V56.86c2.059-0.33,4.739-0.514,7.567-0.514c4.7,0,7.749,0.844,10.137,2.645
	c2.57,1.91,4.187,4.957,4.187,9.328C102.136,73.058,100.409,76.325,98.021,78.347z"/>
</svg>
