<?xml version="1.0" encoding="utf-8"?>
<!-- Generator: Adobe Illustrator 16.0.0, SVG Export Plug-In . SVG Version: 6.00 Build 0)  -->
<!DOCTYPE svg PUBLIC "-//W3C//DTD SVG 1.1//EN" "http://www.w3.org/Graphics/SVG/1.1/DTD/svg11.dtd">
<svg version="1.1" id="Layer_1" xmlns="http://www.w3.org/2000/svg" xmlns:xlink="http://www.w3.org/1999/xlink" x="0px" y="0px"
	 width="126px" height="126px" viewBox="0 0 126 126" enable-background="new 0 0 126 126" xml:space="preserve">
<path d="M102.745,48.964h-2.449V37.146c0-0.074-0.012-0.148-0.021-0.223c-0.004-0.469-0.154-0.93-0.475-1.295L80.133,13.163
	c-0.006-0.006-0.012-0.008-0.016-0.014c-0.117-0.131-0.254-0.24-0.398-0.334c-0.043-0.029-0.086-0.053-0.131-0.078
	c-0.125-0.068-0.258-0.125-0.395-0.166c-0.037-0.01-0.07-0.025-0.107-0.035c-0.148-0.035-0.303-0.057-0.459-0.057H30.295
	c-2.207,0-4,1.795-4,4v32.484h-2.449c-3.157,0-5.717,2.559-5.717,5.717v29.73c0,3.156,2.56,5.717,5.717,5.717h2.449v20.352
	c0,2.205,1.793,4,4,4h66c2.205,0,4-1.795,4-4V90.128h2.449c3.157,0,5.717-2.561,5.717-5.717v-29.73
	C108.461,51.522,105.902,48.964,102.745,48.964z M30.295,16.479h46.332v20.465c0,1.105,0.896,2,2,2h17.668v10.02h-66V16.479z
	 M75.177,78.098v5.801H56.093V53.35h6.937v24.748H75.177z M26.045,83.898l8.839-15.455L26.362,53.35h7.932l2.674,5.574
	c0.907,1.857,1.587,3.355,2.313,5.076h0.089c0.727-1.949,1.315-3.309,2.085-5.076l2.584-5.574h7.887l-8.613,14.912l9.067,15.637
	h-7.978l-2.765-5.529c-1.132-2.131-1.858-3.717-2.719-5.484h-0.091c-0.635,1.768-1.404,3.354-2.356,5.484l-2.539,5.529H26.045z
	 M96.295,109.396h-66V90.128h66V109.396z M86.733,84.354c-3.489,0-6.935-0.908-8.656-1.859l1.404-5.711
	c1.859,0.951,4.715,1.904,7.661,1.904c3.174,0,4.85-1.314,4.85-3.309c0-1.904-1.45-2.992-5.122-4.307
	c-5.076-1.768-8.386-4.578-8.386-9.021c0-5.213,4.352-9.201,11.561-9.201c3.443,0,5.982,0.727,7.795,1.541l-1.541,5.576
	c-1.224-0.59-3.4-1.451-6.391-1.451s-4.441,1.359-4.441,2.947c0,1.949,1.721,2.811,5.665,4.307c5.393,1.994,7.932,4.803,7.932,9.109
	C99.063,80.002,95.12,84.354,86.733,84.354z"/>
</svg>
