<?xml version="1.0" encoding="utf-8"?>
<!-- Generator: Adobe Illustrator 16.0.0, SVG Export Plug-In . SVG Version: 6.00 Build 0)  -->
<!DOCTYPE svg PUBLIC "-//W3C//DTD SVG 1.1//EN" "http://www.w3.org/Graphics/SVG/1.1/DTD/svg11.dtd">
<svg version="1.1" id="Layer_1" xmlns="http://www.w3.org/2000/svg" xmlns:xlink="http://www.w3.org/1999/xlink" x="0px" y="0px"
	 width="126px" height="126px" viewBox="0 0 126 126" enable-background="new 0 0 126 126" xml:space="preserve">
<path d="M102.495,48.944h-2.449V37.126c0-0.074-0.012-0.148-0.021-0.223c-0.004-0.469-0.154-0.93-0.475-1.295L79.883,13.144
	c-0.006-0.006-0.012-0.008-0.016-0.014c-0.117-0.131-0.254-0.24-0.398-0.334c-0.043-0.029-0.086-0.053-0.131-0.078
	c-0.125-0.068-0.258-0.125-0.395-0.166c-0.037-0.01-0.07-0.025-0.107-0.035c-0.148-0.035-0.303-0.057-0.459-0.057H30.045
	c-2.207,0-4,1.795-4,4v32.484h-2.449c-3.157,0-5.717,2.559-5.717,5.717v29.73c0,3.156,2.56,5.717,5.717,5.717h2.449v20.352
	c0,2.205,1.793,4,4,4h66c2.205,0,4-1.795,4-4V90.108h2.449c3.157,0,5.717-2.561,5.717-5.717v-29.73
	C108.211,51.503,105.652,48.944,102.495,48.944z M30.045,16.46h46.332v20.465c0,1.105,0.896,2,2,2h17.668v10.02h-66V16.46z
	 M62.412,78.523c3.23,0,5.008-2.26,5.008-7.066v-15.67h6.139v15.266c0,8.4-4.24,12.398-11.348,12.398
	c-6.866,0-10.904-3.797-10.904-12.48V55.787h6.178v15.67C57.485,76.141,59.262,78.523,62.412,78.523z M24.693,55.787h7.028
	l2.786,6.541c0.848,1.98,1.414,3.434,2.1,5.211h0.081c0.606-1.697,1.252-3.271,2.06-5.211l2.747-6.541H48.4l-8.965,15.869v11.35
	h-6.139V71.859L24.693,55.787z M96.045,109.376h-66V90.108h66V109.376z M92.496,83.006h-7.188l-8.723-27.219h6.745l3.311,11.508
	c0.93,3.232,1.777,6.342,2.424,9.734h0.121c0.687-3.271,1.534-6.502,2.464-9.611l3.473-11.631h6.542L92.496,83.006z"/>
</svg>
