<?xml version="1.0" encoding="utf-8"?>
<!-- Generator: Adobe Illustrator 16.0.0, SVG Export Plug-In . SVG Version: 6.00 Build 0)  -->
<!DOCTYPE svg PUBLIC "-//W3C//DTD SVG 1.0//EN" "http://www.w3.org/TR/2001/REC-SVG-20010904/DTD/svg10.dtd">
<svg version="1.0" id="Calque_1" xmlns="http://www.w3.org/2000/svg" xmlns:xlink="http://www.w3.org/1999/xlink" x="0px" y="0px"
	 width="50px" height="50px" viewBox="0 0 50 50" enable-background="new 0 0 50 50" xml:space="preserve">
<path fill="#82AB29" d="M0,0v50h50V0H0z M34.933,19.01c0,1.671-1.355,3.029-3.028,3.029c-1.675,0-3.03-1.357-3.03-3.029
	c0-1.673,1.355-3.031,3.03-3.031C33.577,15.979,34.933,17.337,34.933,19.01z M30.812,24.862c0,1.577-1.279,2.854-2.854,2.854
	c-1.577,0-2.854-1.277-2.854-2.854c0-1.578,1.277-2.855,2.854-2.855C29.533,22.006,30.812,23.284,30.812,24.862z M27.656,12.25
	c0-0.343,0.262-0.25,0.555-0.25h3.533c0.401,0,0.753-0.067,0.421,0.22c0,0-1.373,0.505-2.76,2.799
	c-1.127,1.862-1.187,3.262-1.187,3.262l-0.021,0.62c-0.225,0.259-0.479-0.059-0.479-0.401L27.656,12.25z M23.924,15.979
	c1.673,0,3.029,1.357,3.029,3.031c0,1.671-1.356,3.029-3.029,3.029c-1.674,0-3.031-1.357-3.031-3.029
	C20.893,17.337,22.25,15.979,23.924,15.979z M17.955,44.402l-0.941,0.584c-1.152-1.762-2.119-3.473-2.904-5.122
	c-0.784-1.653-1.417-3.295-1.894-4.933c-0.479-1.638-0.826-3.278-1.043-4.92c-0.217-1.646-0.325-3.34-0.325-5.09
	c0-1.749,0.108-3.449,0.325-5.102c0.217-1.651,0.564-3.293,1.043-4.931c0.478-1.638,1.11-3.28,1.894-4.933
	c0.785-1.65,1.752-3.358,2.904-5.123l0.941,0.583c0.194,0.105,0.291,0.26,0.291,0.47c0,0.15-0.053,0.308-0.157,0.473
	c-1.778,2.867-3.12,5.838-4.024,8.91c-0.904,3.071-1.357,6.288-1.357,9.652c0,3.35,0.453,6.557,1.357,9.629
	c0.904,3.07,2.254,6.034,4.047,8.889c0.104,0.165,0.156,0.319,0.156,0.471C18.268,44.135,18.164,44.298,17.955,44.402z
	 M17.759,24.862c0-1.578,1.277-2.855,2.854-2.855s2.854,1.278,2.854,2.855c0,1.577-1.277,2.854-2.854,2.854
	S17.759,26.438,17.759,24.862z M21.692,30.64c0-1.505,1.219-2.724,2.724-2.724c1.504,0,2.725,1.219,2.725,2.724
	s-1.22,2.725-2.725,2.725C22.911,33.364,21.692,32.145,21.692,30.64z M27.958,38.479c-1.189,0-2.153-0.966-2.153-2.155
	c0-1.188,0.963-2.151,2.153-2.151s2.151,0.964,2.151,2.151C30.109,37.514,29.147,38.479,27.958,38.479z M31.509,33.364
	c-1.508,0-2.727-1.22-2.727-2.725s1.219-2.724,2.727-2.724c1.503,0,2.724,1.219,2.724,2.724S33.012,33.364,31.509,33.364z
	 M35.311,27.716c-1.576,0-2.854-1.277-2.854-2.854c0-1.578,1.277-2.855,2.854-2.855c1.575,0,2.855,1.278,2.855,2.855
	C38.166,26.438,36.886,27.716,35.311,27.716z"/>
</svg>
