<?xml version="1.0" encoding="utf-8"?>
<!-- Generator: Adobe Illustrator 18.1.1, SVG Export Plug-In . SVG Version: 6.00 Build 0)  -->
<!DOCTYPE svg PUBLIC "-//W3C//DTD SVG 1.1//EN" "http://www.w3.org/Graphics/SVG/1.1/DTD/svg11.dtd">
<svg version="1.1" id="Calque_1" xmlns="http://www.w3.org/2000/svg" xmlns:xlink="http://www.w3.org/1999/xlink" x="0px" y="0px"
	 viewBox="0 0 50 50" enable-background="new 0 0 50 50" xml:space="preserve">
<path fill="#010202" d="M0,0v50h50V0H0z M25.7,12.2c1.9,0,3.5,1.6,3.5,3.5s-1.6,3.5-3.5,3.5c-1.9,0-3.5-1.6-3.5-3.5
	S23.8,12.2,25.7,12.2z M24.5,22.4c0,1.8-1.5,3.3-3.3,3.3c-1.8,0-3.3-1.5-3.3-3.3c0-1.8,1.5-3.3,3.3-3.3C23,19.1,24.5,20.6,24.5,22.4
	z M16.6,12.2c1.9,0,3.5,1.6,3.5,3.5s-1.6,3.5-3.5,3.5c-1.9,0-3.5-1.6-3.5-3.5S14.7,12.2,16.6,12.2z M9.5,22.4c0-1.8,1.5-3.3,3.3-3.3
	c1.8,0,3.3,1.5,3.3,3.3c0,1.8-1.5,3.3-3.3,3.3C11,25.6,9.5,24.2,9.5,22.4z M14,29c0-1.7,1.4-3.1,3.1-3.1c1.7,0,3.1,1.4,3.1,3.1
	c0,1.7-1.4,3.1-3.1,3.1C15.4,32.1,14,30.7,14,29z M21.2,38c-1.4,0-2.5-1.1-2.5-2.5c0-1.4,1.1-2.5,2.5-2.5c1.4,0,2.5,1.1,2.5,2.5
	C23.7,36.9,22.6,38,21.2,38z M25.3,32.1c-1.7,0-3.1-1.4-3.1-3.1c0-1.7,1.4-3.1,3.1-3.1c1.7,0,3.1,1.4,3.1,3.1
	C28.4,30.7,27,32.1,25.3,32.1z M29.7,25.6c-1.8,0-3.3-1.5-3.3-3.3c0-1.8,1.5-3.3,3.3-3.3c1.8,0,3.3,1.5,3.3,3.3
	C32.9,24.2,31.5,25.6,29.7,25.6z M40.2,29.7c-0.2,1.5-0.5,3.1-1,4.6c-0.4,1.5-1,3-1.7,4.6c-0.7,1.5-1.6,3-2.6,4.6l-1.6-1
	c-0.1-0.1-0.2-0.1-0.3-0.2C33,42.1,33,42,32.9,41.9c0-0.1,0-0.2,0-0.4c0-0.2,0.1-0.3,0.2-0.5c1.4-2.4,2.5-5,3.2-7.7
	c0.7-2.7,1.1-5.5,1.1-8.3c0-2.9-0.4-5.6-1.1-8.3c-0.7-2.7-1.8-5.3-3.2-7.7c-0.1-0.2-0.2-0.4-0.2-0.5c0-0.2,0-0.3,0-0.4
	c0-0.1,0.1-0.2,0.2-0.3c0.1-0.1,0.2-0.2,0.3-0.2l1.6-1c1,1.6,1.9,3.1,2.6,4.6c0.7,1.5,1.3,3,1.7,4.5c0.4,1.5,0.8,3.1,1,4.6
	c0.2,1.6,0.3,3.1,0.3,4.8C40.5,26.6,40.4,28.2,40.2,29.7z"/>
</svg>
