<?xml version="1.0" encoding="utf-8"?>
<!-- Generator: Adobe Illustrator 16.0.0, SVG Export Plug-In . SVG Version: 6.00 Build 0)  -->
<!DOCTYPE svg PUBLIC "-//W3C//DTD SVG 1.1//EN" "http://www.w3.org/Graphics/SVG/1.1/DTD/svg11.dtd">
<svg version="1.1" id="Layer_1" xmlns="http://www.w3.org/2000/svg" xmlns:xlink="http://www.w3.org/1999/xlink" x="0px" y="0px"
	 width="126px" height="126px" viewBox="0 0 126 126" enable-background="new 0 0 126 126" xml:space="preserve">
<path d="M103.207,48.521h-2.449V36.703c0-0.074-0.012-0.148-0.021-0.223c-0.004-0.469-0.154-0.93-0.475-1.295L80.596,12.721
	c-0.006-0.006-0.012-0.008-0.016-0.014c-0.117-0.131-0.254-0.24-0.398-0.334c-0.043-0.029-0.086-0.053-0.131-0.078
	c-0.125-0.068-0.258-0.125-0.395-0.166c-0.037-0.01-0.07-0.025-0.107-0.035c-0.148-0.035-0.303-0.057-0.459-0.057H30.758
	c-2.207,0-4,1.795-4,4v32.484h-2.449c-3.157,0-5.717,2.559-5.717,5.717v29.73c0,3.156,2.56,5.717,5.717,5.717h2.449v20.352
	c0,2.205,1.793,4,4,4h66c2.205,0,4-1.795,4-4V89.686h2.449c3.157,0,5.717-2.561,5.717-5.717v-29.73
	C108.924,51.08,106.364,48.521,103.207,48.521z M30.758,16.037H77.09v20.465c0,1.105,0.896,2,2,2h17.668v10.02h-66V16.037z
	 M71.563,67.14c0,4.967-1.807,8.393-4.309,10.508c-2.732,2.273-6.891,3.35-11.971,3.35c-3.041,0-5.195-0.193-6.66-0.385V55.13
	c2.156-0.344,4.967-0.537,7.93-0.537c4.926,0,8.121,0.885,10.623,2.771C69.871,59.366,71.563,62.56,71.563,67.14z M25.795,79.872
	l1.248-4.582c1.084,0.564,3.576,1.607,6.068,1.607c3.174,0,4.781-1.527,4.781-3.494c0-2.572-2.574-3.738-5.264-3.738h-2.494v-4.381
	h2.371c2.051-0.039,4.662-0.803,4.662-3.014c0-1.568-1.287-2.732-3.859-2.732c-2.127,0-4.379,0.924-5.463,1.566l-1.246-4.42
	c1.568-1.004,4.701-1.969,8.078-1.969c5.584,0,8.68,2.934,8.68,6.51c0,2.773-1.566,4.945-4.783,6.068v0.08
	c3.135,0.563,5.668,2.934,5.668,6.35c0,4.621-4.061,7.998-10.691,7.998C30.176,81.722,27.322,80.837,25.795,79.872z M96.758,108.953
	h-66V89.686h66V108.953z M97.736,80.728L97.352,70.8c-0.115-3.119-0.232-6.893-0.232-10.664h-0.115
	c-0.807,3.309-1.885,7.004-2.887,10.045l-3.158,10.123h-4.578l-2.771-10.045c-0.846-3.041-1.729-6.736-2.35-10.123h-0.074
	c-0.156,3.502-0.27,7.506-0.461,10.738l-0.463,9.854h-5.426l1.654-25.941h7.814l2.539,8.658c0.807,3.002,1.615,6.236,2.195,9.277
	h0.113c0.732-3.002,1.617-6.428,2.465-9.314l2.771-8.621h7.658l1.426,25.941H97.736z"/>
<path d="M57.168,59.097c-1.309,0-2.154,0.113-2.654,0.23v16.975c0.5,0.115,1.309,0.115,2.039,0.115
	c5.311,0.039,8.775-2.887,8.775-9.084C65.367,61.944,62.211,59.097,57.168,59.097z"/>
</svg>
