<?xml version="1.0" encoding="utf-8"?>
<!-- Generator: Adobe Illustrator 16.0.0, SVG Export Plug-In . SVG Version: 6.00 Build 0)  -->
<!DOCTYPE svg PUBLIC "-//W3C//DTD SVG 1.1//EN" "http://www.w3.org/Graphics/SVG/1.1/DTD/svg11.dtd">
<svg version="1.1" id="Layer_1" xmlns="http://www.w3.org/2000/svg" xmlns:xlink="http://www.w3.org/1999/xlink" x="0px" y="0px"
	 width="126px" height="126px" viewBox="0 0 126 126" enable-background="new 0 0 126 126" xml:space="preserve">
<path d="M63.213,60.204c-1.394,0-2.293,0.124-2.825,0.245v18.053c0.532,0.121,1.392,0.121,2.169,0.121
	c5.649,0.043,9.334-3.068,9.334-9.66C71.93,63.232,68.575,60.204,63.213,60.204z"/>
<path d="M103.207,48.521h-2.449V36.703c0-0.074-0.012-0.148-0.021-0.223c-0.004-0.469-0.154-0.93-0.475-1.295L80.596,12.721
	c-0.006-0.006-0.012-0.008-0.016-0.014c-0.117-0.131-0.254-0.24-0.398-0.334c-0.043-0.029-0.086-0.053-0.131-0.078
	c-0.125-0.068-0.258-0.125-0.395-0.166c-0.037-0.01-0.07-0.025-0.107-0.035c-0.148-0.035-0.303-0.057-0.459-0.057H30.758
	c-2.207,0-4,1.795-4,4v32.484h-2.449c-3.157,0-5.717,2.559-5.717,5.717v29.73c0,3.156,2.56,5.717,5.717,5.717h2.449v20.352
	c0,2.205,1.793,4,4,4h66c2.205,0,4-1.795,4-4V89.686h2.449c3.157,0,5.717-2.561,5.717-5.717v-29.73
	C108.924,51.08,106.364,48.521,103.207,48.521z M30.758,16.037H77.09v20.465c0,1.105,0.896,2,2,2h17.668v10.02h-66V16.037z
	 M78.521,68.759c0,5.28-1.924,8.925-4.584,11.175c-2.905,2.415-7.326,3.562-12.73,3.562c-3.233,0-5.526-0.205-7.08-0.409v-27.1
	c2.293-0.366,5.28-0.571,8.431-0.571c5.238,0,8.638,0.942,11.297,2.946C76.72,60.491,78.521,63.889,78.521,68.759z M29.671,82.523
	l1.349-4.96c1.175,0.61,3.872,1.741,6.57,1.741c3.438,0,5.177-1.653,5.177-3.785c0-2.787-2.783-4.049-5.7-4.049h-2.697v-4.742h2.566
	c2.221-0.044,5.05-0.871,5.05-3.265c0-1.695-1.395-2.956-4.179-2.956c-2.305,0-4.742,1-5.917,1.694l-1.35-4.785
	c1.697-1.088,5.093-2.134,8.745-2.134c6.05,0,9.401,3.178,9.401,7.052c0,3.002-1.697,5.352-5.179,6.57v0.086
	c3.394,0.608,6.133,3.177,6.133,6.875c0,5.004-4.392,8.661-11.572,8.661C34.412,84.527,31.323,83.569,29.671,82.523z
	 M96.758,108.953h-66V89.686h66V108.953z M89.366,83.618c-3.149,0-6.263-0.818-7.817-1.679l1.269-5.157
	c1.679,0.858,4.258,1.72,6.918,1.72c2.866,0,4.379-1.188,4.379-2.988c0-1.72-1.309-2.702-4.624-3.889
	c-4.584-1.597-7.574-4.135-7.574-8.147c0-4.706,3.93-8.31,10.44-8.31c3.109,0,5.402,0.656,7.039,1.393l-1.392,5.035
	c-1.106-0.531-3.071-1.311-5.771-1.311c-2.702,0-4.011,1.228-4.011,2.662c0,1.76,1.554,2.537,5.115,3.889
	c4.871,1.801,7.164,4.337,7.164,8.227C100.501,79.688,96.94,83.618,89.366,83.618z"/>
</svg>
