<?xml version="1.0" encoding="utf-8"?>
<!-- Generator: Adobe Illustrator 16.0.0, SVG Export Plug-In . SVG Version: 6.00 Build 0)  -->
<!DOCTYPE svg PUBLIC "-//W3C//DTD SVG 1.1//EN" "http://www.w3.org/Graphics/SVG/1.1/DTD/svg11.dtd">
<svg version="1.1" id="Layer_1" xmlns="http://www.w3.org/2000/svg" xmlns:xlink="http://www.w3.org/1999/xlink" x="0px" y="0px"
	 width="126px" height="126px" viewBox="0 0 126 126" enable-background="new 0 0 126 126" xml:space="preserve">
<path d="M103.207,48.521h-2.449V36.703c0-0.074-0.012-0.148-0.021-0.223c-0.004-0.469-0.154-0.93-0.475-1.295L80.596,12.721
	c-0.006-0.006-0.012-0.008-0.016-0.014c-0.117-0.131-0.254-0.24-0.398-0.334c-0.043-0.029-0.086-0.053-0.131-0.078
	c-0.125-0.068-0.258-0.125-0.395-0.166c-0.037-0.01-0.07-0.025-0.107-0.035c-0.148-0.035-0.303-0.057-0.459-0.057H30.758
	c-2.207,0-4,1.795-4,4v32.484h-2.449c-3.157,0-5.717,2.559-5.717,5.717v29.73c0,3.156,2.56,5.717,5.717,5.717h2.449v20.352
	c0,2.205,1.793,4,4,4h66c2.205,0,4-1.795,4-4V89.686h2.449c3.157,0,5.717-2.561,5.717-5.717v-29.73
	C108.924,51.08,106.364,48.521,103.207,48.521z M30.758,16.037H77.09v20.465c0,1.105,0.896,2,2,2h17.668v10.02h-66V16.037z
	 M66.479,77.717c1.441,0,2.59-0.164,3.082-0.412v-5.793h-4.273v-4.893h10.316v14.592c-1.93,0.656-5.588,1.563-9.248,1.563
	c-5.057,0-8.715-1.275-11.262-3.742c-2.549-2.383-3.945-6-3.904-10.068c0.041-9.209,6.742-14.469,15.826-14.469
	c3.574,0,6.328,0.697,7.684,1.355l-1.314,5.014c-1.521-0.656-3.41-1.191-6.453-1.191c-5.221,0-9.166,2.959-9.166,8.961
	C57.766,74.346,61.34,77.717,66.479,77.717z M28.504,81.045l1.271-4.684c1.111,0.574,3.66,1.643,6.209,1.643
	c3.246,0,4.891-1.563,4.891-3.576c0-2.629-2.631-3.822-5.387-3.822h-2.547v-4.48h2.424c2.098-0.041,4.768-0.822,4.768-3.082
	c0-1.604-1.314-2.795-3.945-2.795c-2.178,0-4.479,0.943-5.59,1.602l-1.273-4.52c1.604-1.029,4.809-2.014,8.264-2.014
	c5.713,0,8.877,2.998,8.877,6.658c0,2.836-1.604,5.055-4.893,6.207v0.08c3.207,0.576,5.797,3.002,5.797,6.494
	c0,4.729-4.15,8.182-10.934,8.182C32.982,82.938,30.064,82.033,28.504,81.045z M96.758,108.953h-66V89.686h66V108.953z
	 M98.455,82.484H79.506v-3.781l3.453-3.123c5.836-5.221,8.672-8.223,8.754-11.346c0-2.178-1.314-3.904-4.396-3.904
	c-2.301,0-4.316,1.15-5.717,2.219l-1.764-4.48c2.012-1.52,5.139-2.752,8.754-2.752c6.043,0,9.371,3.533,9.371,8.383
	c0,4.482-3.246,8.057-7.111,11.512l-2.467,2.053v0.082h10.072V82.484z"/>
</svg>
