<?xml version="1.0" encoding="utf-8"?>
<!-- Generator: Adobe Illustrator 16.0.0, SVG Export Plug-In . SVG Version: 6.00 Build 0)  -->
<!DOCTYPE svg PUBLIC "-//W3C//DTD SVG 1.1//EN" "http://www.w3.org/Graphics/SVG/1.1/DTD/svg11.dtd">
<svg version="1.1" id="Layer_1" xmlns="http://www.w3.org/2000/svg" xmlns:xlink="http://www.w3.org/1999/xlink" x="0px" y="0px"
	 width="126px" height="126px" viewBox="0 0 126 126" enable-background="new 0 0 126 126" xml:space="preserve">
<path d="M103.207,48.521h-2.449V36.703c0-0.074-0.012-0.148-0.021-0.223c-0.004-0.469-0.154-0.93-0.475-1.295L80.596,12.721
	c-0.006-0.006-0.012-0.008-0.016-0.014c-0.117-0.131-0.254-0.24-0.398-0.334c-0.043-0.029-0.086-0.053-0.131-0.078
	c-0.125-0.068-0.258-0.125-0.395-0.166c-0.037-0.01-0.07-0.025-0.107-0.035c-0.148-0.035-0.303-0.057-0.459-0.057H30.758
	c-2.207,0-4,1.795-4,4v32.484h-2.449c-3.157,0-5.717,2.559-5.717,5.717v29.73c0,3.156,2.56,5.717,5.717,5.717h2.449v20.352
	c0,2.205,1.793,4,4,4h66c2.205,0,4-1.795,4-4V89.686h2.449c3.157,0,5.717-2.561,5.717-5.717v-29.73
	C108.924,51.08,106.364,48.521,103.207,48.521z M29.564,81.553l8.332-27.264h8.09l8.453,27.264h-6.633l-2.104-6.998h-7.807
	l-1.941,6.998H29.564z M96.758,108.953h-66V89.686h66V108.953z M64.873,70.105c-4.529-1.578-7.482-4.086-7.482-8.051
	c0-4.65,3.883-8.211,10.314-8.211c3.076,0,5.34,0.648,6.957,1.375l-1.377,4.977c-1.092-0.525-3.031-1.295-5.703-1.295
	c-2.668,0-3.963,1.213-3.963,2.629c0,1.74,1.537,2.508,5.057,3.844c4.814,1.779,7.08,4.287,7.08,8.129
	c0,4.572-3.521,8.455-11.004,8.455c-3.115,0-6.188-0.809-7.727-1.658l1.254-5.098c1.66,0.85,4.209,1.699,6.836,1.699
	c2.832,0,4.328-1.174,4.328-2.953C69.443,72.248,68.15,71.277,64.873,70.105z M95.895,65.576v5.014h-9.789v10.963h-6.188V54.289
	h16.664v5.057H86.105v6.23H95.895z M96.758,48.521h-66V16.037H77.09v20.465c0,1.105,0.896,2,2,2h17.668V48.521z"/>
<path d="M43.115,64.16c-0.486-1.619-0.971-3.641-1.375-5.26h-0.082c-0.404,1.619-0.809,3.682-1.256,5.26l-1.615,5.783h6.025
	L43.115,64.16z"/>
</svg>
