<?xml version="1.0" encoding="utf-8"?>
<!-- Generator: Adobe Illustrator 16.0.0, SVG Export Plug-In . SVG Version: 6.00 Build 0)  -->
<!DOCTYPE svg PUBLIC "-//W3C//DTD SVG 1.1//EN" "http://www.w3.org/Graphics/SVG/1.1/DTD/svg11.dtd">
<svg version="1.1" id="Layer_1" xmlns="http://www.w3.org/2000/svg" xmlns:xlink="http://www.w3.org/1999/xlink" x="0px" y="0px"
	 width="126px" height="126px" viewBox="0 0 126 126" enable-background="new 0 0 126 126" xml:space="preserve">
<g>
	<path d="M35.454,56.385c-0.537-1.792-1.075-4.029-1.522-5.819h-0.09c-0.447,1.79-0.895,4.071-1.387,5.819l-1.792,6.4h6.67
		L35.454,56.385z"/>
	<path d="M85.758,50.386c-1.387,0-2.328,0.133-2.819,0.27v8.905c0.582,0.137,1.297,0.18,2.282,0.18c3.625,0,5.864-1.835,5.864-4.922
		C91.084,52.042,89.159,50.386,85.758,50.386z"/>
	<path d="M101.487,41.505h-2.449V29.687c0-0.074-0.012-0.148-0.021-0.223c-0.004-0.469-0.154-0.93-0.475-1.295L78.875,5.704
		C78.87,5.698,78.864,5.696,78.86,5.69c-0.117-0.131-0.254-0.24-0.398-0.334c-0.043-0.029-0.086-0.053-0.131-0.078
		c-0.125-0.068-0.258-0.125-0.395-0.166c-0.037-0.01-0.07-0.025-0.107-0.035c-0.148-0.035-0.303-0.057-0.459-0.057H29.038
		c-2.207,0-4,1.795-4,4v32.484h-2.449c-3.157,0-5.717,2.559-5.717,5.717v29.73c0,3.156,2.56,5.717,5.717,5.717h2.449v20.352
		c0,2.205,1.793,4,4,4h66c2.205,0,4-1.795,4-4V82.669h2.449c3.157,0,5.717-2.561,5.717-5.717v-29.73
		C107.204,44.063,104.644,41.505,101.487,41.505z M29.038,9.021H75.37v20.465c0,1.105,0.896,2,2,2h17.668v10.02h-66V9.021z
		 M59.532,62.963c-5.013-1.745-8.281-4.519-8.281-8.905c0-5.148,4.297-9.088,11.414-9.088c3.401,0,5.908,0.718,7.699,1.522
		l-1.521,5.505c-1.209-0.581-3.357-1.432-6.311-1.432c-2.955,0-4.387,1.343-4.387,2.907c0,1.926,1.701,2.776,5.594,4.254
		c5.328,1.971,7.834,4.745,7.834,8.996c0,5.06-3.895,9.356-12.177,9.356c-3.445,0-6.847-0.896-8.548-1.836l1.388-5.639
		c1.834,0.941,4.654,1.879,7.564,1.879c3.132,0,4.789-1.299,4.789-3.268C64.589,65.337,63.157,64.261,59.532,62.963z M27.532,75.631
		H20.46l9.22-30.17h8.953l9.355,30.17h-7.341l-2.327-7.742h-8.64L27.532,75.631z M95.038,101.937h-66V82.669h66V101.937z
		 M95.068,61.801c-2.328,2.192-5.774,3.177-9.803,3.177c-0.895,0-1.701-0.044-2.327-0.136v10.789h-6.76V45.865
		c2.103-0.359,5.058-0.626,9.221-0.626c4.209,0,7.208,0.806,9.222,2.415c1.925,1.522,3.221,4.029,3.221,6.982
		C97.842,57.593,96.858,60.099,95.068,61.801z"/>
</g>
</svg>
