<?xml version="1.0" encoding="utf-8"?>
<!-- Generator: Adobe Illustrator 16.0.0, SVG Export Plug-In . SVG Version: 6.00 Build 0)  -->
<!DOCTYPE svg PUBLIC "-//W3C//DTD SVG 1.1//EN" "http://www.w3.org/Graphics/SVG/1.1/DTD/svg11.dtd">
<svg version="1.1" id="Layer_1" xmlns="http://www.w3.org/2000/svg" xmlns:xlink="http://www.w3.org/1999/xlink" x="0px" y="0px"
	 width="126px" height="126px" viewBox="0 0 126 126" enable-background="new 0 0 126 126" xml:space="preserve">
<path d="M34.725,65.925c-0.41-1.371-0.822-3.082-1.166-4.455h-0.064c-0.344,1.373-0.688,3.119-1.063,4.455l-1.373,4.9h5.107
	L34.725,65.925z"/>
<path d="M102.494,48.944h-2.449V37.126c0-0.074-0.012-0.148-0.021-0.223c-0.004-0.469-0.154-0.93-0.475-1.295L79.883,13.144
	c-0.006-0.006-0.012-0.008-0.016-0.014c-0.117-0.131-0.254-0.24-0.398-0.334c-0.043-0.029-0.086-0.053-0.131-0.078
	c-0.125-0.068-0.258-0.125-0.395-0.166c-0.037-0.01-0.07-0.025-0.107-0.035c-0.148-0.035-0.303-0.057-0.459-0.057H30.045
	c-2.207,0-4,1.795-4,4v32.484h-2.449c-3.156,0-5.717,2.559-5.717,5.717v29.73c0,3.156,2.561,5.717,5.717,5.717h2.449v20.352
	c0,2.205,1.793,4,4,4h66c2.205,0,4-1.795,4-4V90.108h2.449c3.158,0,5.717-2.561,5.717-5.717v-29.73
	C108.211,51.503,105.652,48.944,102.494,48.944z M30.045,16.46h46.332v20.465c0,1.105,0.896,2,2,2h17.668v10.02h-66V16.46z
	 M82.516,64.589c0,2.262-0.752,4.18-2.125,5.482c-1.781,1.68-4.422,2.434-7.508,2.434c-0.684,0-1.301-0.035-1.781-0.102v8.26h-5.176
	V57.87c1.613-0.275,3.875-0.479,7.061-0.479c3.223,0,5.521,0.617,7.061,1.852C81.523,60.407,82.516,62.329,82.516,64.589z
	 M53.172,70.964c-3.84-1.336-6.338-3.461-6.338-6.82c0-3.939,3.289-6.955,8.738-6.955c2.605,0,4.525,0.547,5.895,1.16l-1.168,4.219
	c-0.924-0.445-2.57-1.098-4.83-1.098c-2.264,0-3.359,1.029-3.359,2.229c0,1.473,1.303,2.125,4.285,3.254
	c4.078,1.508,5.996,3.635,5.996,6.891c0,3.875-2.98,7.162-9.32,7.162c-2.641,0-5.246-0.686-6.547-1.406l1.063-4.316
	c1.404,0.719,3.563,1.436,5.793,1.436c2.396,0,3.666-0.99,3.666-2.498C57.045,72.78,55.949,71.958,53.172,70.964z M28.658,80.663
	h-5.414l7.063-23.102h6.852l7.164,23.102h-5.623l-1.781-5.928h-6.611L28.658,80.663z M96.045,109.376h-66V90.108h66V109.376z
	 M97.053,80.663l-2.09-4.184c-0.857-1.607-1.404-2.811-2.055-4.146H92.84c-0.48,1.336-1.063,2.539-1.783,4.146l-1.92,4.184h-5.963
	l6.686-11.688l-6.447-11.414h6.002l2.02,4.219c0.686,1.406,1.199,2.535,1.748,3.836h0.07c0.549-1.473,0.992-2.5,1.574-3.836
	l1.953-4.219h5.963L96.23,68.837l6.855,11.826H97.053z"/>
<path d="M73.262,61.333c-1.063,0-1.781,0.102-2.16,0.205v6.82c0.447,0.102,0.996,0.137,1.748,0.137c2.777,0,4.49-1.406,4.49-3.77
	C77.34,62.601,75.865,61.333,73.262,61.333z"/>
</svg>
