<?xml version="1.0" encoding="utf-8"?>
<!-- Generator: Adobe Illustrator 16.0.0, SVG Export Plug-In . SVG Version: 6.00 Build 0)  -->
<!DOCTYPE svg PUBLIC "-//W3C//DTD SVG 1.1//EN" "http://www.w3.org/Graphics/SVG/1.1/DTD/svg11.dtd">
<svg version="1.1" id="Layer_1" xmlns="http://www.w3.org/2000/svg" xmlns:xlink="http://www.w3.org/1999/xlink" x="0px" y="0px"
	 width="126px" height="126px" viewBox="0 0 126 126" enable-background="new 0 0 126 126" xml:space="preserve">
<path d="M103.763,48.531h-2.449V36.713c0-0.074-0.012-0.148-0.021-0.223c-0.004-0.469-0.154-0.93-0.475-1.295L81.151,12.73
	c-0.006-0.006-0.012-0.008-0.016-0.014c-0.117-0.131-0.254-0.24-0.398-0.334c-0.043-0.029-0.086-0.053-0.131-0.078
	c-0.125-0.068-0.258-0.125-0.395-0.166c-0.037-0.01-0.07-0.025-0.107-0.035c-0.148-0.035-0.303-0.057-0.459-0.057H31.313
	c-2.207,0-4,1.795-4,4v32.484h-2.449c-3.157,0-5.717,2.559-5.717,5.717v29.73c0,3.156,2.56,5.717,5.717,5.717h2.449v20.352
	c0,2.205,1.793,4,4,4h66c2.205,0,4-1.795,4-4V89.695h2.449c3.157,0,5.717-2.561,5.717-5.717v-29.73
	C109.479,51.09,106.92,48.531,103.763,48.531z M31.313,16.047h46.332v20.465c0,1.105,0.896,2,2,2h17.668v10.02h-66V16.047z
	 M61.709,69.947c-4.746-1.654-7.84-4.281-7.84-8.436c0-4.873,4.068-8.604,10.808-8.604c3.22,0,5.594,0.678,7.289,1.441l-1.441,5.213
	c-1.145-0.551-3.179-1.357-5.976-1.357c-2.797,0-4.154,1.273-4.154,2.758c0,1.822,1.61,2.627,5.298,4.025
	c5.043,1.865,7.417,4.492,7.417,8.518c0,4.791-3.688,8.857-11.528,8.857c-3.263,0-6.484-0.848-8.095-1.738l1.314-5.34
	c1.738,0.891,4.407,1.781,7.163,1.781c2.966,0,4.534-1.229,4.534-3.096C66.498,72.191,65.143,71.176,61.709,69.947z M24.715,81.939
	l8.73-28.566h8.476l8.858,28.566h-6.951l-2.203-7.33h-8.18l-2.034,7.33H24.715z M97.313,108.963h-66V89.695h66V108.963z
	 M92.517,81.939l-2.585-5.17c-1.061-1.992-1.738-3.477-2.543-5.129h-0.085c-0.593,1.652-1.313,3.137-2.203,5.129l-2.373,5.17h-7.375
	l8.264-14.451l-7.967-14.115h7.417l2.5,5.215c0.848,1.738,1.484,3.137,2.162,4.746h0.084c0.678-1.822,1.229-3.094,1.95-4.746
	l2.416-5.215h7.374L91.5,67.316l8.476,14.623H92.517z"/>
<path d="M38.913,63.715c-0.509-1.693-1.017-3.813-1.441-5.51h-0.085c-0.424,1.697-0.848,3.859-1.314,5.51l-1.695,6.063h6.315
	L38.913,63.715z"/>
</svg>
