<?xml version="1.0" encoding="utf-8"?>
<!-- Generator: Adobe Illustrator 16.0.0, SVG Export Plug-In . SVG Version: 6.00 Build 0)  -->
<!DOCTYPE svg PUBLIC "-//W3C//DTD SVG 1.1//EN" "http://www.w3.org/Graphics/SVG/1.1/DTD/svg11.dtd">
<svg version="1.1" id="Layer_1" xmlns="http://www.w3.org/2000/svg" xmlns:xlink="http://www.w3.org/1999/xlink" x="0px" y="0px"
	 width="126px" height="126px" viewBox="0 0 126 126" enable-background="new 0 0 126 126" xml:space="preserve">
<path d="M41.314,54.121c0-2.834-2.544-3.963-5.713-3.963h-2.168v7.926c0.625,0.082,1.376,0.082,2.461,0.082
	C38.771,58.166,41.314,57.08,41.314,54.121z"/>
<path d="M102.366,41.598h-2.449V29.779c0-0.074-0.012-0.148-0.021-0.223c-0.004-0.469-0.154-0.93-0.475-1.295L79.754,5.797
	c-0.006-0.006-0.012-0.008-0.016-0.014c-0.117-0.131-0.254-0.24-0.398-0.334c-0.043-0.029-0.086-0.053-0.131-0.078
	c-0.125-0.068-0.258-0.125-0.395-0.166c-0.037-0.01-0.07-0.025-0.107-0.035c-0.148-0.035-0.303-0.057-0.459-0.057H29.917
	c-2.207,0-4,1.795-4,4v32.484h-2.449c-3.157,0-5.717,2.559-5.717,5.717v29.73c0,3.156,2.56,5.717,5.717,5.717h2.449v20.352
	c0,2.205,1.793,4,4,4h66c2.205,0,4-1.795,4-4V82.762h2.449c3.157,0,5.717-2.561,5.717-5.717v-29.73
	C108.083,44.156,105.523,41.598,102.366,41.598z M29.917,9.113h46.332v20.465c0,1.105,0.896,2,2,2h17.668v10.02h-66V9.113z
	 M75.764,74.711h-6.839l-2.168-7.215h-8.048l-2.002,7.215h-6.589l8.591-28.107h8.34L75.764,74.711z M27.136,74.586V46.979
	c1.668-0.334,5.046-0.584,8.215-0.584c3.878,0,6.255,0.375,8.298,1.584c1.96,1.045,3.378,2.963,3.378,5.506
	c0,2.502-1.46,4.838-4.629,6.004v0.084c3.211,0.877,5.588,3.295,5.588,6.924c0,2.543-1.167,4.547-2.919,5.963
	c-2.043,1.627-5.463,2.543-11.051,2.543C30.889,75.002,28.554,74.793,27.136,74.586z M95.917,102.029h-66V82.762h66V102.029z
	 M95.117,74.711l-6.881-12.135l-2.418,2.959v9.176h-6.297V46.604h6.297v12.428h0.125c0.625-1.084,1.292-2.086,1.918-3.086
	l6.38-9.342h7.798l-9.299,11.969l9.8,16.139H95.117z"/>
<path d="M64.088,56.779c-0.501-1.668-1.001-3.754-1.418-5.422h-0.083c-0.417,1.668-0.834,3.797-1.293,5.422l-1.668,5.963h6.214
	L64.088,56.779z"/>
<path d="M41.314,66.246c0-2.836-2.544-3.963-5.713-3.963h-2.168v7.924c0.625,0.082,1.376,0.082,2.461,0.082
	C38.771,70.289,41.314,69.205,41.314,66.246z"/>
</svg>
