<?xml version="1.0" encoding="utf-8"?>
<!-- Generator: Adobe Illustrator 16.0.0, SVG Export Plug-In . SVG Version: 6.00 Build 0)  -->
<!DOCTYPE svg PUBLIC "-//W3C//DTD SVG 1.1//EN" "http://www.w3.org/Graphics/SVG/1.1/DTD/svg11.dtd">
<svg version="1.1" id="Layer_1" xmlns="http://www.w3.org/2000/svg" xmlns:xlink="http://www.w3.org/1999/xlink" x="0px" y="0px"
	 width="126px" height="126px" viewBox="0 0 126 126" enable-background="new 0 0 126 126" xml:space="preserve">
<path d="M63.386,65.895c-0.512-1.707-1.024-3.84-1.452-5.547H61.85c-0.426,1.707-0.852,3.883-1.322,5.547L58.822,72h6.357
	L63.386,65.895z"/>
<path d="M103.207,49.021h-2.449V37.203c0-0.074-0.012-0.148-0.021-0.223c-0.004-0.469-0.154-0.93-0.475-1.295L80.596,13.22
	c-0.006-0.006-0.012-0.008-0.016-0.014c-0.117-0.131-0.254-0.24-0.398-0.334c-0.043-0.029-0.086-0.053-0.131-0.078
	c-0.125-0.068-0.258-0.125-0.395-0.166c-0.037-0.01-0.07-0.025-0.107-0.035c-0.148-0.035-0.303-0.057-0.459-0.057H30.758
	c-2.207,0-4,1.795-4,4v32.484h-2.449c-3.157,0-5.717,2.559-5.717,5.717v29.73c0,3.156,2.56,5.717,5.717,5.717h2.449v20.352
	c0,2.205,1.793,4,4,4h66c2.205,0,4-1.795,4-4V90.185h2.449c3.157,0,5.717-2.561,5.717-5.717v-29.73
	C108.924,51.58,106.364,49.021,103.207,49.021z M30.758,16.537H77.09v20.465c0,1.105,0.896,2,2,2h17.668v10.02h-66V16.537z
	 M75.339,84.25h-7l-2.222-7.387H57.88l-2.046,7.387h-6.745l8.791-28.77h8.538L75.339,84.25z M24.03,70.293
	c0-9.818,6.999-15.281,15.708-15.281c3.371,0,5.935,0.684,7.086,1.279l-1.322,5.166c-1.325-0.557-3.159-1.066-5.463-1.066
	c-5.167,0-9.181,3.113-9.181,9.518c0,5.76,3.417,9.389,9.219,9.389c1.967,0,4.143-0.426,5.425-0.938l0.98,5.08
	c-1.194,0.598-3.883,1.236-7.384,1.236C29.151,84.676,24.03,78.487,24.03,70.293z M96.758,109.453h-66V90.185h66V109.453z
	 M99.842,80.834c-3.032,2.52-7.642,3.715-13.274,3.715c-3.371,0-5.762-0.215-7.385-0.428V55.866
	c2.391-0.385,5.507-0.598,8.793-0.598c5.463,0,9.005,0.98,11.779,3.072c2.989,2.223,4.867,5.764,4.867,10.844
	C104.622,74.688,102.616,78.487,99.842,80.834z"/>
<path d="M88.659,60.262c-1.45,0-2.391,0.129-2.945,0.256V79.34c0.555,0.129,1.452,0.129,2.262,0.129
	c5.892,0.043,9.731-3.201,9.731-10.072C97.75,63.42,94.252,60.262,88.659,60.262z"/>
</svg>
