<?xml version="1.0" encoding="utf-8"?>
<!-- Generator: Adobe Illustrator 16.0.0, SVG Export Plug-In . SVG Version: 6.00 Build 0)  -->
<!DOCTYPE svg PUBLIC "-//W3C//DTD SVG 1.1//EN" "http://www.w3.org/Graphics/SVG/1.1/DTD/svg11.dtd">
<svg version="1.1" id="Layer_1" xmlns="http://www.w3.org/2000/svg" xmlns:xlink="http://www.w3.org/1999/xlink" x="0px" y="0px"
	 width="126px" height="126px" viewBox="0 0 126 126" enable-background="new 0 0 126 126" xml:space="preserve">
<g>
	<path d="M101.486,41.505h-2.449V29.687c0-0.074-0.012-0.148-0.021-0.223c-0.004-0.469-0.154-0.93-0.475-1.295L78.875,5.704
		c-0.006-0.006-0.012-0.008-0.016-0.014c-0.117-0.131-0.254-0.24-0.398-0.334c-0.043-0.029-0.086-0.053-0.131-0.078
		c-0.125-0.068-0.258-0.125-0.395-0.166c-0.037-0.01-0.07-0.025-0.107-0.035c-0.148-0.035-0.303-0.057-0.459-0.057H29.037
		c-2.207,0-4,1.795-4,4v32.484h-2.449c-3.156,0-5.717,2.559-5.717,5.717v29.73c0,3.156,2.561,5.717,5.717,5.717h2.449v20.352
		c0,2.205,1.793,4,4,4h66c2.205,0,4-1.795,4-4V82.669h2.449c3.158,0,5.717-2.561,5.717-5.717v-29.73
		C107.203,44.063,104.645,41.505,101.486,41.505z M29.037,9.021h46.332v20.465c0,1.105,0.896,2,2,2h17.668v10.02h-66V9.021z
		 M69.969,58.26v5.678H58.609v7.327h12.688v5.726H51.604V46.124h19.051v5.722H58.609v6.414H69.969z M22.936,62.016
		c0-10.536,7.514-16.398,16.857-16.398c3.617,0,6.363,0.734,7.6,1.374l-1.418,5.543c-1.422-0.597-3.391-1.145-5.861-1.145
		c-5.543,0-9.848,3.343-9.848,10.212c0,6.183,3.662,10.075,9.893,10.075c2.107,0,4.443-0.46,5.816-1.008l1.053,5.451
		c-1.283,0.641-4.17,1.329-7.922,1.329C28.436,77.449,22.936,70.808,22.936,62.016z M95.037,101.937h-66V82.669h66V101.937z
		 M92.223,76.99c-0.504-0.87-1.234-3.39-2.152-7.191c-0.824-3.847-2.152-4.9-4.992-4.945h-2.107V76.99h-6.914V46.533
		c2.244-0.366,5.588-0.642,9.295-0.642c4.58,0,7.785,0.688,9.984,2.428c1.834,1.467,2.84,3.618,2.84,6.459
		c0,3.938-2.793,6.639-5.449,7.6v0.14c2.152,0.869,3.344,2.933,4.123,5.77c0.961,3.48,1.922,7.511,2.518,8.703H92.223z"/>
	<path d="M86.131,51.067c-1.693,0-2.656,0.137-3.16,0.23v8.517h2.746c3.484,0,5.545-1.739,5.545-4.442
		C91.262,52.534,89.338,51.113,86.131,51.067z"/>
</g>
</svg>
