<?xml version="1.0" encoding="utf-8"?>
<!-- Generator: Adobe Illustrator 16.0.0, SVG Export Plug-In . SVG Version: 6.00 Build 0)  -->
<!DOCTYPE svg PUBLIC "-//W3C//DTD SVG 1.1//EN" "http://www.w3.org/Graphics/SVG/1.1/DTD/svg11.dtd">
<svg version="1.1" id="Layer_1" xmlns="http://www.w3.org/2000/svg" xmlns:xlink="http://www.w3.org/1999/xlink" x="0px" y="0px"
	 width="126px" height="126px" viewBox="0 0 126 126" enable-background="new 0 0 126 126" xml:space="preserve">
<path d="M101.486,41.505h-2.449V29.687c0-0.074-0.012-0.148-0.021-0.223c-0.004-0.469-0.154-0.93-0.475-1.295L78.875,5.704
	c-0.006-0.006-0.012-0.008-0.016-0.014c-0.117-0.131-0.254-0.24-0.398-0.334c-0.043-0.029-0.086-0.053-0.131-0.078
	c-0.125-0.068-0.258-0.125-0.395-0.166c-0.037-0.01-0.07-0.025-0.107-0.035c-0.148-0.035-0.303-0.057-0.459-0.057H29.037
	c-2.207,0-4,1.795-4,4v32.484h-2.449c-3.156,0-5.717,2.559-5.717,5.717v29.73c0,3.156,2.561,5.717,5.717,5.717h2.449v20.352
	c0,2.205,1.793,4,4,4h66c2.205,0,4-1.795,4-4V82.669h2.449c3.158,0,5.717-2.561,5.717-5.717v-29.73
	C107.203,44.063,104.645,41.505,101.486,41.505z M29.037,9.021h46.332v20.465c0,1.105,0.896,2,2,2h17.668v10.02h-66V9.021z
	 M65.773,58.886v5.323H55.383v11.635h-6.566V46.909h17.686v5.364H55.383v6.612H65.773z M21.943,61.806
	c0-9.876,7.043-15.372,15.799-15.372c3.395,0,5.967,0.688,7.127,1.291l-1.332,5.191c-1.328-0.556-3.176-1.072-5.492-1.072
	c-5.195,0-9.232,3.135-9.232,9.574c0,5.796,3.434,9.445,9.273,9.445c1.975,0,4.166-0.429,5.451-0.944l0.988,5.107
	c-1.201,0.602-3.908,1.246-7.426,1.246C27.098,76.272,21.943,70.048,21.943,61.806z M95.037,101.937h-66V82.669h66V101.937z
	 M95.736,75.844l-0.43-11.077c-0.131-3.477-0.258-7.686-0.258-11.893h-0.127c-0.904,3.693-2.104,7.816-3.221,11.205l-3.52,11.292
	H83.07l-3.092-11.207c-0.945-3.39-1.93-7.512-2.615-11.29h-0.088c-0.174,3.907-0.301,8.371-0.514,11.979l-0.516,10.991h-6.055
	l1.848-28.935h8.715l2.832,9.658c0.902,3.349,1.805,6.954,2.447,10.346h0.129c0.816-3.349,1.803-7.171,2.748-10.389l3.092-9.615
	h8.541l1.59,28.935H95.736z"/>
</svg>
