<?xml version="1.0" encoding="utf-8"?>
<!-- Generator: Adobe Illustrator 16.0.0, SVG Export Plug-In . SVG Version: 6.00 Build 0)  -->
<!DOCTYPE svg PUBLIC "-//W3C//DTD SVG 1.1//EN" "http://www.w3.org/Graphics/SVG/1.1/DTD/svg11.dtd">
<svg version="1.1" id="Layer_1" xmlns="http://www.w3.org/2000/svg" xmlns:xlink="http://www.w3.org/1999/xlink" x="0px" y="0px"
	 width="126px" height="126px" viewBox="0 0 126 126" enable-background="new 0 0 126 126" xml:space="preserve">
<g>
	<path d="M101.486,41.505h-2.449V29.687c0-0.074-0.012-0.148-0.021-0.223c-0.004-0.469-0.154-0.93-0.475-1.295L78.875,5.704
		c-0.006-0.006-0.012-0.008-0.016-0.014c-0.117-0.131-0.254-0.24-0.398-0.334c-0.043-0.029-0.086-0.053-0.131-0.078
		c-0.125-0.068-0.258-0.125-0.395-0.166c-0.037-0.01-0.07-0.025-0.107-0.035c-0.148-0.035-0.303-0.057-0.459-0.057H29.037
		c-2.207,0-4,1.795-4,4v32.484h-2.449c-3.156,0-5.717,2.559-5.717,5.717v29.73c0,3.156,2.561,5.717,5.717,5.717h2.449v20.352
		c0,2.205,1.793,4,4,4h66c2.205,0,4-1.795,4-4V82.669h2.449c3.158,0,5.717-2.561,5.717-5.717v-29.73
		C107.203,44.063,104.645,41.505,101.486,41.505z M29.037,9.021h46.332v20.465c0,1.105,0.896,2,2,2h17.668v10.02h-66V9.021z
		 M58.695,62.934c-5.086-1.772-8.398-4.586-8.398-9.031c0-5.22,4.355-9.214,11.572-9.214c3.451,0,5.99,0.726,7.809,1.544
		l-1.547,5.58c-1.225-0.591-3.402-1.452-6.396-1.452c-2.996,0-4.447,1.361-4.447,2.949c0,1.953,1.725,2.814,5.674,4.312
		c5.398,1.998,7.941,4.813,7.941,9.124c0,5.129-3.949,9.485-12.348,9.485c-3.494,0-6.943-0.907-8.668-1.86l1.408-5.721
		c1.859,0.955,4.721,1.906,7.67,1.906c3.176,0,4.855-1.313,4.855-3.31C63.82,65.337,62.369,64.247,58.695,62.934z M22.66,60.936
		c0-10.439,7.445-16.247,16.701-16.247c3.588,0,6.309,0.726,7.533,1.361l-1.408,5.49c-1.402-0.589-3.355-1.132-5.805-1.132
		c-5.492,0-9.758,3.311-9.758,10.118c0,6.129,3.629,9.987,9.801,9.987c2.09,0,4.404-0.454,5.762-1.001l1.045,5.402
		c-1.268,0.637-4.131,1.315-7.848,1.315C28.109,76.23,22.66,69.651,22.66,60.936z M95.037,101.937h-66V82.669h66V101.937z
		 M91.594,75.777c-0.498-0.862-1.225-3.358-2.135-7.128c-0.814-3.811-2.131-4.854-4.947-4.898h-2.086v12.026h-6.852V45.595
		c2.223-0.363,5.533-0.635,9.213-0.635c4.537,0,7.717,0.682,9.895,2.404c1.814,1.453,2.813,3.587,2.813,6.401
		c0,3.901-2.77,6.579-5.4,7.534v0.136c2.131,0.863,3.311,2.904,4.084,5.718c0.951,3.449,1.906,7.443,2.496,8.624H91.594z"/>
	<path d="M85.557,50.091c-1.68,0-2.633,0.134-3.131,0.225v8.442h2.725c3.447,0,5.488-1.726,5.488-4.405
		C90.639,51.54,88.736,50.132,85.557,50.091z"/>
</g>
</svg>
