<?xml version="1.0" encoding="utf-8"?>
<!-- Generator: Adobe Illustrator 16.0.0, SVG Export Plug-In . SVG Version: 6.00 Build 0)  -->
<!DOCTYPE svg PUBLIC "-//W3C//DTD SVG 1.1//EN" "http://www.w3.org/Graphics/SVG/1.1/DTD/svg11.dtd">
<svg version="1.1" id="Layer_1" xmlns="http://www.w3.org/2000/svg" xmlns:xlink="http://www.w3.org/1999/xlink" x="0px" y="0px"
	 width="126px" height="126px" viewBox="0 0 126 126" enable-background="new 0 0 126 126" xml:space="preserve">
<path d="M101.486,41.505h-2.449V29.687c0-0.074-0.012-0.148-0.021-0.223c-0.004-0.469-0.154-0.93-0.475-1.295L78.875,5.704
	c-0.006-0.006-0.012-0.008-0.016-0.014c-0.117-0.131-0.254-0.24-0.398-0.334c-0.043-0.029-0.086-0.053-0.131-0.078
	c-0.125-0.068-0.258-0.125-0.395-0.166c-0.037-0.01-0.07-0.025-0.107-0.035c-0.148-0.035-0.303-0.057-0.459-0.057H29.037
	c-2.207,0-4,1.795-4,4v32.484h-2.449c-3.156,0-5.717,2.559-5.717,5.717v29.73c0,3.156,2.561,5.717,5.717,5.717h2.449v20.352
	c0,2.205,1.793,4,4,4h66c2.205,0,4-1.795,4-4V82.669h2.449c3.158,0,5.717-2.561,5.717-5.717v-29.73
	C107.203,44.063,104.645,41.505,101.486,41.505z M29.037,9.021h46.332v20.465c0,1.105,0.896,2,2,2h17.668v10.02h-66V9.021z
	 M61,71.561c3.338,0,5.172-2.336,5.172-7.299v-16.18h6.338v15.764c0,8.674-4.379,12.803-11.717,12.803
	c-7.09,0-11.26-3.92-11.26-12.887v-15.68h6.381v16.18C55.914,69.1,57.75,71.561,61,71.561z M23.467,62.553
	c0-9.592,6.838-14.93,15.346-14.93c3.297,0,5.797,0.668,6.922,1.252l-1.291,5.045c-1.293-0.541-3.088-1.041-5.338-1.041
	c-5.047,0-8.967,3.043-8.967,9.299c0,5.631,3.336,9.174,9.008,9.174c1.918,0,4.045-0.416,5.297-0.918l0.959,4.963
	c-1.168,0.586-3.797,1.211-7.215,1.211C28.471,76.607,23.467,70.559,23.467,62.553z M95.037,101.937h-66V82.669h66V101.937z
	 M92.74,76.189c-0.459-0.793-1.125-3.086-1.959-6.547c-0.75-3.504-1.959-4.463-4.547-4.504h-1.918v11.051h-6.295V48.457
	c2.041-0.334,5.086-0.584,8.463-0.584c4.172,0,7.092,0.627,9.092,2.211c1.668,1.336,2.586,3.295,2.586,5.881
	c0,3.586-2.543,6.045-4.961,6.922v0.125c1.959,0.793,3.043,2.67,3.752,5.254c0.875,3.17,1.75,6.84,2.295,7.924H92.74z"/>
<path d="M87.193,52.586c-1.543,0-2.418,0.125-2.877,0.209v7.756h2.502c3.17,0,5.047-1.584,5.047-4.045
	C91.865,53.92,90.113,52.629,87.193,52.586z"/>
</svg>
