<?xml version="1.0" encoding="utf-8"?>
<!-- Generator: Adobe Illustrator 16.0.0, SVG Export Plug-In . SVG Version: 6.00 Build 0)  -->
<!DOCTYPE svg PUBLIC "-//W3C//DTD SVG 1.1//EN" "http://www.w3.org/Graphics/SVG/1.1/DTD/svg11.dtd">
<svg version="1.1" id="Layer_1" xmlns="http://www.w3.org/2000/svg" xmlns:xlink="http://www.w3.org/1999/xlink" x="0px" y="0px"
	 width="126px" height="126px" viewBox="0 0 126 126" enable-background="new 0 0 126 126" xml:space="preserve">
<path d="M67.088,63.6c-0.482-1.607-0.965-3.619-1.367-5.229H65.64c-0.402,1.609-0.805,3.66-1.247,5.229l-1.608,5.752h5.993
	L67.088,63.6z"/>
<path d="M45.686,66.898c0.041-5.631-3.257-8.607-8.526-8.607c-1.368,0-2.252,0.121-2.775,0.242V76.27
	c0.523,0.119,1.368,0.119,2.131,0.119C42.067,76.43,45.686,73.373,45.686,66.898z"/>
<path d="M103.457,48.541h-2.449V36.723c0-0.074-0.012-0.148-0.021-0.223c-0.004-0.469-0.154-0.93-0.475-1.295L80.846,12.74
	c-0.006-0.006-0.012-0.008-0.016-0.014c-0.117-0.131-0.254-0.24-0.398-0.334c-0.043-0.029-0.086-0.053-0.131-0.078
	c-0.125-0.068-0.258-0.125-0.395-0.166c-0.037-0.01-0.07-0.025-0.107-0.035c-0.148-0.035-0.303-0.057-0.459-0.057H31.008
	c-2.207,0-4,1.795-4,4v32.484h-2.449c-3.157,0-5.717,2.559-5.717,5.717v29.73c0,3.156,2.56,5.717,5.717,5.717h2.449v20.352
	c0,2.205,1.793,4,4,4h66c2.205,0,4-1.795,4-4V89.705h2.449c3.157,0,5.717-2.561,5.717-5.717v-29.73
	C109.174,51.1,106.614,48.541,103.457,48.541z M31.008,16.057H77.34v20.465c0,1.105,0.896,2,2,2h17.668v10.02h-66V16.057z
	 M69.943,53.787l8.406,27.107h-6.596l-2.091-6.959H61.9l-1.93,6.959h-6.355L61.9,53.787H69.943z M28.232,80.773V54.148
	c2.252-0.361,5.188-0.563,8.284-0.563c5.148,0,8.487,0.926,11.101,2.896c2.815,2.092,4.585,5.428,4.585,10.215
	c0,5.188-1.891,8.768-4.505,10.979c-2.855,2.373-7.199,3.5-12.507,3.5C32.012,81.176,29.76,80.975,28.232,80.773z M97.008,108.973
	h-66V89.705h66V108.973z M97.417,58.936h-7.4v21.959h-6.153V58.936h-7.279v-5.148h20.833V58.936z"/>
</svg>
