<?xml version="1.0" encoding="utf-8"?>
<!-- Generator: Adobe Illustrator 16.0.0, SVG Export Plug-In . SVG Version: 6.00 Build 0)  -->
<!DOCTYPE svg PUBLIC "-//W3C//DTD SVG 1.1//EN" "http://www.w3.org/Graphics/SVG/1.1/DTD/svg11.dtd">
<svg version="1.1" id="Layer_1" xmlns="http://www.w3.org/2000/svg" xmlns:xlink="http://www.w3.org/1999/xlink" x="0px" y="0px"
	 width="126px" height="126px" viewBox="0 0 126 126" enable-background="new 0 0 126 126" xml:space="preserve">
<g>
	<path d="M43.909,68.121c0.04-5.607-3.245-8.572-8.493-8.572c-1.361,0-2.243,0.121-2.764,0.242v17.664
		c0.521,0.121,1.362,0.121,2.123,0.121C40.303,77.615,43.909,74.572,43.909,68.121z"/>
	<path d="M63.295,59.549c-1.361,0-2.243,0.121-2.763,0.242v17.664c0.521,0.121,1.362,0.121,2.123,0.121
		c5.528,0.039,9.134-3.004,9.134-9.455C71.828,62.514,68.544,59.549,63.295,59.549z"/>
	<path d="M102.745,48.964h-2.449V37.146c0-0.074-0.012-0.148-0.021-0.223c-0.004-0.469-0.154-0.93-0.475-1.295L80.133,13.163
		c-0.006-0.006-0.012-0.008-0.016-0.014c-0.117-0.131-0.254-0.24-0.398-0.334c-0.043-0.029-0.086-0.053-0.131-0.078
		c-0.125-0.068-0.258-0.125-0.395-0.166c-0.037-0.01-0.07-0.025-0.107-0.035c-0.148-0.035-0.303-0.057-0.459-0.057H30.295
		c-2.207,0-4,1.795-4,4v32.484h-2.449c-3.157,0-5.717,2.559-5.717,5.717v29.73c0,3.156,2.56,5.717,5.717,5.717h2.449v20.352
		c0,2.205,1.793,4,4,4h66c2.205,0,4-1.795,4-4V90.128h2.449c3.157,0,5.717-2.561,5.717-5.717v-29.73
		C108.461,51.522,105.902,48.964,102.745,48.964z M30.295,16.479h46.332v20.465c0,1.105,0.896,2,2,2h17.668v10.02h-66V16.479z
		 M78.277,67.922c0,5.168-1.882,8.732-4.485,10.938c-2.844,2.361-7.17,3.482-12.458,3.482c-3.166,0-5.408-0.199-6.931-0.4v-26.52
		c2.244-0.359,5.168-0.559,8.252-0.559c5.127,0,8.453,0.922,11.056,2.883C76.516,59.83,78.277,63.154,78.277,67.922z M26.523,81.941
		v-26.52c2.244-0.359,5.167-0.559,8.252-0.559c5.127,0,8.453,0.922,11.056,2.883c2.805,2.084,4.567,5.408,4.567,10.176
		c0,5.168-1.883,8.732-4.486,10.938c-2.844,2.361-7.17,3.482-12.458,3.482C30.289,82.342,28.046,82.143,26.523,81.941z
		 M96.295,109.396h-66V90.128h66V109.396z M88.892,82.463c-3.084,0-6.128-0.801-7.651-1.643l1.242-5.047
		c1.643,0.84,4.166,1.682,6.77,1.682c2.804,0,4.286-1.16,4.286-2.924c0-1.682-1.283-2.645-4.526-3.807
		c-4.487-1.561-7.412-4.045-7.412-7.971c0-4.607,3.846-8.133,10.216-8.133c3.044,0,5.288,0.643,6.89,1.363l-1.362,4.928
		c-1.082-0.521-3.005-1.283-5.648-1.283c-2.645,0-3.926,1.203-3.926,2.604c0,1.723,1.521,2.486,5.007,3.807
		c4.767,1.762,7.01,4.246,7.01,8.051C99.788,78.617,96.302,82.463,88.892,82.463z"/>
</g>
</svg>
