<?xml version="1.0" encoding="utf-8"?>
<!-- Generator: Adobe Illustrator 16.0.0, SVG Export Plug-In . SVG Version: 6.00 Build 0)  -->
<!DOCTYPE svg PUBLIC "-//W3C//DTD SVG 1.1//EN" "http://www.w3.org/Graphics/SVG/1.1/DTD/svg11.dtd">
<svg version="1.1" id="Layer_1" xmlns="http://www.w3.org/2000/svg" xmlns:xlink="http://www.w3.org/1999/xlink" x="0px" y="0px"
	 width="126px" height="126px" viewBox="0 0 126 126" enable-background="new 0 0 126 126" xml:space="preserve">
<path d="M42.09,68.012c0.038-5.295-3.063-8.096-8.019-8.096c-1.286,0-2.118,0.115-2.611,0.227v16.684
	c0.493,0.115,1.287,0.115,2.005,0.115C38.687,76.977,42.09,74.102,42.09,68.012z"/>
<path d="M102.495,48.944h-2.449V37.126c0-0.074-0.012-0.148-0.021-0.223c-0.004-0.469-0.154-0.93-0.475-1.295L79.883,13.144
	c-0.006-0.006-0.012-0.008-0.016-0.014c-0.117-0.131-0.254-0.24-0.398-0.334c-0.043-0.029-0.086-0.053-0.131-0.078
	c-0.125-0.068-0.258-0.125-0.395-0.166c-0.037-0.01-0.07-0.025-0.107-0.035c-0.148-0.035-0.303-0.057-0.459-0.057H30.045
	c-2.207,0-4,1.795-4,4v32.484h-2.449c-3.157,0-5.717,2.559-5.717,5.717v29.73c0,3.156,2.56,5.717,5.717,5.717h2.449v20.352
	c0,2.205,1.793,4,4,4h66c2.205,0,4-1.795,4-4V90.108h2.449c3.157,0,5.717-2.561,5.717-5.717v-29.73
	C108.211,51.503,105.652,48.944,102.495,48.944z M30.045,16.46h46.332v20.465c0,1.105,0.896,2,2,2h17.668v10.02h-66V16.46z
	 M67.168,65.703v4.689h-9.381v6.055h10.479v4.729H51.999V55.68h15.738v4.729h-9.949v5.295H67.168z M25.672,81.063V56.02
	c2.119-0.34,4.882-0.529,7.793-0.529c4.843,0,7.983,0.869,10.442,2.723c2.647,1.967,4.312,5.107,4.312,9.609
	c0,4.879-1.777,8.246-4.236,10.328c-2.687,2.23-6.771,3.291-11.766,3.291C29.229,81.441,27.111,81.254,25.672,81.063z
	 M96.045,109.376h-66V90.108h66V109.376z M94.139,81.176l-0.378-9.76c-0.114-3.064-0.229-6.771-0.229-10.479H93.42
	c-0.794,3.254-1.854,6.885-2.838,9.873l-3.102,9.951H82.98l-2.725-9.875c-0.831-2.988-1.702-6.621-2.308-9.949h-0.076
	c-0.15,3.441-0.265,7.377-0.453,10.553l-0.454,9.686h-5.333l1.625-25.496h7.68l2.498,8.512c0.794,2.949,1.587,6.127,2.156,9.115
	h0.112c0.72-2.949,1.589-6.318,2.422-9.154l2.724-8.473h7.527l1.399,25.496H94.139z"/>
</svg>
