<?xml version="1.0" encoding="utf-8"?>
<!-- Generator: Adobe Illustrator 16.0.0, SVG Export Plug-In . SVG Version: 6.00 Build 0)  -->
<!DOCTYPE svg PUBLIC "-//W3C//DTD SVG 1.1//EN" "http://www.w3.org/Graphics/SVG/1.1/DTD/svg11.dtd">
<svg version="1.1" id="Layer_1" xmlns="http://www.w3.org/2000/svg" xmlns:xlink="http://www.w3.org/1999/xlink" x="0px" y="0px"
	 width="126px" height="126px" viewBox="0 0 126 126" enable-background="new 0 0 126 126" xml:space="preserve">
<g>
	<path d="M101.737,41.524h-2.449V29.706c0-0.074-0.012-0.148-0.021-0.223c-0.004-0.469-0.154-0.93-0.475-1.295L79.125,5.724
		C79.12,5.718,79.114,5.716,79.11,5.71c-0.117-0.131-0.254-0.24-0.398-0.334c-0.043-0.029-0.086-0.053-0.131-0.078
		c-0.125-0.068-0.258-0.125-0.395-0.166c-0.037-0.01-0.07-0.025-0.107-0.035C77.93,5.062,77.776,5.04,77.62,5.04H29.288
		c-2.207,0-4,1.795-4,4v32.484h-2.449c-3.157,0-5.717,2.559-5.717,5.717v29.73c0,3.156,2.56,5.717,5.717,5.717h2.449v20.352
		c0,2.205,1.793,4,4,4h66c2.205,0,4-1.795,4-4V82.688h2.449c3.157,0,5.717-2.561,5.717-5.717v-29.73
		C107.454,44.083,104.894,41.524,101.737,41.524z M29.288,9.04H75.62v20.465c0,1.105,0.896,2,2,2h17.668v10.02h-66V9.04z
		 M54.999,48.094h6.756l2.277,4.749c0.772,1.582,1.351,2.855,1.969,4.321h0.077c0.617-1.657,1.119-2.817,1.776-4.321l2.201-4.749
		h6.717l-7.334,12.701l7.719,13.317h-6.794l-2.354-4.709c-0.965-1.815-1.583-3.167-2.316-4.671h-0.077
		c-0.541,1.504-1.197,2.855-2.008,4.671l-2.161,4.709h-6.718l7.527-13.161L54.999,48.094z M54.076,60.485
		c0,4.979-1.815,8.413-4.325,10.537c-2.74,2.279-6.909,3.359-12.004,3.359c-3.05,0-5.21-0.192-6.678-0.386V48.441
		c2.162-0.348,4.979-0.541,7.952-0.541c4.941,0,8.146,0.888,10.655,2.78C52.376,52.688,54.076,55.891,54.076,60.485z
		 M95.288,101.956h-66V82.688h66V101.956z M96.222,52.92h-9.998v5.945h9.342v4.785h-9.342v10.462h-5.907V48.094h15.904V52.92z"/>
	<path d="M39.638,52.418c-1.312,0-2.162,0.115-2.664,0.232v17.023c0.502,0.115,1.313,0.115,2.046,0.115
		c5.328,0.04,8.801-2.896,8.801-9.109C47.86,55.273,44.694,52.418,39.638,52.418z"/>
</g>
</svg>
