<?xml version="1.0" encoding="utf-8"?>
<!-- Generator: Adobe Illustrator 16.0.0, SVG Export Plug-In . SVG Version: 6.00 Build 0)  -->
<!DOCTYPE svg PUBLIC "-//W3C//DTD SVG 1.1//EN" "http://www.w3.org/Graphics/SVG/1.1/DTD/svg11.dtd">
<svg version="1.1" id="Layer_1" xmlns="http://www.w3.org/2000/svg" xmlns:xlink="http://www.w3.org/1999/xlink" x="0px" y="0px"
	 width="126px" height="126px" viewBox="0 0 126 126" enable-background="new 0 0 126 126" xml:space="preserve">
<path d="M102.328,48.928h-2.449V37.11c0-0.074-0.012-0.148-0.021-0.223c-0.004-0.469-0.154-0.93-0.475-1.295L79.717,13.127
	c-0.006-0.006-0.012-0.008-0.016-0.014c-0.117-0.131-0.254-0.24-0.398-0.334c-0.043-0.029-0.086-0.053-0.131-0.078
	c-0.125-0.068-0.258-0.125-0.395-0.166c-0.037-0.01-0.07-0.025-0.107-0.035c-0.148-0.035-0.303-0.057-0.459-0.057H29.879
	c-2.207,0-4,1.795-4,4v32.484H23.43c-3.157,0-5.717,2.559-5.717,5.717v29.73c0,3.156,2.56,5.717,5.717,5.717h2.449v20.352
	c0,2.205,1.793,4,4,4h66c2.205,0,4-1.795,4-4V90.092h2.449c3.157,0,5.717-2.561,5.717-5.717v-29.73
	C108.045,51.487,105.485,48.928,102.328,48.928z M29.879,16.444h46.332v20.465c0,1.105,0.896,2,2,2h17.668v10.02h-66V16.444z
	 M77.567,78.248v5.672H58.911V54.054h6.778v24.193H77.567z M28.065,83.787V54.452c2.481-0.398,5.715-0.621,9.129-0.621
	c5.672,0,9.349,1.02,12.229,3.191c3.103,2.304,5.052,5.982,5.052,11.255c0,5.717-2.082,9.66-4.962,12.098
	c-3.147,2.613-7.933,3.854-13.783,3.854C32.229,84.229,29.748,84.008,28.065,83.787z M95.879,109.36h-66V90.092h66V109.36z
	 M100.212,83.919H81.556V54.054h6.781v24.193h11.875V83.919z"/>
<path d="M47.296,68.5c0.045-6.205-3.588-9.483-9.395-9.483c-1.505,0-2.481,0.132-3.056,0.265v19.543
	c0.575,0.132,1.505,0.132,2.349,0.132C43.309,79.001,47.296,75.634,47.296,68.5z"/>
</svg>
