<?xml version="1.0" encoding="utf-8"?>
<!-- Generator: Adobe Illustrator 16.0.0, SVG Export Plug-In . SVG Version: 6.00 Build 0)  -->
<!DOCTYPE svg PUBLIC "-//W3C//DTD SVG 1.1//EN" "http://www.w3.org/Graphics/SVG/1.1/DTD/svg11.dtd">
<svg version="1.1" id="Layer_1" xmlns="http://www.w3.org/2000/svg" xmlns:xlink="http://www.w3.org/1999/xlink" x="0px" y="0px"
	 width="126px" height="126px" viewBox="0 0 126 126" enable-background="new 0 0 126 126" xml:space="preserve">
<path d="M102.365,41.598h-2.449V29.779c0-0.074-0.012-0.148-0.021-0.223c-0.004-0.469-0.154-0.93-0.475-1.295L79.754,5.797
	c-0.006-0.006-0.012-0.008-0.016-0.014c-0.117-0.131-0.254-0.24-0.398-0.334c-0.043-0.029-0.086-0.053-0.131-0.078
	c-0.125-0.068-0.258-0.125-0.395-0.166c-0.037-0.01-0.07-0.025-0.107-0.035c-0.148-0.035-0.303-0.057-0.459-0.057H29.916
	c-2.207,0-4,1.795-4,4v32.484h-2.449c-3.156,0-5.717,2.559-5.717,5.717v29.73c0,3.156,2.561,5.717,5.717,5.717h2.449v20.352
	c0,2.205,1.793,4,4,4h66c2.205,0,4-1.795,4-4V82.762h2.449c3.158,0,5.717-2.561,5.717-5.717v-29.73
	C108.082,44.156,105.523,41.598,102.365,41.598z M29.916,9.113h46.332v20.465c0,1.105,0.896,2,2,2h17.668v10.02h-66V9.113z
	 M78.916,74.805h-5.598l-0.375-9.689c-0.111-3.045-0.225-6.727-0.225-10.41h-0.113c-0.789,3.232-1.84,6.84-2.816,9.809l-3.082,9.877
	h-4.471l-2.705-9.803c-0.826-2.967-1.689-6.574-2.291-9.883h-0.074c-0.148,3.42-0.262,7.326-0.451,10.484l-0.451,9.615h-5.297
	l1.617-25.318h7.623l2.482,8.451c0.789,2.932,1.576,6.086,2.141,9.055h0.111c0.715-2.932,1.578-6.275,2.404-9.092l2.705-8.414h7.477
	L78.916,74.805z M25.383,74.693V49.824c2.102-0.338,4.844-0.525,7.736-0.525c4.809,0,7.928,0.863,10.369,2.705
	c2.629,1.951,4.281,5.07,4.281,9.541c0,4.846-1.766,8.189-4.207,10.254c-2.668,2.217-6.723,3.27-11.684,3.27
	C28.912,75.068,26.809,74.879,25.383,74.693z M95.916,102.029h-66V82.762h66V102.029z M104.467,73.641
	c-1.766,0.602-5.107,1.428-8.453,1.428c-4.621,0-7.963-1.164-10.293-3.418c-2.326-2.18-3.604-5.484-3.568-9.205
	c0.039-8.416,6.16-13.221,14.463-13.221c3.268,0,5.785,0.637,7.025,1.238l-1.201,4.582c-1.391-0.602-3.119-1.09-5.898-1.09
	c-4.77,0-8.377,2.705-8.377,8.189c0,5.223,3.268,8.303,7.963,8.303c1.316,0,2.367-0.148,2.818-0.375v-5.297h-3.906v-4.469h9.428
	V73.641z"/>
<path d="M41.684,61.732c0.039-5.26-3.041-8.039-7.963-8.039c-1.279,0-2.104,0.113-2.592,0.227v16.566
	c0.488,0.113,1.277,0.113,1.99,0.113C38.303,70.635,41.684,67.781,41.684,61.732z"/>
</svg>
