<?xml version="1.0" encoding="utf-8"?>
<!-- Generator: Adobe Illustrator 16.0.0, SVG Export Plug-In . SVG Version: 6.00 Build 0)  -->
<!DOCTYPE svg PUBLIC "-//W3C//DTD SVG 1.1//EN" "http://www.w3.org/Graphics/SVG/1.1/DTD/svg11.dtd">
<svg version="1.1" id="Layer_1" xmlns="http://www.w3.org/2000/svg" xmlns:xlink="http://www.w3.org/1999/xlink" x="0px" y="0px"
	 width="126px" height="126px" viewBox="0 0 126 126" enable-background="new 0 0 126 126" xml:space="preserve">
<path d="M103.207,49.021h-2.449V37.203c0-0.074-0.012-0.148-0.021-0.223c-0.004-0.469-0.154-0.93-0.475-1.295L80.596,13.22
	c-0.006-0.006-0.012-0.008-0.016-0.014c-0.117-0.131-0.254-0.24-0.398-0.334c-0.043-0.029-0.086-0.053-0.131-0.078
	c-0.125-0.068-0.258-0.125-0.395-0.166c-0.037-0.01-0.07-0.025-0.107-0.035c-0.148-0.035-0.303-0.057-0.459-0.057H30.758
	c-2.207,0-4,1.795-4,4v32.484h-2.449c-3.157,0-5.717,2.559-5.717,5.717v29.73c0,3.156,2.56,5.717,5.717,5.717h2.449v20.352
	c0,2.205,1.793,4,4,4h66c2.205,0,4-1.795,4-4V90.185h2.449c3.157,0,5.717-2.561,5.717-5.717v-29.73
	C108.924,51.58,106.364,49.021,103.207,49.021z M30.758,16.537H77.09v20.465c0,1.105,0.896,2,2,2h17.668v10.02h-66V16.537z
	 M81.134,75.015c1.459,0,3.078-0.317,4.03-0.699l0.729,3.776c-0.887,0.442-2.885,0.921-5.487,0.921c-7.394,0-11.2-4.601-11.2-10.692
	c0-7.297,5.203-11.358,11.676-11.358c2.505,0,4.41,0.509,5.266,0.952l-0.983,3.84c-0.983-0.414-2.347-0.793-4.061-0.793
	c-3.84,0-6.821,2.315-6.821,7.074C74.282,72.316,76.821,75.015,81.134,75.015z M67.013,67.782c0,7.011-4.251,11.262-10.5,11.262
	c-6.346,0-10.058-4.792-10.058-10.882c0-6.408,4.092-11.2,10.407-11.2C63.431,56.962,67.013,61.881,67.013,67.782z M25.356,78.6
	V57.597c1.777-0.285,4.092-0.442,6.535-0.442c4.061,0,6.694,0.729,8.754,2.284c2.222,1.649,3.619,4.282,3.619,8.057
	c0,4.092-1.491,6.917-3.554,8.661c-2.253,1.872-5.679,2.761-9.868,2.761C28.338,78.917,26.561,78.758,25.356,78.6z M96.758,109.453
	h-66V90.185h66V109.453z M100.425,78.695l-1.936-3.871c-0.793-1.49-1.301-2.602-1.904-3.838h-0.063
	c-0.445,1.237-0.983,2.348-1.649,3.838l-1.777,3.871h-5.521l6.187-10.82l-5.963-10.564h5.552l1.871,3.904
	c0.635,1.298,1.11,2.347,1.618,3.551h0.063c0.507-1.363,0.921-2.315,1.459-3.551l1.808-3.904h5.521l-6.028,10.437l6.345,10.947
	H100.425z"/>
<path d="M39.124,67.654c0.031-4.441-2.57-6.79-6.725-6.79c-1.08,0-1.777,0.096-2.19,0.191v13.99c0.414,0.095,1.08,0.095,1.683,0.095
	C36.27,75.173,39.124,72.762,39.124,67.654z"/>
<path d="M51.565,68.066c0,4.188,1.967,7.138,5.203,7.138c3.268,0,5.138-3.108,5.138-7.264c0-3.84-1.839-7.139-5.172-7.139
	C53.467,60.802,51.565,63.911,51.565,68.066z"/>
</svg>
