<?xml version="1.0" encoding="utf-8"?>
<!-- Generator: Adobe Illustrator 16.0.0, SVG Export Plug-In . SVG Version: 6.00 Build 0)  -->
<!DOCTYPE svg PUBLIC "-//W3C//DTD SVG 1.1//EN" "http://www.w3.org/Graphics/SVG/1.1/DTD/svg11.dtd">
<svg version="1.1" id="Layer_1" xmlns="http://www.w3.org/2000/svg" xmlns:xlink="http://www.w3.org/1999/xlink" x="0px" y="0px"
	 width="126px" height="126px" viewBox="0 0 126 126" enable-background="new 0 0 126 126" xml:space="preserve">
<path d="M102.494,48.944h-2.449V37.126c0-0.074-0.012-0.148-0.021-0.223c-0.004-0.469-0.154-0.93-0.475-1.295L79.883,13.144
	c-0.006-0.006-0.012-0.008-0.016-0.014c-0.117-0.131-0.254-0.24-0.398-0.334c-0.043-0.029-0.086-0.053-0.131-0.078
	c-0.125-0.068-0.258-0.125-0.395-0.166c-0.037-0.01-0.07-0.025-0.107-0.035c-0.148-0.035-0.303-0.057-0.459-0.057H30.045
	c-2.207,0-4,1.795-4,4v32.484h-2.449c-3.156,0-5.717,2.559-5.717,5.717v29.73c0,3.156,2.561,5.717,5.717,5.717h2.449v20.352
	c0,2.205,1.793,4,4,4h66c2.205,0,4-1.795,4-4V90.108h2.449c3.158,0,5.717-2.561,5.717-5.717v-29.73
	C108.211,51.503,105.652,48.944,102.494,48.944z M30.045,16.46h46.332v20.465c0,1.105,0.896,2,2,2h17.668v10.02h-66V16.46z
	 M78.674,57.021l-6.291,24.377h-5.969l-2.063-10.488c-0.469-2.459-0.869-4.738-1.156-7.523h-0.072
	c-0.436,2.752-0.832,5.064-1.41,7.523l-2.314,10.488h-6.041L47.57,57.021h5.896l1.844,10.055c0.543,2.893,1.049,6.039,1.447,8.498
	h0.072c0.398-2.639,0.977-5.568,1.592-8.57l2.061-9.982h5.859l1.953,10.27c0.543,2.859,0.939,5.463,1.303,8.176h0.072
	c0.361-2.713,0.902-5.568,1.408-8.463l1.992-9.982H78.674z M24.5,81.29V57.347c2.025-0.326,4.664-0.506,7.449-0.506
	c4.631,0,7.631,0.832,9.982,2.605c2.533,1.879,4.121,4.881,4.121,9.184c0,4.668-1.697,7.885-4.049,9.873
	c-2.566,2.135-6.473,3.146-11.248,3.146C27.9,81.649,25.873,81.47,24.5,81.29z M96.045,109.376h-66V90.108h66V109.376z
	 M101.598,80.276c-1.699,0.576-4.916,1.373-8.137,1.373c-4.447,0-7.666-1.121-9.908-3.289c-2.242-2.1-3.475-5.281-3.436-8.861
	c0.035-8.102,5.93-12.73,13.924-12.73c3.145,0,5.568,0.613,6.764,1.191l-1.158,4.412c-1.338-0.576-3.002-1.047-5.678-1.047
	c-4.592,0-8.066,2.604-8.066,7.885c0,5.025,3.146,7.99,7.668,7.99c1.268,0,2.279-0.143,2.711-0.359v-5.1h-3.76v-4.305h9.076V80.276z
	"/>
<path d="M40.193,68.812c0.039-5.063-2.926-7.74-7.664-7.74c-1.229,0-2.025,0.109-2.496,0.219v15.947
	c0.471,0.109,1.23,0.109,1.916,0.109C36.941,77.382,40.193,74.634,40.193,68.812z"/>
</svg>
