<?xml version="1.0" encoding="utf-8"?>
<!-- Generator: Adobe Illustrator 16.0.0, SVG Export Plug-In . SVG Version: 6.00 Build 0)  -->
<!DOCTYPE svg PUBLIC "-//W3C//DTD SVG 1.1//EN" "http://www.w3.org/Graphics/SVG/1.1/DTD/svg11.dtd">
<svg version="1.1" id="Layer_1" xmlns="http://www.w3.org/2000/svg" xmlns:xlink="http://www.w3.org/1999/xlink" x="0px" y="0px"
	 width="126px" height="126px" viewBox="0 0 126 126" enable-background="new 0 0 126 126" xml:space="preserve">
<path d="M102.494,48.944h-2.449V37.126c0-0.074-0.012-0.148-0.021-0.223c-0.004-0.469-0.154-0.93-0.475-1.295L79.883,13.144
	c-0.006-0.006-0.012-0.008-0.016-0.014c-0.117-0.131-0.254-0.24-0.398-0.334c-0.043-0.029-0.086-0.053-0.131-0.078
	c-0.125-0.068-0.258-0.125-0.395-0.166c-0.037-0.01-0.07-0.025-0.107-0.035c-0.148-0.035-0.303-0.057-0.459-0.057H30.045
	c-2.207,0-4,1.795-4,4v32.484h-2.449c-3.156,0-5.717,2.559-5.717,5.717v29.73c0,3.156,2.561,5.717,5.717,5.717h2.449v20.352
	c0,2.205,1.793,4,4,4h66c2.205,0,4-1.795,4-4V90.108h2.449c3.158,0,5.717-2.561,5.717-5.717v-29.73
	C108.211,51.503,105.652,48.944,102.494,48.944z M30.045,16.46h46.332v20.465c0,1.105,0.896,2,2,2h17.668v10.02h-66V16.46z
	 M76.4,63.878c0,2.992-0.996,5.531-2.811,7.254c-2.355,2.221-5.848,3.219-9.928,3.219c-0.906,0-1.721-0.047-2.355-0.137v10.924
	h-6.846V54.995c2.131-0.363,5.123-0.635,9.338-0.635c4.262,0,7.299,0.816,9.338,2.447C75.086,58.349,76.4,60.888,76.4,63.878z
	 M48.436,66.599v5.621h-11.24v7.252H49.75v5.666H30.258V54.587h18.857v5.666h-11.92v6.346H48.436z M96.045,109.376h-66V90.108h66
	V109.376z M88.273,85.591c-3.49,0-6.934-0.906-8.658-1.859l1.408-5.709c1.857,0.949,4.711,1.902,7.66,1.902
	c3.172,0,4.85-1.314,4.85-3.309c0-1.904-1.453-2.992-5.121-4.307c-5.078-1.768-8.387-4.578-8.387-9.02
	c0-5.213,4.352-9.201,11.557-9.201c3.447,0,5.986,0.725,7.799,1.541l-1.541,5.574c-1.225-0.588-3.4-1.449-6.393-1.449
	s-4.443,1.359-4.443,2.945c0,1.949,1.723,2.811,5.668,4.307c5.393,1.994,7.932,4.805,7.932,9.111
	C100.604,81.239,96.658,85.591,88.273,85.591z"/>
<path d="M64.162,59.573c-1.406,0-2.357,0.137-2.855,0.271v9.021c0.588,0.135,1.314,0.18,2.311,0.18c3.672,0,5.939-1.857,5.939-4.986
	C69.557,61.249,67.605,59.573,64.162,59.573z"/>
</svg>
