<?xml version="1.0" encoding="utf-8"?>
<!-- Generator: Adobe Illustrator 16.0.0, SVG Export Plug-In . SVG Version: 6.00 Build 0)  -->
<!DOCTYPE svg PUBLIC "-//W3C//DTD SVG 1.1//EN" "http://www.w3.org/Graphics/SVG/1.1/DTD/svg11.dtd">
<svg version="1.1" id="Layer_1" xmlns="http://www.w3.org/2000/svg" xmlns:xlink="http://www.w3.org/1999/xlink" x="0px" y="0px"
	 width="126px" height="126px" viewBox="0 0 126 126" enable-background="new 0 0 126 126" xml:space="preserve">
<path d="M102.578,48.948h-2.449V37.129c0-0.074-0.012-0.148-0.021-0.223c-0.004-0.469-0.154-0.93-0.475-1.295L79.967,13.147
	c-0.006-0.006-0.012-0.008-0.016-0.014c-0.117-0.131-0.254-0.24-0.398-0.334c-0.043-0.029-0.086-0.053-0.131-0.078
	c-0.125-0.068-0.258-0.125-0.395-0.166c-0.037-0.01-0.07-0.025-0.107-0.035c-0.148-0.035-0.303-0.057-0.459-0.057H30.129
	c-2.207,0-4,1.795-4,4v32.484H23.68c-3.157,0-5.717,2.559-5.717,5.717v29.73c0,3.156,2.56,5.717,5.717,5.717h2.449v20.352
	c0,2.205,1.793,4,4,4h66c2.205,0,4-1.795,4-4V90.112h2.449c3.157,0,5.717-2.561,5.717-5.717v-29.73
	C108.295,51.506,105.735,48.948,102.578,48.948z M30.129,16.463h46.332v20.465c0,1.105,0.896,2,2,2h17.668v10.02h-66V16.463z
	 M49.506,54.713h7.754l2.614,5.451c0.887,1.815,1.551,3.278,2.26,4.963h0.089c0.709-1.906,1.284-3.235,2.039-4.963l2.524-5.451
	h7.711l-8.42,14.578L74.94,84.58h-7.797l-2.705-5.407c-1.106-2.082-1.815-3.633-2.657-5.362h-0.089
	c-0.621,1.729-1.375,3.28-2.306,5.362l-2.481,5.407h-7.708l8.639-15.111L49.506,54.713z M27.744,84.58V54.713h18.435v5.539H34.524
	v6.205h10.991v5.494H34.524v7.091h12.275v5.539H27.744z M96.129,109.379h-66V90.112h66V109.379z M97.634,84.58H78.579V54.713h18.432
	v5.539H85.356v6.205h10.991v5.494H85.356v7.091h12.277V84.58z"/>
</svg>
