<?xml version="1.0" encoding="utf-8"?>
<!-- Generator: Adobe Illustrator 16.0.0, SVG Export Plug-In . SVG Version: 6.00 Build 0)  -->
<!DOCTYPE svg PUBLIC "-//W3C//DTD SVG 1.1//EN" "http://www.w3.org/Graphics/SVG/1.1/DTD/svg11.dtd">
<svg version="1.1" id="Layer_1" xmlns="http://www.w3.org/2000/svg" xmlns:xlink="http://www.w3.org/1999/xlink" x="0px" y="0px"
	 width="126px" height="126px" viewBox="0 0 126 126" enable-background="new 0 0 126 126" xml:space="preserve">
<path d="M101.487,41.505h-2.449V29.687c0-0.074-0.012-0.148-0.021-0.223c-0.004-0.469-0.154-0.93-0.475-1.295L78.875,5.704
	C78.87,5.698,78.864,5.696,78.86,5.69c-0.117-0.131-0.254-0.24-0.398-0.334c-0.043-0.029-0.086-0.053-0.131-0.078
	c-0.125-0.068-0.258-0.125-0.395-0.166c-0.037-0.01-0.07-0.025-0.107-0.035c-0.148-0.035-0.303-0.057-0.459-0.057H29.038
	c-2.207,0-4,1.795-4,4v32.484h-2.449c-3.157,0-5.717,2.559-5.717,5.717v29.73c0,3.156,2.56,5.717,5.717,5.717h2.449v20.352
	c0,2.205,1.793,4,4,4h66c2.205,0,4-1.795,4-4V82.669h2.449c3.157,0,5.717-2.561,5.717-5.717v-29.73
	C107.204,44.063,104.644,41.505,101.487,41.505z M29.038,9.021H75.37v20.465c0,1.105,0.896,2,2,2h17.668v10.02h-66V9.021z
	 M71.89,61.093c0,9.215-5.588,14.805-13.804,14.805c-8.342,0-13.22-6.297-13.22-14.305c0-8.424,5.38-14.721,13.679-14.721
	C67.177,46.872,71.89,53.337,71.89,61.093z M24.178,75.438V47.331H41.36v5.213H30.56v6.422h10.092v5.172H30.56v11.301H24.178z
	 M95.038,101.937h-66V82.669h66V101.937z M99.334,75.438h-6.673l-6.006-10.844c-1.668-3.002-3.502-6.631-4.879-9.924l-0.125,0.041
	c0.167,3.713,0.25,7.674,0.25,12.26v8.467h-5.838V47.331h7.423l5.838,10.299c1.668,2.961,3.337,6.465,4.587,9.635h0.125
	c-0.415-3.713-0.542-7.506-0.542-11.719v-8.215h5.84V75.438z"/>
<path d="M51.58,61.468c0,5.504,2.586,9.383,6.84,9.383c4.294,0,6.755-4.088,6.755-9.551c0-5.045-2.419-9.383-6.797-9.383
	C54.082,51.917,51.58,56.005,51.58,61.468z"/>
</svg>
