<?xml version="1.0" encoding="utf-8"?>
<!-- Generator: Adobe Illustrator 16.0.0, SVG Export Plug-In . SVG Version: 6.00 Build 0)  -->
<!DOCTYPE svg PUBLIC "-//W3C//DTD SVG 1.1//EN" "http://www.w3.org/Graphics/SVG/1.1/DTD/svg11.dtd">
<svg version="1.1" id="Layer_1" xmlns="http://www.w3.org/2000/svg" xmlns:xlink="http://www.w3.org/1999/xlink" x="0px" y="0px"
	 width="126px" height="126px" viewBox="0 0 126 126" enable-background="new 0 0 126 126" xml:space="preserve">
<path d="M68.682,61.188c0-2.051-1.568-3.137-4.343-3.137c-1.328,0-2.092,0.08-2.614,0.16v6.314h2.011
	C66.953,64.525,68.682,63.199,68.682,61.188z"/>
<path d="M88.796,58.131c-1.488,0-2.333,0.121-2.775,0.201v7.48h2.413c3.057,0,4.867-1.529,4.867-3.902
	C93.301,59.418,91.611,58.17,88.796,58.131z"/>
<path d="M103.457,48.541h-2.449V36.723c0-0.074-0.012-0.148-0.021-0.223c-0.004-0.469-0.154-0.93-0.475-1.295L80.846,12.74
	c-0.006-0.006-0.012-0.008-0.016-0.014c-0.117-0.131-0.254-0.24-0.398-0.334c-0.043-0.029-0.086-0.053-0.131-0.078
	c-0.125-0.068-0.258-0.125-0.395-0.166c-0.037-0.01-0.07-0.025-0.107-0.035c-0.148-0.035-0.303-0.057-0.459-0.057H31.008
	c-2.207,0-4,1.795-4,4v32.484h-2.449c-3.157,0-5.717,2.559-5.717,5.717v29.73c0,3.156,2.56,5.717,5.717,5.717h2.449v20.352
	c0,2.205,1.793,4,4,4h66c2.205,0,4-1.795,4-4V89.705h2.449c3.157,0,5.717-2.561,5.717-5.717v-29.73
	C109.174,51.1,106.614,48.541,103.457,48.541z M31.008,16.057H77.34v20.465c0,1.105,0.896,2,2,2h17.668v10.02h-66V16.057z
	 M75.761,72.971c0,2.453-1.126,4.383-2.815,5.752c-1.971,1.568-5.268,2.453-10.658,2.453c-3.016,0-5.268-0.201-6.636-0.402V54.148
	c1.609-0.322,4.866-0.563,7.923-0.563c3.741,0,6.033,0.361,8.003,1.529c1.89,1.004,3.258,2.855,3.258,5.307
	c0,2.414-1.408,4.666-4.465,5.793v0.08C73.468,67.139,75.761,69.471,75.761,72.971z M30.792,77.516
	c-2.493-2.332-3.861-5.871-3.821-9.854c0.041-9.01,6.596-14.158,15.484-14.158c3.499,0,6.193,0.686,7.521,1.328l-1.287,4.908
	c-1.488-0.645-3.338-1.166-6.314-1.166c-5.107,0-8.968,2.895-8.968,8.766c0,5.59,3.499,8.889,8.526,8.889
	c1.408,0,2.534-0.16,3.017-0.402v-5.67h-4.183v-4.787H50.86v14.277c-1.89,0.645-5.469,1.529-9.049,1.529
	C36.865,81.176,33.285,79.928,30.792,77.516z M97.008,108.973h-66V89.705h66V108.973z M94.145,80.895
	c-0.442-0.766-1.086-2.977-1.891-6.314c-0.724-3.379-1.89-4.305-4.384-4.344h-1.85v10.658h-6.073V54.148
	c1.97-0.322,4.906-0.563,8.164-0.563c4.021,0,6.837,0.604,8.767,2.131c1.609,1.287,2.494,3.178,2.494,5.672
	c0,3.457-2.454,5.83-4.786,6.676v0.121c1.89,0.764,2.936,2.574,3.62,5.066c0.844,3.057,1.689,6.596,2.212,7.643H94.145z"/>
<path d="M63.816,68.908h-2.091v7.643c0.603,0.08,1.327,0.08,2.373,0.08c2.775,0,5.229-1.047,5.229-3.902
	C69.326,69.994,66.873,68.908,63.816,68.908z"/>
</svg>
