<?xml version="1.0" encoding="utf-8"?>
<!-- Generator: Adobe Illustrator 16.0.0, SVG Export Plug-In . SVG Version: 6.00 Build 0)  -->
<!DOCTYPE svg PUBLIC "-//W3C//DTD SVG 1.1//EN" "http://www.w3.org/Graphics/SVG/1.1/DTD/svg11.dtd">
<svg version="1.1" id="Layer_1" xmlns="http://www.w3.org/2000/svg" xmlns:xlink="http://www.w3.org/1999/xlink" x="0px" y="0px"
	 width="126px" height="126px" viewBox="0 0 126 126" enable-background="new 0 0 126 126" xml:space="preserve">
<path d="M103.207,48.521h-2.449V36.703c0-0.074-0.012-0.148-0.021-0.223c-0.004-0.469-0.154-0.93-0.475-1.295L80.596,12.721
	c-0.006-0.006-0.012-0.008-0.016-0.014c-0.117-0.131-0.254-0.24-0.398-0.334c-0.043-0.029-0.086-0.053-0.131-0.078
	c-0.125-0.068-0.258-0.125-0.395-0.166c-0.037-0.01-0.07-0.025-0.107-0.035c-0.148-0.035-0.303-0.057-0.459-0.057H30.758
	c-2.207,0-4,1.795-4,4v32.484h-2.449c-3.157,0-5.717,2.559-5.717,5.717v29.73c0,3.156,2.56,5.717,5.717,5.717h2.449v20.352
	c0,2.205,1.793,4,4,4h66c2.205,0,4-1.795,4-4V89.686h2.449c3.157,0,5.717-2.561,5.717-5.717v-29.73
	C108.924,51.08,106.364,48.521,103.207,48.521z M30.758,16.037H77.09v20.465c0,1.105,0.896,2,2,2h17.668v10.02h-66V16.037z
	 M72.687,65.676v4.986h-9.974v6.436h11.14v5.027H56.56V55.018h16.731v5.027H62.713v5.631H72.687z M27.879,68.893
	c0.041-9.008,6.596-14.156,15.484-14.156c3.498,0,6.193,0.684,7.521,1.326l-1.287,4.908c-1.488-0.645-3.338-1.166-6.314-1.166
	c-5.108,0-8.969,2.895-8.969,8.766c0,5.592,3.499,8.889,8.526,8.889c1.408,0,2.534-0.16,3.016-0.402v-5.67h-4.183V66.6h10.095
	v14.279c-1.891,0.643-5.47,1.527-9.049,1.527c-4.946,0-8.526-1.246-11.02-3.66C29.207,76.414,27.839,72.875,27.879,68.893z
	 M96.758,108.953h-66V89.686h66V108.953z M97.505,78.908c-2.855,2.371-7.199,3.498-12.507,3.498c-3.177,0-5.43-0.201-6.958-0.402
	V55.381c2.252-0.363,5.188-0.564,8.284-0.564c5.148,0,8.487,0.926,11.101,2.896c2.814,2.092,4.584,5.43,4.584,10.215
	C102.01,73.117,100.12,76.695,97.505,78.908z"/>
<path d="M86.969,59.521c-1.368,0-2.252,0.121-2.775,0.242V77.5c0.523,0.119,1.368,0.119,2.131,0.119
	c5.551,0.041,9.17-3.016,9.17-9.49C95.535,62.498,92.237,59.521,86.969,59.521z"/>
</svg>
