<?xml version="1.0" encoding="utf-8"?>
<!-- Generator: Adobe Illustrator 16.0.0, SVG Export Plug-In . SVG Version: 6.00 Build 0)  -->
<!DOCTYPE svg PUBLIC "-//W3C//DTD SVG 1.1//EN" "http://www.w3.org/Graphics/SVG/1.1/DTD/svg11.dtd">
<svg version="1.1" id="Layer_1" xmlns="http://www.w3.org/2000/svg" xmlns:xlink="http://www.w3.org/1999/xlink" x="0px" y="0px"
	 width="126px" height="126px" viewBox="0 0 126 126" enable-background="new 0 0 126 126" xml:space="preserve">
<path d="M91.637,60.422c-1.166,0-1.957,0.111-2.371,0.226v7.488c0.488,0.113,1.092,0.151,1.921,0.151
	c3.047,0,4.927-1.543,4.927-4.14C96.114,61.814,94.496,60.422,91.637,60.422z"/>
<path d="M103.207,49.021h-2.449V37.203c0-0.074-0.012-0.148-0.021-0.223c-0.004-0.469-0.154-0.93-0.475-1.295L80.596,13.22
	c-0.006-0.006-0.012-0.008-0.016-0.014c-0.117-0.131-0.254-0.24-0.398-0.334c-0.043-0.029-0.086-0.053-0.131-0.078
	c-0.125-0.068-0.258-0.125-0.395-0.166c-0.037-0.01-0.07-0.025-0.107-0.035c-0.148-0.035-0.303-0.057-0.459-0.057H30.758
	c-2.207,0-4,1.795-4,4v32.484h-2.449c-3.157,0-5.717,2.559-5.717,5.717v29.73c0,3.156,2.56,5.717,5.717,5.717h2.449v20.352
	c0,2.205,1.793,4,4,4h66c2.205,0,4-1.795,4-4V90.185h2.449c3.157,0,5.717-2.561,5.717-5.717v-29.73
	C108.924,51.58,106.364,49.021,103.207,49.021z M30.758,16.537H77.09v20.465c0,1.105,0.896,2,2,2h17.668v10.02h-66V16.537z
	 M78.617,56.284v25.36h-5.756v-25.36H78.617z M50.656,61.023v-4.739h18.401v3.31L57.242,76.753v0.148h12.003v4.742H49.528v-3.085
	l12.078-17.384v-0.151H50.656z M27.888,78.481c-2.332-2.181-3.611-5.492-3.575-9.218c0.038-8.429,6.172-13.244,14.486-13.244
	c3.275,0,5.798,0.639,7.038,1.24l-1.204,4.59c-1.393-0.601-3.124-1.089-5.908-1.089c-4.777,0-8.392,2.71-8.392,8.201
	c0,5.23,3.275,8.317,7.979,8.317c1.317,0,2.37-0.151,2.822-0.378v-5.304H37.22v-4.479h9.444v13.358
	c-1.768,0.602-5.116,1.428-8.466,1.428C33.57,81.905,30.22,80.74,27.888,78.481z M96.758,109.453h-66V90.185h66V109.453z
	 M99.463,70.017c-1.957,1.843-4.852,2.671-8.24,2.671c-0.752,0-1.431-0.038-1.957-0.112v9.067h-5.682V56.62
	c1.77-0.3,4.254-0.526,7.752-0.526c3.537,0,6.057,0.678,7.752,2.033c1.616,1.278,2.71,3.384,2.71,5.87
	C101.798,66.479,100.968,68.586,99.463,70.017z"/>
</svg>
