<?xml version="1.0" encoding="utf-8"?>
<!-- Generator: Adobe Illustrator 16.0.0, SVG Export Plug-In . SVG Version: 6.00 Build 0)  -->
<!DOCTYPE svg PUBLIC "-//W3C//DTD SVG 1.1//EN" "http://www.w3.org/Graphics/SVG/1.1/DTD/svg11.dtd">
<svg version="1.1" id="Layer_1" xmlns="http://www.w3.org/2000/svg" xmlns:xlink="http://www.w3.org/1999/xlink" x="0px" y="0px"
	 width="126px" height="126px" viewBox="0 0 126 126" enable-background="new 0 0 126 126" xml:space="preserve">
<path d="M101.486,41.505h-2.449V29.687c0-0.074-0.012-0.148-0.021-0.223c-0.004-0.469-0.154-0.93-0.475-1.295L78.875,5.704
	c-0.006-0.006-0.012-0.008-0.016-0.014c-0.117-0.131-0.254-0.24-0.398-0.334c-0.043-0.029-0.086-0.053-0.131-0.078
	c-0.125-0.068-0.258-0.125-0.395-0.166c-0.037-0.01-0.07-0.025-0.107-0.035c-0.148-0.035-0.303-0.057-0.459-0.057H29.037
	c-2.207,0-4,1.795-4,4v32.484h-2.449c-3.156,0-5.717,2.559-5.717,5.717v29.73c0,3.156,2.561,5.717,5.717,5.717h2.449v20.352
	c0,2.205,1.793,4,4,4h66c2.205,0,4-1.795,4-4V82.669h2.449c3.158,0,5.717-2.561,5.717-5.717v-29.73
	C107.203,44.063,104.645,41.505,101.486,41.505z M29.037,9.021h46.332v20.465c0,1.105,0.896,2,2,2h17.668v10.02h-66V9.021z
	 M78.416,75.621l-1.836,4.92c-4.004-1.166-7.34-2.375-11.094-3.963c-0.625-0.25-1.293-0.375-1.959-0.416
	c-6.338-0.416-12.26-5.088-12.26-14.262c0-8.424,5.336-14.762,13.719-14.762c8.592,0,13.303,6.504,13.303,14.18
	c0,6.379-2.961,10.881-6.672,12.551v0.168C73.787,74.662,76.203,75.162,78.416,75.621z M23.822,75.703V47.598h6.381v10.801H40.67
	V47.598h6.338v28.105H40.67v-11.76H30.203v11.76H23.822z M95.037,101.937h-66V82.669h66V101.937z M102.521,75.703H80.67v-3.42
	l13.387-19.266v-0.166H81.92v-5.254h20.393v3.67L89.219,70.283v0.166h13.303V75.703z"/>
<path d="M64.82,52.184c-4.338,0-6.84,4.254-6.84,9.51c-0.041,5.338,2.543,9.422,6.797,9.422c4.297,0,6.797-4.043,6.797-9.547
	C71.574,56.438,69.156,52.184,64.82,52.184z"/>
</svg>
