<?xml version="1.0" encoding="utf-8"?>
<!-- Generator: Adobe Illustrator 16.0.0, SVG Export Plug-In . SVG Version: 6.00 Build 0)  -->
<!DOCTYPE svg PUBLIC "-//W3C//DTD SVG 1.1//EN" "http://www.w3.org/Graphics/SVG/1.1/DTD/svg11.dtd">
<svg version="1.1" id="Layer_1" xmlns="http://www.w3.org/2000/svg" xmlns:xlink="http://www.w3.org/1999/xlink" x="0px" y="0px"
	 width="126px" height="126px" viewBox="0 0 126 126" enable-background="new 0 0 126 126" xml:space="preserve">
<path d="M102.494,48.944h-2.449V37.126c0-0.074-0.012-0.148-0.021-0.223c-0.004-0.469-0.154-0.93-0.475-1.295L79.883,13.144
	c-0.006-0.006-0.012-0.008-0.016-0.014c-0.117-0.131-0.254-0.24-0.398-0.334c-0.043-0.029-0.086-0.053-0.131-0.078
	c-0.125-0.068-0.258-0.125-0.395-0.166c-0.037-0.01-0.07-0.025-0.107-0.035c-0.148-0.035-0.303-0.057-0.459-0.057H30.045
	c-2.207,0-4,1.795-4,4v32.484h-2.449c-3.156,0-5.717,2.559-5.717,5.717v29.73c0,3.156,2.561,5.717,5.717,5.717h2.449v20.352
	c0,2.205,1.793,4,4,4h66c2.205,0,4-1.795,4-4V90.108h2.449c3.158,0,5.717-2.561,5.717-5.717v-29.73
	C108.211,51.503,105.652,48.944,102.494,48.944z M30.045,16.46h46.332v20.465c0,1.105,0.896,2,2,2h17.668v10.02h-66V16.46z
	 M80.219,68.308c0,4.277-1.557,7.229-3.711,9.051c-2.357,1.957-5.938,2.885-10.313,2.885c-2.619,0-4.475-0.166-5.738-0.332V57.964
	c1.859-0.299,4.277-0.465,6.832-0.465c4.244,0,6.996,0.764,9.15,2.387C78.762,61.612,80.219,64.362,80.219,68.308z M42.227,73.28
	v6.73h-4.643V57.665h5.9l4.643,8.189c1.326,2.355,2.652,5.139,3.648,7.658h0.098c-0.332-2.949-0.432-5.967-0.432-9.314v-6.533h4.643
	v22.346h-5.305l-4.775-8.619c-1.324-2.387-2.783-5.271-3.877-7.891l-0.1,0.033C42.16,66.483,42.227,69.634,42.227,73.28z
	 M28.135,80.011V57.665h5.076v22.346H28.135z M96.045,109.376h-66V90.108h66V109.376z M99.58,77.358
	c-2.354,1.957-5.934,2.885-10.311,2.885c-2.621,0-4.477-0.166-5.736-0.332V57.964c1.855-0.299,4.277-0.465,6.83-0.465
	c4.244,0,6.998,0.764,9.152,2.387c2.32,1.727,3.777,4.477,3.777,8.422C103.293,72.585,101.734,75.536,99.58,77.358z"/>
<path d="M67.82,61.378c-1.129,0-1.857,0.1-2.287,0.199v14.621c0.43,0.1,1.127,0.1,1.756,0.1c4.574,0.033,7.559-2.486,7.559-7.824
	C74.881,63.831,72.162,61.378,67.82,61.378z"/>
<path d="M90.893,61.378c-1.125,0-1.855,0.1-2.287,0.199v14.621c0.432,0.1,1.129,0.1,1.758,0.1c4.574,0.033,7.561-2.486,7.561-7.824
	C97.957,63.831,95.238,61.378,90.893,61.378z"/>
</svg>
