<?xml version="1.0" encoding="utf-8"?>
<!-- Generator: Adobe Illustrator 16.0.0, SVG Export Plug-In . SVG Version: 6.00 Build 0)  -->
<!DOCTYPE svg PUBLIC "-//W3C//DTD SVG 1.1//EN" "http://www.w3.org/Graphics/SVG/1.1/DTD/svg11.dtd">
<svg version="1.1" id="Layer_1" xmlns="http://www.w3.org/2000/svg" xmlns:xlink="http://www.w3.org/1999/xlink" x="0px" y="0px"
	 width="126px" height="126px" viewBox="0 0 126 126" enable-background="new 0 0 126 126" xml:space="preserve">
<g>
	<path d="M88.162,55.474c0-2.698-1.873-4.312-5.184-4.312c-1.35,0-2.264,0.13-2.742,0.261v8.664
		c0.566,0.132,1.264,0.176,2.221,0.176C85.982,60.263,88.162,58.477,88.162,55.474z"/>
	<path d="M101.486,41.505h-2.449V29.687c0-0.074-0.012-0.148-0.021-0.223c-0.004-0.469-0.154-0.93-0.475-1.295L78.875,5.704
		c-0.006-0.006-0.012-0.008-0.016-0.014c-0.117-0.131-0.254-0.24-0.398-0.334c-0.043-0.029-0.086-0.053-0.131-0.078
		c-0.125-0.068-0.258-0.125-0.395-0.166c-0.037-0.01-0.07-0.025-0.107-0.035c-0.148-0.035-0.303-0.057-0.459-0.057H29.037
		c-2.207,0-4,1.795-4,4v32.484h-2.449c-3.156,0-5.717,2.559-5.717,5.717v29.73c0,3.156,2.561,5.717,5.717,5.717h2.449v20.352
		c0,2.205,1.793,4,4,4h66c2.205,0,4-1.795,4-4V82.669h2.449c3.158,0,5.717-2.561,5.717-5.717v-29.73
		C107.203,44.063,104.645,41.505,101.486,41.505z M95.037,101.937h-66V82.669h66V101.937z M29.338,75.502l0.742-5.354
		c0.916,0.304,2.088,0.521,3.395,0.521c2.789,0,4.529-1.262,4.529-5.834V46.373h6.619v18.549c0,8.36-4.008,11.276-10.451,11.276
		C32.648,76.198,30.645,75.938,29.338,75.502z M57.467,63.398C52.588,61.7,49.412,59,49.412,54.734
		c0-5.009,4.178-8.842,11.104-8.842c3.309,0,5.744,0.697,7.488,1.482l-1.48,5.355c-1.176-0.566-3.266-1.394-6.141-1.394
		c-2.873,0-4.266,1.305-4.266,2.829c0,1.872,1.654,2.7,5.441,4.136c5.18,1.917,7.621,4.618,7.621,8.755
		c0,4.919-3.787,9.1-11.848,9.1c-3.352,0-6.66-0.871-8.313-1.785l1.35-5.487c1.785,0.914,4.527,1.831,7.357,1.831
		c3.049,0,4.658-1.265,4.658-3.182C62.385,65.706,60.992,64.66,57.467,63.398z M73.662,75.721V46.765
		c2.043-0.349,4.922-0.609,8.969-0.609c4.094,0,7.012,0.782,8.971,2.351c1.873,1.479,3.137,3.917,3.137,6.793
		c0,2.874-0.957,5.311-2.701,6.967c-2.266,2.133-5.617,3.094-9.535,3.094c-0.873,0-1.658-0.045-2.266-0.134v10.495H73.662z
		 M95.037,41.505h-66V9.021h46.332v20.465c0,1.105,0.896,2,2,2h17.668V41.505z"/>
</g>
</svg>
