<?xml version="1.0" encoding="utf-8"?>
<!-- Generator: Adobe Illustrator 16.0.0, SVG Export Plug-In . SVG Version: 6.00 Build 0)  -->
<!DOCTYPE svg PUBLIC "-//W3C//DTD SVG 1.1//EN" "http://www.w3.org/Graphics/SVG/1.1/DTD/svg11.dtd">
<svg version="1.1" id="Layer_1" xmlns="http://www.w3.org/2000/svg" xmlns:xlink="http://www.w3.org/1999/xlink" x="0px" y="0px"
	 width="126px" height="126px" viewBox="0 0 126 126" enable-background="new 0 0 126 126" xml:space="preserve">
<path d="M101.487,41.505h-2.449V29.687c0-0.074-0.012-0.148-0.021-0.223c-0.004-0.469-0.154-0.93-0.475-1.295L78.875,5.704
	C78.87,5.698,78.864,5.696,78.86,5.69c-0.117-0.131-0.254-0.24-0.398-0.334c-0.043-0.029-0.086-0.053-0.131-0.078
	c-0.125-0.068-0.258-0.125-0.395-0.166c-0.037-0.01-0.07-0.025-0.107-0.035c-0.148-0.035-0.303-0.057-0.459-0.057H29.038
	c-2.207,0-4,1.795-4,4v32.484h-2.449c-3.157,0-5.717,2.559-5.717,5.717v29.73c0,3.156,2.56,5.717,5.717,5.717h2.449v20.352
	c0,2.205,1.793,4,4,4h66c2.205,0,4-1.795,4-4V82.669h2.449c3.157,0,5.717-2.561,5.717-5.717v-29.73
	C107.204,44.063,104.644,41.505,101.487,41.505z M29.038,9.021H75.37v20.465c0,1.105,0.896,2,2,2h17.668v10.02h-66V9.021z
	 M78.219,74.128h-5.917L71.904,63.88c-0.119-3.216-0.239-7.109-0.239-10.999h-0.119c-0.834,3.415-1.945,7.227-2.978,10.365
	L65.312,73.69h-4.726l-2.859-10.365c-0.873-3.137-1.787-6.949-2.423-10.444h-0.08c-0.158,3.613-0.278,7.741-0.476,11.079
	l-0.477,10.168h-5.6l1.708-26.77h8.063l2.622,8.938c0.833,3.098,1.667,6.434,2.264,9.569h0.118c0.755-3.097,1.668-6.63,2.542-9.609
	l2.859-8.897h7.903L78.219,74.128z M24.886,74.128v-26.77h5.997v11.838h0.12c0.596-1.034,1.23-1.987,1.827-2.94l6.075-8.897h7.427
	l-8.856,11.4l9.333,15.369h-7.069l-6.553-11.557l-2.304,2.818v8.738H24.886z M95.038,101.937h-66V82.669h66V101.937z
	 M101.963,74.128h-20.81v-3.259l12.749-18.347v-0.158H82.345v-5.006h19.42v3.495l-12.47,18.11v0.16h12.668V74.128z"/>
</svg>
