<?xml version="1.0" encoding="utf-8"?>
<!-- Generator: Adobe Illustrator 16.0.0, SVG Export Plug-In . SVG Version: 6.00 Build 0)  -->
<!DOCTYPE svg PUBLIC "-//W3C//DTD SVG 1.1//EN" "http://www.w3.org/Graphics/SVG/1.1/DTD/svg11.dtd">
<svg version="1.1" id="Layer_1" xmlns="http://www.w3.org/2000/svg" xmlns:xlink="http://www.w3.org/1999/xlink" x="0px" y="0px"
	 width="126px" height="126px" viewBox="0 0 126 126" enable-background="new 0 0 126 126" xml:space="preserve">
<path d="M101.487,41.505h-2.449V29.687c0-0.074-0.012-0.148-0.021-0.223c-0.004-0.469-0.154-0.93-0.475-1.295L78.875,5.704
	C78.87,5.698,78.864,5.696,78.86,5.69c-0.117-0.131-0.254-0.24-0.398-0.334c-0.043-0.029-0.086-0.053-0.131-0.078
	c-0.125-0.068-0.258-0.125-0.395-0.166c-0.037-0.01-0.07-0.025-0.107-0.035c-0.148-0.035-0.303-0.057-0.459-0.057H29.038
	c-2.207,0-4,1.795-4,4v32.484h-2.449c-3.157,0-5.717,2.559-5.717,5.717v29.73c0,3.156,2.56,5.717,5.717,5.717h2.449v20.352
	c0,2.205,1.793,4,4,4h66c2.205,0,4-1.795,4-4V82.669h2.449c3.157,0,5.717-2.561,5.717-5.717v-29.73
	C107.204,44.063,104.644,41.505,101.487,41.505z M29.038,9.021H75.37v20.465c0,1.105,0.896,2,2,2h17.668v10.02h-66V9.021z
	 M54.895,67.743v8.48h-5.849v-28.16h7.437l5.849,10.32c1.671,2.967,3.342,6.475,4.596,9.652h0.125
	c-0.417-3.721-0.543-7.521-0.543-11.742v-8.23h5.849v28.16h-6.685l-6.016-10.861c-1.671-3.008-3.509-6.645-4.888-9.945l-0.125,0.043
	C54.812,59.177,54.895,63.147,54.895,67.743z M27.699,76.224v-28.16h6.392v22.813h11.196v5.348H27.699z M95.038,101.937h-66V82.669
	h66V101.937z M93.496,76.224l-6.894-12.158l-2.422,2.967v9.191h-6.309v-28.16h6.309v12.451h0.125
	c0.626-1.088,1.295-2.09,1.922-3.092l6.392-9.359h7.813l-9.316,11.992l9.817,16.168H93.496z"/>
</svg>
