<?xml version="1.0" encoding="utf-8"?>
<!-- Generator: Adobe Illustrator 16.0.0, SVG Export Plug-In . SVG Version: 6.00 Build 0)  -->
<!DOCTYPE svg PUBLIC "-//W3C//DTD SVG 1.1//EN" "http://www.w3.org/Graphics/SVG/1.1/DTD/svg11.dtd">
<svg version="1.1" id="Layer_1" xmlns="http://www.w3.org/2000/svg" xmlns:xlink="http://www.w3.org/1999/xlink" x="0px" y="0px"
	 width="126px" height="126px" viewBox="0 0 126 126" enable-background="new 0 0 126 126" xml:space="preserve">
<g>
	<path d="M64.711,59.572c-1.216,0-2.002,0.107-2.467,0.215v15.766c0.465,0.109,1.215,0.109,1.895,0.109
		c4.934,0.035,8.152-2.682,8.152-8.439C72.326,62.217,69.395,59.572,64.711,59.572z"/>
	<path d="M102.495,48.944h-2.449V37.126c0-0.074-0.012-0.148-0.021-0.223c-0.004-0.469-0.154-0.93-0.475-1.295L79.883,13.144
		c-0.006-0.006-0.012-0.008-0.016-0.014c-0.117-0.131-0.254-0.24-0.398-0.334c-0.043-0.029-0.086-0.053-0.131-0.078
		c-0.125-0.068-0.258-0.125-0.395-0.166c-0.037-0.01-0.07-0.025-0.107-0.035c-0.148-0.035-0.303-0.057-0.459-0.057H30.045
		c-2.207,0-4,1.795-4,4v32.484h-2.449c-3.157,0-5.717,2.559-5.717,5.717v29.73c0,3.156,2.56,5.717,5.717,5.717h2.449v20.352
		c0,2.205,1.793,4,4,4h66c2.205,0,4-1.795,4-4V90.108h2.449c3.157,0,5.717-2.561,5.717-5.717v-29.73
		C108.211,51.503,105.652,48.944,102.495,48.944z M30.045,16.46h46.332v20.465c0,1.105,0.896,2,2,2h17.668v10.02h-66V16.46z
		 M78.083,67.045c0,4.611-1.681,7.795-4.005,9.762c-2.538,2.107-6.399,3.109-11.119,3.109c-2.824,0-4.827-0.18-6.187-0.357v-23.67
		c2.003-0.322,4.613-0.5,7.366-0.5c4.576,0,7.545,0.822,9.868,2.574C76.511,59.822,78.083,62.789,78.083,67.045z M25.99,79.666
		l1.537-24.1h7.259l2.359,8.045c0.75,2.789,1.502,5.793,2.038,8.617h0.107c0.681-2.789,1.502-5.971,2.289-8.652l2.575-8.01h7.116
		l1.322,24.1h-5.328l-0.357-9.225c-0.107-2.896-0.214-6.4-0.214-9.904h-0.107c-0.751,3.074-1.752,6.508-2.682,9.332l-2.932,9.402
		h-4.254l-2.575-9.33c-0.786-2.824-1.608-6.258-2.181-9.404h-0.072c-0.143,3.254-0.25,6.973-0.429,9.977l-0.429,9.152H25.99z
		 M96.045,109.376h-66V90.108h66V109.376z M97.032,77.736c-1.753,1.393-4.684,2.18-9.476,2.18c-2.681,0-4.684-0.18-5.9-0.357v-23.67
		c1.432-0.285,4.326-0.5,7.045-0.5c3.324,0,5.363,0.32,7.115,1.359c1.68,0.893,2.896,2.537,2.896,4.719
		c0,2.145-1.252,4.148-3.969,5.148v0.072c2.752,0.752,4.791,2.824,4.791,5.936C99.535,74.803,98.533,76.52,97.032,77.736z"/>
	<path d="M93.242,62.145c0-1.822-1.395-2.787-3.861-2.787c-1.181,0-1.859,0.07-2.324,0.143v5.613h1.787
		C91.704,65.113,93.242,63.934,93.242,62.145z"/>
	<path d="M88.915,69.012h-1.858v6.793c0.536,0.07,1.18,0.07,2.109,0.07c2.468,0,4.647-0.928,4.647-3.467
		C93.813,69.977,91.634,69.012,88.915,69.012z"/>
</g>
</svg>
