<?xml version="1.0" encoding="utf-8"?>
<!-- Generator: Adobe Illustrator 16.0.0, SVG Export Plug-In . SVG Version: 6.00 Build 0)  -->
<!DOCTYPE svg PUBLIC "-//W3C//DTD SVG 1.1//EN" "http://www.w3.org/Graphics/SVG/1.1/DTD/svg11.dtd">
<svg version="1.1" id="Layer_1" xmlns="http://www.w3.org/2000/svg" xmlns:xlink="http://www.w3.org/1999/xlink" x="0px" y="0px"
	 width="126px" height="126px" viewBox="0 0 126 126" enable-background="new 0 0 126 126" xml:space="preserve">
<path d="M103.207,48.521h-2.449V36.703c0-0.074-0.012-0.148-0.021-0.223c-0.004-0.469-0.154-0.93-0.475-1.295L80.596,12.721
	c-0.006-0.006-0.012-0.008-0.016-0.014c-0.117-0.131-0.254-0.24-0.398-0.334c-0.043-0.029-0.086-0.053-0.131-0.078
	c-0.125-0.068-0.258-0.125-0.395-0.166c-0.037-0.01-0.07-0.025-0.107-0.035c-0.148-0.035-0.303-0.057-0.459-0.057H30.758
	c-2.207,0-4,1.795-4,4v32.484h-2.449c-3.157,0-5.717,2.559-5.717,5.717v29.73c0,3.156,2.56,5.717,5.717,5.717h2.449v20.352
	c0,2.205,1.793,4,4,4h66c2.205,0,4-1.795,4-4V89.686h2.449c3.157,0,5.717-2.561,5.717-5.717v-29.73
	C108.924,51.08,106.364,48.521,103.207,48.521z M30.758,16.037H77.09v20.465c0,1.105,0.896,2,2,2h17.668v10.02h-66V16.037z
	 M70.454,56.239v26.238h-5.956V56.239H70.454z M59.948,82.478h-5.801l-0.39-10.043c-0.116-3.152-0.233-6.969-0.233-10.783h-0.116
	c-0.817,3.348-1.908,7.084-2.921,10.16l-3.19,10.238h-4.633L39.86,71.89c-0.856-3.074-1.751-6.814-2.373-10.238h-0.08
	c-0.154,3.541-0.271,7.592-0.466,10.861l-0.467,9.965h-5.489l1.674-26.238h7.903l2.567,8.76c0.817,3.035,1.636,6.307,2.22,9.381
	h0.117c0.74-3.035,1.636-6.5,2.491-9.42l2.803-8.721h7.747L59.948,82.478z M96.758,108.953h-66V89.686h66V108.953z M94.433,79.362
	c-2.766,2.299-6.968,3.389-12.107,3.389c-3.075,0-5.255-0.195-6.735-0.389V56.589c2.182-0.35,5.022-0.543,8.021-0.543
	c4.981,0,8.213,0.895,10.744,2.803c2.726,2.023,4.438,5.254,4.438,9.887C98.792,73.759,96.962,77.222,94.433,79.362z"/>
<path d="M84.234,60.601c-1.324,0-2.182,0.117-2.687,0.232v17.168c0.505,0.117,1.323,0.117,2.063,0.117
	c5.371,0.037,8.875-2.92,8.875-9.188C92.525,63.481,89.333,60.601,84.234,60.601z"/>
</svg>
