<?xml version="1.0" encoding="utf-8"?>
<!-- Generator: Adobe Illustrator 16.0.0, SVG Export Plug-In . SVG Version: 6.00 Build 0)  -->
<!DOCTYPE svg PUBLIC "-//W3C//DTD SVG 1.1//EN" "http://www.w3.org/Graphics/SVG/1.1/DTD/svg11.dtd">
<svg version="1.1" id="Layer_1" xmlns="http://www.w3.org/2000/svg" xmlns:xlink="http://www.w3.org/1999/xlink" x="0px" y="0px"
	 width="126px" height="126px" viewBox="0 0 126 126" enable-background="new 0 0 126 126" xml:space="preserve">
<path d="M61.346,67.808c0,4.87,2.287,8.301,6.05,8.301c3.802,0,5.978-3.615,5.978-8.448c0-4.462-2.14-8.3-6.014-8.3
	C63.561,59.361,61.346,62.977,61.346,67.808z"/>
<path d="M103.207,49.021h-2.449V37.203c0-0.074-0.012-0.148-0.021-0.223c-0.004-0.469-0.154-0.93-0.475-1.295L80.596,13.22
	c-0.006-0.006-0.012-0.008-0.016-0.014c-0.117-0.131-0.254-0.24-0.398-0.334c-0.043-0.029-0.086-0.053-0.131-0.078
	c-0.125-0.068-0.258-0.125-0.395-0.166c-0.037-0.01-0.07-0.025-0.107-0.035c-0.148-0.035-0.303-0.057-0.459-0.057H30.758
	c-2.207,0-4,1.795-4,4v32.484h-2.449c-3.157,0-5.717,2.559-5.717,5.717v29.73c0,3.156,2.56,5.717,5.717,5.717h2.449v20.352
	c0,2.205,1.793,4,4,4h66c2.205,0,4-1.795,4-4V90.185h2.449c3.157,0,5.717-2.561,5.717-5.717v-29.73
	C108.924,51.58,106.364,49.021,103.207,49.021z M30.758,16.537H77.09v20.465c0,1.105,0.896,2,2,2h17.668v10.02h-66V16.537z
	 M79.312,67.476c0,8.154-4.943,13.097-12.209,13.097c-7.38,0-11.695-5.571-11.695-12.652c0-7.454,4.758-13.023,12.099-13.023
	C75.143,54.897,79.312,60.616,79.312,67.476z M30.428,70.722l-0.442,9.445h-5.201l1.587-24.863h7.487l2.436,8.299
	c0.774,2.878,1.549,5.978,2.102,8.892h0.11c0.702-2.878,1.552-6.161,2.361-8.928l2.657-8.263h7.341l1.365,24.863h-5.496l-0.37-9.518
	c-0.11-2.988-0.222-6.604-0.222-10.219h-0.11c-0.774,3.172-1.809,6.717-2.765,9.631l-3.025,9.702h-4.391l-2.656-9.631
	c-0.813-2.914-1.662-6.455-2.251-9.702h-0.074C30.724,63.787,30.613,67.625,30.428,70.722z M96.758,109.453h-66V90.185h66V109.453z
	 M95.179,80.167h-6.566l-7.969-24.863h6.16l3.025,10.514c0.849,2.95,1.623,5.792,2.214,8.892h0.111
	c0.627-2.989,1.401-5.941,2.25-8.782l3.172-10.623h5.978L95.179,80.167z"/>
</svg>
