<?xml version="1.0" encoding="utf-8"?>
<!-- Generator: Adobe Illustrator 16.0.0, SVG Export Plug-In . SVG Version: 6.00 Build 0)  -->
<!DOCTYPE svg PUBLIC "-//W3C//DTD SVG 1.1//EN" "http://www.w3.org/Graphics/SVG/1.1/DTD/svg11.dtd">
<svg version="1.1" id="Layer_1" xmlns="http://www.w3.org/2000/svg" xmlns:xlink="http://www.w3.org/1999/xlink" x="0px" y="0px"
	 width="126px" height="126px" viewBox="0 0 126 126" enable-background="new 0 0 126 126" xml:space="preserve">
<path d="M103.207,49.021h-2.449V37.203c0-0.074-0.012-0.148-0.021-0.223c-0.004-0.469-0.154-0.93-0.475-1.295L80.596,13.22
	c-0.006-0.006-0.012-0.008-0.016-0.014c-0.117-0.131-0.254-0.24-0.398-0.334c-0.043-0.029-0.086-0.053-0.131-0.078
	c-0.125-0.068-0.258-0.125-0.395-0.166c-0.037-0.01-0.07-0.025-0.107-0.035c-0.148-0.035-0.303-0.057-0.459-0.057H30.758
	c-2.207,0-4,1.795-4,4v32.484h-2.449c-3.157,0-5.717,2.559-5.717,5.717v29.73c0,3.156,2.56,5.717,5.717,5.717h2.449v20.352
	c0,2.205,1.793,4,4,4h66c2.205,0,4-1.795,4-4V90.185h2.449c3.157,0,5.717-2.561,5.717-5.717v-29.73
	C108.924,51.58,106.364,49.021,103.207,49.021z M30.758,16.537H77.09v20.465c0,1.105,0.896,2,2,2h17.668v10.02h-66V16.537z
	 M82.878,63.484c0,2.662-0.89,4.924-2.503,6.457c-2.099,1.98-5.208,2.867-8.841,2.867c-0.808,0-1.534-0.041-2.099-0.119v9.725
	h-6.098V55.572c1.899-0.326,4.563-0.568,8.317-0.568c3.794,0,6.499,0.729,8.317,2.184C81.708,58.558,82.878,60.818,82.878,63.484z
	 M28.577,82.414l1.736-27.205h8.194l2.665,9.082c0.849,3.148,1.695,6.539,2.301,9.727h0.123c0.767-3.148,1.695-6.738,2.583-9.766
	l2.907-9.043h8.033l1.493,27.205h-6.013l-0.404-10.412c-0.123-3.271-0.243-7.229-0.243-11.184h-0.12
	c-0.849,3.473-1.979,7.348-3.03,10.539l-3.308,10.615h-4.804l-2.907-10.539c-0.887-3.188-1.817-7.063-2.462-10.615h-0.082
	c-0.161,3.674-0.282,7.871-0.483,11.262l-0.486,10.334H28.577z M96.758,109.453h-66V90.185h66V109.453z M93.458,82.859
	c-3.393,0-6.259-0.887-7.793-1.855l1.253-4.604c1.089,0.566,3.592,1.613,6.095,1.613c3.188,0,4.804-1.533,4.804-3.51
	c0-2.582-2.585-3.756-5.29-3.756h-2.503v-4.4h2.383c2.058-0.037,4.684-0.805,4.684-3.027c0-1.574-1.293-2.742-3.876-2.742
	c-2.14,0-4.4,0.928-5.491,1.574l-1.25-4.443c1.575-1.008,4.722-1.977,8.115-1.977c5.61,0,8.719,2.947,8.719,6.541
	c0,2.783-1.575,4.965-4.804,6.094v0.082c3.15,0.566,5.694,2.945,5.694,6.377C104.196,79.468,100.118,82.859,93.458,82.859z"/>
<path d="M71.977,59.65c-1.25,0-2.099,0.119-2.541,0.24v8.033c0.524,0.119,1.171,0.162,2.058,0.162c3.27,0,5.29-1.656,5.29-4.443
	C76.783,61.142,75.047,59.65,71.977,59.65z"/>
</svg>
