<?xml version="1.0" encoding="utf-8"?>
<!-- Generator: Adobe Illustrator 16.0.0, SVG Export Plug-In . SVG Version: 6.00 Build 0)  -->
<!DOCTYPE svg PUBLIC "-//W3C//DTD SVG 1.1//EN" "http://www.w3.org/Graphics/SVG/1.1/DTD/svg11.dtd">
<svg version="1.1" id="Layer_1" xmlns="http://www.w3.org/2000/svg" xmlns:xlink="http://www.w3.org/1999/xlink" x="0px" y="0px"
	 width="126px" height="126px" viewBox="0 0 126 126" enable-background="new 0 0 126 126" xml:space="preserve">
<path d="M89.958,66.245l-3.628,5.921v0.083h6.086v-6.004c0-1.625,0.084-3.293,0.209-5.044h-0.166
	C91.584,62.952,90.874,64.535,89.958,66.245z"/>
<path d="M102.328,48.928h-2.449V37.11c0-0.074-0.012-0.148-0.021-0.223c-0.004-0.469-0.154-0.93-0.475-1.295L79.717,13.127
	c-0.006-0.006-0.012-0.008-0.016-0.014c-0.117-0.131-0.254-0.24-0.398-0.334c-0.043-0.029-0.086-0.053-0.131-0.078
	c-0.125-0.068-0.258-0.125-0.395-0.166c-0.037-0.01-0.07-0.025-0.107-0.035c-0.148-0.035-0.303-0.057-0.459-0.057H29.879
	c-2.207,0-4,1.795-4,4v32.484H23.43c-3.157,0-5.717,2.559-5.717,5.717v29.73c0,3.156,2.56,5.717,5.717,5.717h2.449v20.352
	c0,2.205,1.793,4,4,4h66c2.205,0,4-1.795,4-4V90.092h2.449c3.157,0,5.717-2.561,5.717-5.717v-29.73
	C108.045,51.487,105.485,48.928,102.328,48.928z M29.879,16.444h46.332v20.465c0,1.105,0.896,2,2,2h17.668v10.02h-66V16.444z
	 M78.155,63.911c0,2.75-0.919,5.085-2.585,6.668c-2.167,2.045-5.376,2.961-9.13,2.961c-0.834,0-1.584-0.041-2.166-0.124v10.045
	h-6.298V55.739c1.96-0.334,4.711-0.585,8.589-0.585c3.92,0,6.711,0.751,8.589,2.253C76.945,58.823,78.155,61.158,78.155,63.911z
	 M29.04,61.158h-0.085c-0.165,3.793-0.29,8.131-0.5,11.632l-0.497,10.673h-5.882l1.794-28.098h8.464l2.75,9.38
	c0.876,3.252,1.751,6.754,2.378,10.048h0.125c0.789-3.253,1.751-6.963,2.667-10.089l3.003-9.339h8.296l1.543,28.098h-6.213
	l-0.416-10.757c-0.127-3.374-0.25-7.462-0.25-11.547h-0.125c-0.875,3.586-2.044,7.59-3.128,10.884l-3.419,10.964h-4.961
	l-3.001-10.883C30.665,68.829,29.708,64.827,29.04,61.158z M95.879,109.36h-66V90.092h66V109.36z M101.673,77.002h-3.254v6.46
	h-6.003v-6.46H80.41v-4.128l10.255-16.509h7.754v15.884h3.254V77.002z"/>
<path d="M66.897,59.95c-1.291,0-2.166,0.125-2.623,0.249v8.297c0.538,0.124,1.207,0.167,2.125,0.167
	c3.376,0,5.461-1.709,5.461-4.587C71.86,61.493,70.066,59.95,66.897,59.95z"/>
</svg>
