<?xml version="1.0" encoding="utf-8"?>
<!-- Generator: Adobe Illustrator 16.0.0, SVG Export Plug-In . SVG Version: 6.00 Build 0)  -->
<!DOCTYPE svg PUBLIC "-//W3C//DTD SVG 1.1//EN" "http://www.w3.org/Graphics/SVG/1.1/DTD/svg11.dtd">
<svg version="1.1" id="Layer_1" xmlns="http://www.w3.org/2000/svg" xmlns:xlink="http://www.w3.org/1999/xlink" x="0px" y="0px"
	 width="126px" height="126px" viewBox="0 0 126 126" enable-background="new 0 0 126 126" xml:space="preserve">
<path d="M103.207,48.521h-2.449V36.703c0-0.074-0.012-0.148-0.021-0.223c-0.004-0.469-0.154-0.93-0.475-1.295L80.596,12.721
	c-0.006-0.006-0.012-0.008-0.016-0.014c-0.117-0.131-0.254-0.24-0.398-0.334c-0.043-0.029-0.086-0.053-0.131-0.078
	c-0.125-0.068-0.258-0.125-0.395-0.166c-0.037-0.01-0.07-0.025-0.107-0.035c-0.148-0.035-0.303-0.057-0.459-0.057H30.758
	c-2.207,0-4,1.795-4,4v32.484h-2.449c-3.157,0-5.717,2.559-5.717,5.717v29.73c0,3.156,2.56,5.717,5.717,5.717h2.449v20.352
	c0,2.205,1.793,4,4,4h66c2.205,0,4-1.795,4-4V89.686h2.449c3.157,0,5.717-2.561,5.717-5.717v-29.73
	C108.924,51.08,106.364,48.521,103.207,48.521z M30.758,16.037H77.09v20.465c0,1.105,0.896,2,2,2h17.668v10.02h-66V16.037z
	 M84.246,74.993c0,2.766-1.27,4.941-3.172,6.482c-2.221,1.768-5.938,2.766-12.012,2.766c-3.4,0-5.939-0.227-7.48-0.453V53.78
	c1.816-0.361,5.484-0.633,8.93-0.633c4.215,0,6.801,0.408,9.021,1.721c2.131,1.135,3.672,3.219,3.672,5.984
	c0,2.719-1.586,5.258-5.033,6.527v0.09C81.664,68.423,84.246,71.052,84.246,74.993z M27.682,68.876
	c0-9.156,5.846-16.002,14.867-16.002c9.383,0,14.504,7.025,14.504,15.457c0,10.018-6.074,16.092-15.002,16.092
	C32.984,84.423,27.682,77.579,27.682,68.876z M96.758,108.953h-66V89.686h66V108.953z M101.832,72.683
	c0,8.703-4.172,11.74-10.879,11.74c-1.586,0-3.672-0.271-5.031-0.727l0.77-5.574c0.953,0.318,2.176,0.543,3.537,0.543
	c2.9,0,4.713-1.313,4.713-6.072V53.374h6.891V72.683z"/>
<path d="M42.412,78.938c4.67,0,7.342-4.441,7.342-10.379c0-5.486-2.627-10.201-7.389-10.201c-4.666,0-7.385,4.443-7.385,10.381
	C34.98,74.722,37.787,78.938,42.412,78.938z"/>
<path d="M76.268,61.714c0-2.311-1.766-3.535-4.895-3.535c-1.496,0-2.355,0.09-2.945,0.18v7.117h2.268
	C74.32,65.476,76.268,63.981,76.268,61.714z"/>
<path d="M70.783,70.417h-2.355v8.611c0.68,0.09,1.496,0.09,2.674,0.09c3.127,0,5.893-1.178,5.893-4.396
	C76.994,71.64,74.229,70.417,70.783,70.417z"/>
</svg>
