<?xml version="1.0" encoding="utf-8"?>
<!-- Generator: Adobe Illustrator 16.0.0, SVG Export Plug-In . SVG Version: 6.00 Build 0)  -->
<!DOCTYPE svg PUBLIC "-//W3C//DTD SVG 1.1//EN" "http://www.w3.org/Graphics/SVG/1.1/DTD/svg11.dtd">
<svg version="1.1" id="Layer_1" xmlns="http://www.w3.org/2000/svg" xmlns:xlink="http://www.w3.org/1999/xlink" x="0px" y="0px"
	 width="126px" height="126px" viewBox="0 0 126 126" enable-background="new 0 0 126 126" xml:space="preserve">
<path d="M89.191,69.64h-2.015v7.361c0.582,0.078,1.278,0.078,2.287,0.078c2.674,0,5.037-1.006,5.037-3.756
	C94.5,70.685,92.137,69.64,89.191,69.64z"/>
<path d="M93.88,62.2c0-1.979-1.512-3.023-4.185-3.023c-1.279,0-2.016,0.078-2.519,0.154v6.086h1.937
	C92.213,65.417,93.88,64.138,93.88,62.2z"/>
<path d="M62.952,59.409c-1.317,0-2.171,0.117-2.675,0.232v17.088c0.503,0.121,1.319,0.121,2.055,0.121
	c5.349,0.035,8.836-2.91,8.836-9.148C71.206,62.276,68.027,59.409,62.952,59.409z"/>
<path d="M44.229,68.052c0-4.689-2.247-8.721-6.317-8.721c-3.992,0-6.316,3.799-6.316,8.875c0,5.117,2.402,8.719,6.356,8.719
	C41.944,76.925,44.229,73.126,44.229,68.052z"/>
<path d="M102.884,48.438h-2.449V36.62c0-0.074-0.012-0.148-0.021-0.223c-0.004-0.469-0.154-0.93-0.475-1.295L80.272,12.638
	c-0.006-0.006-0.012-0.008-0.016-0.014c-0.117-0.131-0.254-0.24-0.398-0.334c-0.043-0.029-0.086-0.053-0.131-0.078
	c-0.125-0.068-0.258-0.125-0.395-0.166c-0.037-0.01-0.07-0.025-0.107-0.035c-0.148-0.035-0.303-0.057-0.459-0.057H30.435
	c-2.207,0-4,1.795-4,4v32.484h-2.449c-3.157,0-5.717,2.559-5.717,5.717v29.73c0,3.156,2.56,5.717,5.717,5.717h2.449v20.352
	c0,2.205,1.793,4,4,4h66c2.205,0,4-1.795,4-4V89.603h2.449c3.157,0,5.717-2.561,5.717-5.717v-29.73
	C108.601,50.997,106.041,48.438,102.884,48.438z M30.435,15.954h46.332v20.465c0,1.105,0.896,2,2,2h17.668v10.02h-66V15.954z
	 M77.446,67.507c0,5-1.822,8.451-4.34,10.582c-2.753,2.287-6.937,3.371-12.053,3.371c-3.061,0-5.232-0.193-6.705-0.387V55.417
	c2.17-0.348,5-0.543,7.984-0.543c4.96,0,8.177,0.893,10.696,2.791C75.741,59.681,77.446,62.897,77.446,67.507z M25.356,68.321
	c0-7.828,5-13.682,12.712-13.682c8.021,0,12.401,6.01,12.401,13.219c0,8.564-5.192,13.756-12.828,13.756
	C29.891,81.614,25.356,75.763,25.356,68.321z M96.435,108.87h-66V89.603h66V108.87z M97.989,79.097
	c-1.9,1.512-5.078,2.363-10.272,2.363c-2.906,0-5.076-0.193-6.394-0.387V55.417c1.551-0.309,4.689-0.543,7.634-0.543
	c3.604,0,5.814,0.352,7.713,1.473c1.82,0.971,3.138,2.752,3.138,5.117c0,2.322-1.356,4.494-4.301,5.578v0.08
	c2.984,0.813,5.193,3.061,5.193,6.432C100.701,75.917,99.617,77.778,97.989,79.097z"/>
</svg>
