<?xml version="1.0" encoding="utf-8"?>
<!-- Generator: Adobe Illustrator 16.0.0, SVG Export Plug-In . SVG Version: 6.00 Build 0)  -->
<!DOCTYPE svg PUBLIC "-//W3C//DTD SVG 1.1//EN" "http://www.w3.org/Graphics/SVG/1.1/DTD/svg11.dtd">
<svg version="1.1" id="Layer_1" xmlns="http://www.w3.org/2000/svg" xmlns:xlink="http://www.w3.org/1999/xlink" x="0px" y="0px"
	 width="126px" height="126px" viewBox="0 0 126 126" enable-background="new 0 0 126 126" xml:space="preserve">
<path d="M102.328,48.429h-2.449V36.61c0-0.074-0.012-0.148-0.021-0.223c-0.004-0.469-0.154-0.93-0.475-1.295L79.717,12.628
	c-0.006-0.006-0.012-0.008-0.016-0.014c-0.117-0.131-0.254-0.24-0.398-0.334c-0.043-0.029-0.086-0.053-0.131-0.078
	c-0.125-0.068-0.258-0.125-0.395-0.166c-0.037-0.01-0.07-0.025-0.107-0.035c-0.148-0.035-0.303-0.057-0.459-0.057H29.879
	c-2.207,0-4,1.795-4,4v32.484H23.43c-3.157,0-5.717,2.559-5.717,5.717v29.73c0,3.156,2.56,5.717,5.717,5.717h2.449v20.352
	c0,2.205,1.793,4,4,4h66c2.205,0,4-1.795,4-4V89.593h2.449c3.157,0,5.717-2.561,5.717-5.717v-29.73
	C108.045,50.987,105.485,48.429,102.328,48.429z M29.879,15.944h46.332v20.465c0,1.105,0.896,2,2,2h17.668v10.02h-66V15.944z
	 M78.319,67.036c0,5.146-1.876,8.695-4.47,10.891c-2.833,2.354-7.139,3.469-12.407,3.469c-3.149,0-5.384-0.199-6.9-0.398V54.589
	c2.233-0.359,5.146-0.561,8.218-0.561c5.107,0,8.418,0.916,11.01,2.871C76.563,58.976,78.319,62.284,78.319,67.036z M24.698,67.872
	c0-8.059,5.146-14.082,13.085-14.082c8.257,0,12.765,6.184,12.765,13.602c0,8.818-5.345,14.164-13.205,14.164
	C29.365,81.556,24.698,75.53,24.698,67.872z M95.879,108.86h-66V89.593h66V108.86z M88.894,81.519c-3.07,0-6.104-0.801-7.619-1.639
	l1.235-5.027c1.638,0.84,4.15,1.676,6.742,1.676c2.794,0,4.271-1.156,4.271-2.912c0-1.676-1.277-2.633-4.509-3.789
	c-4.467-1.555-7.381-4.029-7.381-7.939c0-4.588,3.83-8.098,10.173-8.098c3.032,0,5.266,0.637,6.862,1.355l-1.356,4.906
	c-1.077-0.518-2.991-1.275-5.626-1.275c-2.633,0-3.91,1.197-3.91,2.596c0,1.713,1.518,2.471,4.989,3.787
	c4.747,1.754,6.98,4.229,6.98,8.02C99.745,77.685,96.275,81.519,88.894,81.519z"/>
<path d="M63.397,58.698c-1.356,0-2.234,0.117-2.753,0.238v17.592c0.519,0.121,1.358,0.121,2.115,0.121
	c5.507,0.041,9.096-2.992,9.096-9.416C71.896,61.649,68.624,58.698,63.397,58.698z"/>
<path d="M44.126,67.595c0-4.828-2.313-8.979-6.504-8.979c-4.109,0-6.502,3.91-6.502,9.137c0,5.266,2.474,8.975,6.542,8.975
	C41.771,76.728,44.126,72.819,44.126,67.595z"/>
</svg>
