<?xml version="1.0" encoding="utf-8"?>
<!-- Generator: Adobe Illustrator 16.0.0, SVG Export Plug-In . SVG Version: 6.00 Build 0)  -->
<!DOCTYPE svg PUBLIC "-//W3C//DTD SVG 1.1//EN" "http://www.w3.org/Graphics/SVG/1.1/DTD/svg11.dtd">
<svg version="1.1" id="Layer_1" xmlns="http://www.w3.org/2000/svg" xmlns:xlink="http://www.w3.org/1999/xlink" x="0px" y="0px"
	 width="126px" height="126px" viewBox="0 0 126 126" enable-background="new 0 0 126 126" xml:space="preserve">
<path d="M103.207,49.021h-2.449V37.203c0-0.074-0.012-0.148-0.021-0.223c-0.004-0.469-0.154-0.93-0.475-1.295L80.596,13.22
	c-0.006-0.006-0.012-0.008-0.016-0.014c-0.117-0.131-0.254-0.24-0.398-0.334c-0.043-0.029-0.086-0.053-0.131-0.078
	c-0.125-0.068-0.258-0.125-0.395-0.166c-0.037-0.01-0.07-0.025-0.107-0.035c-0.148-0.035-0.303-0.057-0.459-0.057H30.758
	c-2.207,0-4,1.795-4,4v32.484h-2.449c-3.157,0-5.717,2.559-5.717,5.717v29.73c0,3.156,2.56,5.717,5.717,5.717h2.449v20.352
	c0,2.205,1.793,4,4,4h66c2.205,0,4-1.795,4-4V90.185h2.449c3.157,0,5.717-2.561,5.717-5.717v-29.73
	C108.924,51.58,106.364,49.021,103.207,49.021z M30.758,16.537H77.09v20.465c0,1.105,0.896,2,2,2h17.668v10.02h-66V16.537z
	 M80.525,68.813c0,5.416-1.971,9.156-4.703,11.464c-2.98,2.479-7.516,3.655-13.061,3.655c-3.318,0-5.67-0.209-7.266-0.421V55.709
	c2.352-0.377,5.416-0.588,8.65-0.588c5.377,0,8.863,0.966,11.592,3.024C78.68,60.328,80.525,63.814,80.525,68.813z M24.076,69.694
	c0-8.483,5.418-14.827,13.777-14.827c8.693,0,13.439,6.511,13.439,14.323c0,9.281-5.629,14.908-13.902,14.908
	C28.992,84.099,24.076,77.759,24.076,69.694z M96.758,109.453h-66V90.185h66V109.453z M103.166,60.707h-7.727v22.932h-6.426V60.707
	h-7.602v-5.375h21.754V60.707z"/>
<path d="M44.529,69.4c0-5.081-2.436-9.45-6.846-9.45c-4.324,0-6.846,4.117-6.846,9.618c0,5.545,2.604,9.449,6.889,9.449
	C42.053,79.018,44.529,74.901,44.529,69.4z"/>
<path d="M64.816,60.035c-1.426,0-2.352,0.127-2.896,0.252v18.521c0.545,0.128,1.428,0.128,2.227,0.128
	c5.797,0.041,9.574-3.152,9.574-9.914C73.764,63.143,70.32,60.035,64.816,60.035z"/>
</svg>
