<?xml version="1.0" encoding="utf-8"?>
<!-- Generator: Adobe Illustrator 16.0.0, SVG Export Plug-In . SVG Version: 6.00 Build 0)  -->
<!DOCTYPE svg PUBLIC "-//W3C//DTD SVG 1.1//EN" "http://www.w3.org/Graphics/SVG/1.1/DTD/svg11.dtd">
<svg version="1.1" id="Layer_1" xmlns="http://www.w3.org/2000/svg" xmlns:xlink="http://www.w3.org/1999/xlink" x="0px" y="0px"
	 width="126px" height="126px" viewBox="0 0 126 126" enable-background="new 0 0 126 126" xml:space="preserve">
<path d="M62.953,59.634c-1.325,0-2.183,0.117-2.69,0.236v17.184c0.507,0.119,1.325,0.119,2.065,0.119
	c5.378,0.037,8.887-2.924,8.887-9.197C71.253,62.519,68.057,59.634,62.953,59.634z"/>
<path d="M103.763,49.031h-2.449V37.212c0-0.074-0.012-0.148-0.021-0.223c-0.004-0.469-0.154-0.93-0.475-1.295L81.151,13.23
	c-0.006-0.006-0.012-0.008-0.016-0.014c-0.117-0.131-0.254-0.24-0.398-0.334c-0.043-0.029-0.086-0.053-0.131-0.078
	c-0.125-0.068-0.258-0.125-0.395-0.166c-0.037-0.01-0.07-0.025-0.107-0.035c-0.148-0.035-0.303-0.057-0.459-0.057H31.313
	c-2.207,0-4,1.795-4,4v32.484h-2.449c-3.157,0-5.717,2.559-5.717,5.717v29.73c0,3.156,2.56,5.717,5.717,5.717h2.449v20.352
	c0,2.205,1.793,4,4,4h66c2.205,0,4-1.795,4-4V90.195h2.449c3.157,0,5.717-2.561,5.717-5.717v-29.73
	C109.479,51.589,106.92,49.031,103.763,49.031z M31.313,16.546h46.332v20.465c0,1.105,0.896,2,2,2h17.668v10.02h-66V16.546z
	 M77.526,67.781c0,5.025-1.83,8.494-4.364,10.637c-2.768,2.301-6.976,3.391-12.121,3.391c-3.078,0-5.261-0.191-6.742-0.389V55.623
	c2.183-0.352,5.027-0.547,8.028-0.547c4.989,0,8.223,0.896,10.757,2.807C75.812,59.91,77.526,63.142,77.526,67.781z M25.148,68.599
	c0-7.873,5.025-13.76,12.782-13.76c8.067,0,12.47,6.043,12.47,13.293c0,8.609-5.22,13.832-12.897,13.832
	C29.707,81.964,25.148,76.082,25.148,68.599z M97.313,109.462h-66V90.195h66V109.462z M93.975,81.537l-2.375-4.756
	c-0.974-1.83-1.599-3.195-2.339-4.715h-0.077c-0.546,1.52-1.209,2.885-2.027,4.715l-2.183,4.756h-6.781l7.601-13.289l-7.326-12.977
	h6.819l2.298,4.795c0.779,1.596,1.366,2.883,1.989,4.363h0.077c0.625-1.676,1.13-2.844,1.794-4.363l2.222-4.795h6.78L93.04,68.093
	l7.795,13.443H93.975z"/>
<path d="M44.126,68.326c0-4.717-2.26-8.768-6.353-8.768c-4.013,0-6.353,3.82-6.353,8.926c0,5.143,2.417,8.764,6.391,8.764
	C41.828,77.248,44.126,73.429,44.126,68.326z"/>
</svg>
