<?xml version="1.0" encoding="utf-8"?>
<!-- Generator: Adobe Illustrator 16.0.0, SVG Export Plug-In . SVG Version: 6.00 Build 0)  -->
<!DOCTYPE svg PUBLIC "-//W3C//DTD SVG 1.1//EN" "http://www.w3.org/Graphics/SVG/1.1/DTD/svg11.dtd">
<svg version="1.1" id="Layer_1" xmlns="http://www.w3.org/2000/svg" xmlns:xlink="http://www.w3.org/1999/xlink" x="0px" y="0px"
	 width="126px" height="126px" viewBox="0 0 126 126" enable-background="new 0 0 126 126" xml:space="preserve">
<path d="M103.207,49.021h-2.449V37.203c0-0.074-0.012-0.148-0.021-0.223c-0.004-0.469-0.154-0.93-0.475-1.295L80.596,13.22
	c-0.006-0.006-0.012-0.008-0.016-0.014c-0.117-0.131-0.254-0.24-0.398-0.334c-0.043-0.029-0.086-0.053-0.131-0.078
	c-0.125-0.068-0.258-0.125-0.395-0.166c-0.037-0.01-0.07-0.025-0.107-0.035c-0.148-0.035-0.303-0.057-0.459-0.057H30.758
	c-2.207,0-4,1.795-4,4v32.484h-2.449c-3.157,0-5.717,2.559-5.717,5.717v29.73c0,3.156,2.56,5.717,5.717,5.717h2.449v20.352
	c0,2.205,1.793,4,4,4h66c2.205,0,4-1.795,4-4V90.185h2.449c3.157,0,5.717-2.561,5.717-5.717v-29.73
	C108.924,51.58,106.364,49.021,103.207,49.021z M30.758,16.537H77.09v20.465c0,1.105,0.896,2,2,2h17.668v10.02h-66V16.537z
	 M56.994,60.564v-5.672h22.953v5.672h-8.154V84.76h-6.777V60.564H56.994z M27.346,70.047c0-8.952,5.715-15.643,14.535-15.643
	c9.172,0,14.178,6.87,14.178,15.112c0,9.793-5.936,15.73-14.666,15.73C32.527,85.246,27.346,78.557,27.346,70.047z M96.758,109.453
	h-66V90.185h66V109.453z M101.797,60.432H90.32v6.824h10.723v5.494H90.32v12.01h-6.781V54.893h18.258V60.432z"/>
<path d="M41.748,79.884c4.563,0,7.174-4.343,7.174-10.147c0-5.362-2.566-9.971-7.219-9.971c-4.564,0-7.227,4.345-7.227,10.149
	C34.477,75.765,37.227,79.884,41.748,79.884z"/>
</svg>
