<?xml version="1.0" encoding="utf-8"?>
<!-- Generator: Adobe Illustrator 16.0.0, SVG Export Plug-In . SVG Version: 6.00 Build 0)  -->
<!DOCTYPE svg PUBLIC "-//W3C//DTD SVG 1.1//EN" "http://www.w3.org/Graphics/SVG/1.1/DTD/svg11.dtd">
<svg version="1.1" id="Layer_1" xmlns="http://www.w3.org/2000/svg" xmlns:xlink="http://www.w3.org/1999/xlink" x="0px" y="0px"
	 width="126px" height="126px" viewBox="0 0 126 126" enable-background="new 0 0 126 126" xml:space="preserve">
<path d="M47.076,66.565c-0.336-1.121-0.671-2.523-0.952-3.643h-0.055c-0.282,1.119-0.563,2.549-0.868,3.643l-1.123,4.01h4.177
	L47.076,66.565z"/>
<path d="M102.328,48.429h-2.449V36.61c0-0.074-0.012-0.148-0.021-0.223c-0.004-0.469-0.154-0.93-0.475-1.295L79.717,12.628
	c-0.006-0.006-0.012-0.008-0.016-0.014c-0.117-0.131-0.254-0.24-0.398-0.334c-0.043-0.029-0.086-0.053-0.131-0.078
	c-0.125-0.068-0.258-0.125-0.395-0.166c-0.037-0.01-0.07-0.025-0.107-0.035c-0.148-0.035-0.303-0.057-0.459-0.057H29.879
	c-2.207,0-4,1.795-4,4v32.484H23.43c-3.157,0-5.717,2.559-5.717,5.717v29.73c0,3.156,2.56,5.717,5.717,5.717h2.449v20.352
	c0,2.205,1.793,4,4,4h66c2.205,0,4-1.795,4-4V89.593h2.449c3.157,0,5.717-2.561,5.717-5.717v-29.73
	C108.045,50.987,105.485,48.429,102.328,48.429z M29.879,15.944h46.332v20.465c0,1.105,0.896,2,2,2h17.668v10.02h-66V15.944z
	 M87.11,67.155v3.475h-6.951v4.484h7.764v3.506H75.872V59.728h11.659v3.504h-7.372v3.924H87.11z M66.31,75.366
	c0.98,0,1.765-0.111,2.102-0.279v-3.953h-2.914v-3.336h7.035v9.953c-1.317,0.447-3.813,1.064-6.307,1.064
	c-3.448,0-5.944-0.869-7.68-2.551c-1.739-1.625-2.693-4.092-2.664-6.869c0.028-6.277,4.597-9.865,10.791-9.865
	c2.438,0,4.315,0.477,5.241,0.926l-0.896,3.42c-1.037-0.449-2.325-0.814-4.4-0.814c-3.559,0-6.249,2.02-6.249,6.111
	C60.368,73.067,62.807,75.366,66.31,75.366z M54.927,78.62H50.33l-1.46-4.85h-5.407l-1.347,4.85h-4.429l5.775-18.893h5.604
	L54.927,78.62z M28.688,71.862v6.758h-4.232V59.979c1.315-0.225,3.167-0.393,5.773-0.393c2.635,0,4.514,0.504,5.775,1.514
	c1.205,0.953,2.015,2.523,2.015,4.371c0,1.852-0.615,3.422-1.735,4.486c-1.457,1.373-3.616,1.988-6.139,1.988
	C29.584,71.946,29.079,71.921,28.688,71.862z M95.879,108.86h-66V89.593h66V108.86z M95.466,78.899
	c-2.157,0-4.287-0.561-5.353-1.148l0.868-3.533c1.149,0.588,2.914,1.178,4.736,1.178c1.962,0,2.999-0.813,2.999-2.045
	c0-1.178-0.895-1.852-3.165-2.664c-3.14-1.094-5.187-2.83-5.187-5.578c0-3.225,2.691-5.689,7.146-5.689
	c2.133,0,3.7,0.449,4.821,0.953l-0.952,3.447c-0.758-0.365-2.102-0.896-3.953-0.896c-1.85,0-2.746,0.842-2.746,1.822
	c0,1.205,1.065,1.736,3.503,2.662c3.338,1.232,4.905,2.971,4.905,5.635C103.09,76.208,100.652,78.899,95.466,78.899z"/>
<path d="M33.787,65.585c0-1.738-1.205-2.775-3.332-2.775c-0.871,0-1.46,0.084-1.768,0.168v5.578
	c0.363,0.084,0.813,0.111,1.428,0.111C32.388,68.667,33.787,67.519,33.787,65.585z"/>
</svg>
