<?xml version="1.0" encoding="utf-8"?>
<!-- Generator: Adobe Illustrator 16.0.0, SVG Export Plug-In . SVG Version: 6.00 Build 0)  -->
<!DOCTYPE svg PUBLIC "-//W3C//DTD SVG 1.1//EN" "http://www.w3.org/Graphics/SVG/1.1/DTD/svg11.dtd">
<svg version="1.1" id="Layer_1" xmlns="http://www.w3.org/2000/svg" xmlns:xlink="http://www.w3.org/1999/xlink" x="0px" y="0px"
	 width="126px" height="126px" viewBox="0 0 126 126" enable-background="new 0 0 126 126" xml:space="preserve">
<path d="M103.207,49.021h-2.449V37.203c0-0.074-0.012-0.148-0.021-0.223c-0.004-0.469-0.154-0.93-0.475-1.295L80.596,13.22
	c-0.006-0.006-0.012-0.008-0.016-0.014c-0.117-0.131-0.254-0.24-0.398-0.334c-0.043-0.029-0.086-0.053-0.131-0.078
	c-0.125-0.068-0.258-0.125-0.395-0.166c-0.037-0.01-0.07-0.025-0.107-0.035c-0.148-0.035-0.303-0.057-0.459-0.057H30.758
	c-2.207,0-4,1.795-4,4v32.484h-2.449c-3.157,0-5.717,2.559-5.717,5.717v29.73c0,3.156,2.56,5.717,5.717,5.717h2.449v20.352
	c0,2.205,1.793,4,4,4h66c2.205,0,4-1.795,4-4V90.185h2.449c3.157,0,5.717-2.561,5.717-5.717v-29.73
	C108.924,51.58,106.364,49.021,103.207,49.021z M30.758,16.537H77.09v20.465c0,1.105,0.896,2,2,2h17.668v10.02h-66V16.537z
	 M60.814,70.848c-4.963-1.729-8.199-4.475-8.199-8.817c0-5.097,4.254-8.997,11.301-8.997c3.367,0,5.848,0.709,7.623,1.507
	l-1.508,5.451c-1.197-0.577-3.322-1.419-6.25-1.419c-2.924,0-4.342,1.33-4.342,2.881c0,1.907,1.686,2.748,5.541,4.21
	c5.271,1.95,7.754,4.696,7.754,8.906c0,5.008-3.855,9.262-12.055,9.262c-3.41,0-6.777-0.887-8.463-1.818l1.375-5.583
	c1.816,0.931,4.607,1.861,7.488,1.861c3.102,0,4.74-1.284,4.74-3.234C65.82,73.197,64.402,72.134,60.814,70.848z M27.619,83.389
	V53.92c2.086-0.354,5.01-0.621,9.131-0.621c4.164,0,7.133,0.798,9.129,2.393c1.904,1.508,3.188,3.989,3.188,6.913
	c0,2.926-0.973,5.408-2.746,7.091c-2.305,2.171-5.717,3.145-9.703,3.145c-0.887,0-1.686-0.043-2.307-0.132v10.681H27.619z
	 M96.758,109.453h-66V90.185h66V109.453z M98.748,79.842c-3.146,2.616-7.93,3.857-13.781,3.857c-3.5,0-5.98-0.221-7.666-0.445V53.92
	c2.482-0.399,5.717-0.621,9.129-0.621c5.672,0,9.352,1.02,12.23,3.191c3.102,2.303,5.053,5.982,5.053,11.255
	C103.713,73.463,101.627,77.407,98.748,79.842z"/>
<path d="M87.139,58.484c-1.508,0-2.48,0.135-3.059,0.267v19.541c0.578,0.135,1.508,0.135,2.35,0.135
	c6.115,0.043,10.104-3.325,10.104-10.459C96.576,61.764,92.943,58.484,87.139,58.484z"/>
<path d="M42.379,62.783c0-2.749-1.908-4.388-5.275-4.388c-1.373,0-2.305,0.135-2.793,0.267v8.817
	c0.578,0.135,1.287,0.178,2.26,0.178C40.16,67.657,42.379,65.841,42.379,62.783z"/>
</svg>
