<?xml version="1.0" encoding="utf-8"?>
<!-- Generator: Adobe Illustrator 16.0.0, SVG Export Plug-In . SVG Version: 6.00 Build 0)  -->
<!DOCTYPE svg PUBLIC "-//W3C//DTD SVG 1.1//EN" "http://www.w3.org/Graphics/SVG/1.1/DTD/svg11.dtd">
<svg version="1.1" id="Layer_1" xmlns="http://www.w3.org/2000/svg" xmlns:xlink="http://www.w3.org/1999/xlink" x="0px" y="0px"
	 width="126px" height="126px" viewBox="0 0 126 126" enable-background="new 0 0 126 126" xml:space="preserve">
<path d="M42.5,55.819c0-2.586-1.793-4.129-4.962-4.129c-1.293,0-2.168,0.125-2.627,0.25v8.301c0.542,0.125,1.209,0.166,2.126,0.166
	C40.415,60.407,42.5,58.696,42.5,55.819z"/>
<path d="M102.616,41.617h-2.449V29.799c0-0.074-0.012-0.148-0.021-0.223c-0.004-0.469-0.154-0.93-0.475-1.295L80.004,5.816
	c-0.006-0.006-0.012-0.008-0.016-0.014c-0.117-0.131-0.254-0.24-0.398-0.334c-0.043-0.029-0.086-0.053-0.131-0.078
	c-0.125-0.068-0.258-0.125-0.395-0.166c-0.037-0.01-0.07-0.025-0.107-0.035c-0.148-0.035-0.303-0.057-0.459-0.057H30.167
	c-2.207,0-4,1.795-4,4v32.484h-2.449c-3.157,0-5.717,2.559-5.717,5.717v29.73c0,3.156,2.56,5.717,5.717,5.717h2.449v20.352
	c0,2.205,1.793,4,4,4h66c2.205,0,4-1.795,4-4V82.781h2.449c3.157,0,5.717-2.561,5.717-5.717v-29.73
	C108.333,44.176,105.773,41.617,102.616,41.617z M30.167,9.133h46.332v20.465c0,1.105,0.896,2,2,2h17.668v10.02h-66V9.133z
	 M75.865,75.21h-7.423l-6.881-12.135l-2.419,2.963v9.172h-6.297V47.104h6.297V59.53h0.125c0.625-1.084,1.292-2.084,1.918-3.084
	l6.38-9.342h7.798l-9.299,11.967L75.865,75.21z M28.613,75.21v-27.73c1.96-0.334,4.712-0.584,8.591-0.584
	c3.919,0,6.713,0.75,8.59,2.25c1.793,1.42,3.002,3.754,3.002,6.508c0,2.752-0.917,5.088-2.585,6.672
	c-2.168,2.043-5.379,2.959-9.132,2.959c-0.834,0-1.585-0.041-2.169-0.125V75.21H28.613z M96.167,102.049h-66V82.781h66V102.049z
	 M100.557,73.919c-1.96,0.666-5.672,1.584-9.383,1.584c-5.13,0-8.841-1.293-11.427-3.795c-2.585-2.42-4.003-6.088-3.962-10.217
	c0.042-9.342,6.84-14.68,16.056-14.68c3.628,0,6.422,0.709,7.798,1.377l-1.334,5.086c-1.543-0.666-3.462-1.209-6.547-1.209
	c-5.296,0-9.3,3.004-9.3,9.092c0,5.797,3.628,9.215,8.841,9.215c1.459,0,2.627-0.166,3.127-0.416v-5.881h-4.337v-4.961h10.467
	V73.919z"/>
</svg>
