<?xml version="1.0" encoding="utf-8"?>
<!-- Generator: Adobe Illustrator 16.0.0, SVG Export Plug-In . SVG Version: 6.00 Build 0)  -->
<!DOCTYPE svg PUBLIC "-//W3C//DTD SVG 1.1//EN" "http://www.w3.org/Graphics/SVG/1.1/DTD/svg11.dtd">
<svg version="1.1" id="Layer_1" xmlns="http://www.w3.org/2000/svg" xmlns:xlink="http://www.w3.org/1999/xlink" x="0px" y="0px"
	 width="126px" height="126px" viewBox="0 0 126 126" enable-background="new 0 0 126 126" xml:space="preserve">
<path d="M39.054,63.685c0-2.592-1.798-4.139-4.979-4.139c-1.294,0-2.171,0.125-2.63,0.251v8.32c0.543,0.125,1.211,0.166,2.133,0.166
	C36.962,68.284,39.054,66.569,39.054,63.685z"/>
<path d="M102.328,48.928h-2.449V37.11c0-0.074-0.012-0.148-0.021-0.223c-0.004-0.469-0.154-0.93-0.475-1.295L79.717,13.127
	c-0.006-0.006-0.012-0.008-0.016-0.014c-0.117-0.131-0.254-0.24-0.398-0.334c-0.043-0.029-0.086-0.053-0.131-0.078
	c-0.125-0.068-0.258-0.125-0.395-0.166c-0.037-0.01-0.07-0.025-0.107-0.035c-0.148-0.035-0.303-0.057-0.459-0.057H29.879
	c-2.207,0-4,1.795-4,4v32.484H23.43c-3.157,0-5.717,2.559-5.717,5.717v29.73c0,3.156,2.56,5.717,5.717,5.717h2.449v20.352
	c0,2.205,1.793,4,4,4h66c2.205,0,4-1.795,4-4V90.092h2.449c3.157,0,5.717-2.561,5.717-5.717v-29.73
	C108.045,51.487,105.485,48.928,102.328,48.928z M29.879,16.444h46.332v20.465c0,1.105,0.896,2,2,2h17.668v10.02h-66V16.444z
	 M55.276,74.639v8.487h-5.852V54.947h7.441l5.854,10.326c1.671,2.969,3.345,6.479,4.598,9.658h0.125
	c-0.419-3.722-0.544-7.526-0.544-11.748v-8.236h5.855v28.179h-6.689l-6.021-10.87c-1.676-3.011-3.513-6.647-4.896-9.95l-0.123,0.041
	C55.195,66.069,55.276,70.04,55.276,74.639z M25.13,83.126V55.324c1.965-0.334,4.725-0.585,8.612-0.585
	c3.929,0,6.732,0.752,8.613,2.258c1.796,1.421,3.01,3.762,3.01,6.522c0,2.759-0.918,5.101-2.592,6.689
	c-2.174,2.049-5.393,2.97-9.156,2.97c-0.837,0-1.591-0.043-2.173-0.126v10.076H25.13z M95.879,109.36h-66V90.092h66V109.36z
	 M101.814,81.83c-1.965,0.668-5.687,1.589-9.408,1.589c-5.141,0-8.865-1.296-11.455-3.805c-2.592-2.425-4.016-6.104-3.972-10.243
	c0.04-9.365,6.857-14.716,16.095-14.716c3.638,0,6.441,0.709,7.819,1.379l-1.337,5.101c-1.549-0.67-3.472-1.213-6.566-1.213
	c-5.307,0-9.322,3.01-9.322,9.114c0,5.812,3.638,9.24,8.865,9.24c1.462,0,2.633-0.167,3.136-0.418v-5.896h-4.35v-4.975h10.495V81.83
	z"/>
</svg>
