<?xml version="1.0" encoding="utf-8"?>
<!-- Generator: Adobe Illustrator 16.0.0, SVG Export Plug-In . SVG Version: 6.00 Build 0)  -->
<!DOCTYPE svg PUBLIC "-//W3C//DTD SVG 1.1//EN" "http://www.w3.org/Graphics/SVG/1.1/DTD/svg11.dtd">
<svg version="1.1" id="Layer_1" xmlns="http://www.w3.org/2000/svg" xmlns:xlink="http://www.w3.org/1999/xlink" x="0px" y="0px"
	 width="126px" height="126px" viewBox="0 0 126 126" enable-background="new 0 0 126 126" xml:space="preserve">
<path d="M103.207,48.521h-2.449V36.703c0-0.074-0.012-0.148-0.021-0.223c-0.004-0.469-0.154-0.93-0.475-1.295L80.596,12.721
	c-0.006-0.006-0.012-0.008-0.016-0.014c-0.117-0.131-0.254-0.24-0.398-0.334c-0.043-0.029-0.086-0.053-0.131-0.078
	c-0.125-0.068-0.258-0.125-0.395-0.166c-0.037-0.01-0.07-0.025-0.107-0.035c-0.148-0.035-0.303-0.057-0.459-0.057H30.758
	c-2.207,0-4,1.795-4,4v32.484h-2.449c-3.157,0-5.717,2.559-5.717,5.717v29.73c0,3.156,2.56,5.717,5.717,5.717h2.449v20.352
	c0,2.205,1.793,4,4,4h66c2.205,0,4-1.795,4-4V89.686h2.449c3.157,0,5.717-2.561,5.717-5.717v-29.73
	C108.924,51.08,106.364,48.521,103.207,48.521z M96.758,108.953h-66V89.686h66V108.953z M32.071,81.503V54.759
	c1.891-0.322,4.545-0.564,8.283-0.564c3.782,0,6.476,0.725,8.286,2.172c1.729,1.367,2.895,3.621,2.895,6.273
	c0,2.654-0.885,4.908-2.493,6.436c-2.09,1.971-5.187,2.855-8.808,2.855c-0.803,0-1.526-0.039-2.089-0.119v9.691H32.071z
	 M55.442,81.503V54.759c1.891-0.322,4.545-0.564,8.283-0.564c3.782,0,6.476,0.725,8.286,2.172c1.729,1.367,2.895,3.621,2.895,6.273
	c0,2.654-0.885,4.908-2.493,6.436c-2.09,1.971-5.187,2.855-8.808,2.855c-0.803,0-1.526-0.039-2.089-0.119v9.691H55.442z
	 M85.57,70.122c-4.504-1.568-7.442-4.063-7.442-8.004c0-4.625,3.862-8.164,10.258-8.164c3.056,0,5.307,0.643,6.915,1.367
	l-1.365,4.947c-1.087-0.523-3.018-1.287-5.673-1.287c-2.654,0-3.94,1.207-3.94,2.613c0,1.73,1.529,2.494,5.027,3.822
	c4.785,1.77,7.038,4.262,7.038,8.082c0,4.545-3.498,8.406-10.94,8.406c-3.095,0-6.15-0.805-7.68-1.648l1.246-5.068
	c1.649,0.844,4.184,1.689,6.797,1.689c2.815,0,4.304-1.166,4.304-2.936C90.114,72.253,88.825,71.288,85.57,70.122z M96.758,48.521
	h-66V16.037H77.09v20.465c0,1.105,0.896,2,2,2h17.668V48.521z"/>
<path d="M45.464,62.802c0-2.494-1.729-3.982-4.787-3.982c-1.245,0-2.089,0.121-2.531,0.242v8.004c0.521,0.121,1.166,0.16,2.051,0.16
	C43.452,67.226,45.464,65.577,45.464,62.802z"/>
<path d="M68.835,62.802c0-2.494-1.729-3.982-4.787-3.982c-1.245,0-2.089,0.121-2.531,0.242v8.004c0.521,0.121,1.166,0.16,2.051,0.16
	C66.823,67.226,68.835,65.577,68.835,62.802z"/>
</svg>
