<?xml version="1.0" encoding="utf-8"?>
<!-- Generator: Adobe Illustrator 16.0.0, SVG Export Plug-In . SVG Version: 6.00 Build 0)  -->
<!DOCTYPE svg PUBLIC "-//W3C//DTD SVG 1.1//EN" "http://www.w3.org/Graphics/SVG/1.1/DTD/svg11.dtd">
<svg version="1.1" id="Layer_1" xmlns="http://www.w3.org/2000/svg" xmlns:xlink="http://www.w3.org/1999/xlink" x="0px" y="0px"
	 width="126px" height="126px" viewBox="0 0 126 126" enable-background="new 0 0 126 126" xml:space="preserve">
<path d="M55.729,62.639c0-2.748-1.906-4.388-5.275-4.388c-1.373,0-2.303,0.135-2.791,0.267v8.817
	c0.576,0.135,1.287,0.178,2.26,0.178C53.512,67.512,55.729,65.697,55.729,62.639z"/>
<path d="M103.207,49.021h-2.449V37.203c0-0.074-0.012-0.148-0.021-0.223c-0.004-0.469-0.154-0.93-0.475-1.295L80.596,13.22
	c-0.006-0.006-0.012-0.008-0.016-0.014c-0.117-0.131-0.254-0.24-0.398-0.334c-0.043-0.029-0.086-0.053-0.131-0.078
	c-0.125-0.068-0.258-0.125-0.395-0.166c-0.037-0.01-0.07-0.025-0.107-0.035c-0.148-0.035-0.303-0.057-0.459-0.057H30.758
	c-2.207,0-4,1.795-4,4v32.484h-2.449c-3.157,0-5.717,2.559-5.717,5.717v29.73c0,3.156,2.56,5.717,5.717,5.717h2.449v20.352
	c0,2.205,1.793,4,4,4h66c2.205,0,4-1.795,4-4V90.185h2.449c3.157,0,5.717-2.561,5.717-5.717v-29.73
	C108.924,51.58,106.364,49.021,103.207,49.021z M96.758,109.453h-66V90.185h66V109.453z M40.971,83.245V53.776
	c2.084-0.354,5.008-0.62,9.129-0.62c4.166,0,7.135,0.798,9.131,2.392c1.904,1.508,3.188,3.989,3.188,6.913
	c0,2.926-0.975,5.407-2.746,7.09c-2.305,2.171-5.717,3.145-9.703,3.145c-0.889,0-1.686-0.043-2.307-0.132v10.681H40.971z
	 M74.166,70.703c-4.963-1.729-8.199-4.475-8.199-8.817c0-5.098,4.254-8.998,11.301-8.998c3.367,0,5.848,0.709,7.619,1.508
	l-1.504,5.451c-1.197-0.577-3.324-1.418-6.25-1.418c-2.924,0-4.342,1.33-4.342,2.88c0,1.907,1.686,2.748,5.539,4.21
	c5.273,1.95,7.754,4.696,7.754,8.906c0,5.008-3.854,9.262-12.053,9.262c-3.412,0-6.777-0.887-8.463-1.818l1.375-5.583
	c1.814,0.931,4.607,1.861,7.486,1.861c3.104,0,4.742-1.284,4.742-3.234C79.172,73.052,77.754,71.989,74.166,70.703z M96.758,49.021
	h-66V16.537H77.09v20.465c0,1.105,0.896,2,2,2h17.668V49.021z"/>
</svg>
