<?xml version="1.0" encoding="utf-8"?>
<!-- Generator: Adobe Illustrator 16.0.0, SVG Export Plug-In . SVG Version: 6.00 Build 0)  -->
<!DOCTYPE svg PUBLIC "-//W3C//DTD SVG 1.1//EN" "http://www.w3.org/Graphics/SVG/1.1/DTD/svg11.dtd">
<svg version="1.1" id="Layer_1" xmlns="http://www.w3.org/2000/svg" xmlns:xlink="http://www.w3.org/1999/xlink" x="0px" y="0px"
	 width="126px" height="126px" viewBox="0 0 126 126" enable-background="new 0 0 126 126" xml:space="preserve">
<path d="M55.488,55.188c0-2.584-1.793-4.129-4.962-4.129c-1.293,0-2.168,0.125-2.627,0.25v8.301
	c0.542,0.125,1.209,0.166,2.126,0.166C53.403,59.775,55.488,58.066,55.488,55.188z"/>
<path d="M102.616,41.617h-2.449V29.799c0-0.074-0.012-0.148-0.021-0.223c-0.004-0.469-0.154-0.93-0.475-1.295L80.004,5.816
	c-0.006-0.006-0.012-0.008-0.016-0.014c-0.117-0.131-0.254-0.24-0.398-0.334c-0.043-0.029-0.086-0.053-0.131-0.078
	c-0.125-0.068-0.258-0.125-0.395-0.166c-0.037-0.01-0.07-0.025-0.107-0.035c-0.148-0.035-0.303-0.057-0.459-0.057H30.167
	c-2.207,0-4,1.795-4,4v32.484h-2.449c-3.157,0-5.717,2.559-5.717,5.717v29.73c0,3.156,2.56,5.717,5.717,5.717h2.449v20.352
	c0,2.205,1.793,4,4,4h66c2.205,0,4-1.795,4-4V82.781h2.449c3.157,0,5.717-2.561,5.717-5.717v-29.73
	C108.333,44.176,105.773,41.617,102.616,41.617z M96.167,102.049h-66V82.781h66V102.049z M41.602,74.58V46.85
	c1.96-0.334,4.712-0.586,8.591-0.586c3.919,0,6.713,0.752,8.59,2.252c1.793,1.418,3.002,3.752,3.002,6.506s-0.917,5.088-2.585,6.672
	c-2.168,2.045-5.379,2.961-9.133,2.961c-0.834,0-1.584-0.041-2.168-0.125V74.58H41.602z M62.623,46.475h7.256l2.877,6.754
	c0.876,2.043,1.46,3.543,2.169,5.381h0.083c0.625-1.754,1.292-3.379,2.127-5.381l2.835-6.754h7.131l-9.258,16.389V74.58h-6.338
	V63.068L62.623,46.475z M96.167,41.617h-66V9.133h46.332v20.465c0,1.105,0.896,2,2,2h17.668V41.617z"/>
</svg>
