<?xml version="1.0" encoding="utf-8"?>
<!-- Generator: Adobe Illustrator 16.0.0, SVG Export Plug-In . SVG Version: 6.00 Build 0)  -->
<!DOCTYPE svg PUBLIC "-//W3C//DTD SVG 1.1//EN" "http://www.w3.org/Graphics/SVG/1.1/DTD/svg11.dtd">
<svg version="1.1" id="Layer_1" xmlns="http://www.w3.org/2000/svg" xmlns:xlink="http://www.w3.org/1999/xlink" x="0px" y="0px"
	 width="126px" height="126px" viewBox="0 0 126 126" enable-background="new 0 0 126 126" xml:space="preserve">
<path d="M61.333,58.964c-1.44,0-2.373,0.127-2.927,0.254v18.693c0.554,0.127,1.44,0.127,2.248,0.127
	c5.851,0.043,9.666-3.18,9.666-10.004C70.361,62.099,66.887,58.964,61.333,58.964z"/>
<path d="M103.207,48.521h-2.449V36.703c0-0.074-0.012-0.148-0.021-0.223c-0.004-0.469-0.154-0.93-0.475-1.295L80.596,12.721
	c-0.006-0.006-0.012-0.008-0.016-0.014c-0.117-0.131-0.254-0.24-0.398-0.334c-0.043-0.029-0.086-0.053-0.131-0.078
	c-0.125-0.068-0.258-0.125-0.395-0.166c-0.037-0.01-0.07-0.025-0.107-0.035c-0.148-0.035-0.303-0.057-0.459-0.057H30.758
	c-2.207,0-4,1.795-4,4v32.484h-2.449c-3.157,0-5.717,2.559-5.717,5.717v29.73c0,3.156,2.56,5.717,5.717,5.717h2.449v20.352
	c0,2.205,1.793,4,4,4h66c2.205,0,4-1.795,4-4V89.686h2.449c3.157,0,5.717-2.561,5.717-5.717v-29.73
	C108.924,51.08,106.364,48.521,103.207,48.521z M30.758,16.037H77.09v20.465c0,1.105,0.896,2,2,2h17.668v10.02h-66V16.037z
	 M77.185,67.821c0,5.469-1.99,9.242-4.746,11.574c-3.01,2.498-7.588,3.686-13.184,3.686c-3.347,0-5.723-0.211-7.331-0.422V54.599
	c2.371-0.383,5.468-0.596,8.73-0.596c5.425,0,8.944,0.977,11.7,3.053C75.321,59.261,77.185,62.778,77.185,67.821z M27.926,81.472
	l1.314-5.342c1.739,0.891,4.41,1.781,7.163,1.781c2.967,0,4.535-1.229,4.535-3.094c0-1.781-1.356-2.799-4.79-4.027
	c-4.746-1.654-7.841-4.281-7.841-8.438c0-4.875,4.07-8.602,10.808-8.602c3.225,0,5.596,0.678,7.291,1.439l-1.438,5.215
	c-1.146-0.551-3.181-1.357-5.979-1.357c-2.796,0-4.152,1.271-4.152,2.756c0,1.822,1.61,2.627,5.299,4.027
	c5.042,1.865,7.418,4.492,7.418,8.52c0,4.787-3.688,8.859-11.529,8.859C32.759,83.21,29.536,82.362,27.926,81.472z M96.758,108.953
	h-66V89.686h66V108.953z M98.895,59.515H87.916v6.527h10.26v5.256h-10.26v11.486h-6.484V54.216h17.463V59.515z"/>
</svg>
