<?xml version="1.0" encoding="utf-8"?>
<!-- Generator: Adobe Illustrator 16.0.0, SVG Export Plug-In . SVG Version: 6.00 Build 0)  -->
<!DOCTYPE svg PUBLIC "-//W3C//DTD SVG 1.1//EN" "http://www.w3.org/Graphics/SVG/1.1/DTD/svg11.dtd">
<svg version="1.1" id="Layer_1" xmlns="http://www.w3.org/2000/svg" xmlns:xlink="http://www.w3.org/1999/xlink" x="0px" y="0px"
	 width="126px" height="126px" viewBox="0 0 126 126" enable-background="new 0 0 126 126" xml:space="preserve">
<g>
	<path d="M63.398,57.892c-4.572,0-7.207,4.481-7.207,10.02c-0.045,5.623,2.68,9.931,7.162,9.931c4.525,0,7.164-4.264,7.164-10.063
		C70.518,62.373,67.967,57.892,63.398,57.892z"/>
	<path d="M102.494,48.944h-2.449V37.126c0-0.074-0.012-0.148-0.021-0.223c-0.004-0.469-0.154-0.93-0.475-1.295L79.883,13.144
		c-0.006-0.006-0.012-0.008-0.016-0.014c-0.117-0.131-0.254-0.24-0.398-0.334c-0.043-0.029-0.086-0.053-0.131-0.078
		c-0.125-0.068-0.258-0.125-0.395-0.166c-0.037-0.01-0.07-0.025-0.107-0.035c-0.148-0.035-0.303-0.057-0.459-0.057H30.045
		c-2.207,0-4,1.795-4,4v32.484h-2.449c-3.156,0-5.717,2.559-5.717,5.717v29.73c0,3.156,2.561,5.717,5.717,5.717h2.449v20.352
		c0,2.205,1.793,4,4,4h66c2.205,0,4-1.795,4-4V90.108h2.449c3.158,0,5.717-2.561,5.717-5.717v-29.73
		C108.211,51.503,105.652,48.944,102.494,48.944z M30.045,16.46h46.332v20.465c0,1.105,0.896,2,2,2h17.668v10.02h-66V16.46z
		 M77.721,82.587l-1.934,5.187c-4.217-1.231-7.732-2.508-11.688-4.176c-0.656-0.263-1.361-0.396-2.064-0.439
		c-6.68-0.438-12.92-5.361-12.92-15.027c0-8.876,5.625-15.557,14.457-15.557c9.055,0,14.018,6.856,14.018,14.941
		c0,6.724-3.119,11.468-7.029,13.226v0.176C72.846,81.576,75.393,82.104,77.721,82.587z M25.609,81.313l1.363-5.536
		c1.803,0.922,4.568,1.844,7.426,1.844c3.074,0,4.701-1.272,4.701-3.205c0-1.846-1.406-2.902-4.965-4.175
		c-4.922-1.714-8.129-4.438-8.129-8.746c0-5.053,4.219-8.92,11.205-8.92c3.34,0,5.801,0.705,7.557,1.494l-1.492,5.406
		c-1.186-0.572-3.295-1.407-6.195-1.407c-2.902,0-4.309,1.317-4.309,2.857c0,1.888,1.67,2.725,5.494,4.175
		c5.229,1.934,7.689,4.656,7.689,8.831c0,4.966-3.824,9.183-11.953,9.183C30.619,83.113,27.281,82.234,25.609,81.313z
		 M96.045,109.376h-66V90.108h66V109.376z M100.482,82.674H81.98V53.058h6.727v23.993h11.775V82.674z"/>
</g>
</svg>
