<?xml version="1.0" encoding="utf-8"?>
<!-- Generator: Adobe Illustrator 16.0.0, SVG Export Plug-In . SVG Version: 6.00 Build 0)  -->
<!DOCTYPE svg PUBLIC "-//W3C//DTD SVG 1.1//EN" "http://www.w3.org/Graphics/SVG/1.1/DTD/svg11.dtd">
<svg version="1.1" id="Layer_1" xmlns="http://www.w3.org/2000/svg" xmlns:xlink="http://www.w3.org/1999/xlink" x="0px" y="0px"
	 width="126px" height="126px" viewBox="0 0 126 126" enable-background="new 0 0 126 126" xml:space="preserve">
<path d="M102.328,48.928h-2.449V37.11c0-0.074-0.012-0.148-0.021-0.223c-0.004-0.469-0.154-0.93-0.475-1.295L79.717,13.127
	c-0.006-0.006-0.012-0.008-0.016-0.014c-0.117-0.131-0.254-0.24-0.398-0.334c-0.043-0.029-0.086-0.053-0.131-0.078
	c-0.125-0.068-0.258-0.125-0.395-0.166c-0.037-0.01-0.07-0.025-0.107-0.035c-0.148-0.035-0.303-0.057-0.459-0.057H29.879
	c-2.207,0-4,1.795-4,4v32.484H23.43c-3.157,0-5.717,2.559-5.717,5.717v29.73c0,3.156,2.56,5.717,5.717,5.717h2.449v20.352
	c0,2.205,1.793,4,4,4h66c2.205,0,4-1.795,4-4V90.092h2.449c3.157,0,5.717-2.561,5.717-5.717v-29.73
	C108.045,51.487,105.485,48.928,102.328,48.928z M29.879,16.444h46.332v20.465c0,1.105,0.896,2,2,2h17.668v10.02h-66V16.444z
	 M78.021,83.407l-1.95,5.229c-4.253-1.241-7.797-2.525-11.786-4.21c-0.664-0.264-1.373-0.399-2.082-0.442
	c-6.735-0.442-13.027-5.405-13.027-15.155c0-8.952,5.672-15.687,14.578-15.687c9.129,0,14.136,6.913,14.136,15.066
	c0,6.781-3.146,11.565-7.091,13.337v0.178C73.104,82.39,75.674,82.921,78.021,83.407z M25.465,82.123l1.373-5.583
	c1.815,0.93,4.608,1.861,7.487,1.861c3.104,0,4.741-1.286,4.741-3.236c0-1.861-1.416-2.924-5.006-4.208
	c-4.963-1.729-8.199-4.477-8.199-8.82c0-5.095,4.256-8.995,11.301-8.995c3.368,0,5.85,0.709,7.622,1.506l-1.508,5.45
	c-1.195-0.575-3.322-1.417-6.246-1.417c-2.927,0-4.343,1.329-4.343,2.879c0,1.906,1.683,2.747,5.537,4.209
	c5.273,1.95,7.757,4.698,7.757,8.908c0,5.006-3.856,9.262-12.054,9.262C30.514,83.941,27.147,83.054,25.465,82.123z M95.879,109.36
	h-66V90.092h66V109.36z M100.979,83.496H82.322V53.63h6.78v24.193h11.876V83.496z"/>
<path d="M63.575,58.504c-4.607,0-7.267,4.52-7.267,10.104c-0.046,5.672,2.702,10.014,7.223,10.014c4.563,0,7.224-4.299,7.224-10.146
	C70.755,63.024,68.185,58.504,63.575,58.504z"/>
</svg>
