<?xml version="1.0" encoding="utf-8"?>
<!-- Generator: Adobe Illustrator 16.0.0, SVG Export Plug-In . SVG Version: 6.00 Build 0)  -->
<!DOCTYPE svg PUBLIC "-//W3C//DTD SVG 1.1//EN" "http://www.w3.org/Graphics/SVG/1.1/DTD/svg11.dtd">
<svg version="1.1" id="Layer_1" xmlns="http://www.w3.org/2000/svg" xmlns:xlink="http://www.w3.org/1999/xlink" x="0px" y="0px"
	 width="126px" height="126px" viewBox="0 0 126 126" enable-background="new 0 0 126 126" xml:space="preserve">
<path d="M101.487,41.505h-2.449V29.687c0-0.074-0.012-0.148-0.021-0.223c-0.004-0.469-0.154-0.93-0.475-1.295L78.875,5.704
	C78.87,5.698,78.864,5.696,78.86,5.69c-0.117-0.131-0.254-0.24-0.398-0.334c-0.043-0.029-0.086-0.053-0.131-0.078
	c-0.125-0.068-0.258-0.125-0.395-0.166c-0.037-0.01-0.07-0.025-0.107-0.035c-0.148-0.035-0.303-0.057-0.459-0.057H29.038
	c-2.207,0-4,1.795-4,4v32.484h-2.449c-3.157,0-5.717,2.559-5.717,5.717v29.73c0,3.156,2.56,5.717,5.717,5.717h2.449v20.352
	c0,2.205,1.793,4,4,4h66c2.205,0,4-1.795,4-4V82.669h2.449c3.157,0,5.717-2.561,5.717-5.717v-29.73
	C107.204,44.063,104.644,41.505,101.487,41.505z M29.038,9.021H75.37v20.465c0,1.105,0.896,2,2,2h17.668v10.02h-66V9.021z
	 M50.578,47.538h7.257l2.877,6.754c0.875,2.043,1.459,3.543,2.168,5.381h0.085c0.625-1.752,1.291-3.379,2.125-5.381l2.836-6.754
	h7.132l-9.258,16.389v11.717H59.46v-11.51L50.578,47.538z M37.439,63.843c-4.671-1.627-7.716-4.213-7.716-8.299
	c0-4.797,4.003-8.465,10.635-8.465c3.169,0,5.505,0.666,7.172,1.416l-1.417,5.131c-1.127-0.543-3.127-1.334-5.88-1.334
	c-2.754,0-4.088,1.25-4.088,2.709c0,1.793,1.585,2.584,5.213,3.963c4.963,1.834,7.299,4.42,7.299,8.381
	c0,4.713-3.629,8.717-11.343,8.717c-3.212,0-6.382-0.834-7.966-1.709l1.293-5.256c1.71,0.875,4.338,1.752,7.048,1.752
	c2.919,0,4.462-1.209,4.462-3.045C42.151,66.052,40.817,65.052,37.439,63.843z M95.038,101.937h-66V82.669h66V101.937z
	 M83.777,76.062c-3.212,0-6.382-0.834-7.966-1.709l1.293-5.256c1.71,0.875,4.337,1.752,7.048,1.752c2.919,0,4.462-1.209,4.462-3.045
	c0-1.752-1.335-2.752-4.712-3.961c-4.672-1.627-7.716-4.213-7.716-8.299c0-4.797,4.003-8.465,10.635-8.465
	c3.169,0,5.504,0.666,7.173,1.416l-1.419,5.131c-1.125-0.543-3.127-1.334-5.879-1.334c-2.753,0-4.088,1.25-4.088,2.709
	c0,1.793,1.585,2.584,5.213,3.963c4.963,1.834,7.298,4.42,7.298,8.381C95.119,72.058,91.491,76.062,83.777,76.062z"/>
</svg>
