<?xml version="1.0" encoding="utf-8"?>
<!-- Generator: Adobe Illustrator 16.0.0, SVG Export Plug-In . SVG Version: 6.00 Build 0)  -->
<!DOCTYPE svg PUBLIC "-//W3C//DTD SVG 1.1//EN" "http://www.w3.org/Graphics/SVG/1.1/DTD/svg11.dtd">
<svg version="1.1" id="Layer_1" xmlns="http://www.w3.org/2000/svg" xmlns:xlink="http://www.w3.org/1999/xlink" x="0px" y="0px"
	 width="126px" height="126px" viewBox="0 0 126 126" enable-background="new 0 0 126 126" xml:space="preserve">
<path d="M103.207,49.021h-2.449V37.203c0-0.074-0.012-0.148-0.021-0.223c-0.004-0.469-0.154-0.93-0.475-1.295L80.596,13.22
	c-0.006-0.006-0.012-0.008-0.016-0.014c-0.117-0.131-0.254-0.24-0.398-0.334c-0.043-0.029-0.086-0.053-0.131-0.078
	c-0.125-0.068-0.258-0.125-0.395-0.166c-0.037-0.01-0.07-0.025-0.107-0.035c-0.148-0.035-0.303-0.057-0.459-0.057H30.758
	c-2.207,0-4,1.795-4,4v32.484h-2.449c-3.157,0-5.717,2.559-5.717,5.717v29.73c0,3.156,2.56,5.717,5.717,5.717h2.449v20.352
	c0,2.205,1.793,4,4,4h66c2.205,0,4-1.795,4-4V90.185h2.449c3.157,0,5.717-2.561,5.717-5.717v-29.73
	C108.924,51.58,106.364,49.021,103.207,49.021z M30.758,16.537H77.09v20.465c0,1.105,0.896,2,2,2h17.668v10.02h-66V16.537z
	 M75.039,84.727h-7.269l-2.303-7.666h-8.553l-2.128,7.666h-7.002l9.13-29.865h8.862L75.039,84.727z M26.603,60.534v-5.672h22.955
	v5.672h-8.153v24.193h-6.781V60.534H26.603z M96.758,109.453h-66V90.185h66V109.453z M94.672,84.727
	c-0.486-0.842-1.195-3.281-2.082-6.957c-0.799-3.721-2.083-4.74-4.831-4.787H85.72v11.744h-6.688V55.26
	c2.171-0.355,5.404-0.623,8.994-0.623c4.432,0,7.533,0.666,9.661,2.35c1.772,1.418,2.746,3.5,2.746,6.248
	c0,3.813-2.702,6.426-5.272,7.355v0.133c2.082,0.844,3.236,2.838,3.988,5.586c0.931,3.365,1.861,7.266,2.436,8.418H94.672z"/>
<path d="M88.778,59.645c-1.64,0-2.57,0.133-3.059,0.223v8.242h2.659c3.369,0,5.362-1.684,5.362-4.299
	C93.741,61.065,91.88,59.69,88.778,59.645z"/>
<path d="M62.63,65.67c-0.531-1.771-1.063-3.986-1.505-5.758h-0.089c-0.442,1.771-0.888,4.033-1.373,5.758l-1.774,6.34h6.603
	L62.63,65.67z"/>
</svg>
