<?xml version="1.0" encoding="utf-8"?>
<!-- Generator: Adobe Illustrator 16.0.0, SVG Export Plug-In . SVG Version: 6.00 Build 0)  -->
<!DOCTYPE svg PUBLIC "-//W3C//DTD SVG 1.1//EN" "http://www.w3.org/Graphics/SVG/1.1/DTD/svg11.dtd">
<svg version="1.1" id="Layer_1" xmlns="http://www.w3.org/2000/svg" xmlns:xlink="http://www.w3.org/1999/xlink" x="0px" y="0px"
	 width="126px" height="126px" viewBox="0 0 126 126" enable-background="new 0 0 126 126" xml:space="preserve">
<path d="M102.328,48.429h-2.449V36.61c0-0.074-0.012-0.148-0.021-0.223c-0.004-0.469-0.154-0.93-0.475-1.295L79.717,12.628
	c-0.006-0.006-0.012-0.008-0.016-0.014c-0.117-0.131-0.254-0.24-0.398-0.334c-0.043-0.029-0.086-0.053-0.131-0.078
	c-0.125-0.068-0.258-0.125-0.395-0.166c-0.037-0.01-0.07-0.025-0.107-0.035c-0.148-0.035-0.303-0.057-0.459-0.057H29.879
	c-2.207,0-4,1.795-4,4v32.484H23.43c-3.157,0-5.717,2.559-5.717,5.717v29.73c0,3.156,2.56,5.717,5.717,5.717h2.449v20.352
	c0,2.205,1.793,4,4,4h66c2.205,0,4-1.795,4-4V89.593h2.449c3.157,0,5.717-2.561,5.717-5.717v-29.73
	C108.045,50.987,105.485,48.429,102.328,48.429z M28.066,59.915v-5.148h20.832v5.148h-7.4v21.959h-6.152V59.915H28.066z
	 M95.879,108.86h-66V89.593h66V108.86z M68.288,65.425v4.986h-9.974v6.436h11.14v5.027H52.162V54.767h16.729v5.027H58.314v5.631
	H68.288z M71.912,54.767h7.037l2.373,4.947c0.806,1.648,1.409,2.977,2.052,4.504h0.081c0.643-1.729,1.166-2.936,1.85-4.504
	l2.291-4.947h6.999l-7.641,13.232l8.043,13.875h-7.079l-2.452-4.906c-1.005-1.893-1.649-3.299-2.414-4.867h-0.079
	c-0.563,1.568-1.248,2.975-2.093,4.867l-2.253,4.906h-6.996l7.843-13.715L71.912,54.767z M95.879,48.429h-66V15.944h46.332v20.465
	c0,1.105,0.896,2,2,2h17.668V48.429z"/>
</svg>
