<?xml version="1.0" encoding="utf-8"?>
<!-- Generator: Adobe Illustrator 16.0.0, SVG Export Plug-In . SVG Version: 6.00 Build 0)  -->
<!DOCTYPE svg PUBLIC "-//W3C//DTD SVG 1.1//EN" "http://www.w3.org/Graphics/SVG/1.1/DTD/svg11.dtd">
<svg version="1.1" id="Layer_1" xmlns="http://www.w3.org/2000/svg" xmlns:xlink="http://www.w3.org/1999/xlink" x="0px" y="0px"
	 width="126px" height="126px" viewBox="0 0 126 126" enable-background="new 0 0 126 126" xml:space="preserve">
<path d="M101.486,41.505h-2.449V29.687c0-0.074-0.012-0.148-0.021-0.223c-0.004-0.469-0.154-0.93-0.475-1.295L78.875,5.704
	c-0.006-0.006-0.012-0.008-0.016-0.014c-0.117-0.131-0.254-0.24-0.398-0.334c-0.043-0.029-0.086-0.053-0.131-0.078
	c-0.125-0.068-0.258-0.125-0.395-0.166c-0.037-0.01-0.07-0.025-0.107-0.035c-0.148-0.035-0.303-0.057-0.459-0.057H29.037
	c-2.207,0-4,1.795-4,4v32.484h-2.449c-3.156,0-5.717,2.559-5.717,5.717v29.73c0,3.156,2.561,5.717,5.717,5.717h2.449v20.352
	c0,2.205,1.793,4,4,4h66c2.205,0,4-1.795,4-4V82.669h2.449c3.158,0,5.717-2.561,5.717-5.717v-29.73
	C107.203,44.063,104.645,41.505,101.486,41.505z M29.037,9.021h46.332v20.465c0,1.105,0.896,2,2,2h17.668v10.02h-66V9.021z
	 M53.996,53.422v-5.338h21.602v5.338h-7.672v22.768h-6.381V53.422H53.996z M30.225,53.422v-5.338h21.602v5.338h-7.674v22.768h-6.381
	V53.422H30.225z M95.037,101.937h-66V82.669h66V101.937z M96.16,53.297H85.359v6.42h10.092v5.172H85.359v11.301h-6.381V48.084H96.16
	V53.297z"/>
</svg>
