<?xml version="1.0" encoding="utf-8"?>
<!-- Generator: Adobe Illustrator 16.0.0, SVG Export Plug-In . SVG Version: 6.00 Build 0)  -->
<!DOCTYPE svg PUBLIC "-//W3C//DTD SVG 1.1//EN" "http://www.w3.org/Graphics/SVG/1.1/DTD/svg11.dtd">
<svg version="1.1" id="Layer_1" xmlns="http://www.w3.org/2000/svg" xmlns:xlink="http://www.w3.org/1999/xlink" x="0px" y="0px"
	 width="126px" height="126px" viewBox="0 0 126 126" enable-background="new 0 0 126 126" xml:space="preserve">
<path d="M102.365,41.598h-2.449V29.779c0-0.074-0.012-0.148-0.021-0.223c-0.004-0.469-0.154-0.93-0.475-1.295L79.754,5.797
	c-0.006-0.006-0.012-0.008-0.016-0.014c-0.117-0.131-0.254-0.24-0.398-0.334c-0.043-0.029-0.086-0.053-0.131-0.078
	c-0.125-0.068-0.258-0.125-0.395-0.166c-0.037-0.01-0.07-0.025-0.107-0.035c-0.148-0.035-0.303-0.057-0.459-0.057H29.916
	c-2.207,0-4,1.795-4,4v32.484h-2.449c-3.156,0-5.717,2.559-5.717,5.717v29.73c0,3.156,2.561,5.717,5.717,5.717h2.449v20.352
	c0,2.205,1.793,4,4,4h66c2.205,0,4-1.795,4-4V82.762h2.449c3.158,0,5.717-2.561,5.717-5.717v-29.73
	C108.082,44.156,105.523,41.598,102.365,41.598z M29.916,9.113h46.332v20.465c0,1.105,0.896,2,2,2h17.668v10.02h-66V9.113z
	 M67.582,72.268c1.918,0,4.043-0.42,5.297-0.92l0.957,4.963c-1.166,0.584-3.795,1.209-7.213,1.209
	c-9.717,0-14.721-6.047-14.721-14.053c0-9.592,6.838-14.93,15.346-14.93c3.293,0,5.797,0.668,6.922,1.254l-1.291,5.043
	c-1.293-0.541-3.088-1.041-5.338-1.041c-5.047,0-8.967,3.045-8.967,9.299C58.574,68.723,61.91,72.268,67.582,72.268z M24.625,48.996
	h6.965l3.42,11.885c0.959,3.338,1.834,6.549,2.5,10.051h0.125c0.709-3.377,1.586-6.713,2.543-9.924l3.588-12.012h6.756
	l-9.465,28.109h-7.426L24.625,48.996z M95.916,102.029h-66V82.762h66V102.029z M98.193,73.768
	c-2.961,2.461-7.465,3.627-12.969,3.627c-3.295,0-5.631-0.209-7.215-0.414V49.371c2.334-0.375,5.379-0.584,8.592-0.584
	c5.338,0,8.797,0.959,11.51,3.004c2.918,2.168,4.754,5.631,4.754,10.592C102.865,67.764,100.904,71.473,98.193,73.768z"/>
<path d="M87.268,53.668c-1.418,0-2.336,0.125-2.877,0.25v18.391c0.541,0.125,1.416,0.125,2.211,0.125
	c5.754,0.043,9.506-3.129,9.506-9.842C96.15,56.754,92.73,53.668,87.268,53.668z"/>
</svg>
