<?xml version="1.0" encoding="utf-8"?>
<!-- Generator: Adobe Illustrator 16.0.0, SVG Export Plug-In . SVG Version: 6.00 Build 0)  -->
<!DOCTYPE svg PUBLIC "-//W3C//DTD SVG 1.1//EN" "http://www.w3.org/Graphics/SVG/1.1/DTD/svg11.dtd">
<svg version="1.1" id="Layer_1" xmlns="http://www.w3.org/2000/svg" xmlns:xlink="http://www.w3.org/1999/xlink" x="0px" y="0px"
	 width="126px" height="126px" viewBox="0 0 126 126" enable-background="new 0 0 126 126" xml:space="preserve">
<path d="M103.207,48.521h-2.449V36.703c0-0.074-0.012-0.148-0.021-0.223c-0.004-0.469-0.154-0.93-0.475-1.295L80.596,12.721
	c-0.006-0.006-0.012-0.008-0.016-0.014c-0.117-0.131-0.254-0.24-0.398-0.334c-0.043-0.029-0.086-0.053-0.131-0.078
	c-0.125-0.068-0.258-0.125-0.395-0.166c-0.037-0.01-0.07-0.025-0.107-0.035c-0.148-0.035-0.303-0.057-0.459-0.057H30.758
	c-2.207,0-4,1.795-4,4v32.484h-2.449c-3.157,0-5.717,2.559-5.717,5.717v29.73c0,3.156,2.56,5.717,5.717,5.717h2.449v20.352
	c0,2.205,1.793,4,4,4h66c2.205,0,4-1.795,4-4V89.686h2.449c3.157,0,5.717-2.561,5.717-5.717v-29.73
	C108.924,51.08,106.364,48.521,103.207,48.521z M30.758,16.037H77.09v20.465c0,1.105,0.896,2,2,2h17.668v10.02h-66V16.037z
	 M71.255,77.935c1.852,0,3.902-0.4,5.109-0.885l0.923,4.787c-1.125,0.563-3.659,1.166-6.955,1.166
	c-9.373,0-14.198-5.832-14.198-13.553c0-9.25,6.595-14.398,14.802-14.398c3.176,0,5.59,0.643,6.674,1.205l-1.245,4.867
	c-1.248-0.523-2.977-1.004-5.147-1.004c-4.867,0-8.646,2.936-8.646,8.967C62.57,74.517,65.787,77.935,71.255,77.935z M29.826,55.495
	h6.719l3.296,11.461c0.926,3.217,1.77,6.314,2.414,9.693h0.12c0.684-3.26,1.527-6.477,2.453-9.572l3.46-11.582h6.514l-9.13,27.105
	h-7.158L29.826,55.495z M96.758,108.953h-66V89.686h66V108.953z M97.884,60.521H87.468v6.193h9.733v4.988h-9.733v10.898h-6.152
	V55.495h16.568V60.521z"/>
</svg>
