<?xml version="1.0" encoding="utf-8"?>
<!-- Generator: Adobe Illustrator 16.0.0, SVG Export Plug-In . SVG Version: 6.00 Build 0)  -->
<!DOCTYPE svg PUBLIC "-//W3C//DTD SVG 1.1//EN" "http://www.w3.org/Graphics/SVG/1.1/DTD/svg11.dtd">
<svg version="1.1" id="Layer_1" xmlns="http://www.w3.org/2000/svg" xmlns:xlink="http://www.w3.org/1999/xlink" x="0px" y="0px"
	 width="126px" height="126px" viewBox="0 0 126 126" enable-background="new 0 0 126 126" xml:space="preserve">
<path d="M92.023,60.332h-0.069c-0.349,1.395-0.697,3.174-1.08,4.535l-1.396,4.987h5.198l-1.464-4.987
	C92.791,63.472,92.375,61.727,92.023,60.332z"/>
<path d="M102.328,48.928h-2.449V37.11c0-0.074-0.012-0.148-0.021-0.223c-0.004-0.469-0.154-0.93-0.475-1.295L79.717,13.127
	c-0.006-0.006-0.012-0.008-0.016-0.014c-0.117-0.131-0.254-0.24-0.398-0.334c-0.043-0.029-0.086-0.053-0.131-0.078
	c-0.125-0.068-0.258-0.125-0.395-0.166c-0.037-0.01-0.07-0.025-0.107-0.035c-0.148-0.035-0.303-0.057-0.459-0.057H29.879
	c-2.207,0-4,1.795-4,4v32.484H23.43c-3.157,0-5.717,2.559-5.717,5.717v29.73c0,3.156,2.56,5.717,5.717,5.717h2.449v20.352
	c0,2.205,1.793,4,4,4h66c2.205,0,4-1.795,4-4V90.092h2.449c3.157,0,5.717-2.561,5.717-5.717v-29.73
	C108.045,51.487,105.485,48.928,102.328,48.928z M29.879,16.444h46.332v20.465c0,1.105,0.896,2,2,2h17.668v10.02h-66V16.444z
	 M79.256,79.863h-5.195l-0.349-8.998c-0.106-2.825-0.21-6.244-0.21-9.661h-0.105c-0.73,2.998-1.707,6.346-2.613,9.102l-2.861,9.172
	h-4.15l-2.51-9.101c-0.768-2.755-1.57-6.104-2.128-9.173h-0.07c-0.14,3.174-0.245,6.801-0.418,9.73l-0.419,8.928H53.31l1.498-23.507
	h7.081l2.302,7.847c0.733,2.72,1.464,5.65,1.988,8.405h0.104c0.663-2.719,1.464-5.824,2.233-8.438l2.51-7.813h6.939L79.256,79.863z
	 M26.662,79.863l-5.581-23.507h5.685l1.778,9.696c0.522,2.789,1.011,5.824,1.396,8.195h0.069c0.385-2.546,0.94-5.37,1.534-8.265
	l1.988-9.626h5.65l1.883,9.905c0.521,2.756,0.906,5.266,1.255,7.882h0.069c0.349-2.616,0.873-5.372,1.361-8.161l1.919-9.626h5.405
	l-6.069,23.507h-5.754l-1.988-10.115c-0.454-2.371-0.837-4.567-1.115-7.252h-0.07c-0.418,2.65-0.803,4.881-1.36,7.252l-2.231,10.115
	H26.662z M95.879,109.36h-66V90.092h66V109.36z M97.256,79.863l-1.813-6.034h-6.732l-1.674,6.034h-5.511l7.185-23.507h6.975
	l7.29,23.507H97.256z"/>
</svg>
