<?xml version="1.0" encoding="utf-8"?>
<!-- Generator: Adobe Illustrator 16.0.0, SVG Export Plug-In . SVG Version: 6.00 Build 0)  -->
<!DOCTYPE svg PUBLIC "-//W3C//DTD SVG 1.1//EN" "http://www.w3.org/Graphics/SVG/1.1/DTD/svg11.dtd">
<svg version="1.1" id="Layer_1" xmlns="http://www.w3.org/2000/svg" xmlns:xlink="http://www.w3.org/1999/xlink" x="0px" y="0px"
	 width="126px" height="126px" viewBox="0 0 126 126" enable-background="new 0 0 126 126" xml:space="preserve">
<path d="M103.207,49.021h-2.449V37.203c0-0.074-0.012-0.148-0.021-0.223c-0.004-0.469-0.154-0.93-0.475-1.295L80.596,13.22
	c-0.006-0.006-0.012-0.008-0.016-0.014c-0.117-0.131-0.254-0.24-0.398-0.334c-0.043-0.029-0.086-0.053-0.131-0.078
	c-0.125-0.068-0.258-0.125-0.395-0.166c-0.037-0.01-0.07-0.025-0.107-0.035c-0.148-0.035-0.303-0.057-0.459-0.057H30.758
	c-2.207,0-4,1.795-4,4v32.484h-2.449c-3.157,0-5.717,2.559-5.717,5.717v29.73c0,3.156,2.56,5.717,5.717,5.717h2.449v20.352
	c0,2.205,1.793,4,4,4h66c2.205,0,4-1.795,4-4V90.185h2.449c3.157,0,5.717-2.561,5.717-5.717v-29.73
	C108.924,51.58,106.364,49.021,103.207,49.021z M30.758,16.537H77.09v20.465c0,1.105,0.896,2,2,2h17.668v10.02h-66V16.537z
	 M81.979,80.146h-4.861l-0.328-8.419c-0.098-2.642-0.193-5.842-0.193-9.04h-0.1c-0.686,2.807-1.598,5.941-2.447,8.519l-2.676,8.583
	H67.49l-2.35-8.519c-0.717-2.579-1.467-5.709-1.988-8.583h-0.068c-0.129,2.969-0.229,6.364-0.389,9.105l-0.393,8.353h-4.602
	l1.404-21.992h6.623l2.152,7.341c0.686,2.545,1.371,5.286,1.861,7.864h0.096c0.621-2.544,1.373-5.449,2.09-7.896l2.35-7.308h6.494
	L81.979,80.146z M27.549,58.153h5.316l1.664,9.071c0.49,2.609,0.947,5.45,1.307,7.667h0.066c0.355-2.38,0.881-5.025,1.434-7.732
	l1.861-9.006h5.287l1.762,9.268c0.488,2.578,0.846,4.927,1.174,7.374h0.064c0.328-2.447,0.814-5.025,1.275-7.636l1.793-9.006h5.057
	l-5.678,21.992h-5.385l-1.859-9.461c-0.426-2.221-0.781-4.276-1.043-6.788H41.58c-0.393,2.479-0.754,4.567-1.273,6.788l-2.088,9.461
	h-5.451L27.549,58.153z M96.758,109.453h-66V90.185h66V109.453z M96.797,80.146h-5.809l-7.047-21.992h5.449l2.674,9.299
	c0.75,2.609,1.436,5.124,1.957,7.865h0.102c0.553-2.644,1.238-5.256,1.988-7.768l2.807-9.396h5.285L96.797,80.146z"/>
</svg>
