<?xml version="1.0" encoding="utf-8"?>
<!-- Generator: Adobe Illustrator 16.0.0, SVG Export Plug-In . SVG Version: 6.00 Build 0)  -->
<!DOCTYPE svg PUBLIC "-//W3C//DTD SVG 1.1//EN" "http://www.w3.org/Graphics/SVG/1.1/DTD/svg11.dtd">
<svg version="1.1" id="Layer_1" xmlns="http://www.w3.org/2000/svg" xmlns:xlink="http://www.w3.org/1999/xlink" x="0px" y="0px"
	 width="126px" height="126px" viewBox="0 0 126 126" enable-background="new 0 0 126 126" xml:space="preserve">
<path d="M102.328,48.429h-2.449V36.61c0-0.074-0.012-0.148-0.021-0.223c-0.004-0.469-0.154-0.93-0.475-1.295L79.717,12.628
	c-0.006-0.006-0.012-0.008-0.016-0.014c-0.117-0.131-0.254-0.24-0.398-0.334c-0.043-0.029-0.086-0.053-0.131-0.078
	c-0.125-0.068-0.258-0.125-0.395-0.166c-0.037-0.01-0.07-0.025-0.107-0.035c-0.148-0.035-0.303-0.057-0.459-0.057H29.879
	c-2.207,0-4,1.795-4,4v32.484H23.43c-3.157,0-5.717,2.559-5.717,5.717v29.73c0,3.156,2.56,5.717,5.717,5.717h2.449v20.352
	c0,2.205,1.793,4,4,4h66c2.205,0,4-1.795,4-4V89.593h2.449c3.157,0,5.717-2.561,5.717-5.717v-29.73
	C108.045,50.987,105.485,48.429,102.328,48.429z M29.879,15.944h46.332v20.465c0,1.105,0.896,2,2,2h17.668v10.02h-66V15.944z
	 M80.705,63.952c0,2.656-0.885,4.908-2.493,6.436c-2.092,1.971-5.188,2.855-8.808,2.855c-0.803,0-1.529-0.039-2.092-0.119v9.691
	h-6.071V56.071c1.89-0.322,4.545-0.564,8.283-0.564c3.782,0,6.476,0.725,8.286,2.174C79.539,59.046,80.705,61.3,80.705,63.952z
	 M23.469,55.71h6.555l2.051,11.18c0.604,3.217,1.166,6.717,1.608,9.451h0.082c0.442-2.936,1.084-6.193,1.768-9.531l2.294-11.1h6.516
	l2.171,11.42c0.604,3.178,1.046,6.074,1.447,9.09h0.08c0.405-3.016,1.009-6.193,1.571-9.41l2.212-11.1h6.232l-6.997,27.105h-6.638
	L42.13,71.153c-0.524-2.734-0.967-5.27-1.289-8.367h-0.079c-0.483,3.059-0.926,5.633-1.567,8.367l-2.575,11.662h-6.716L23.469,55.71
	z M95.879,108.86h-66V89.593h66V108.86z M91.246,83.218c-3.095,0-6.153-0.805-7.68-1.648l1.245-5.068
	c1.65,0.844,4.185,1.689,6.798,1.689c2.815,0,4.304-1.166,4.304-2.936c0-1.689-1.289-2.654-4.544-3.82
	c-4.506-1.568-7.442-4.063-7.442-8.004c0-4.625,3.862-8.164,10.258-8.164c3.056,0,5.307,0.645,6.915,1.367l-1.366,4.947
	c-1.086-0.523-3.018-1.287-5.672-1.287s-3.94,1.207-3.94,2.615c0,1.729,1.529,2.492,5.027,3.82c4.785,1.77,7.038,4.262,7.038,8.084
	C102.187,79.356,98.688,83.218,91.246,83.218z"/>
<path d="M69.847,60.132c-1.245,0-2.092,0.121-2.534,0.242v8.004c0.524,0.121,1.166,0.16,2.051,0.16c3.258,0,5.271-1.648,5.271-4.424
	C74.634,61.62,72.903,60.132,69.847,60.132z"/>
</svg>
