<?xml version="1.0" encoding="utf-8"?>
<!-- Generator: Adobe Illustrator 16.0.0, SVG Export Plug-In . SVG Version: 6.00 Build 0)  -->
<!DOCTYPE svg PUBLIC "-//W3C//DTD SVG 1.1//EN" "http://www.w3.org/Graphics/SVG/1.1/DTD/svg11.dtd">
<svg version="1.1" id="Layer_1" xmlns="http://www.w3.org/2000/svg" xmlns:xlink="http://www.w3.org/1999/xlink" x="0px" y="0px"
	 width="126px" height="126px" viewBox="0 0 126 126" enable-background="new 0 0 126 126" xml:space="preserve">
<path d="M102.495,48.944h-2.449V37.126c0-0.074-0.012-0.148-0.021-0.223c-0.004-0.469-0.154-0.93-0.475-1.295L79.883,13.144
	c-0.006-0.006-0.012-0.008-0.016-0.014c-0.117-0.131-0.254-0.24-0.398-0.334c-0.043-0.029-0.086-0.053-0.131-0.078
	c-0.125-0.068-0.258-0.125-0.395-0.166c-0.037-0.01-0.07-0.025-0.107-0.035c-0.148-0.035-0.303-0.057-0.459-0.057H30.045
	c-2.207,0-4,1.795-4,4v32.484h-2.449c-3.157,0-5.717,2.559-5.717,5.717v29.73c0,3.156,2.56,5.717,5.717,5.717h2.449v20.352
	c0,2.205,1.793,4,4,4h66c2.205,0,4-1.795,4-4V90.108h2.449c3.157,0,5.717-2.561,5.717-5.717v-29.73
	C108.211,51.503,105.652,48.944,102.495,48.944z M30.045,16.46h46.332v20.465c0,1.105,0.896,2,2,2h17.668v10.02h-66V16.46z
	 M69.148,71.588c-4.347-1.514-7.183-3.92-7.183-7.725c0-4.465,3.727-7.879,9.9-7.879c2.948,0,5.123,0.621,6.675,1.32l-1.319,4.773
	c-1.048-0.504-2.911-1.242-5.474-1.242c-2.561,0-3.803,1.164-3.803,2.523c0,1.668,1.475,2.406,4.852,3.688
	c4.618,1.707,6.792,4.113,6.792,7.803c0,4.387-3.376,8.111-10.558,8.111c-2.988,0-5.938-0.775-7.413-1.592l1.202-4.891
	c1.592,0.816,4.038,1.631,6.561,1.631c2.718,0,4.152-1.125,4.152-2.834C73.533,73.645,72.292,72.713,69.148,71.588z M26.49,56.41
	h6.328l1.979,10.793c0.583,3.105,1.126,6.48,1.552,9.121h0.079c0.426-2.836,1.048-5.979,1.707-9.199l2.214-10.715h6.289
	l2.096,11.025c0.583,3.064,1.009,5.861,1.398,8.771h0.076c0.389-2.91,0.972-5.979,1.516-9.082l2.132-10.715h6.017l-6.754,26.162
	h-6.403l-2.213-11.256c-0.505-2.641-0.931-5.086-1.242-8.074h-0.078c-0.465,2.951-0.891,5.434-1.513,8.074l-2.485,11.256H32.7
	L26.49,56.41z M96.045,109.376h-66V90.108h66V109.376z M99.578,61.262H89.524v5.979h9.394v4.813h-9.394v10.52h-5.938V56.41h15.992
	V61.262z"/>
</svg>
