<?xml version="1.0" encoding="utf-8"?>
<!-- Generator: Adobe Illustrator 16.0.0, SVG Export Plug-In . SVG Version: 6.00 Build 0)  -->
<!DOCTYPE svg PUBLIC "-//W3C//DTD SVG 1.1//EN" "http://www.w3.org/Graphics/SVG/1.1/DTD/svg11.dtd">
<svg version="1.1" id="Layer_1" xmlns="http://www.w3.org/2000/svg" xmlns:xlink="http://www.w3.org/1999/xlink" x="0px" y="0px"
	 width="126px" height="126px" viewBox="0 0 126 126" enable-background="new 0 0 126 126" xml:space="preserve">
<path d="M101.737,41.524h-2.449V29.706c0-0.074-0.012-0.148-0.021-0.223c-0.004-0.469-0.154-0.93-0.475-1.295L79.125,5.724
	C79.12,5.718,79.114,5.716,79.11,5.71c-0.117-0.131-0.254-0.24-0.398-0.334c-0.043-0.029-0.086-0.053-0.131-0.078
	c-0.125-0.068-0.258-0.125-0.395-0.166c-0.037-0.01-0.07-0.025-0.107-0.035C77.93,5.062,77.776,5.04,77.62,5.04H29.288
	c-2.207,0-4,1.795-4,4v32.484h-2.449c-3.157,0-5.717,2.559-5.717,5.717v29.73c0,3.156,2.56,5.717,5.717,5.717h2.449v20.352
	c0,2.205,1.793,4,4,4h66c2.205,0,4-1.795,4-4V82.688h2.449c3.157,0,5.717-2.561,5.717-5.717v-29.73
	C107.454,44.083,104.894,41.524,101.737,41.524z M29.288,9.04H75.62v20.465c0,1.105,0.896,2,2,2h17.668v10.02h-66V9.04z
	 M89.181,70.206h-3.69l-0.248-6.389c-0.074-2.006-0.147-4.434-0.147-6.859h-0.074c-0.521,2.129-1.213,4.506-1.857,6.463
	l-2.032,6.514h-2.945l-1.784-6.463c-0.544-1.959-1.114-4.334-1.51-6.514h-0.049c-0.1,2.254-0.173,4.828-0.298,6.91l-0.296,6.338
	h-3.492l1.065-16.691h5.027l1.634,5.572c0.521,1.932,1.04,4.012,1.412,5.969h0.074c0.471-1.934,1.04-4.137,1.585-5.994l1.783-5.547
	h4.928L89.181,70.206z M56.397,56.685v-3.17h12.828v3.17h-4.557v13.521h-3.789V56.685H56.397z M44.39,63.222v6.984h-3.788V53.515
	h3.788v6.414h6.215v-6.414h3.765v16.691h-3.765v-6.984H44.39z M28.494,70.206h-4.308l4.829-8.445l-4.656-8.246h4.333l1.461,3.047
	c0.495,1.016,0.867,1.834,1.262,2.773h0.05c0.395-1.064,0.718-1.809,1.138-2.773l1.412-3.047h4.309l-4.705,8.146l4.952,8.545h-4.358
	l-1.511-3.021c-0.619-1.164-1.016-2.031-1.486-2.998h-0.049c-0.347,0.967-0.768,1.834-1.288,2.998L28.494,70.206z M95.288,101.956
	h-66V82.688h66V101.956z M102.5,70.206H92.076V53.515h3.788v13.521h6.636V70.206z"/>
</svg>
