<?xml version="1.0" encoding="utf-8"?>
<!-- Generator: Adobe Illustrator 16.0.0, SVG Export Plug-In . SVG Version: 6.00 Build 0)  -->
<!DOCTYPE svg PUBLIC "-//W3C//DTD SVG 1.1//EN" "http://www.w3.org/Graphics/SVG/1.1/DTD/svg11.dtd">
<svg version="1.1" id="Layer_1" xmlns="http://www.w3.org/2000/svg" xmlns:xlink="http://www.w3.org/1999/xlink" x="0px" y="0px"
	 width="126px" height="126px" viewBox="0 0 126 126" enable-background="new 0 0 126 126" xml:space="preserve">
<path d="M102.494,48.944h-2.449V37.126c0-0.074-0.012-0.148-0.021-0.223c-0.004-0.469-0.154-0.93-0.475-1.295L79.883,13.144
	c-0.006-0.006-0.012-0.008-0.016-0.014c-0.117-0.131-0.254-0.24-0.398-0.334c-0.043-0.029-0.086-0.053-0.131-0.078
	c-0.125-0.068-0.258-0.125-0.395-0.166c-0.037-0.01-0.07-0.025-0.107-0.035c-0.148-0.035-0.303-0.057-0.459-0.057H30.045
	c-2.207,0-4,1.795-4,4v32.484h-2.449c-3.156,0-5.717,2.559-5.717,5.717v29.73c0,3.156,2.561,5.717,5.717,5.717h2.449v20.352
	c0,2.205,1.793,4,4,4h66c2.205,0,4-1.795,4-4V90.108h2.449c3.158,0,5.717-2.561,5.717-5.717v-29.73
	C108.211,51.503,105.652,48.944,102.494,48.944z M30.045,16.46h46.332v20.465c0,1.105,0.896,2,2,2h17.668v10.02h-66V16.46z
	 M74.34,78.484v5.65H55.756v-29.75h6.754v24.1H74.34z M26.496,84.135l8.605-15.052l-8.297-14.698h7.725l2.604,5.43
	c0.883,1.81,1.545,3.266,2.252,4.943h0.088c0.705-1.897,1.279-3.222,2.029-4.943l2.516-5.43h7.68l-8.385,14.521l8.828,15.229h-7.77
	L41.68,78.75c-1.102-2.075-1.811-3.619-2.648-5.342h-0.09c-0.617,1.723-1.365,3.267-2.293,5.342l-2.473,5.385H26.496z
	 M96.045,109.376h-66V90.108h66V109.376z M93.893,84.135c-0.488-0.839-1.191-3.266-2.074-6.929
	c-0.797-3.709-2.074-4.725-4.811-4.769h-2.031v11.697h-6.666V54.782c2.164-0.354,5.385-0.618,8.961-0.618
	c4.412,0,7.504,0.662,9.619,2.34c1.77,1.411,2.74,3.486,2.74,6.223c0,3.796-2.693,6.4-5.254,7.328v0.132
	c2.074,0.838,3.223,2.826,3.973,5.561c0.926,3.355,1.854,7.24,2.428,8.388H93.893z"/>
<path d="M88.021,59.151c-1.633,0-2.561,0.133-3.045,0.223v8.208h2.648c3.354,0,5.34-1.677,5.34-4.281
	C92.965,60.564,91.111,59.196,88.021,59.151z"/>
</svg>
