<?xml version="1.0" encoding="utf-8"?>
<!-- Generator: Adobe Illustrator 16.0.0, SVG Export Plug-In . SVG Version: 6.00 Build 0)  -->
<!DOCTYPE svg PUBLIC "-//W3C//DTD SVG 1.1//EN" "http://www.w3.org/Graphics/SVG/1.1/DTD/svg11.dtd">
<svg version="1.1" id="Layer_1" xmlns="http://www.w3.org/2000/svg" xmlns:xlink="http://www.w3.org/1999/xlink" x="0px" y="0px"
	 width="126px" height="126px" viewBox="0 0 126 126" enable-background="new 0 0 126 126" xml:space="preserve">
<path d="M102.328,48.928h-2.449V37.11c0-0.074-0.012-0.148-0.021-0.223c-0.004-0.469-0.154-0.93-0.475-1.295L79.717,13.127
	c-0.006-0.006-0.012-0.008-0.016-0.014c-0.117-0.131-0.254-0.24-0.398-0.334c-0.043-0.029-0.086-0.053-0.131-0.078
	c-0.125-0.068-0.258-0.125-0.395-0.166c-0.037-0.01-0.07-0.025-0.107-0.035c-0.148-0.035-0.303-0.057-0.459-0.057H29.879
	c-2.207,0-4,1.795-4,4v32.484H23.43c-3.157,0-5.717,2.559-5.717,5.717v29.73c0,3.156,2.56,5.717,5.717,5.717h2.449v20.352
	c0,2.205,1.793,4,4,4h66c2.205,0,4-1.795,4-4V90.092h2.449c3.157,0,5.717-2.561,5.717-5.717v-29.73
	C108.045,51.487,105.485,48.928,102.328,48.928z M29.879,16.444h46.332v20.465c0,1.105,0.896,2,2,2h17.668v10.02h-66V16.444z
	 M72.026,54.047v29.867h-6.781V54.047H72.026z M39.097,59.63v-5.583h21.668v3.9L46.852,78.154v0.175h14.136v5.584h-23.22v-3.634
	l14.225-20.471V59.63H39.097z M95.879,109.36h-66V90.092h66V109.36z M96.575,70.222c-2.304,2.171-5.715,3.145-9.704,3.145
	c-0.888,0-1.684-0.043-2.304-0.132v10.679h-6.691V54.446c2.082-0.356,5.006-0.621,9.127-0.621c4.167,0,7.134,0.797,9.13,2.393
	c1.904,1.506,3.19,3.988,3.19,6.913C99.323,66.055,98.348,68.537,96.575,70.222z"/>
<path d="M87.359,58.921c-1.376,0-2.307,0.133-2.792,0.267v8.817c0.574,0.133,1.284,0.178,2.26,0.178
	c3.588,0,5.805-1.818,5.805-4.874C92.632,60.561,90.726,58.921,87.359,58.921z"/>
</svg>
