<?xml version="1.0" encoding="iso-8859-1"?>
<!-- Generator: Adobe Illustrator 18.1.1, SVG Export Plug-In . SVG Version: 6.00 Build 0)  -->
<svg version="1.1" id="Capa_1" xmlns="http://www.w3.org/2000/svg" xmlns:xlink="http://www.w3.org/1999/xlink" x="0px" y="0px"
	 viewBox="0 0 52.039 52.039" style="enable-background:new 0 0 52.039 52.039;" xml:space="preserve">
<g>
	<path style="fill:#030104;" d="M51.927,32.406c-0.04-0.002-0.009-0.33,0.033-0.738c0.025-0.244,0.04-0.491,0.04-0.74V13.804
		c0-5.404,0.039-9.032-11.959-9.032H12.409C0,4.772,0,8.4,0,13.804v17.124c0,5.404,0,9.844,12.409,9.844h27.632
		c0.75,0,1.479-0.057,2.183-0.164c1.092-0.166,2.518,0.257,3.237,1.096c3.236,3.777,6.446,6.901,6.54,4.98
		c0.064-1.342,0.032-8.673,0.011-12.275C52.006,33.305,51.967,32.408,51.927,32.406z M26.919,8.872c2.864,0,5.186,2.322,5.186,5.186
		c0,2.865-2.322,5.188-5.186,5.188c-2.865,0-5.187-2.322-5.187-5.188C21.732,11.194,24.054,8.872,26.919,8.872z M9.412,30.792
		c-1.105-0.01-2.319-0.94-1.973-1.989c0.47-1.426,2.163-3.105,7.526-3.105c0.609,0-2.43,2.943-0.298,5.074
		C14.725,30.83,11.579,30.812,9.412,30.792z M12.584,23.367c-2.073,0-3.753-1.68-3.753-3.753c0-2.074,1.681-3.754,3.753-3.754
		c2.074,0,3.754,1.68,3.754,3.754C16.338,21.687,14.658,23.367,12.584,23.367z M34.824,30.894l-16.036-0.098
		c-1.105-0.007-2.354-0.874-2.287-1.977c0.128-2.088,1.748-5.086,10.015-5.048l0.645,0.004c8.276,0.038,9.863,3.07,9.968,5.168
		C37.185,30.046,35.929,30.901,34.824,30.894z M37.277,19.614c0-2.074,1.68-3.754,3.754-3.754c2.073,0,3.753,1.68,3.753,3.754
		c0,2.073-1.681,3.753-3.753,3.753C38.957,23.367,37.277,21.687,37.277,19.614z M44.205,30.792c-2.168,0.019-5.315,0.037-5.256-0.02
		c2.131-2.131-0.907-5.074-0.298-5.074c5.363,0,7.056,1.679,7.526,3.105C46.523,29.852,45.31,30.783,44.205,30.792z"/>
</g>
<g>
</g>
<g>
</g>
<g>
</g>
<g>
</g>
<g>
</g>
<g>
</g>
<g>
</g>
<g>
</g>
<g>
</g>
<g>
</g>
<g>
</g>
<g>
</g>
<g>
</g>
<g>
</g>
<g>
</g>
</svg>
